<?xml version="1.0" encoding="UTF-8" standalone="no"?>
<!-- Created with Inkscape (http://www.inkscape.org/) -->

<svg
        xmlns:dc="http://purl.org/dc/elements/1.1/"
        xmlns:cc="http://creativecommons.org/ns#"
        xmlns:rdf="http://www.w3.org/1999/02/22-rdf-syntax-ns#"
        xmlns:svg="http://www.w3.org/2000/svg"
        xmlns="http://www.w3.org/2000/svg"
        xmlns:sodipodi="http://sodipodi.sourceforge.net/DTD/sodipodi-0.dtd"
        xmlns:inkscape="http://www.inkscape.org/namespaces/inkscape"
        width="49.408291mm"
        height="49.40733mm"
        viewBox="0 0 49.408291 49.40733"
        version="1.1"
        id="svg1209"
        inkscape:version="0.92.1 r15371"
        sodipodi:docname="Fabe.svg">
    <defs
            id="defs1203"/>
    <sodipodi:namedview
            id="base"
            pagecolor="#ffffff"
            bordercolor="#666666"
            borderopacity="1.0"
            inkscape:pageopacity="0.0"
            inkscape:pageshadow="2"
            inkscape:zoom="1.4"
            inkscape:cx="93.371995"
            inkscape:cy="93.36797"
            inkscape:document-units="mm"
            inkscape:current-layer="layer1"
            showgrid="false"
            inkscape:window-width="1920"
            inkscape:window-height="1137"
            inkscape:window-x="-8"
            inkscape:window-y="-8"
            inkscape:window-maximized="1"
            fit-margin-top="0"
            fit-margin-left="0"
            fit-margin-right="0"
            fit-margin-bottom="0"/>
    <metadata
            id="metadata1206">
        <rdf:RDF>
            <cc:Work
                    rdf:about="">
                <dc:format>image/svg+xml</dc:format>
                <dc:type
                        rdf:resource="http://purl.org/dc/dcmitype/StillImage"/>
                <dc:title></dc:title>
            </cc:Work>
        </rdf:RDF>
    </metadata>
    <g
            inkscape:label="Ebene 1"
            inkscape:groupmode="layer"
            id="layer1"
            transform="translate(-133.50131,-177.92041)">
        <path
                d="m 167.24552,208.32394 c -0.10759,-0.89499 -0.66534,-1.26294 -1.58044,-1.15429 l -2.6095,0.31186 0.31574,2.6483 2.60949,-0.31185 c 0.91617,-0.10866 1.37372,-0.57785 1.26471,-1.49402"
                style="fill:#7b7979;fill-opacity:1;fill-rule:nonzero;stroke:none;stroke-width:0.35277775"
                id="path1734"
                inkscape:connector-curvature="0"/>
        <path
                d="m 136.90731,194.91306 c 0.95461,-0.31644 5.19782,-4.86269 6.3447,-7.22171 0.95215,-1.95898 1.97873,-1.82527 2.86738,-1.54834 0.29528,0.0931 0.43603,0.12947 0.55915,0.0811 l 0.2406,-0.0942 c 1.01035,-0.39934 1.96568,-0.77646 3.63643,-0.0942 0.24307,0.0995 0.46673,0.20144 0.67592,0.29739 1.06116,0.48507 1.22308,0.55951 1.89089,-0.36653 1.16876,-1.62031 2.05952,-3.26955 2.06799,-3.28578 l 0.56515,-1.0488 1.50495,2.10149 1.58009,0.41663 1.28199,-1.22096 0.4946,0.3302 c 0.1524,0.1016 1.50459,1.01529 2.10326,1.75719 l 0.49389,0.62477 c 0.56726,0.72037 1.34337,1.7085 1.81892,2.19145 0.54963,0.55951 0.78352,0.72708 1.62983,0.22155 0.48895,-0.29387 0.90135,-0.26353 1.16099,-0.18803 0.66358,0.19508 0.98813,0.85195 1.24848,1.37971 0.0667,0.13476 0.15734,0.31856 0.23249,0.43885 0.1023,-0.0466 0.2166,-0.11465 0.33549,-0.18485 0.58349,-0.34925 1.67146,-0.99625 2.98062,0.47766 l 0.1471,0.16581 c 1.2954,1.46261 2.03871,2.20203 3.48333,1.72896 2.24437,-0.73872 2.94252,-0.0384 3.74615,1.11513 l 0.17851,0.25471 c 0.35454,0.49283 0.79551,0.72672 1.26294,0.97472 -3.44135,-9.50383 -12.54689,-16.29657 -23.23641,-16.29657 -10.70822,0 -19.81941,6.81426 -23.24594,16.34102 l 0.43074,0.3743 c 0.0226,0.018 0.68439,0.55562 1.51977,0.27728"
                style="fill:#7b7979;fill-opacity:1;fill-rule:nonzero;stroke:none;stroke-width:0.35277775"
                id="path1738"
                inkscape:connector-curvature="0"/>
        <path
                d="m 151.7946,208.92444 -0.19474,0.0222 c 0,0 0.18557,1.38183 -0.11853,2.82011 l -0.65052,3.15912 3.1563,-0.37712 -1.37442,-2.8963 c -0.61489,-1.35008 -0.81809,-2.72803 -0.81809,-2.72803"
                style="fill:#7b7979;fill-opacity:1;fill-rule:nonzero;stroke:none;stroke-width:0.35277775"
                id="path1742"
                inkscape:connector-curvature="0"/>
        <path
                d="m 176.85082,211.38595 0.31644,2.64759 3.14042,-0.375 c 0.45791,-0.9151 0.86043,-1.86196 1.20368,-2.83739 -0.0557,0.0116 -0.115,0.0222 -0.18133,0.03 z"
                style="fill:#7b7979;fill-opacity:1;fill-rule:nonzero;stroke:none;stroke-width:0.35277775"
                id="path1746"
                inkscape:connector-curvature="0"/>
        <path
                d="m 167.5456,218.12559 -5.5492,0.66181 c -0.5849,0.0706 -0.82268,-0.0988 -0.89535,-0.70167 l -1.45979,-12.23045 c -0.072,-0.60431 0.1203,-0.82445 0.70414,-0.89465 l 5.47159,-0.65299 c 2.59044,-0.30903 4.30671,0.83009 4.58787,3.18629 0.15805,1.32362 -0.12418,2.26589 -0.99977,3.04165 l 0.01,0.079 c 1.24777,0.36477 2.06446,1.41287 2.26836,3.12596 0.29634,2.47333 -1.48837,4.06859 -4.13773,4.38503 m -8.62471,1.0287 -1.46085,0.17498 c -0.97261,0.11641 -1.28447,-0.005 -1.52647,-0.54787 l -0.82197,-1.76 -4.81048,0.57502 -0.40534,1.90641 c -0.127,0.58597 -0.3616,0.77223 -1.33491,0.88865 l -1.34374,0.16016 c -0.58525,0.0695 -0.75106,-0.16651 -0.61947,-0.71508 l 3.17606,-12.9413 c 0.12911,-0.56938 0.3496,-0.71473 0.89499,-0.77929 l 1.49896,-0.17885 c 0.54574,-0.0649 0.81315,0.0222 1.0488,0.50764 l 6.13728,11.86956 c 0.25753,0.50165 0.13194,0.77294 -0.43286,0.83997 m -13.48037,-19.72345 c 0.0614,0.31715 -0.91016,0.2286 -0.96061,-0.0317 -0.4311,-2.22709 0.93486,-2.6797 1.88383,-4.40267 0.92499,-1.68063 0.53587,-3.73768 2.71886,-4.27425 1.64006,-0.40287 3.36338,1.31621 4.49721,2.12266 1.49895,1.06645 2.56893,2.02706 3.68688,3.45581 0.13265,0.16969 -0.77293,0.20744 -0.95955,-0.031 -1.03117,-1.31727 -7.70079,-7.50676 -8.1594,-3.43358 -0.29069,2.56892 -3.21169,3.9878 -2.70722,6.59482 m -3.55353,-2.62819 c -0.2353,0.11641 -1.13912,-0.1771 -0.80892,-0.34079 1.26683,-0.62724 2.75308,-1.79035 3.16336,-3.2011 0.19509,-0.66711 0.127,-1.8214 0.6985,-2.32657 0.30762,-0.27235 0.71755,-0.33514 1.03681,-0.59584 0.2339,-0.1898 1.10984,0.1143 0.92428,0.26528 -0.42615,0.34502 -1.06962,0.40147 -1.25871,0.97649 -0.29633,0.90453 -0.28681,1.87008 -0.82726,2.68993 -0.71191,1.08021 -1.76707,1.95863 -2.92806,2.5326 m 13.48987,-11.19223 c -0.0138,-0.28187 0.96943,-0.33761 0.98919,-0.0533 0.002,0.0483 0.005,0.0974 0.008,0.1464 3.4e-4,0.005 -0.005,0.008 -0.005,0.013 0.0995,1.9745 -0.53622,3.93524 -1.10031,5.81166 -0.0769,0.25577 -1.05199,0.25365 -0.96062,-0.0529 0.56974,-1.89406 1.20932,-3.87173 1.06821,-5.86493 m 1.50636,6.98888 c 2.50649,-0.77928 4.80166,-3.75496 2.76614,-6.25439 -0.14429,-0.1771 0.76905,-0.26847 0.96026,-0.0339 0.93521,1.149 0.9913,3.34433 0.10548,4.5152 -0.77153,1.02094 -1.93887,1.7272 -3.15419,2.10432 -0.23812,0.0744 -1.1691,-0.17921 -0.67769,-0.33126 m 14.54362,4.65879 c 0.20426,-0.10231 0.47519,-0.0445 0.68086,0.0222 0.3429,0.11042 0.66605,0.34149 0.9518,0.55315 0.9211,0.68263 1.69968,1.53564 2.43275,2.41088 0.24801,0.29669 -0.70732,0.28293 -0.87559,0.0818 -0.76306,-0.91193 -1.97097,-2.4264 -3.05082,-2.7753 -0.11501,-0.037 -0.33655,-0.19403 -0.139,-0.2928 m -33.37214,3.16796 c -0.24166,0.95638 -0.78423,1.78505 -1.5427,2.41688 -0.19932,0.16898 -1.14018,0.004 -0.84208,-0.24554 0.92251,-0.77117 1.59773,-1.98825 1.40335,-3.20886 -0.15099,-0.94298 0.2734,-1.89724 0.0448,-2.78307 -0.0533,-0.20567 0.90735,-0.26282 0.98919,0.054 0.13053,0.50447 -0.0282,0.83609 -0.0988,1.32715 -0.11677,0.81421 0.24765,1.64501 0.0462,2.43946 m 36.18865,16.09019 -1.45944,-12.2301 c -0.0723,-0.60431 0.11959,-0.82444 0.70414,-0.89323 l 7.82778,-0.93592 c 0.60431,-0.0713 0.82092,0.0995 0.89289,0.70414 l 0.15628,1.30422 c 0.0699,0.58455 -0.1016,0.80292 -0.70485,0.87489 l -5.45254,0.65123 0.29951,2.51213 4.47957,-0.53552 c 0.60325,-0.0713 0.82092,0.10019 0.89112,0.68368 l 0.0875,0.73414 c 0.61066,-2.14948 0.94474,-4.41502 0.94474,-6.75993 0,-1.50636 -0.14252,-2.9785 -0.40076,-4.41043 -0.59443,-0.5528 -0.72425,-1.17475 -0.81068,-1.61219 -0.0564,-0.28822 -0.0942,-0.45791 -0.19862,-0.57433 -0.16651,-0.18626 -0.43885,-0.33055 -0.75494,-0.49847 -0.40217,-0.21273 -0.8763,-0.46532 -1.32292,-0.89782 -0.35419,0.45649 -0.70802,0.91299 -1.06186,1.37019 -0.16192,0.20884 -1.06856,-0.14993 -0.871,-0.40534 0.44167,-0.56974 0.88335,-1.13948 1.32538,-1.70956 l -0.036,-0.0512 c -0.5909,-0.84808 -0.69815,-1.00084 -2.06269,-0.55316 -2.44299,0.80433 -3.83187,-0.76835 -5.0606,-2.15547 l -0.14499,-0.16404 c -0.49353,-0.55457 -0.57432,-0.50589 -1.11019,-0.18768 -0.27411,0.16333 -0.58491,0.3489 -0.97614,0.42368 -0.29739,0.0579 -0.54715,0.006 -0.75776,-0.1083 -1.61749,0.94368 -2.99473,2.36996 -3.99274,4.01214 0.0829,0.0695 0.12171,0.14217 0.0607,0.20038 -0.1203,0.11465 -0.24095,0.21731 -0.36195,0.31997 -0.5334,0.97861 -0.93381,2.01895 -1.17264,3.06776 -0.072,0.31573 -1.03716,0.27234 -0.98919,0.0579 0.16757,-0.73414 0.41134,-1.45839 0.71685,-2.16077 -2.03412,1.03752 -4.23228,1.01424 -6.731,1.86267 -2.22391,0.75459 -4.52967,1.14653 -6.85342,1.45803 -0.24976,0.0339 -1.10666,-0.39864 -0.5909,-0.46778 2.25566,-0.30304 4.53284,-0.65335 6.68126,-1.42558 2.86103,-1.0287 6.02544,-0.91369 8.30121,-2.98591 1.09891,-1.80658 2.64372,-3.35209 4.48063,-4.33176 -0.20672,-0.25612 -0.35807,-0.5588 -0.47413,-0.7941 -0.0854,-0.1718 -0.21696,-0.4385 -0.3175,-0.56762 -1.68769,0.96943 -2.65007,0.3496 -3.44981,-0.46179 -0.5334,-0.54222 -1.30669,-1.52611 -1.92793,-2.31634 l -0.48296,-0.60996 c -0.26705,-0.33231 -0.84032,-0.78563 -1.28764,-1.11336 l -1.01,0.96238 -2.90054,-0.76483 -0.45015,-0.62759 c -0.3884,0.65194 -0.94368,1.53847 -1.58679,2.42958 -1.37901,1.91805 -2.62008,1.35044 -3.71369,0.84914 -0.19156,-0.0871 -0.39723,-0.18168 -0.61983,-0.27235 -1.12078,-0.45825 -1.62031,-0.2607 -2.52907,0.10019 l -0.24976,0.0977 c -0.61772,0.23742 -1.15147,0.0727 -1.53917,-0.0483 -0.47343,-0.14852 -0.61454,-0.19403 -1.08797,0.77929 -1.11583,2.29588 -5.61516,7.45278 -7.21219,7.98159 -0.97084,0.32385 -1.80128,0.0879 -2.33574,-0.17003 l -0.92992,1.03328 c -0.39405,1.75119 -0.60854,3.57011 -0.60854,5.44019 0,5.06942 1.52858,9.78041 4.1469,13.70118 l -0.92287,-7.73641 c -0.073,-0.60396 0.11854,-0.82445 0.70238,-0.89359 l 7.82885,-0.93486 c 0.60325,-0.0723 0.82091,0.0991 0.89358,0.7045 l 0.15628,1.3028 c 0.0702,0.58526 -0.10195,0.80328 -0.70626,0.87525 l -5.45253,0.65087 0.33232,2.78412 4.48027,-0.53481 c 0.60325,-0.072 0.82162,0.10054 0.89253,0.70485 l 0.15558,1.30387 c 0.0702,0.58455 -0.10125,0.80151 -0.7045,0.87383 l -4.47922,0.53516 0.53411,4.47957 c 0.0116,0.0959 0.0141,0.17921 0.0116,0.25682 4.41113,4.11057 10.3251,6.6287 16.83208,6.6287 8.35413,0 15.73672,-4.15114 20.20888,-10.49937 l -3.27378,0.39088 c -0.58385,0.0695 -0.82197,-0.0998 -0.89464,-0.70309"
                style="fill:#7b7979;fill-opacity:1;fill-rule:nonzero;stroke:none;stroke-width:0.35277775"
                id="path1750"
                inkscape:connector-curvature="0"
                sodipodi:nodetypes="ccccccccccccccccccccccccccccccccccccccccccccccccccccccccccccccccccccccccccccccccccccsccccccccccccccccccccccccccccccccccccccccccccccsccccccccccccccccsccc"/>
        <path
                d="m 166.67949,212.52059 -2.97956,0.3556 0.3362,2.82539 2.97956,-0.3563 c 0.97473,-0.11607 1.40723,-0.62407 1.29399,-1.57692 -0.11113,-0.93592 -0.65652,-1.36384 -1.63019,-1.24777"
                style="fill:#7b7979;fill-opacity:1;fill-rule:nonzero;stroke:none;stroke-width:0.35277775"
                id="path1754"
                inkscape:connector-curvature="0"/>
        <path
                d="m 141.35943,220.44225 -0.53446,-4.47958 4.47957,-0.53516 c 0.60325,-0.072 0.7747,-0.28928 0.7045,-0.87348 l -0.15593,-1.30422 c -0.0709,-0.6043 -0.28892,-0.77681 -0.89217,-0.70485 l -4.48028,0.53481 -0.33267,-2.78412 5.45254,-0.65052 c 0.6043,-0.0723 0.77681,-0.29033 0.70626,-0.87559 l -0.15628,-1.30281 c -0.0723,-0.60537 -0.28999,-0.77647 -0.89324,-0.7045 l -7.82919,0.93522 c -0.58385,0.0688 -0.77541,0.28927 -0.70239,0.89323 l 0.92287,7.73642 c 1.06857,1.59984 2.31987,3.06528 3.72216,4.37197 0.002,-0.0776 0,-0.16087 -0.0113,-0.25682"
                style="fill:#ffffff;fill-opacity:1;fill-rule:nonzero;stroke:none;stroke-width:0.35277775"
                id="path1758"
                inkscape:connector-curvature="0"/>
        <path
                d="m 150.83067,214.92579 0.65087,-3.15912 c 0.30374,-1.43793 0.11854,-2.82011 0.11854,-2.82011 l 0.19438,-0.0222 c 0,0 0.20355,1.3783 0.81844,2.72803 l 1.37407,2.89666 z m 2.38583,-8.48113 c -0.23565,-0.48542 -0.50306,-0.57256 -1.0488,-0.50765 l -1.49896,0.17886 c -0.54539,0.0646 -0.76588,0.2099 -0.89499,0.77929 l -3.17606,12.9413 c -0.13159,0.54892 0.0342,0.78457 0.61947,0.71508 l 1.34338,-0.16016 c 0.97367,-0.11642 1.20827,-0.30234 1.33527,-0.88865 l 0.40534,-1.90641 4.81048,-0.57503 0.82197,1.76001 c 0.24165,0.54363 0.55386,0.66463 1.52647,0.54786 l 1.46085,-0.17498 c 0.5648,-0.067 0.69039,-0.33831 0.43286,-0.83996 z"
                style="fill:#ffffff;fill-opacity:1;fill-rule:nonzero;stroke:none;stroke-width:0.35277775"
                id="path1762"
                inkscape:connector-curvature="0"/>
        <path
                d="m 167.01576,215.34524 -2.97956,0.35631 -0.3362,-2.8254 2.97956,-0.3556 c 0.97367,-0.11606 1.51906,0.31186 1.63019,1.24778 0.11324,0.95285 -0.31927,1.46085 -1.29399,1.57691 m -3.96028,-7.86376 2.60949,-0.31186 c 0.91546,-0.1083 1.4732,0.25929 1.58045,1.15429 0.10901,0.91616 -0.34855,1.38536 -1.26471,1.49437 l -2.6095,0.3115 z m 6.35952,3.13301 -0.01,-0.079 c 0.87559,-0.77575 1.15782,-1.71767 0.99977,-3.04165 -0.28116,-2.3562 -1.99743,-3.49532 -4.58787,-3.18628 l -5.47159,0.65299 c -0.58384,0.0705 -0.77611,0.29069 -0.70414,0.89464 l 1.45979,12.23045 c 0.0723,0.60325 0.31045,0.77224 0.895,0.70203 l 5.54955,-0.66216 c 2.64936,-0.31644 4.43406,-1.91171 4.13773,-4.38468 -0.20391,-1.71344 -1.02059,-2.76119 -2.26836,-3.12631"
                style="fill:#ffffff;fill-opacity:1;fill-rule:nonzero;stroke:none;stroke-width:0.35277775"
                id="path1766"
                inkscape:connector-curvature="0"/>
        <path
                d="m 177.1674,214.03351 -0.31644,-2.6476 4.47922,-0.53481 c 0.066,-0.008 0.12523,-0.0183 0.18097,-0.03 0.16616,-0.47201 0.3168,-0.95109 0.45438,-1.43545 l -0.0875,-0.73378 c -0.0706,-0.58385 -0.28822,-0.75494 -0.89147,-0.68368 l -4.47922,0.53551 -0.29986,-2.51248 5.45253,-0.65123 c 0.60325,-0.072 0.77506,-0.29033 0.70485,-0.87489 l -0.15592,-1.30386 c -0.072,-0.60466 -0.28858,-0.77541 -0.89289,-0.70415 l -7.82813,0.93557 c -0.5842,0.0691 -0.77647,0.28928 -0.70415,0.89323 l 1.4598,12.23046 c 0.0727,0.60325 0.31079,0.77258 0.89464,0.70273 l 3.27343,-0.39088 c 0.70731,-1.00436 1.34231,-2.06269 1.89582,-3.16971 z"
                style="fill:#ffffff;fill-opacity:1;fill-rule:nonzero;stroke:none;stroke-width:0.35277775"
                id="path1770"
                inkscape:connector-curvature="0"/>
    </g>
</svg>
