<?xml version="1.0" encoding="UTF-8" standalone="no"?>
<!-- Created with Inkscape (http://www.inkscape.org/) -->

<svg
        xmlns:dc="http://purl.org/dc/elements/1.1/"
        xmlns:cc="http://creativecommons.org/ns#"
        xmlns:rdf="http://www.w3.org/1999/02/22-rdf-syntax-ns#"
        xmlns:svg="http://www.w3.org/2000/svg"
        xmlns="http://www.w3.org/2000/svg"
        xmlns:sodipodi="http://sodipodi.sourceforge.net/DTD/sodipodi-0.dtd"
        xmlns:inkscape="http://www.inkscape.org/namespaces/inkscape"
        width="49.602322mm"
        height="49.602673mm"
        viewBox="0 0 49.602322 49.602673"
        version="1.1"
        id="svg1151"
        inkscape:version="0.92.1 r15371"
        sodipodi:docname="OG-Surental.svg">
    <defs
            id="defs1145"/>
    <sodipodi:namedview
            id="base"
            pagecolor="#ffffff"
            bordercolor="#666666"
            borderopacity="1.0"
            inkscape:pageopacity="0.0"
            inkscape:pageshadow="2"
            inkscape:zoom="0.35"
            inkscape:cx="1959.4509"
            inkscape:cy="-849.11981"
            inkscape:document-units="mm"
            inkscape:current-layer="layer1"
            showgrid="false"
            fit-margin-top="0"
            fit-margin-left="0"
            fit-margin-right="0"
            fit-margin-bottom="0"
            inkscape:window-width="1920"
            inkscape:window-height="1137"
            inkscape:window-x="-8"
            inkscape:window-y="-8"
            inkscape:window-maximized="1"/>
    <metadata
            id="metadata1148">
        <rdf:RDF>
            <cc:Work
                    rdf:about="">
                <dc:format>image/svg+xml</dc:format>
                <dc:type
                        rdf:resource="http://purl.org/dc/dcmitype/StillImage"/>
                <dc:title></dc:title>
            </cc:Work>
        </rdf:RDF>
    </metadata>
    <g
            inkscape:label="Ebene 1"
            inkscape:groupmode="layer"
            id="layer1"
            transform="translate(412.60473,125.43229)">
        <path
                d="m -363.00241,-100.63095 c 0,13.6973 -11.10404,24.801333 -24.80134,24.801333 -13.6973,0 -24.80098,-11.104033 -24.80098,-24.801333 0,-13.6973 11.10368,-24.80134 24.80098,-24.80134 13.6973,0 24.80134,11.10404 24.80134,24.80134"
                style="fill:#801e31;fill-opacity:1;fill-rule:nonzero;stroke:none;stroke-width:0.35277775"
                id="path695"
                inkscape:connector-curvature="0"/>
        <path
                d="m -392.62333,-91.687823 c -1.56739,0 -2.43487,0.760589 -2.43487,2.175933 v 3.34786 c 0,1.415346 0.86748,2.175933 2.43487,2.175933 1.55187,0 2.43452,-0.760587 2.43452,-2.175933 v -3.34786 c 0,-1.415344 -0.88265,-2.175933 -2.43452,-2.175933 m 0,-1.780469 c 2.78483,0 4.33705,1.521529 4.33705,3.97157 v 3.317524 c 0,2.450393 -1.55222,3.971573 -4.33705,3.971573 -2.79999,0 -4.35257,-1.52118 -4.35257,-3.971573 v -3.317524 c 0,-2.450041 1.55258,-3.97157 4.35257,-3.97157"
                style="fill:#ffffff;fill-opacity:1;fill-rule:nonzero;stroke:none;stroke-width:0.35277775"
                id="path699"
                inkscape:connector-curvature="0"/>
        <path
                d="m -377.7402,-87.837959 v 2.039057 c 0,2.069745 -1.55222,3.591277 -4.33705,3.591277 -2.79999,0 -4.35257,-1.521532 -4.35257,-3.971573 v -3.332692 c 0,-2.434871 1.55258,-3.956402 4.35257,-3.956402 2.23697,0 3.56094,0.897819 4.13879,2.541058 0.13723,0.365125 0.0459,0.532694 -0.31926,0.669925 l -0.83714,0.288925 c -0.36513,0.136877 -0.51753,0.06103 -0.65405,-0.319264 -0.33514,-0.928511 -1.06539,-1.400175 -2.32834,-1.400175 -1.58256,0 -2.43487,0.760589 -2.43487,2.160764 v 3.363032 c 0,1.415343 0.86748,2.175933 2.43487,2.175933 1.55187,0 2.46486,-0.76059 2.46486,-1.79564 v -0.790927 h -2.29764 c -0.38029,0 -0.51717,-0.137231 -0.51717,-0.533048 v -0.73025 c 0,-0.395816 0.13688,-0.517525 0.51717,-0.517525 h 3.65231 c 0.39546,0 0.51752,0.121709 0.51752,0.517525"
                style="fill:#ffffff;fill-opacity:1;fill-rule:nonzero;stroke:none;stroke-width:0.35277775"
                id="path703"
                inkscape:connector-curvature="0"/>
        <path
                d="m -409.01857,-88.679228 c 1.74167,-0.575381 6.65657,-6.217356 7.87824,-8.730895 0.55774,-1.146882 0.76411,-1.082323 1.31692,-0.911225 0.41381,0.12982 0.98037,0.305858 1.62807,0.0568 l 0.27058,-0.107595 c 1.02552,-0.403932 1.5882,-0.627593 2.85891,-0.110773 0.24765,0.100541 0.47448,0.20461 0.68721,0.302331 1.22625,0.559858 2.49308,1.142294 3.96452,-0.902407 0.74788,-1.039638 1.38959,-2.071508 1.81786,-2.796468 l 0.56197,0.78599 3.10586,0.82126 1.1303,-1.08091 c 0.50518,0.36619 1.18886,0.90276 1.50283,1.29117 l 0.53058,0.670278 c 0.68263,0.868187 1.53211,1.949097 2.11526,2.538941 0.86254,0.879475 1.90394,1.550458 3.71475,0.430038 0.12206,0.07197 0.33478,0.501295 0.44908,0.732364 0.13759,0.278696 0.30762,0.623006 0.54011,0.900289 0.26317,0.406752 0.90593,0.532342 1.20332,0.471311 0.41381,-0.08008 0.74718,-0.278694 1.04352,-0.454025 0.59125,-0.353484 0.75036,-0.446262 1.34761,0.225779 l 0.15663,0.176387 c 1.33068,1.503892 2.83845,3.21169 5.46418,2.347384 1.06186,-0.347486 1.47037,-0.367946 1.82985,-0.04939 -0.0321,-0.543632 -0.0861,-1.081972 -0.15381,-1.615017 -0.52952,-0.08467 -1.20226,-0.0032 -2.12407,0.298802 -1.64571,0.542573 -2.52695,-0.334434 -3.94018,-1.933575 l -0.15945,-0.178859 c -1.38677,-1.557866 -2.49379,-0.900287 -3.15454,-0.505528 -0.16334,0.09737 -0.31891,0.189439 -0.45826,0.241652 -0.096,-0.135115 -0.22472,-0.3937 -0.30797,-0.562327 -0.29246,-0.593022 -0.62477,-1.265063 -1.31304,-1.46685 -0.26494,-0.07479 -0.68863,-0.107598 -1.19768,0.197908 -1.00295,0.600075 -1.31304,0.354187 -1.917,-0.26388 -0.5274,-0.5334 -1.38359,-1.623482 -2.00907,-2.418992 l -0.54222,-0.6844 c -0.6484,-0.80327 -2.12478,-1.80128 -2.29164,-1.91381 l -0.47943,-0.31997 -1.3917,1.33103 -1.82634,-0.48331 -1.58503,-2.21297 -0.54539,1.01458 c -0.0102,0.0169 -0.99307,1.83762 -2.28212,3.625855 -0.78211,1.086557 -1.02764,0.97155 -2.20239,0.43568 -0.22895,-0.105833 -0.47413,-0.217311 -0.74154,-0.326672 -1.8034,-0.733423 -2.83598,-0.326673 -3.92889,0.105834 l -0.26176,0.102305 c -0.17145,0.06456 -0.36089,0.0127 -0.68015,-0.08608 -0.98249,-0.309382 -2.02424,-0.432152 -3.03777,1.652765 -1.26894,2.61126 -5.97747,7.645751 -7.03757,7.99747 -0.9779,0.319619 -1.74342,-0.302327 -1.77059,-0.3242 l -0.36865,-0.319968 c 0,0.01482 -0.001,0.02893 -0.001,0.04374 0,0.59549 0.0293,1.183569 0.072,1.767769 0.56868,0.280106 1.46685,0.542925 2.51918,0.194381"
                style="fill:#ffffff;fill-opacity:1;fill-rule:nonzero;stroke:none;stroke-width:0.35277775"
                id="path707"
                inkscape:connector-curvature="0"/>
        <path
                d="m -404.0528,-113.05706 c 1.06539,0 1.60938,0.38735 1.95968,1.12466 0.0815,0.17145 0.037,0.26106 -0.14181,0.3429 l -0.40993,0.17851 c -0.16369,0.0744 -0.23072,0.0448 -0.32032,-0.1263 -0.20073,-0.39511 -0.49918,-0.62618 -1.08762,-0.62618 -0.72284,0 -1.08056,0.22366 -1.08056,0.6858 0,0.53622 0.61137,0.63288 1.28941,0.70732 0.87877,0.0974 1.89194,0.31291 1.89194,1.55716 0,0.99095 -0.75247,1.66899 -2.12301,1.66899 -1.155,0 -1.74343,-0.43956 -2.04894,-1.24424 -0.067,-0.18627 -0.0222,-0.26812 0.15628,-0.32773 l 0.40993,-0.14923 c 0.17145,-0.0593 0.24624,-0.0219 0.32068,0.15628 0.18591,0.43991 0.58067,0.69321 1.16205,0.69321 0.76729,0 1.18463,-0.23848 1.18463,-0.77505 0,-0.514 -0.55175,-0.62548 -1.17722,-0.69251 -0.90876,-0.097 -2.02636,-0.23847 -2.02636,-1.54199 0,-0.9465 0.70026,-1.6316 2.04117,-1.6316"
                style="fill:#ffffff;fill-opacity:1;fill-rule:nonzero;stroke:none;stroke-width:0.35277775"
                id="path711"
                inkscape:connector-curvature="0"/>
        <path
                d="m -398.95611,-108.41584 c 0.76729,0 1.14723,-0.38735 1.14723,-1.05093 v -3.22544 c 0,-0.18627 0.067,-0.2533 0.25365,-0.2533 h 0.42439 c 0.19368,0 0.2533,0.067 0.2533,0.2533 v 3.21839 c 0,1.16946 -0.70768,1.92969 -2.07857,1.92969 -1.37089,0 -2.08597,-0.76023 -2.08597,-1.92969 v -3.21839 c 0,-0.18627 0.067,-0.2533 0.25329,-0.2533 h 0.4318 c 0.18662,0 0.25365,0.067 0.25365,0.2533 v 3.22544 c 0,0.66358 0.37994,1.05093 1.14723,1.05093"
                style="fill:#ffffff;fill-opacity:1;fill-rule:nonzero;stroke:none;stroke-width:0.35277775"
                id="path715"
                inkscape:connector-curvature="0"/>
        <path
                d="m -393.47222,-112.07383 h -1.28869 v 1.53459 h 1.28869 c 0.49919,0 0.78247,-0.26811 0.78247,-0.76694 0,-0.49213 -0.27588,-0.76765 -0.78247,-0.76765 m 1.76566,0.76765 c 0,0.77435 -0.36477,1.2961 -0.98319,1.5046 0.0967,0.0822 0.17109,0.18626 0.23847,0.32067 l 0.81915,1.57163 c 0.0748,0.14146 0.0596,0.25329 -0.12664,0.25329 h -0.4318 c -0.32033,0 -0.41769,-0.037 -0.50695,-0.22366 l -0.62582,-1.26647 c -0.19368,-0.40958 -0.37254,-0.52176 -0.88653,-0.52176 h -0.55104 v 1.7586 c 0,0.18626 -0.0674,0.25329 -0.2533,0.25329 h -0.42474 c -0.19368,0 -0.2607,-0.067 -0.2607,-0.25329 v -4.78297 c 0,-0.18626 0.067,-0.25329 0.2607,-0.25329 h 2.05634 c 1.03505,0 1.67605,0.61101 1.67605,1.63936"
                style="fill:#ffffff;fill-opacity:1;fill-rule:nonzero;stroke:none;stroke-width:0.35277775"
                id="path719"
                inkscape:connector-curvature="0"/>
        <path
                d="m -387.19111,-112.69225 v 0.36477 c 0,0.18662 -0.067,0.25365 -0.26071,0.25365 h -2.27965 v 1.30352 h 1.9297 c 0.18591,0 0.25294,0.0674 0.25294,0.25364 v 0.36477 c 0,0.18627 -0.067,0.2533 -0.25294,0.2533 h -1.9297 v 1.37125 h 2.3615 c 0.19367,0 0.25329,0.0667 0.25329,0.25259 v 0.36547 c 0,0.18627 -0.0596,0.2533 -0.25329,0.2533 h -3.03953 c -0.19368,0 -0.26071,-0.067 -0.26071,-0.2533 v -4.78296 c 0,-0.18626 0.067,-0.25329 0.26071,-0.25329 h 2.95768 c 0.19368,0 0.26071,0.067 0.26071,0.25329"
                style="fill:#ffffff;fill-opacity:1;fill-rule:nonzero;stroke:none;stroke-width:0.35277775"
                id="path723"
                inkscape:connector-curvature="0"/>
        <path
                d="m -382.02761,-112.69225 v 4.78296 c 0,0.18627 -0.0596,0.2533 -0.25329,0.2533 h -0.42475 c -0.12629,0 -0.18591,-0.03 -0.24553,-0.12665 l -1.82527,-2.69699 c -0.35031,-0.5214 -0.58103,-1.20685 -0.61102,-1.25165 h -0.0444 c 0,0.06 0.16334,0.77505 0.16334,1.48272 v 2.33927 c 0,0.18627 -0.0667,0.2533 -0.25294,0.2533 h -0.39476 c -0.19367,0 -0.26106,-0.067 -0.26106,-0.2533 v -4.78296 c 0,-0.18626 0.0674,-0.25329 0.26106,-0.25329 h 0.42475 c 0.13405,0 0.19332,0.0448 0.24553,0.11924 l 1.81045,2.68181 c 0.37995,0.56621 0.58879,1.20721 0.62583,1.26683 h 0.0445 c 0,-0.0748 -0.16369,-0.75248 -0.16369,-1.5053 v -2.30929 c 0,-0.18626 0.067,-0.25329 0.2533,-0.25329 h 0.39476 c 0.19367,0 0.25329,0.067 0.25329,0.25329"
                style="fill:#ffffff;fill-opacity:1;fill-rule:nonzero;stroke:none;stroke-width:0.35277775"
                id="path727"
                inkscape:connector-curvature="0"/>
        <path
                d="m -377.21413,-112.69225 v 0.36477 c 0,0.18662 -0.067,0.25365 -0.2533,0.25365 h -1.28164 v 4.16454 c 0,0.18627 -0.0667,0.2533 -0.25294,0.2533 h -0.43215 c -0.18627,0 -0.25365,-0.067 -0.25365,-0.2533 v -4.16454 h -1.28129 c -0.19332,0 -0.25294,-0.067 -0.25294,-0.25365 v -0.36477 c 0,-0.18626 0.0596,-0.25329 0.25294,-0.25329 h 3.50167 c 0.18627,0 0.2533,0.067 0.2533,0.25329"
                style="fill:#ffffff;fill-opacity:1;fill-rule:nonzero;stroke:none;stroke-width:0.35277775"
                id="path731"
                inkscape:connector-curvature="0"/>
        <path
                d="m -375.04543,-112.089 h -0.0522 c 0,0.007 -0.007,0.44732 -0.16369,0.90205 l -0.57397,1.57904 h 1.53458 l -0.56585,-1.57198 c -0.15664,-0.46179 -0.17145,-0.9017 -0.17886,-0.90911 m 2.19745,4.43301 h -0.38699 c -0.31327,0 -0.40253,-0.0448 -0.46214,-0.22366 l -0.34255,-0.96097 h -2.05634 l -0.35031,0.96097 c -0.0596,0.17885 -0.14887,0.22366 -0.46179,0.22366 h -0.34255 c -0.18626,0 -0.23106,-0.0818 -0.17145,-0.24589 l 1.86232,-4.84223 c 0.067,-0.1718 0.14146,-0.20884 0.31327,-0.20884 h 0.39475 c 0.1711,0 0.2533,0.037 0.31292,0.20108 l 1.86231,4.84999 c 0.0596,0.16404 0.0152,0.24589 -0.17145,0.24589"
                style="fill:#ffffff;fill-opacity:1;fill-rule:nonzero;stroke:none;stroke-width:0.35277775"
                id="path735"
                inkscape:connector-curvature="0"/>
        <path
                d="m -370.96231,-112.69225 v 4.1649 h 2.13818 c 0.18627,0 0.25295,0.0667 0.25295,0.25259 v 0.36547 c 0,0.18627 -0.0667,0.2533 -0.25295,0.2533 h -2.81622 c -0.19368,0 -0.2607,-0.067 -0.2607,-0.2533 v -4.78296 c 0,-0.18626 0.067,-0.25329 0.2607,-0.25329 h 0.42474 c 0.18627,0 0.2533,0.067 0.2533,0.25329"
                style="fill:#ffffff;fill-opacity:1;fill-rule:nonzero;stroke:none;stroke-width:0.35277775"
                id="path739"
                inkscape:connector-curvature="0"/>
    </g>
</svg>
