<?xml version="1.0" encoding="utf-8"?>
<!-- Generator: Adobe Illustrator 25.2.1, SVG Export Plug-In . SVG Version: 6.00 Build 0)  -->
<svg version="1.1" id="Ebene_1" xmlns="http://www.w3.org/2000/svg" xmlns:xlink="http://www.w3.org/1999/xlink" x="0px" y="0px"
     viewBox="0 0 398.81 141.56" style="enable-background:new 0 0 398.81 141.56;" xml:space="preserve">
<style type="text/css">
	.st0{fill:#646363;}
	.st1{fill:#FFFFFF;}
	.st2{fill:#404040;}
</style>
    <g>
	<path class="st0" d="M127.21,62.22c-2.1-1.35-2.44-3.09-2.67-4.24c-0.12-0.63-0.21-1-0.44-1.26c-0.36-0.41-0.96-0.73-1.66-1.09
		c-0.88-0.47-1.92-1.02-2.91-1.97c-0.78,1-1.55,2.01-2.33,3.01c-0.36,0.46-2.35-0.33-1.91-0.89c0.97-1.25,1.94-2.5,2.91-3.75
		l-0.08-0.11c-1.29-1.86-1.53-2.2-4.53-1.21c-5.37,1.77-8.41-1.69-11.11-4.73l-0.32-0.36c-1.08-1.22-1.26-1.11-2.44-0.41
		c-0.6,0.36-1.28,0.77-2.14,0.93c-0.66,0.13-1.2,0.01-1.67-0.24c-3.55,2.07-6.58,5.2-8.76,8.81c0.18,0.15,0.27,0.31,0.13,0.44
		c-0.26,0.25-0.53,0.48-0.8,0.7c-1.17,2.15-2.05,4.43-2.57,6.73c-0.16,0.69-2.28,0.6-2.17,0.13c0.37-1.61,0.9-3.2,1.57-4.74
		c-4.47,2.28-9.29,2.23-14.78,4.09c-4.88,1.66-9.94,2.52-15.05,3.2c-0.55,0.07-2.43-0.88-1.3-1.03c4.95-0.67,9.95-1.43,14.67-3.13
		c6.28-2.26,13.23-2.01,18.22-6.55c2.41-3.97,5.8-7.36,9.84-9.51c-0.46-0.56-0.79-1.23-1.04-1.75c-0.19-0.38-0.48-0.96-0.7-1.25
		c-3.71,2.13-5.82,0.77-7.58-1.01c-1.17-1.19-2.87-3.35-4.23-5.09l-1.06-1.34c-0.59-0.73-1.84-1.72-2.83-2.44l-2.22,2.11l-6.37-1.68
		l-0.99-1.38c-0.85,1.43-2.07,3.38-3.48,5.33c-3.03,4.21-5.75,2.96-8.15,1.86c-0.42-0.19-0.87-0.4-1.36-0.6
		c-2.46-1.01-3.56-0.57-5.55,0.22l-0.55,0.21c-1.36,0.52-2.53,0.16-3.38-0.11c-1.04-0.33-1.35-0.42-2.39,1.71
		c-2.45,5.04-12.33,16.36-15.83,17.52c-2.13,0.71-3.95,0.19-5.13-0.37L22,57.11c-1.11,4.32-1.69,8.84-1.69,13.5
		c0,15.37,6.4,29.24,16.68,39.11c-0.49-1.25-0.11-2.01,1.32-2.7l4.15-2.06c1.59-0.76,2.25-0.56,3.19,1.07
		c1.39,2.44,3.03,3.57,5.94,3.22c3.88-0.46,5.52-2.68,5.03-6.79l-2.93-24.52c-0.2-1.71,0.3-2.35,2.01-2.55l4.73-0.56
		c1.65-0.2,2.35,0.3,2.55,2.01l2.92,24.46c1.08,9.07-3.45,15.21-13.37,16.4c-1.76,0.21-3.37,0.21-4.86,0.02
		c7.92,4.53,17.09,7.13,26.88,7.13c29.95,0,54.24-24.28,54.24-54.24c0-3.25-0.3-6.42-0.85-9.51L127.21,62.22z M28.73,66.37
		c-0.53,2.1-1.72,3.92-3.39,5.31c-0.44,0.37-2.51,0.01-1.85-0.54c2.03-1.69,3.51-4.36,3.08-7.04c-0.33-2.07,0.6-4.17,0.1-6.11
		c-0.12-0.45,1.99-0.58,2.17,0.12c0.29,1.11-0.06,1.84-0.22,2.92C28.37,62.8,29.17,64.63,28.73,66.37z M70.06,49.19
		c5.5-1.71,10.54-8.25,6.07-13.73c-0.32-0.39,1.69-0.59,2.11-0.07c2.05,2.52,2.18,7.34,0.23,9.91c-1.69,2.24-4.26,3.79-6.92,4.62
		C71.03,50.08,68.98,49.52,70.06,49.19z M66.76,33.84c-0.03-0.62,2.13-0.74,2.17-0.12c0,0.11,0.01,0.21,0.02,0.32
		c0,0.01-0.01,0.02-0.01,0.02c0.22,4.34-1.18,8.64-2.42,12.76c-0.17,0.56-2.31,0.56-2.11-0.12C65.66,42.56,67.06,38.22,66.76,33.84z
		 M37.14,58.42c-0.52,0.26-2.5-0.39-1.78-0.75c2.78-1.38,6.05-3.93,6.95-7.03c0.43-1.46,0.28-4,1.53-5.11
		c0.67-0.6,1.57-0.74,2.28-1.31c0.51-0.42,2.44,0.25,2.03,0.58c-0.93,0.76-2.35,0.88-2.76,2.14c-0.65,1.99-0.63,4.11-1.82,5.91
		C42,55.23,39.69,57.16,37.14,58.42z M50.88,49.71c-0.64,5.64-7.05,8.76-5.94,14.48c0.14,0.7-2,0.5-2.11-0.07
		c-0.95-4.89,2.05-5.88,4.13-9.67c2.03-3.69,1.18-8.21,5.97-9.38c3.6-0.88,7.38,2.89,9.87,4.66c3.29,2.34,5.64,4.45,8.09,7.59
		c0.29,0.37-1.7,0.46-2.11-0.07C66.53,54.35,51.89,40.77,50.88,49.71z M92.31,112.94c-10.78,1.29-17.52-3.87-18.65-13.33L72.29,88.1
		c-1.13-9.46,4.21-16.06,14.98-17.34c10.83-1.29,17.58,3.86,18.71,13.32l1.37,11.51C108.48,105.05,103.14,111.65,92.31,112.94z
		 M109,66.15c-1.68-2-4.33-5.33-6.7-6.09c-0.25-0.08-0.74-0.43-0.31-0.64c0.45-0.22,1.04-0.1,1.5,0.05
		c0.75,0.24,1.46,0.75,2.09,1.22c2.02,1.5,3.73,3.37,5.34,5.29C111.46,66.62,109.36,66.59,109,66.15z"/>
        <path class="st0" d="M96.66,85.01c-0.53-4.45-3.53-6.34-8.38-5.76c-4.79,0.57-7.26,3.12-6.73,7.57l1.42,11.86
		c0.53,4.45,3.53,6.34,8.32,5.77c4.84-0.58,7.32-3.13,6.79-7.57L96.66,85.01z"/>
        <path class="st0" d="M26.21,54.27c2.09-0.69,11.41-10.68,13.93-15.85c2.09-4.3,4.34-4.01,6.3-3.4c0.65,0.2,0.96,0.28,1.23,0.18
		l0.53-0.21c2.22-0.88,4.31-1.7,7.99-0.21c0.53,0.22,1.02,0.44,1.48,0.65c2.33,1.07,2.69,1.23,4.15-0.8
		c2.57-3.56,4.52-7.18,4.54-7.21l1.24-2.3l3.3,4.61l3.47,0.91l2.81-2.68l1.09,0.73c0.33,0.22,3.3,2.23,4.62,3.86l1.09,1.37
		c1.24,1.58,2.95,3.75,3.99,4.81c1.21,1.23,1.72,1.6,3.58,0.49c1.07-0.65,1.98-0.58,2.55-0.41c1.46,0.43,2.17,1.87,2.74,3.03
		c0.15,0.3,0.35,0.7,0.51,0.96c0.23-0.1,0.48-0.25,0.74-0.41c1.28-0.76,3.67-2.19,6.54,1.05l0.32,0.36c2.85,3.21,4.47,4.84,7.65,3.8
		c4.93-1.62,6.46-0.09,8.22,2.45l0.39,0.56c0.78,1.08,1.75,1.6,2.78,2.14c0.79,0.42,1.6,0.87,2.3,1.55
		c-6.93-21.98-27.47-37.92-51.74-37.92c-24.07,0-44.46,15.68-51.55,37.38C23.37,54.02,24.64,54.79,26.21,54.27z"/>
        <path class="st1" d="M52.52,117.69c9.92-1.18,14.45-7.33,13.37-16.4l-2.92-24.46c-0.2-1.71-0.9-2.2-2.55-2.01l-4.73,0.56
		c-1.71,0.2-2.21,0.85-2.01,2.55l2.93,24.52c0.49,4.1-1.15,6.32-5.03,6.79c-2.91,0.35-4.55-0.78-5.94-3.22
		c-0.95-1.62-1.61-1.83-3.19-1.07l-4.15,2.06c-1.43,0.69-1.81,1.45-1.32,2.7c3.21,3.08,6.79,5.77,10.68,8
		C49.15,117.9,50.76,117.9,52.52,117.69z"/>
        <path class="st1" d="M105.98,84.08c-1.13-9.46-7.88-14.61-18.71-13.32C76.5,72.04,71.16,78.63,72.29,88.1l1.37,11.51
		c1.13,9.46,7.87,14.61,18.65,13.33c10.83-1.29,16.17-7.89,15.04-17.35L105.98,84.08z M91.29,104.44c-4.79,0.57-7.79-1.32-8.32-5.77
		l-1.42-11.86c-0.53-4.45,1.94-7,6.73-7.57c4.85-0.58,7.85,1.32,8.38,5.76l1.42,11.86C98.61,101.32,96.14,103.87,91.29,104.44z"/>
        <path class="st1" d="M27.23,57.36c3.5-1.16,13.38-12.48,15.83-17.52c1.04-2.13,1.35-2.04,2.39-1.71c0.85,0.27,2.02,0.63,3.38,0.11
		l0.55-0.21c1.99-0.79,3.09-1.23,5.55-0.22c0.49,0.2,0.94,0.41,1.36,0.6c2.4,1.1,5.12,2.35,8.15-1.86c1.41-1.96,2.63-3.9,3.48-5.33
		l0.99,1.38l6.37,1.68l2.22-2.11c0.98,0.72,2.24,1.72,2.83,2.44l1.06,1.34c1.36,1.74,3.06,3.89,4.23,5.09
		c1.76,1.78,3.87,3.14,7.58,1.01c0.22,0.28,0.51,0.87,0.7,1.25c0.25,0.52,0.58,1.18,1.04,1.75c0.51-0.27,1.03-0.53,1.56-0.76
		c0.5-0.22,2.6,0.07,1.57,0.52c-0.73,0.32-1.45,0.7-2.14,1.1c0.46,0.25,1.01,0.36,1.67,0.24c0.86-0.16,1.54-0.57,2.14-0.93
		c1.17-0.7,1.35-0.81,2.44,0.41l0.32,0.36c2.7,3.04,5.75,6.5,11.11,4.73c3-0.98,3.23-0.65,4.53,1.21l0.08,0.11
		c0.24-0.3,0.47-0.61,0.71-0.91c0.36-0.46,2.35,0.33,1.91,0.89c-0.43,0.55-0.86,1.11-1.29,1.66c0.98,0.95,2.02,1.5,2.91,1.97
		c0.69,0.37,1.29,0.69,1.66,1.09c0.23,0.26,0.31,0.63,0.44,1.26c0.23,1.15,0.57,2.88,2.67,4.24l0.72-1.12
		c-0.41-2.32-0.96-4.59-1.65-6.8c-0.7-0.69-1.51-1.13-2.3-1.55c-1.03-0.54-2-1.06-2.78-2.14l-0.39-0.56
		c-1.77-2.53-3.3-4.07-8.22-2.45c-3.17,1.04-4.8-0.58-7.65-3.8l-0.32-0.36c-2.87-3.24-5.26-1.81-6.54-1.05
		c-0.26,0.15-0.51,0.3-0.74,0.41c-0.16-0.26-0.36-0.67-0.51-0.96c-0.57-1.16-1.29-2.6-2.74-3.03c-0.57-0.17-1.48-0.23-2.55,0.41
		c-1.86,1.11-2.37,0.74-3.58-0.49c-1.04-1.06-2.75-3.23-3.99-4.81l-1.09-1.37c-1.31-1.63-4.28-3.63-4.62-3.86l-1.09-0.73l-2.81,2.68
		l-3.47-0.91l-3.3-4.61l-1.24,2.3c-0.02,0.04-1.98,3.66-4.54,7.21c-1.46,2.03-1.82,1.87-4.15,0.8c-0.46-0.21-0.95-0.43-1.48-0.65
		c-3.67-1.5-5.77-0.67-7.99,0.21l-0.53,0.21c-0.27,0.11-0.58,0.02-1.23-0.18c-1.95-0.61-4.21-0.9-6.3,3.4
		c-2.52,5.18-11.83,15.16-13.93,15.85c-1.56,0.52-2.84-0.25-3.22-0.52c-0.36,1.11-0.7,2.23-0.99,3.36l0.11-0.12
		C23.28,57.55,25.1,58.07,27.23,57.36z"/>
        <path class="st1" d="M94.94,45.02c-4.03,2.15-7.42,5.54-9.84,9.51c0.08-0.08,0.17-0.14,0.25-0.22c0.32-0.31,1.37,0.01,1.81,0.38
		c2.19-3.6,5.21-6.73,8.76-8.81C95.54,45.67,95.22,45.36,94.94,45.02z"/>
        <path class="st1" d="M81.76,62.69c-0.11,0.47,2.01,0.56,2.17-0.13c0.52-2.3,1.4-4.58,2.57-6.73c-1.04,0.88-2.09,1.57-3.17,2.12
		C82.66,59.49,82.13,61.08,81.76,62.69z"/>
        <path class="st1" d="M96.5,44.25c-0.53,0.23-1.05,0.49-1.56,0.76c0.28,0.35,0.6,0.65,0.99,0.86c0.7-0.41,1.41-0.78,2.14-1.1
		C99.1,44.33,97,44.04,96.5,44.25z"/>
        <path class="st1" d="M105.58,60.68c-0.63-0.46-1.33-0.97-2.09-1.22c-0.45-0.15-1.05-0.27-1.5-0.05c-0.43,0.22,0.05,0.56,0.31,0.64
		c2.37,0.77,5.02,4.09,6.7,6.09c0.37,0.44,2.47,0.47,1.92-0.18C109.31,64.05,107.6,62.18,105.58,60.68z"/>
        <path class="st1" d="M118.55,52.5l-0.34-0.48c-0.97,1.25-1.94,2.5-2.91,3.75c-0.44,0.56,1.55,1.35,1.91,0.89
		c0.78-1,1.55-2.01,2.33-3.01C119.2,53.32,118.87,52.94,118.55,52.5z"/>
        <path class="st1" d="M118.92,51.1c-0.24,0.3-0.47,0.61-0.71,0.91l0.34,0.48c0.32,0.44,0.65,0.82,1,1.15
		c0.43-0.55,0.86-1.11,1.29-1.66C121.27,51.43,119.28,50.64,118.92,51.1z"/>
        <path class="st1" d="M68.8,57.25c0.41,0.52,2.4,0.44,2.11,0.07c-2.45-3.14-4.8-5.25-8.09-7.59c-2.49-1.77-6.27-5.54-9.87-4.66
		c-4.79,1.18-3.94,5.69-5.97,9.38c-2.08,3.78-5.08,4.78-4.13,9.67c0.11,0.57,2.24,0.77,2.11,0.07c-1.11-5.72,5.31-8.84,5.94-14.48
		C51.89,40.77,66.53,54.35,68.8,57.25z"/>
        <path class="st1" d="M71.55,49.92c2.67-0.83,5.23-2.38,6.92-4.62c1.95-2.57,1.82-7.39-0.23-9.91c-0.42-0.52-2.42-0.31-2.11,0.07
		c4.47,5.49-0.57,12.02-6.07,13.73C68.98,49.52,71.03,50.08,71.55,49.92z"/>
        <path class="st1" d="M28.84,58.1c-0.18-0.69-2.29-0.57-2.17-0.12c0.5,1.95-0.43,4.04-0.1,6.11c0.43,2.68-1.06,5.35-3.08,7.04
		c-0.65,0.55,1.41,0.91,1.85,0.54c1.66-1.39,2.85-3.21,3.39-5.31c0.44-1.74-0.36-3.57-0.1-5.36C28.78,59.94,29.13,59.21,28.84,58.1z
		"/>
        <path class="st1" d="M45.38,46.95c0.41-1.26,1.83-1.39,2.76-2.14c0.41-0.33-1.51-1-2.03-0.58c-0.7,0.57-1.6,0.71-2.28,1.31
		c-1.26,1.11-1.11,3.64-1.53,5.11c-0.9,3.1-4.16,5.65-6.95,7.03c-0.72,0.36,1.26,1,1.78,0.75c2.55-1.26,4.87-3.19,6.43-5.56
		C44.75,51.06,44.73,48.94,45.38,46.95z"/>
        <path class="st1" d="M68.94,34.05c-0.01-0.11-0.01-0.21-0.02-0.32c0.01,0.12,0,0.23,0.01,0.35C68.94,34.06,68.95,34.06,68.94,34.05
		z"/>
        <path class="st1" d="M68.94,34.07c0-0.12,0-0.23-0.01-0.35c-0.72,0.04-1.45,0.08-2.17,0.12c0.01,0.11,0.01,0.21,0.02,0.32
		C66.81,34.78,68.91,34.67,68.94,34.07z"/>
        <path class="st1" d="M66.76,33.84c0.72-0.04,1.45-0.08,2.17-0.12C68.88,33.1,66.72,33.23,66.76,33.84z"/>
        <path class="st1" d="M66.52,46.84c1.24-4.12,2.63-8.43,2.42-12.76c-0.03,0.6-2.12,0.71-2.16,0.09c-0.01-0.11-0.01-0.21-0.02-0.32
		c0.31,4.38-1.09,8.72-2.34,12.88C64.21,47.39,66.35,47.4,66.52,46.84z"/>
        <path class="st1" d="M87.3,55.13c0.13-0.13,0.05-0.29-0.13-0.44c-0.23,0.38-0.45,0.76-0.66,1.15
		C86.77,55.61,87.04,55.38,87.3,55.13z"/>
        <path class="st1" d="M66.88,61.08c-4.72,1.7-9.71,2.47-14.67,3.13c-1.13,0.15,0.75,1.1,1.3,1.03c5.1-0.68,10.17-1.55,15.05-3.2
		c5.49-1.86,10.31-1.81,14.78-4.09c0.51-1.17,1.1-2.32,1.77-3.42C80.11,59.07,73.16,58.82,66.88,61.08z"/>
        <path class="st1" d="M85.36,54.31c-0.08,0.08-0.17,0.14-0.25,0.22c-0.67,1.1-1.26,2.25-1.77,3.42c1.08-0.55,2.13-1.24,3.17-2.12
		c0.21-0.39,0.43-0.77,0.66-1.15C86.73,54.32,85.68,54,85.36,54.31z"/>
</g>
    <g>
	<path d="M162.93,56.07V82.8c0,0.6-0.2,0.8-0.8,0.8h-1.28c-0.64,0-0.84-0.2-0.84-0.8V58.79l-8.42,4.67
		c-0.56,0.32-0.88,0.24-1.16-0.28l-0.6-1.08c-0.28-0.48-0.16-0.76,0.36-1.04l9.73-5.46c0.4-0.24,0.6-0.32,1.12-0.32h1.08
		C162.73,55.28,162.93,55.47,162.93,56.07z"/>
        <path d="M189.66,74.1v1c0,0.6-0.2,0.8-0.8,0.8h-3.67v6.9c0,0.6-0.2,0.8-0.8,0.8h-1.16c-0.6,0-0.8-0.2-0.8-0.8v-6.9h-14.2
		c-0.6,0-0.8-0.2-0.8-0.8v-0.84c0-0.52,0.04-0.64,0.28-0.96L182,55.51c0.36-0.44,0.56-0.56,1.12-0.56h1.24c0.64,0,0.84,0.2,0.84,0.8
		V73.3h3.67C189.46,73.3,189.66,73.5,189.66,74.1z M170.87,73.3h11.57V58.94L170.87,73.3z"/>
        <path d="M215.26,72.43v1c0,0.6-0.2,0.8-0.8,0.8h-16.47c-0.56,0-0.76-0.2-0.76-0.8v-1c0-0.6,0.2-0.8,0.76-0.8h16.47
		C215.06,71.63,215.26,71.83,215.26,72.43z"/>
        <path d="M232.77,54.72c5.58,0,9.13,3.91,9.13,8.54c0,6.06-3.95,8.02-10.41,10.57c-2.95,1.12-6.1,2.27-6.1,5.5v1.56h15.48
		c0.6,0,0.8,0.2,0.8,0.8v1.12c0,0.6-0.2,0.8-0.8,0.8H223.2c-0.6,0-0.84-0.2-0.84-0.8v-2.91c0-5.34,4.11-7.1,8.3-8.73
		c4.15-1.6,8.22-2.95,8.22-7.78c0-3.31-2.47-5.98-6.18-5.98c-3.83,0-6.02,1.6-7.46,4.79c-0.24,0.56-0.44,0.68-1,0.48L223,62.18
		c-0.56-0.2-0.72-0.44-0.48-1C224.28,57.07,227.35,54.72,232.77,54.72z"/>
        <path d="M256.31,54.72c5.58,0,9.13,3.91,9.13,8.54c0,6.06-3.95,8.02-10.41,10.57c-2.95,1.12-6.1,2.27-6.1,5.5v1.56h15.48
		c0.6,0,0.8,0.2,0.8,0.8v1.12c0,0.6-0.2,0.8-0.8,0.8h-17.67c-0.6,0-0.84-0.2-0.84-0.8v-2.91c0-5.34,4.11-7.1,8.3-8.73
		c4.15-1.6,8.22-2.95,8.22-7.78c0-3.31-2.47-5.98-6.18-5.98c-3.83,0-6.02,1.6-7.46,4.79c-0.24,0.56-0.44,0.68-1,0.48l-1.24-0.48
		c-0.56-0.2-0.72-0.44-0.48-1C247.81,57.07,250.89,54.72,256.31,54.72z"/>
        <path d="M295.84,56.03V74.7c0,5.86-3.39,9.49-9.65,9.49c-5.42,0-8.3-2.79-9.41-7.46c-0.2-0.56-0.08-0.84,0.48-1.04l1.28-0.44
		c0.52-0.2,0.8-0.08,1,0.52c0.8,3.63,2.67,5.7,6.66,5.7c4.43,0,6.74-2.51,6.74-6.74V56.03c0-0.56,0.16-0.76,0.76-0.76h1.36
		C295.64,55.28,295.84,55.47,295.84,56.03z"/>
        <path d="M308.64,62.49c6.34,0,7.98,3.59,7.98,7.9v10.45c0,1.4-0.32,1.79-1.44,2.27c-1.48,0.64-3.59,1.04-6.62,1.04
		c-6.94,0-8.62-2.19-8.62-6.18c0-4.59,2.51-6.18,8.78-6.18c2.35,0,4.51,0.32,5.22,0.4v-1.83c0-3.11-1.04-5.46-5.38-5.46
		c-2.79,0-4.55,1.08-5.58,2.91c-0.32,0.44-0.48,0.56-1,0.32l-0.96-0.4c-0.52-0.2-0.68-0.48-0.4-1.04
		C302.02,64.05,304.61,62.49,308.64,62.49z M308.44,74.02c-4.31,0-5.74,1.2-5.74,3.91c0,2.51,1,3.99,5.66,3.99
		c2.23,0,3.71-0.24,4.83-0.64c0.6-0.24,0.76-0.4,0.76-1.16v-5.74C313.15,74.3,310.76,74.02,308.44,74.02z"/>
        <path d="M324.24,54.8v8.81c1.24-0.56,3.47-1.12,6.26-1.12c5.46,0,7.94,2.87,7.94,7.82v12.56c0,0.56-0.2,0.72-0.72,0.72h-1.28
		c-0.52,0-0.72-0.16-0.72-0.72V70.39c0-3.51-1.75-5.42-5.58-5.42c-2.47,0-4.63,0.52-5.9,1.16v16.75c0,0.56-0.16,0.72-0.72,0.72
		h-1.24c-0.56,0-0.72-0.16-0.72-0.72V54.8c0-0.56,0.16-0.72,0.72-0.72h1.24C324.08,54.08,324.24,54.24,324.24,54.8z"/>
        <path d="M353.4,62.49c0.56,0,0.72,0.2,0.72,0.72v1.04c0,0.52-0.16,0.72-0.72,0.72h-1.32c-2.27,0-4.07,0.4-5.26,0.84
		c-0.64,0.28-0.68,0.6-0.68,1.04v16.03c0,0.56-0.2,0.72-0.72,0.72h-1.28c-0.52,0-0.72-0.16-0.72-0.72V65.96
		c0-1.24,0.32-1.71,1.52-2.23c1.48-0.56,3.75-1.16,7.22-1.24H353.4z"/>
        <path d="M364.25,62.49c5.98,0,8.85,3.47,8.85,8.26v2.19c0,0.68-0.32,1.12-1.2,1.12h-13.8v2.31c0,3.39,2.03,5.46,5.98,5.46
		c3.27,0,5.15-1.32,6.26-3.31c0.36-0.48,0.64-0.56,1.16-0.28l0.84,0.44c0.52,0.28,0.6,0.64,0.28,1.16c-1.4,2.51-3.95,4.31-8.54,4.31
		c-5.98,0-8.66-3.27-8.66-8.06v-5.19C355.43,65.65,358.46,62.49,364.25,62.49z M364.25,64.81c-4.07,0-6.14,2.23-6.14,5.78v1.4h12.33
		v-1.4C370.43,67.04,368.36,64.81,364.25,64.81z"/>
</g>
</svg>
