<?xml version="1.0" encoding="UTF-8" standalone="no"?>
<!-- Created with Inkscape (http://www.inkscape.org/) -->

<svg
        xmlns:dc="http://purl.org/dc/elements/1.1/"
        xmlns:cc="http://creativecommons.org/ns#"
        xmlns:rdf="http://www.w3.org/1999/02/22-rdf-syntax-ns#"
        xmlns:svg="http://www.w3.org/2000/svg"
        xmlns="http://www.w3.org/2000/svg"
        xmlns:sodipodi="http://sodipodi.sourceforge.net/DTD/sodipodi-0.dtd"
        xmlns:inkscape="http://www.inkscape.org/namespaces/inkscape"
        width="189.36333"
        height="187.47466"
        viewBox="0 0 50.102378 49.602672"
        version="1.1"
        id="svg3820"
        inkscape:version="0.92.1 r15371"
        sodipodi:docname="Aktive.svg">
    <defs
            id="defs3814"/>
    <sodipodi:namedview
            id="base"
            pagecolor="#ffffff"
            bordercolor="#666666"
            borderopacity="1.0"
            inkscape:pageopacity="0.0"
            inkscape:pageshadow="2"
            inkscape:zoom="0.35"
            inkscape:cx="-262.46119"
            inkscape:cy="13.737517"
            inkscape:document-units="mm"
            inkscape:current-layer="layer1"
            showgrid="false"
            units="px"
            inkscape:pagecheckerboard="false"
            inkscape:window-width="1920"
            inkscape:window-height="1137"
            inkscape:window-x="-8"
            inkscape:window-y="-8"
            inkscape:window-maximized="1"
            fit-margin-top="0"
            fit-margin-left="0"
            fit-margin-right="0"
            fit-margin-bottom="0"/>
    <metadata
            id="metadata3817">
        <rdf:RDF>
            <cc:Work
                    rdf:about="">
                <dc:format>image/svg+xml</dc:format>
                <dc:type
                        rdf:resource="http://purl.org/dc/dcmitype/StillImage"/>
                <dc:title></dc:title>
            </cc:Work>
        </rdf:RDF>
    </metadata>
    <g
            inkscape:label="Ebene 1"
            inkscape:groupmode="layer"
            id="layer1"
            transform="translate(-175.27619,-133.10343)">
        <path
                d="m 224.87851,157.90476 c 0,13.6973 -11.10403,24.80134 -24.80134,24.80134 -13.69695,0 -24.80098,-11.10404 -24.80098,-24.80134 0,-13.6973 11.10403,-24.80133 24.80098,-24.80133 13.69731,0 24.80134,11.10403 24.80134,24.80133"
                style="fill:#283e64;fill-opacity:1;fill-rule:nonzero;stroke:none;stroke-width:0.35277775"
                id="path78"
                inkscape:connector-curvature="0"/>
        <path
                d="m 188.65366,146.44658 h -0.0519 c 0,0.007 -0.008,0.44732 -0.16404,0.9017 l -0.57361,1.57903 h 1.53458 l -0.56621,-1.57198 c -0.15663,-0.46143 -0.17145,-0.90135 -0.17886,-0.90875 m 2.19746,4.43265 h -0.387 c -0.31292,0 -0.40252,-0.0448 -0.46214,-0.22331 l -0.34255,-0.96097 h -2.05634 l -0.34995,0.96097 c -0.06,0.17851 -0.14923,0.22331 -0.46179,0.22331 h -0.3429 c -0.18591,0 -0.23072,-0.0818 -0.1711,-0.24589 l 1.86232,-4.84223 c 0.067,-0.17145 0.14146,-0.20849 0.31291,-0.20849 h 0.39511 c 0.1711,0 0.25294,0.037 0.31291,0.20073 l 1.86232,4.84999 c 0.0596,0.16404 0.0148,0.24589 -0.1718,0.24589"
                style="fill:#ffffff;fill-opacity:1;fill-rule:nonzero;stroke:none;stroke-width:0.35277775"
                id="path82"
                inkscape:connector-curvature="0"/>
        <path
                d="m 195.69444,150.87937 h -0.43215 c -0.32033,0 -0.41699,-0.037 -0.50624,-0.22366 l -0.75248,-1.51236 c -0.20108,-0.40217 -0.37288,-0.52105 -0.88688,-0.52105 h -0.37959 v 2.00378 c 0,0.18626 -0.067,0.25329 -0.25365,0.25329 h -0.42439 c -0.19367,0 -0.26105,-0.067 -0.26105,-0.25329 v -4.78261 c 0,-0.18662 0.0674,-0.25365 0.26105,-0.25365 h 0.42439 c 0.18662,0 0.25365,0.067 0.25365,0.25365 v 1.92899 h 0.29775 0.097 l 1.49719,-1.97379 c 0.1344,-0.17886 0.20884,-0.20885 0.50658,-0.20885 h 0.47696 c 0.17145,0 0.21625,0.11924 0.11889,0.24589 l -1.66123,2.12337 c 0.3503,0.15628 0.58843,0.4318 0.80503,0.84913 l 0.9458,1.81787 c 0.0744,0.14181 0.0596,0.25329 -0.12665,0.25329"
                style="fill:#ffffff;fill-opacity:1;fill-rule:nonzero;stroke:none;stroke-width:0.35277775"
                id="path86"
                inkscape:connector-curvature="0"/>
        <path
                d="m 200.24746,145.84333 v 0.36477 c 0,0.18626 -0.067,0.25329 -0.25365,0.25329 h -1.28129 v 4.1649 c 0,0.18591 -0.067,0.25294 -0.25294,0.25294 h -0.4325 c -0.18627,0 -0.2533,-0.067 -0.2533,-0.25294 v -4.1649 h -1.28164 c -0.19332,0 -0.25294,-0.067 -0.25294,-0.25329 v -0.36477 c 0,-0.18627 0.0596,-0.25365 0.25294,-0.25365 h 3.50167 c 0.18662,0 0.25365,0.0674 0.25365,0.25365"
                style="fill:#ffffff;fill-opacity:1;fill-rule:nonzero;stroke:none;stroke-width:0.35277775"
                id="path90"
                inkscape:connector-curvature="0"/>
        <path
                d="m 201.30579,145.58979 h 0.42439 c 0.18627,0 0.25365,0.067 0.25365,0.25364 v 4.78261 c 0,0.18627 -0.0674,0.2533 -0.25365,0.2533 h -0.42439 c -0.19367,0 -0.2607,-0.067 -0.2607,-0.2533 v -4.78261 c 0,-0.18662 0.067,-0.25364 0.2607,-0.25364"
                style="fill:#ffffff;fill-opacity:1;fill-rule:nonzero;stroke:none;stroke-width:0.35277775"
                id="path94"
                inkscape:connector-curvature="0"/>
        <path
                d="m 207.35537,145.83574 -1.78047,4.83482 c -0.0667,0.17145 -0.14147,0.20885 -0.31292,0.20885 h -0.39476 c -0.17145,0 -0.2607,-0.0374 -0.31256,-0.20109 l -1.78823,-4.84258 c -0.06,-0.16404 -0.0152,-0.24588 0.16369,-0.24588 h 0.37994 c 0.31292,0 0.40252,0.0448 0.46214,0.22366 l 1.08762,3.17359 c 0.11924,0.35031 0.18626,0.76729 0.19367,0.78987 h 0.0448 c 0.0152,-0.0226 0.0819,-0.43251 0.19332,-0.78246 l 1.08056,-3.181 c 0.0596,-0.17886 0.14888,-0.22366 0.46179,-0.22366 h 0.35771 c 0.18627,0 0.23072,0.0818 0.16369,0.24588"
                style="fill:#ffffff;fill-opacity:1;fill-rule:nonzero;stroke:none;stroke-width:0.35277775"
                id="path98"
                inkscape:connector-curvature="0"/>
        <path
                d="m 211.61766,145.84333 v 0.36477 c 0,0.18626 -0.0667,0.25329 -0.2607,0.25329 h -2.27965 v 1.30387 h 1.9297 c 0.18626,0 0.25294,0.067 0.25294,0.25329 v 0.36513 c 0,0.18627 -0.0667,0.25329 -0.25294,0.25329 h -1.9297 v 1.3709 h 2.3615 c 0.19367,0 0.25329,0.0667 0.25329,0.25294 v 0.36548 c 0,0.18591 -0.0596,0.25294 -0.25329,0.25294 h -3.03954 c -0.19367,0 -0.2607,-0.067 -0.2607,-0.25294 v -4.78296 c 0,-0.18627 0.067,-0.25365 0.2607,-0.25365 h 2.95769 c 0.19403,0 0.2607,0.0674 0.2607,0.25365"
                style="fill:#ffffff;fill-opacity:1;fill-rule:nonzero;stroke:none;stroke-width:0.35277775"
                id="path102"
                inkscape:connector-curvature="0"/>
        <path
                d="m 180.26041,177.95249 c 1.74202,-0.57538 6.65692,-6.21736 7.87823,-8.73054 0.5581,-1.14724 0.76447,-1.08268 1.31692,-0.91158 0.41381,0.12982 0.98073,0.30621 1.62807,0.0568 l 0.27058,-0.1076 c 1.02588,-0.40393 1.58821,-0.62759 2.85927,-0.11077 0.24729,0.10054 0.47413,0.20461 0.68686,0.30233 1.22625,0.55986 2.49343,1.1423 3.96451,-0.9024 0.74789,-1.03964 1.38959,-2.07151 1.81787,-2.79612 l 0.56197,0.78599 3.10586,0.82091 1.1303,-1.08091 c 0.50517,0.36618 1.18921,0.90276 1.50318,1.29152 l 0.53023,0.66992 c 0.68262,0.86854 1.53211,1.9491 2.11525,2.53895 0.8629,0.87947 1.90394,1.55045 3.71475,0.43003 0.12242,0.072 0.33479,0.5013 0.44909,0.73237 0.13758,0.27869 0.30762,0.623 0.5401,0.90029 0.26317,0.40675 0.90629,0.53234 1.20333,0.47131 0.41381,-0.0801 0.74718,-0.2787 1.04351,-0.45403 0.59126,-0.35313 0.75036,-0.44626 1.34761,0.22613 l 0.15699,0.17604 c 1.33033,1.50389 2.8381,3.21169 5.46382,2.34738 1.06222,-0.34713 1.47038,-0.36759 1.82986,-0.0494 -0.0321,-0.54363 -0.0861,-1.08161 -0.15381,-1.61501 -0.52952,-0.0847 -1.20191,-0.003 -2.12408,0.29915 -1.6457,0.54222 -2.52694,-0.33443 -3.94017,-1.93393 l -0.15946,-0.17886 c -1.38676,-1.55786 -2.49378,-0.90028 -3.15453,-0.50552 -0.16334,0.0974 -0.31892,0.18944 -0.45826,0.24165 -0.096,-0.13512 -0.22472,-0.3937 -0.30798,-0.56233 -0.2921,-0.59302 -0.62477,-1.26471 -1.31304,-1.46685 -0.26493,-0.0748 -0.68862,-0.1076 -1.19732,0.19791 -1.0033,0.60007 -1.3134,0.35419 -1.91735,-0.26388 -0.5274,-0.5334 -1.3836,-1.62348 -2.00872,-2.419 l -0.54257,-0.68439 c -0.64841,-0.80327 -2.12478,-1.80128 -2.29129,-1.91381 l -0.47978,-0.31998 -1.39136,1.33104 -1.82633,-0.48331 -1.58503,-2.21298 -0.54574,1.01459 c -0.0102,0.0169 -0.99307,1.83762 -2.28212,3.62585 -0.78211,1.08691 -1.02729,0.97155 -2.20239,0.43569 -0.22896,-0.10584 -0.47378,-0.21732 -0.74154,-0.32668 -1.80305,-0.73342 -2.83598,-0.32667 -3.92889,0.10584 l -0.26176,0.1023 c -0.17145,0.0646 -0.36089,0.0127 -0.68016,-0.0861 -0.98248,-0.30938 -2.02388,-0.43215 -3.03777,1.65277 -1.26858,2.61126 -5.97746,7.64575 -7.03756,7.99747 -0.9779,0.31961 -1.74343,-0.30198 -1.77059,-0.3242 l -0.36865,-0.31961 c 0,0.0145 -0.001,0.0286 -0.001,0.0434 0,0.59549 0.0293,1.18357 0.072,1.76777 0.56868,0.28045 1.46685,0.54292 2.51919,0.19438"
                style="fill:#ffffff;fill-opacity:1;fill-rule:nonzero;stroke:none;stroke-width:0.35277775"
                id="path262"
                inkscape:connector-curvature="0"/>
    </g>
</svg>
