<?xml version="1.0" encoding="UTF-8" standalone="no"?>
<!-- Created with Inkscape (http://www.inkscape.org/) -->

<svg
        xmlns:dc="http://purl.org/dc/elements/1.1/"
        xmlns:cc="http://creativecommons.org/ns#"
        xmlns:rdf="http://www.w3.org/1999/02/22-rdf-syntax-ns#"
        xmlns:svg="http://www.w3.org/2000/svg"
        xmlns="http://www.w3.org/2000/svg"
        xmlns:sodipodi="http://sodipodi.sourceforge.net/DTD/sodipodi-0.dtd"
        xmlns:inkscape="http://www.inkscape.org/namespaces/inkscape"
        width="49.602318mm"
        height="49.602669mm"
        viewBox="0 0 49.602318 49.602669"
        version="1.1"
        id="svg4016"
        inkscape:version="0.92.1 r15371"
        sodipodi:docname="Stamm-Wandergruppe.svg">
    <defs
            id="defs4010"/>
    <sodipodi:namedview
            id="base"
            pagecolor="#ffffff"
            bordercolor="#666666"
            borderopacity="1.0"
            inkscape:pageopacity="0.0"
            inkscape:pageshadow="2"
            inkscape:zoom="0.35"
            inkscape:cx="93.736665"
            inkscape:cy="93.737335"
            inkscape:document-units="mm"
            inkscape:current-layer="layer1"
            showgrid="false"
            fit-margin-top="0"
            fit-margin-left="0"
            fit-margin-right="0"
            fit-margin-bottom="0"
            inkscape:window-width="1920"
            inkscape:window-height="1137"
            inkscape:window-x="-8"
            inkscape:window-y="-8"
            inkscape:window-maximized="1"/>
    <metadata
            id="metadata4013">
        <rdf:RDF>
            <cc:Work
                    rdf:about="">
                <dc:format>image/svg+xml</dc:format>
                <dc:type
                        rdf:resource="http://purl.org/dc/dcmitype/StillImage"/>
                <dc:title></dc:title>
            </cc:Work>
        </rdf:RDF>
    </metadata>
    <g
            inkscape:label="Ebene 1"
            inkscape:groupmode="layer"
            id="layer1"
            transform="translate(-81.032174,-124.032)">
        <path
                d="m 130.63449,148.83333 c 0,13.69731 -11.10403,24.80134 -24.80133,24.80134 -13.697306,0 -24.800986,-11.10403 -24.800986,-24.80134 0,-13.6973 11.10368,-24.80133 24.800986,-24.80133 13.6973,0 24.80133,11.10403 24.80133,24.80133"
                style="fill:#283e64;fill-opacity:1;fill-rule:nonzero;stroke:none;stroke-width:0.35277775"
                id="path166"
                inkscape:connector-curvature="0"/>
        <path
                d="m 96.906645,132.75732 -1.128889,4.44042 c -0.04092,0.16439 -0.129823,0.19155 -0.287514,0.19155 h -0.376414 c -0.164042,0 -0.252942,-0.0342 -0.287161,-0.18485 l -0.718256,-2.71604 c -0.05503,-0.21907 -0.102658,-0.51329 -0.109361,-0.77293 h -0.04833 c -0.0067,0.25964 -0.05433,0.53375 -0.116064,0.76623 l -0.725311,2.71604 c -0.04128,0.16439 -0.130175,0.19155 -0.287161,0.19155 h -0.369359 c -0.164747,0 -0.253647,-0.0272 -0.294216,-0.18485 -0.237462,-0.23746 -1.122539,-4.44712 -1.122539,-4.44712 -0.04092,-0.15734 -0.02011,-0.22578 0.150989,-0.22578 h 0.479072 c 0.191205,0 0.273403,0.0342 0.307622,0.20532 l 0.560917,2.552 c 0.04763,0.23918 0.09596,0.79375 0.109714,0.91651 h 0.04057 c 0.0071,-0.14358 0.06879,-0.64946 0.137231,-0.91651 l 0.691091,-2.53154 c 0.04763,-0.17074 0.136525,-0.20531 0.307622,-0.20531 h 0.369712 c 0.1778,0 0.2667,0.0346 0.307622,0.20531 l 0.677686,2.53154 c 0.07514,0.29421 0.136172,0.78669 0.143228,0.91651 h 0.04128 c 0.0071,-0.10901 0.06844,-0.64276 0.123119,-0.90981 l 0.547511,-2.5587 c 0.03387,-0.1711 0.116417,-0.20532 0.307975,-0.20532 h 0.416983 c 0.164395,0 0.191559,0.0684 0.150637,0.22578"
                style="fill:#ffffff;fill-opacity:1;fill-rule:nonzero;stroke:none;stroke-width:0.35277775"
                id="path170"
                inkscape:connector-curvature="0"
                sodipodi:nodetypes="ccssccccccssccssccccccssccccccssc"/>
        <path
                d="m 99.170771,133.31852 h -0.04763 c 0,0.007 -0.0067,0.41028 -0.150636,0.82797 l -0.526697,1.45027 h 1.408994 l -0.519283,-1.44357 c -0.143934,-0.42439 -0.157692,-0.82762 -0.164748,-0.83467 m 2.018599,4.0707 h -0.35596 c -0.28751,0 -0.36936,-0.0409 -0.42368,-0.20531 l -0.31503,-0.88265 h -1.888423 l -0.321733,0.88265 c -0.05468,0.16439 -0.136525,0.20531 -0.424039,0.20531 h -0.314678 c -0.171097,0 -0.212372,-0.0751 -0.157339,-0.22578 l 1.710267,-4.44711 c 0.06174,-0.15734 0.130175,-0.19156 0.287514,-0.19156 h 0.362655 c 0.157339,0 0.232481,0.0342 0.287161,0.1845 l 1.710615,4.45417 c 0.0547,0.15064 0.0138,0.22578 -0.15733,0.22578"
                style="fill:#ffffff;fill-opacity:1;fill-rule:nonzero;stroke:none;stroke-width:0.35277775"
                id="path174"
                inkscape:connector-curvature="0"/>
        <path
                d="m 105.86872,132.76424 v 4.39243 c 0,0.1711 -0.0543,0.23248 -0.23248,0.23248 h -0.39018 c -0.11606,0 -0.17074,-0.0272 -0.22542,-0.11641 l -1.6764,-2.4765 c -0.32138,-0.47908 -0.5334,-1.10843 -0.56092,-1.14935 h -0.0413 c 0,0.0547 0.15064,0.71155 0.15064,1.36137 v 2.14841 c 0,0.1711 -0.0614,0.23248 -0.23284,0.23248 h -0.3623 c -0.1778,0 -0.23953,-0.0614 -0.23953,-0.23248 v -4.39243 c 0,-0.17075 0.0617,-0.23249 0.23953,-0.23249 h 0.38982 c 0.12347,0 0.1778,0.0409 0.22578,0.10937 l 1.66264,2.46309 c 0.3489,0.51964 0.54046,1.10808 0.57468,1.16311 h 0.0409 c 0,-0.0688 -0.15064,-0.69109 -0.15064,-1.38218 v -2.1209 c 0,-0.17075 0.0617,-0.23249 0.23283,-0.23249 h 0.36266 c 0.17815,0 0.23248,0.0617 0.23248,0.23249"
                style="fill:#ffffff;fill-opacity:1;fill-rule:nonzero;stroke:none;stroke-width:0.35277775"
                id="path178"
                inkscape:connector-curvature="0"/>
        <path
                d="m 108.76329,133.33196 h -0.91687 v 3.25649 h 0.91687 c 0.71826,0 1.12219,-0.34854 1.12219,-0.99871 v -1.25871 c 0,-0.65017 -0.40393,-0.99907 -1.12219,-0.99907 m 1.97697,1.00612 v 1.24496 c 0,1.11513 -0.7112,1.80622 -1.98402,1.80622 h -1.53247 c -0.1778,0 -0.23954,-0.0617 -0.23954,-0.23248 v -4.39244 c 0,-0.1711 0.0617,-0.23283 0.23954,-0.23283 h 1.53247 c 1.27282,0 1.98402,0.69109 1.98402,1.80657"
                style="fill:#ffffff;fill-opacity:1;fill-rule:nonzero;stroke:none;stroke-width:0.35277775"
                id="path182"
                inkscape:connector-curvature="0"/>
        <path
                d="m 114.90004,132.76424 v 0.33513 c 0,0.17145 -0.0617,0.23248 -0.23954,0.23248 h -2.09338 v 1.19769 h 1.77165 c 0.17145,0 0.23248,0.0617 0.23248,0.23248 v 0.33514 c 0,0.17145 -0.061,0.23248 -0.23248,0.23248 h -1.77165 v 1.25906 h 2.16853 c 0.1778,0 0.23247,0.0617 0.23247,0.23283 v 0.33514 c 0,0.1711 -0.0547,0.23248 -0.23247,0.23248 h -2.79154 c -0.1778,0 -0.23953,-0.0614 -0.23953,-0.23248 v -4.39243 c 0,-0.17075 0.0617,-0.23249 0.23953,-0.23249 h 2.71639 c 0.1778,0 0.23954,0.0617 0.23954,0.23249"
                style="fill:#ffffff;fill-opacity:1;fill-rule:nonzero;stroke:none;stroke-width:0.35277775"
                id="path186"
                inkscape:connector-curvature="0"/>
        <path
                d="m 117.87593,133.33196 h -1.18321 v 1.40935 h 1.18321 c 0.45861,0 0.71826,-0.24624 0.71826,-0.7045 0,-0.45156 -0.25294,-0.70485 -0.71826,-0.70485 m 1.62172,0.70485 c 0,0.71155 -0.33549,1.19027 -0.90346,1.38183 0.0893,0.0755 0.15734,0.1711 0.21907,0.29422 l 0.75283,1.44392 c 0.0681,0.12982 0.0543,0.23248 -0.11642,0.23248 h -0.39687 c -0.29422,0 -0.38312,-0.0342 -0.46496,-0.20532 l -0.57503,-1.16311 c -0.1778,-0.37606 -0.34219,-0.47872 -0.81421,-0.47872 h -0.50588 v 1.61467 c 0,0.17074 -0.0617,0.23248 -0.23319,0.23248 h -0.38982 c -0.1778,0 -0.23954,-0.0617 -0.23954,-0.23248 v -4.39244 c 0,-0.1711 0.0617,-0.23283 0.23954,-0.23283 h 1.88842 c 0.95109,0 1.53952,0.56091 1.53952,1.5053"
                style="fill:#ffffff;fill-opacity:1;fill-rule:nonzero;stroke:none;stroke-width:0.35277775"
                id="path190"
                inkscape:connector-curvature="0"/>
        <path
                d="m 122.28907,135.42556 v 0.30127 c 0,0.1778 -0.0617,0.23248 -0.23248,0.23248 h -1.57374 c -0.1778,0 -0.23248,-0.0547 -0.23248,-0.23248 v -0.30127 c 0,-0.17075 0.0547,-0.23249 0.23248,-0.23249 h 1.57374 c 0.17075,0 0.23248,0.0617 0.23248,0.23249"
                style="fill:#ffffff;fill-opacity:1;fill-rule:nonzero;stroke:none;stroke-width:0.35277775"
                id="path194"
                inkscape:connector-curvature="0"/>
        <path
                d="m 97.464069,143.17048 v 0.91686 c 0,0.93028 -0.698148,1.61467 -1.949803,1.61467 -1.259064,0 -1.956858,-0.68439 -1.956858,-1.78576 v -1.4986 c 0,-1.09432 0.697794,-1.77871 1.956858,-1.77871 1.005769,0 1.601258,0.40393 1.860903,1.1423 0.06174,0.16439 0.02082,0.23989 -0.143581,0.30127 l -0.376414,0.13017 c -0.164042,0.0614 -0.23248,0.0272 -0.294217,-0.14358 -0.150283,-0.41769 -0.479072,-0.62971 -1.046691,-0.62971 -0.711553,0 -1.09467,0.34185 -1.09467,0.97191 v 1.51165 c 0,0.63641 0.390173,0.97825 1.09467,0.97825 0.697794,0 1.108428,-0.34184 1.108428,-0.80715 v -0.35596 H 95.58976 c -0.17145,0 -0.232833,-0.061 -0.232833,-0.23918 v -0.32843 c 0,-0.1778 0.06138,-0.23249 0.232833,-0.23249 h 1.641828 c 0.178153,0 0.232481,0.0547 0.232481,0.23249"
                style="fill:#ffffff;fill-opacity:1;fill-rule:nonzero;stroke:none;stroke-width:0.35277775"
                id="path198"
                inkscape:connector-curvature="0"/>
        <path
                d="m 100.4334,141.54198 h -1.183572 v 1.40935 h 1.183572 c 0.45861,0 0.71825,-0.24624 0.71825,-0.7045 0,-0.45155 -0.25329,-0.70485 -0.71825,-0.70485 m 1.62172,0.70485 c 0,0.71155 -0.3355,1.19027 -0.90347,1.38218 0.0889,0.0751 0.15734,0.17075 0.21908,0.29387 l 0.75247,1.44392 c 0.0681,0.12982 0.0547,0.23248 -0.11641,0.23248 h -0.39688 c -0.29422,0 -0.38312,-0.0342 -0.46496,-0.20532 l -0.57468,-1.16311 c -0.1778,-0.37606 -0.34219,-0.47872 -0.814559,-0.47872 h -0.505883 v 1.61467 c 0,0.17074 -0.06174,0.23248 -0.232833,0.23248 h -0.38982 c -0.1778,0 -0.239536,-0.0617 -0.239536,-0.23248 v -4.39244 c 0,-0.1711 0.06174,-0.23283 0.239536,-0.23283 h 1.888065 c 0.95144,0 1.53988,0.56091 1.53988,1.5053"
                style="fill:#ffffff;fill-opacity:1;fill-rule:nonzero;stroke:none;stroke-width:0.35277775"
                id="path202"
                inkscape:connector-curvature="0"/>
        <path
                d="m 104.88722,144.90127 c 0.7045,0 1.05339,-0.3556 1.05339,-0.96449 v -2.96263 c 0,-0.17074 0.0617,-0.23248 0.23284,-0.23248 h 0.38982 c 0.17815,0 0.23248,0.0617 0.23248,0.23248 v 2.95557 c 0,1.07421 -0.64982,1.77236 -1.90853,1.77236 -1.25907,0 -1.91594,-0.69815 -1.91594,-1.77236 v -2.95557 c 0,-0.17074 0.0614,-0.23248 0.23284,-0.23248 h 0.39687 c 0.1711,0 0.23248,0.0617 0.23248,0.23248 v 2.96263 c 0,0.60889 0.3489,0.96449 1.05375,0.96449"
                style="fill:#ffffff;fill-opacity:1;fill-rule:nonzero;stroke:none;stroke-width:0.35277775"
                id="path206"
                inkscape:connector-curvature="0"/>
        <path
                d="m 110.64088,142.32885 c 0,-0.49248 -0.29386,-0.78669 -0.7934,-0.78669 h -1.10842 v 1.56668 h 1.10842 c 0.49954,0 0.7934,-0.28751 0.7934,-0.77999 m 0.90347,0 c 0,0.99237 -0.62266,1.58045 -1.61502,1.58045 h -1.19027 v 1.45732 c 0,0.1711 -0.0614,0.23283 -0.23284,0.23283 h -0.38981 c -0.1778,0 -0.23954,-0.0617 -0.23954,-0.23283 v -4.39243 c 0,-0.17075 0.0617,-0.23249 0.23954,-0.23249 h 1.81292 c 0.98531,0 1.61502,0.59514 1.61502,1.58715"
                style="fill:#ffffff;fill-opacity:1;fill-rule:nonzero;stroke:none;stroke-width:0.35277775"
                id="path210"
                inkscape:connector-curvature="0"/>
        <path
                d="m 115.12882,142.32885 c 0,-0.49248 -0.29387,-0.78669 -0.7934,-0.78669 h -1.10843 v 1.56668 h 1.10843 c 0.49953,0 0.7934,-0.28751 0.7934,-0.77999 m 0.90346,0 c 0,0.99237 -0.62265,1.58045 -1.61502,1.58045 h -1.19027 v 1.45732 c 0,0.1711 -0.0614,0.23283 -0.23283,0.23283 h -0.38982 c -0.1778,0 -0.23954,-0.0617 -0.23954,-0.23283 v -4.39243 c 0,-0.17075 0.0617,-0.23249 0.23954,-0.23249 h 1.81292 c 0.98531,0 1.61502,0.59514 1.61502,1.58715"
                style="fill:#ffffff;fill-opacity:1;fill-rule:nonzero;stroke:none;stroke-width:0.35277775"
                id="path214"
                inkscape:connector-curvature="0"/>
        <path
                d="m 120.04841,140.97422 v 0.33514 c 0,0.17145 -0.0617,0.23248 -0.23954,0.23248 h -2.09338 v 1.19768 h 1.77165 c 0.17145,0 0.23248,0.0617 0.23248,0.23248 v 0.33514 c 0,0.17145 -0.061,0.23248 -0.23248,0.23248 h -1.77165 v 1.25907 h 2.16852 c 0.1778,0 0.23248,0.0617 0.23248,0.23283 v 0.33514 c 0,0.1711 -0.0547,0.23248 -0.23248,0.23248 h -2.79153 c -0.1778,0 -0.23953,-0.0614 -0.23953,-0.23248 v -4.39244 c 0,-0.17074 0.0617,-0.23248 0.23953,-0.23248 h 2.71639 c 0.1778,0 0.23954,0.0617 0.23954,0.23248"
                style="fill:#ffffff;fill-opacity:1;fill-rule:nonzero;stroke:none;stroke-width:0.35277775"
                id="path218"
                inkscape:connector-curvature="0"/>
        <path
                d="m 90.991408,160.79402 c 0.978253,0 1.477786,0.35595 1.799872,1.03328 0.07479,0.15699 0.03351,0.23919 -0.130528,0.31433 l -0.376061,0.16439 c -0.150636,0.0681 -0.212372,0.0409 -0.294216,-0.11641 -0.184503,-0.36231 -0.458259,-0.57468 -0.999067,-0.57468 -0.663575,0 -0.992012,0.20532 -0.992012,0.62936 0,0.49283 0.56127,0.58173 1.18357,0.65017 0.807509,0.0889 1.738136,0.28751 1.738136,1.4298 0,0.91017 -0.691091,1.53282 -1.950156,1.53282 -1.06045,0 -1.600905,-0.40393 -1.881363,-1.143 -0.06138,-0.17074 -0.02046,-0.24624 0.14358,-0.30056 l 0.376414,-0.13723 c 0.157339,-0.0543 0.225778,-0.0204 0.294217,0.14358 0.171097,0.40393 0.533752,0.63641 1.067152,0.63641 0.704498,0 1.087615,-0.21872 1.087615,-0.71156 0,-0.47166 -0.505884,-0.57432 -1.080912,-0.63605 -0.834319,-0.0889 -1.86055,-0.21873 -1.86055,-1.41641 0,-0.86889 0.643114,-1.49824 1.874309,-1.49824"
                style="fill:#ffffff;fill-opacity:1;fill-rule:nonzero;stroke:none;stroke-width:0.35277775"
                id="path222"
                inkscape:connector-curvature="0"/>
        <path
                d="m 96.984855,161.12923 v 0.33514 c 0,0.17145 -0.06174,0.23248 -0.239536,0.23248 h -2.093383 v 1.19768 h 1.77165 c 0.17145,0 0.232833,0.0617 0.232833,0.23248 v 0.33514 c 0,0.17145 -0.06138,0.23248 -0.232833,0.23248 h -1.77165 v 1.25906 h 2.168525 c 0.178153,0 0.232833,0.0617 0.232833,0.23284 v 0.33513 c 0,0.1711 -0.05468,0.23248 -0.232833,0.23248 h -2.791178 c -0.1778,0 -0.239536,-0.0614 -0.239536,-0.23248 v -4.39243 c 0,-0.17075 0.06174,-0.23248 0.239536,-0.23248 h 2.716036 c 0.1778,0 0.239536,0.0617 0.239536,0.23248"
                style="fill:#ffffff;fill-opacity:1;fill-rule:nonzero;stroke:none;stroke-width:0.35277775"
                id="path226"
                inkscape:connector-curvature="0"/>
        <path
                d="m 101.72633,161.12923 v 4.39243 c 0,0.1711 -0.055,0.23248 -0.23283,0.23248 h -0.39018 c -0.11641,0 -0.17074,-0.0272 -0.22542,-0.11641 l -1.676049,-2.4765 c -0.321733,-0.47908 -0.534105,-1.10843 -0.561269,-1.14935 h -0.04092 c 0,0.0547 0.14993,0.71155 0.14993,1.36137 v 2.14841 c 0,0.1711 -0.06103,0.23248 -0.232128,0.23248 h -0.362655 c -0.178153,0 -0.239536,-0.0614 -0.239536,-0.23248 v -4.39243 c 0,-0.17075 0.06138,-0.23248 0.239536,-0.23248 h 0.389819 c 0.12312,0 0.1778,0.0409 0.225778,0.10936 l 1.662644,2.46309 c 0.34889,0.51964 0.54045,1.10808 0.57467,1.16311 h 0.0413 c 0,-0.0688 -0.15099,-0.69109 -0.15099,-1.38218 v -2.1209 c 0,-0.17075 0.0617,-0.23248 0.23319,-0.23248 h 0.3623 c 0.1778,0 0.23284,0.0617 0.23284,0.23248"
                style="fill:#ffffff;fill-opacity:1;fill-rule:nonzero;stroke:none;stroke-width:0.35277775"
                id="path230"
                inkscape:connector-curvature="0"/>
        <path
                d="m 103.08096,160.89671 h 0.38982 c 0.1711,0 0.23283,0.0617 0.23283,0.23248 v 4.39244 c 0,0.1711 -0.0617,0.23283 -0.23283,0.23283 h -0.38982 c -0.1778,0 -0.23954,-0.0617 -0.23954,-0.23283 v -4.39244 c 0,-0.17074 0.0617,-0.23248 0.23954,-0.23248"
                style="fill:#ffffff;fill-opacity:1;fill-rule:nonzero;stroke:none;stroke-width:0.35277775"
                id="path234"
                inkscape:connector-curvature="0"/>
        <path
                d="m 106.63146,161.59468 c -0.70485,0 -1.09502,0.34184 -1.09502,0.9779 v 1.5053 c 0,0.63642 0.39017,0.97861 1.09502,0.97861 0.69814,0 1.09467,-0.34219 1.09467,-0.97861 v -1.5053 c 0,-0.63606 -0.39653,-0.9779 -1.09467,-0.9779 m 0,-0.8008 c 1.25201,0 1.9498,0.68439 1.9498,1.78576 v 1.49189 c 0,1.10138 -0.69779,1.78541 -1.9498,1.78541 -1.25871,0 -1.95686,-0.68403 -1.95686,-1.78541 v -1.49189 c 0,-1.10137 0.69815,-1.78576 1.95686,-1.78576"
                style="fill:#ffffff;fill-opacity:1;fill-rule:nonzero;stroke:none;stroke-width:0.35277775"
                id="path238"
                inkscape:connector-curvature="0"/>
        <path
                d="m 111.5986,161.69699 h -1.18321 v 1.40934 h 1.18321 c 0.45861,0 0.71826,-0.24624 0.71826,-0.70449 0,-0.45156 -0.25294,-0.70485 -0.71826,-0.70485 m 1.62172,0.70485 c 0,0.71155 -0.33549,1.19027 -0.90346,1.38183 0.0892,0.0755 0.15734,0.17109 0.21907,0.29421 l 0.75283,1.44392 c 0.0681,0.12983 0.0543,0.23248 -0.11642,0.23248 h -0.39687 c -0.29422,0 -0.38312,-0.0342 -0.46496,-0.20531 l -0.57503,-1.16311 c -0.1778,-0.37606 -0.34219,-0.47872 -0.81421,-0.47872 h -0.50588 v 1.61466 c 0,0.17075 -0.0617,0.23248 -0.23319,0.23248 h -0.38982 c -0.1778,0 -0.23954,-0.0617 -0.23954,-0.23248 v -4.39243 c 0,-0.1711 0.0617,-0.23284 0.23954,-0.23284 h 1.88842 c 0.95109,0 1.53952,0.56092 1.53952,1.50531"
                style="fill:#ffffff;fill-opacity:1;fill-rule:nonzero;stroke:none;stroke-width:0.35277775"
                id="path242"
                inkscape:connector-curvature="0"/>
        <path
                d="m 117.36638,161.12923 v 0.33514 c 0,0.17145 -0.0617,0.23248 -0.23954,0.23248 h -2.09338 v 1.19768 h 1.77165 c 0.17145,0 0.23248,0.0617 0.23248,0.23248 v 0.33514 c 0,0.17145 -0.061,0.23248 -0.23248,0.23248 h -1.77165 v 1.25906 h 2.16853 c 0.1778,0 0.23247,0.0617 0.23247,0.23284 v 0.33513 c 0,0.1711 -0.0547,0.23248 -0.23247,0.23248 h -2.79154 c -0.1778,0 -0.23953,-0.0614 -0.23953,-0.23248 v -4.39243 c 0,-0.17075 0.0617,-0.23248 0.23953,-0.23248 h 2.71639 c 0.1778,0 0.23954,0.0617 0.23954,0.23248"
                style="fill:#ffffff;fill-opacity:1;fill-rule:nonzero;stroke:none;stroke-width:0.35277775"
                id="path246"
                inkscape:connector-curvature="0"/>
        <path
                d="m 122.10718,161.12923 v 4.39243 c 0,0.1711 -0.0547,0.23248 -0.23248,0.23248 h -0.39017 c -0.11642,0 -0.1711,-0.0272 -0.22578,-0.11641 l -1.67604,-2.4765 c -0.32174,-0.47908 -0.53376,-1.10843 -0.56128,-1.14935 h -0.0409 c 0,0.0547 0.15029,0.71155 0.15029,1.36137 v 2.14841 c 0,0.1711 -0.0614,0.23248 -0.23248,0.23248 h -0.36266 c -0.1778,0 -0.23954,-0.0614 -0.23954,-0.23248 v -4.39243 c 0,-0.17075 0.0617,-0.23248 0.23954,-0.23248 h 0.38982 c 0.12347,0 0.17815,0.0409 0.22613,0.10936 l 1.66264,2.46309 c 0.34855,0.51964 0.54011,1.10808 0.57468,1.16311 h 0.0409 c 0,-0.0688 -0.15064,-0.69109 -0.15064,-1.38218 v -2.1209 c 0,-0.17075 0.0617,-0.23248 0.23283,-0.23248 h 0.36266 c 0.1778,0 0.23248,0.0617 0.23248,0.23248"
                style="fill:#ffffff;fill-opacity:1;fill-rule:nonzero;stroke:none;stroke-width:0.35277775"
                id="path250"
                inkscape:connector-curvature="0"/>
        <path
                d="m 84.618336,162.78047 c 1.742016,-0.57538 6.656917,-6.21735 7.878233,-8.73089 0.558095,-1.14688 0.76447,-1.08232 1.317272,-0.91123 0.413456,0.12982 0.98037,0.30586 1.627717,0.0564 l 0.270581,-0.10724 c 1.025877,-0.40393 1.588205,-0.62759 2.859263,-0.11077 0.24765,0.10054 0.474487,0.20426 0.686859,0.30233 1.226259,0.55986 2.493429,1.14194 3.964519,-0.90276 0.74824,-1.03928 1.38994,-2.07116 1.81786,-2.79612 l 0.56233,0.78599 3.1055,0.82127 1.1303,-1.08091 c 0.50518,0.36618 1.18922,0.90276 1.50319,1.29116 l 0.53058,0.66993 c 0.68227,0.86854 1.53176,1.9491 2.1149,2.53929 0.86289,0.87948 1.90394,1.55011 3.71475,0.43004 0.12241,0.072 0.33514,0.5013 0.44908,0.73236 0.13759,0.2787 0.30763,0.62301 0.54011,0.90029 0.26317,0.40676 0.90628,0.53235 1.20367,0.47131 0.41346,-0.0801 0.74719,-0.27869 1.04317,-0.45402 0.59125,-0.35348 0.75036,-0.44626 1.34796,0.22578 l 0.15663,0.17639 c 1.33033,1.50389 2.83845,3.21169 5.46418,2.34738 1.06186,-0.34749 1.47038,-0.36795 1.82986,-0.0494 -0.0325,-0.54398 -0.0861,-1.08197 -0.15381,-1.61502 -0.52988,-0.0847 -1.20227,-0.003 -2.12443,0.2988 -1.64571,0.54258 -2.52695,-0.33443 -3.94018,-1.93357 l -0.15945,-0.17886 c -1.38642,-1.55787 -2.49379,-0.90029 -3.15454,-0.50553 -0.16334,0.097 -0.31891,0.18944 -0.45826,0.24165 -0.0956,-0.13511 -0.22437,-0.3937 -0.30762,-0.56232 -0.29245,-0.59338 -0.62512,-1.26507 -1.31339,-1.46685 -0.26494,-0.0748 -0.68862,-0.1076 -1.19733,0.19791 -1.0033,0.60007 -1.31304,0.35418 -1.91735,-0.26388 -0.5274,-0.5334 -1.38359,-1.62384 -2.00871,-2.419 l -0.54258,-0.68439 c -0.6484,-0.80327 -2.12442,-1.80164 -2.29129,-1.91417 l -0.47977,-0.31962 -1.39136,1.33103 -1.82633,-0.4833 -1.58503,-2.21298 -0.54575,1.01424 c -0.0102,0.0173 -0.99272,1.83762 -2.28212,3.6262 -0.78211,1.08656 -1.02729,0.97155 -2.202389,0.43568 -0.228953,-0.10583 -0.473781,-0.21731 -0.741186,-0.32667 -1.8034,-0.73343 -2.836334,-0.32667 -3.929239,0.10548 l -0.261761,0.10266 c -0.17145,0.0646 -0.360892,0.0127 -0.680156,-0.0861 -0.982133,-0.30973 -2.023886,-0.43215 -3.037769,1.65277 -1.268589,2.61126 -5.977114,7.64575 -7.037564,7.99712 -0.977547,0.31997 -1.743428,-0.30198 -1.770239,-0.3242 l -0.369005,-0.31962 c 0,0.0148 -0.0011,0.0289 -0.0011,0.0437 0,0.59549 0.02928,1.18357 0.07197,1.76777 0.569031,0.28011 1.46685,0.54292 2.519186,0.19438"
                style="fill:#ffffff;fill-opacity:1;fill-rule:nonzero;stroke:none;stroke-width:0.35277775"
                id="path254"
                inkscape:connector-curvature="0"/>
    </g>
</svg>
