<?xml version="1.0" encoding="UTF-8" standalone="no"?>
<!-- Created with Inkscape (http://www.inkscape.org/) -->

<svg
   xmlns:dc="http://purl.org/dc/elements/1.1/"
   xmlns:cc="http://creativecommons.org/ns#"
   xmlns:rdf="http://www.w3.org/1999/02/22-rdf-syntax-ns#"
   xmlns:svg="http://www.w3.org/2000/svg"
   xmlns="http://www.w3.org/2000/svg"
   xmlns:sodipodi="http://sodipodi.sourceforge.net/DTD/sodipodi-0.dtd"
   xmlns:inkscape="http://www.inkscape.org/namespaces/inkscape"
   width="49.408295mm"
   height="49.40456mm"
   viewBox="0 0 49.408295 49.40456"
   version="1.1"
   id="svg2139"
   inkscape:version="0.92.1 r15371"
   sodipodi:docname="Kibe.svg">
  <defs
     id="defs2133" />
  <sodipodi:namedview
     id="base"
     pagecolor="#ffffff"
     bordercolor="#666666"
     borderopacity="1.0"
     inkscape:pageopacity="0.0"
     inkscape:pageshadow="2"
     inkscape:zoom="2.8"
     inkscape:cx="187.02445"
     inkscape:cy="52.714998"
     inkscape:document-units="mm"
     inkscape:current-layer="layer1"
     showgrid="false"
     fit-margin-top="0"
     fit-margin-left="0"
     fit-margin-right="0"
     fit-margin-bottom="0"
     inkscape:window-width="1920"
     inkscape:window-height="1137"
     inkscape:window-x="-8"
     inkscape:window-y="-8"
     inkscape:window-maximized="1" />
  <metadata
     id="metadata2136">
    <rdf:RDF>
      <cc:Work
         rdf:about="">
        <dc:format>image/svg+xml</dc:format>
        <dc:type
           rdf:resource="http://purl.org/dc/dcmitype/StillImage" />
        <dc:title></dc:title>
      </cc:Work>
    </rdf:RDF>
  </metadata>
  <g
     inkscape:label="Ebene 1"
     inkscape:groupmode="layer"
     id="layer1"
     transform="translate(-81.128623,-124.13109)">
    <path
       d="m 123.70347,147.46992 c -0.76306,-0.9137 -1.97238,-2.42782 -3.05082,-2.77636 -0.11536,-0.0356 -0.33655,-0.19474 -0.13935,-0.29175 0.20461,-0.10336 0.47519,-0.0455 0.68121,0.0212 0.34325,0.11042 0.66605,0.34184 0.95144,0.55351 0.92146,0.68227 1.69969,1.53458 2.43276,2.41088 0.24871,0.29598 -0.70697,0.28258 -0.87524,0.0825 m -11.42789,17.77542 -5.50403,0.97155 c -0.58068,0.1023 -0.82692,-0.0536 -0.9324,-0.6523 l -2.1403,-12.12991 c -0.10654,-0.59866 0.0723,-0.82902 0.65229,-0.93027 l 5.42678,-0.9592 c 2.56998,-0.45262 4.34622,0.58808 4.75862,2.92417 0.23212,1.3141 0.002,2.27119 -0.82868,3.09421 l 0.0134,0.0773 c 1.26753,0.29387 2.14207,1.2954 2.44193,2.99368 0.43286,2.45427 -1.26012,4.14725 -3.88761,4.6108 m -10.19598,1.79952 -1.60338,0.28293 c -0.578906,0.10231 -0.80539,-0.0568 -0.908401,-0.63606 l -2.147354,-12.16907 c -0.103011,-0.57785 0.05644,-0.80574 0.636058,-0.90734 l 1.602317,-0.28258 c 0.58032,-0.10336 0.80645,0.0568 0.90946,0.635 l 2.14771,12.16907 c 0.10125,0.5782 -0.0572,0.80574 -0.63641,0.90805 M 97.234188,139.9787 c -0.290336,2.56893 -3.211689,3.98815 -2.707217,6.59624 0.06174,0.31679 -0.910167,0.2286 -0.959908,-0.0317 -0.431447,-2.2285 0.935214,-2.68146 1.883127,-4.40267 0.925337,-1.68063 0.53587,-3.73838 2.719211,-4.27496 1.64077,-0.40287 3.363389,1.31586 4.497569,2.12267 1.49789,1.06574 2.56892,2.02776 3.68688,3.45616 0.13194,0.16828 -0.77329,0.20567 -0.96026,-0.0317 -1.03117,-1.31762 -7.699733,-7.5057 -8.159402,-3.43394 m -6.260747,3.9684 c -0.235303,0.11747 -1.139119,-0.1778 -0.80892,-0.34149 1.267178,-0.62724 2.753431,-1.79105 3.164064,-3.20181 0.194733,-0.6664 0.126294,-1.82104 0.6985,-2.32622 0.307269,-0.27234 0.716844,-0.33549 1.037167,-0.59549 0.233891,-0.19014 1.109486,0.11501 0.923572,0.26423 -0.42545,0.34608 -1.069622,0.40252 -1.258006,0.9772 -0.297391,0.90452 -0.288219,1.86972 -0.827969,2.68993 -0.711906,1.08091 -1.767417,1.95897 -2.928408,2.53365 m 13.490579,-11.19399 c -0.0145,-0.28117 0.96908,-0.33691 0.98918,-0.0533 0.002,0.0487 0.005,0.0977 0.008,0.14746 0,0.004 -0.005,0.007 -0.005,0.0113 0.0995,1.97556 -0.53622,3.93559 -1.10066,5.81307 -0.0769,0.25541 -1.05234,0.25365 -0.95991,-0.0533 0.56974,-1.89406 1.20826,-3.87138 1.06786,-5.86528 m 1.50636,6.98958 c 2.50578,-0.77928 4.80095,-3.75567 2.76578,-6.25475 -0.14394,-0.17709 0.76905,-0.26776 0.96061,-0.0339 0.93486,1.14935 0.99095,3.34398 0.10548,4.51555 -0.77152,1.02059 -1.93887,1.72685 -3.15454,2.10503 -0.23812,0.0737 -1.16946,-0.17886 -0.67733,-0.33197 m -18.874993,5.38692 c -0.11677,0.81386 0.247297,1.64465 0.04692,2.43911 -0.242711,0.95744 -0.784931,1.7847 -1.542697,2.41794 -0.200025,0.16827 -1.141236,0.003 -0.843139,-0.24624 0.922866,-0.76976 1.598436,-1.98755 1.403703,-3.20887 -0.150284,-0.94227 0.273755,-1.89689 0.04445,-2.78201 -0.05327,-0.20708 0.907697,-0.26246 0.989188,0.0533 0.130881,0.50377 -0.02822,0.83644 -0.09843,1.3268 m 40.352138,-1.98296 c -0.16263,0.2106 -1.06892,-0.15064 -0.8703,-0.40393 0.44097,-0.5708 0.88229,-1.14089 1.32397,-1.71133 l -0.036,-0.0512 c -0.58985,-0.84773 -0.6978,-1.00154 -2.06234,-0.55316 -2.44369,0.80328 -3.83223,-0.7687 -5.0606,-2.15582 l -0.14429,-0.16369 c -0.49389,-0.55492 -0.57573,-0.50624 -1.11054,-0.18768 -0.27446,0.16298 -0.58491,0.3489 -0.97578,0.42369 -0.29881,0.0575 -0.54893,0.006 -0.75989,-0.10831 -1.61713,0.94404 -2.99402,2.37032 -3.99168,4.01144 0.0829,0.0695 0.12206,0.14217 0.061,0.20038 -0.1203,0.115 -0.2413,0.21801 -0.36265,0.32067 -0.53305,0.97861 -0.93345,2.01895 -1.17158,3.06705 -0.0716,0.31503 -1.03787,0.27129 -0.98954,0.0579 0.16757,-0.73378 0.41134,-1.45803 0.71684,-2.16041 -2.03376,1.03823 -4.23157,1.01494 -6.731,1.86267 -2.22426,0.75424 -4.52966,1.14653 -6.853767,1.45873 -0.249767,0.0332 -1.106311,-0.39969 -0.590198,-0.4699 2.255665,-0.30233 4.531785,-0.65087 6.680555,-1.42416 2.86138,-1.02835 6.0258,-0.91299 8.30122,-2.98485 1.09925,-1.80658 2.64407,-3.35174 4.48063,-4.33176 -0.20708,-0.25612 -0.35737,-0.55951 -0.47378,-0.79551 -0.085,-0.1711 -0.21661,-0.4378 -0.3168,-0.56762 -1.68839,0.96943 -2.65077,0.3503 -3.45087,-0.46108 -0.53305,-0.54258 -1.30634,-1.52542 -1.92687,-2.31634 l -0.48331,-0.61031 c -0.26776,-0.33197 -0.84067,-0.78564 -1.28763,-1.11372 l -1.01001,0.96343 -2.90089,-0.76447 -0.4505,-0.62794 c -0.38735,0.65123 -0.94332,1.53811 -1.58609,2.42958 -1.38041,1.91629 -2.62008,1.34938 -3.714044,0.84878 -0.191206,-0.0875 -0.397228,-0.18238 -0.619478,-0.27234 -1.121481,-0.45896 -1.621367,-0.25965 -2.529769,0.0998 l -0.249061,0.0977 c -0.61842,0.23918 -1.151114,0.0737 -1.539875,-0.048 -0.473075,-0.14958 -0.615598,-0.19297 -1.087262,0.77929 -1.116188,2.29517 -5.615868,7.45207 -7.212188,7.98159 -0.968728,0.32456 -1.801989,0.0889 -2.336094,-0.17074 l -2.029531,2.25495 -0.662164,-0.59584 c -0.199672,1.26506 -0.306211,2.56046 -0.306211,3.88126 0,5.06589 1.527528,9.77371 4.143728,13.69342 l -0.999772,-5.66385 c -0.105128,-0.59866 0.07232,-0.83008 0.652991,-0.93239 l 1.563159,-0.27657 c 0.579614,-0.10231 0.826558,0.0533 0.931333,0.65228 l 0.804333,4.55824 0.309739,-0.0543 0.17392,-0.031 2.590094,-5.29696 c 0.307622,-0.63041 0.502002,-0.76482 1.429455,-0.92851 l 1.679575,-0.29704 c 0.541867,-0.0952 0.760942,0.24377 0.522464,0.70344 l -3.049764,6.07448 c 0.80892,0.29598 1.446389,0.86184 2.116314,1.71944 l 3.303764,4.27567 c 0.333022,0.41874 0.320322,0.80045 -0.278342,0.90628 l -1.545166,0.27235 c -0.98425,0.17356 -1.314098,0.11183 -1.709562,-0.43604 l -2.463799,-3.34856 c -0.581378,-0.8128 -0.976842,-1.022 -2.078567,-0.82797 l -0.502002,0.0889 0.625475,3.54189 c 4.37268,3.92007 10.148357,6.30696 16.484247,6.30696 8.46385,0 15.93321,-4.26014 20.38562,-10.7509 l -6.02615,1.06292 c -0.57926,0.1023 -0.82762,-0.0533 -0.93239,-0.65194 l -2.14031,-12.1292 c -0.10653,-0.59831 0.0723,-0.82974 0.65229,-0.93134 l 7.76429,-1.37089 c 0.59866,-0.10583 0.82444,0.0533 0.93133,0.65229 l 0.2286,1.29257 c 0.1016,0.58103 -0.0568,0.80786 -0.65546,0.91335 l -5.40808,0.95391 0.43921,2.49272 4.44252,-0.78387 c 0.59867,-0.10583 0.82621,0.0515 0.92958,0.63183 l 0.22824,1.29434 c 0.10513,0.5976 -0.055,0.82656 -0.65369,0.93204 l -4.44148,0.78387 0.46285,2.62537 5.60211,-0.98919 c 0.18238,-0.0321 0.32914,-0.0328 0.45155,-0.005 1.56598,-3.24344 2.44405,-6.88057 2.44405,-10.72268 0,-2.14348 -0.27376,-4.22239 -0.78705,-6.20536 -0.38382,-0.2039 -0.82409,-0.45014 -1.24142,-0.85407 -0.35384,0.45684 -0.70768,0.91404 -1.06151,1.37054"
       style="fill:#7b7979;fill-opacity:1;fill-rule:nonzero;stroke:none;stroke-width:0.35277775"
       id="path1938"
       inkscape:connector-curvature="0" />
    <path
       d="m 84.47553,141.77912 c 0.02187,0.0169 0.685094,0.55421 1.518355,0.27658 0.954617,-0.31644 5.197827,-4.86163 6.345061,-7.22101 0.951441,-1.95898 1.978025,-1.82422 2.86773,-1.5487 0.295275,0.0935 0.436739,0.12983 0.558447,0.0808 l 0.240948,-0.0931 c 1.009297,-0.40041 1.964619,-0.77576 3.637138,-0.0942 0.242359,0.0995 0.466021,0.20178 0.674861,0.29703 1.06151,0.48648 1.22379,0.56022 1.89089,-0.36759 1.16876,-1.61925 2.05917,-3.26849 2.06869,-3.28542 l 0.5648,-1.04881 1.5046,2.1022 1.58079,0.41734 1.28165,-1.22237 0.49494,0.3309 c 0.15134,0.1016 1.50425,1.016 2.10256,1.75683 l 0.49424,0.62477 c 0.56656,0.72143 1.34373,1.70886 1.81857,2.19181 0.55069,0.55986 0.78352,0.72672 1.63054,0.22155 0.4886,-0.29351 0.90064,-0.26423 1.16099,-0.18839 0.66252,0.19544 0.98742,0.85231 1.24813,1.37972 0.0667,0.13511 0.15769,0.31856 0.23248,0.43956 0.10266,-0.0473 0.21696,-0.11571 0.33514,-0.18627 0.58455,-0.34748 1.67252,-0.99518 2.98097,0.47872 l 0.14675,0.16545 c 1.29681,1.46262 2.038,2.20275 3.48369,1.72932 1.9812,-0.65229 2.7566,-0.18239 3.46427,0.73025 -3.62267,-9.144 -12.53984,-15.615 -22.97006,-15.615 -11.935182,0 -21.89057,8.46314 -24.198795,19.71322 l 2.290586,-2.54459 z"
       style="fill:#7b7979;fill-opacity:1;fill-rule:nonzero;stroke:none;stroke-width:0.35277775"
       id="path1942"
       inkscape:connector-curvature="0" />
    <g
       id="g1944"
       transform="matrix(0.35277777,0,0,-0.35277777,111.33312,159.69776)">
      <path
         d="m 0,0 -8.373,-1.478 1.397,-7.938 8.378,1.475 c 2.741,0.484 3.884,1.99 3.411,4.673 C 4.347,-0.64 2.74,0.484 0,0"
         style="fill:#7b7979;fill-opacity:1;fill-rule:nonzero;stroke:none"
         id="path1946"
         inkscape:connector-curvature="0" />
    </g>
    <path
       d="m 111.4286,155.47649 c -0.15734,-0.88864 -0.73378,-1.22519 -1.64218,-1.06574 l -2.58904,0.4572 0.46461,2.62714 2.58798,-0.4572 c 0.9077,-0.15946 1.33844,-0.65511 1.17863,-1.5614"
       style="fill:#7b7979;fill-opacity:1;fill-rule:nonzero;stroke:none;stroke-width:0.35277775"
       id="path1950"
       inkscape:connector-curvature="0" />
    <path
       d="m 89.224943,163.59779 c 1.101725,-0.19403 1.497189,0.0152 2.078919,0.82832 l 2.463447,3.34821 c 0.395464,0.54822 0.725664,0.6096 1.709914,0.43604 l 1.545167,-0.27235 c 0.598664,-0.10583 0.611011,-0.48754 0.278342,-0.90628 l -3.304117,-4.27567 c -0.669925,-0.85725 -1.307394,-1.42311 -2.116314,-1.71944 l 3.050117,-6.07448 c 0.238477,-0.45967 0.0194,-0.79869 -0.522817,-0.70344 l -1.679222,0.29704 c -0.927453,0.16369 -1.122186,0.2981 -1.429808,0.92851 l -2.590094,5.29696 -0.17392,0.031 -0.309739,0.0543 -0.80398,-4.55824 c -0.105128,-0.59866 -0.35172,-0.75459 -0.931686,-0.65229 l -1.563159,0.27658 c -0.580672,0.10266 -0.758119,0.33373 -0.652639,0.93275 l 0.999773,5.66349 c 1.157816,1.7339 2.528711,3.31223 4.075641,4.69971 l -0.625828,-3.54189 z"
       style="fill:#ffffff;fill-opacity:1;fill-rule:nonzero;stroke:none;stroke-width:0.35277775"
       id="path1954"
       inkscape:connector-curvature="0" />
    <path
       d="m 100.56826,153.9677 c -0.10301,-0.57821 -0.32914,-0.73837 -0.909458,-0.635 l -1.602317,0.28257 c -0.579614,0.1016 -0.739069,0.3295 -0.636058,0.90734 l 2.147358,12.16907 c 0.103011,0.57927 0.329495,0.73837 0.908405,0.63606 l 1.60337,-0.28293 c 0.57926,-0.1023 0.73766,-0.32984 0.63641,-0.90805 z"
       style="fill:#ffffff;fill-opacity:1;fill-rule:nonzero;stroke:none;stroke-width:0.35277775"
       id="path1958"
       inkscape:connector-curvature="0" />
    <path
       d="m 111.5919,162.49913 -2.95557,0.52035 -0.49283,-2.80035 2.95381,-0.52141 c 0.96661,-0.17074 1.53317,0.22578 1.69791,1.15288 0.16687,0.9465 -0.23671,1.47779 -1.20332,1.64853 m -4.39455,-7.63129 2.58903,-0.4572 c 0.90841,-0.1591 1.48484,0.1771 1.64218,1.06575 0.15981,0.90663 -0.27058,1.40193 -1.17863,1.56139 l -2.58797,0.4572 z m 6.52392,2.77319 -0.0134,-0.0776 c 0.83114,-0.82268 1.0608,-1.78012 0.82867,-3.09386 -0.4124,-2.3361 -2.18863,-3.37714 -4.75862,-2.92418 l -5.42678,0.95885 c -0.57997,0.1016 -0.75882,0.33197 -0.65229,0.93063 l 2.14031,12.12956 c 0.10548,0.59901 0.35172,0.75459 0.93239,0.65228 l 5.50404,-0.97155 c 2.62749,-0.46319 4.32047,-2.15617 3.88761,-4.6108 -0.29986,-1.69827 -1.1744,-2.69981 -2.44193,-2.99332"
       style="fill:#ffffff;fill-opacity:1;fill-rule:nonzero;stroke:none;stroke-width:0.35277775"
       id="path1962"
       inkscape:connector-curvature="0" />
    <path
       d="m 127.6419,159.56342 -5.60211,0.98919 -0.46284,-2.62537 4.44147,-0.78352 c 0.59866,-0.10583 0.75882,-0.33479 0.6537,-0.93239 l -0.22825,-1.29434 c -0.10337,-0.57997 -0.33091,-0.73766 -0.92957,-0.63148 l -4.44253,0.78352 -0.43921,-2.49273 5.40808,-0.95355 c 0.59867,-0.10584 0.75671,-0.33267 0.65546,-0.9137 l -0.2286,-1.29258 c -0.10689,-0.59866 -0.33267,-0.75812 -0.93133,-0.65193 l -7.76464,1.37054 c -0.57961,0.1016 -0.75847,0.33302 -0.65193,0.93169 l 2.1403,12.12885 c 0.10478,0.59867 0.35313,0.75459 0.93239,0.65229 l 6.02615,-1.06327 c 0.70168,-1.02377 1.33103,-2.10044 1.87502,-3.22651 -0.12242,-0.0272 -0.26917,-0.0268 -0.45156,0.005"
       style="fill:#ffffff;fill-opacity:1;fill-rule:nonzero;stroke:none;stroke-width:0.35277775"
       id="path1966"
       inkscape:connector-curvature="0" />
  </g>
</svg>
