<?xml version="1.0" encoding="utf-8"?>
<!-- Generator: Adobe Illustrator 25.2.1, SVG Export Plug-In . SVG Version: 6.00 Build 0)  -->
<svg version="1.1" id="Ebene_1" xmlns="http://www.w3.org/2000/svg" xmlns:xlink="http://www.w3.org/1999/xlink" x="0px" y="0px"
	 viewBox="0 0 163.89 229.22" style="enable-background:new 0 0 163.89 229.22;" xml:space="preserve">
<style type="text/css">
	.st0{fill:#646363;}
	.st1{fill:#FFFFFF;}
</style>
<g>
	<path d="M49.48,148.7v19.15c0,0.75-0.24,1.01-1.01,1.01h-1.7c-0.78,0-1.01-0.27-1.01-1.01v-15.63l-4.18,2.33
		c-0.78,0.45-1.16,0.27-1.52-0.39l-0.75-1.34c-0.36-0.66-0.18-0.98,0.48-1.37l5.82-3.34c0.54-0.33,0.81-0.42,1.43-0.42h1.43
		C49.25,147.69,49.48,147.95,49.48,148.7z"/>
	<path d="M61.83,147.24c5.01,0,7.88,2.8,7.88,7.19v7.67c0,4.42-2.86,7.22-7.88,7.22s-7.91-2.8-7.91-7.22v-7.67
		C53.93,150.04,56.82,147.24,61.83,147.24z M61.83,150.73c-2.62,0-4.15,1.34-4.15,3.7v7.67c0,2.36,1.52,3.73,4.15,3.73
		c2.62,0,4.15-1.37,4.15-3.73v-7.67C65.98,152.07,64.46,150.73,61.83,150.73z"/>
	<path d="M89.48,160.25v1.31c0,0.78-0.27,1.01-1.01,1.01H77.01c-0.78,0-1.01-0.24-1.01-1.01v-1.31c0-0.75,0.24-1.01,1.01-1.01h11.46
		C89.21,159.23,89.48,159.5,89.48,160.25z"/>
	<path d="M101.02,148.7v19.15c0,0.75-0.24,1.01-1.01,1.01h-1.7c-0.78,0-1.01-0.27-1.01-1.01v-15.63l-4.18,2.33
		c-0.78,0.45-1.16,0.27-1.52-0.39l-0.75-1.34c-0.36-0.66-0.18-0.98,0.48-1.37l5.82-3.34c0.54-0.33,0.81-0.42,1.43-0.42h1.43
		C100.78,147.69,101.02,147.95,101.02,148.7z"/>
	<path d="M121.39,161.65v1.28c0,0.78-0.24,1.01-1.01,1.01h-2.06v3.91c0,0.75-0.24,1.01-1.01,1.01h-1.46c-0.75,0-1.01-0.27-1.01-1.01
		v-3.91H105c-0.75,0-1.01-0.24-1.01-1.01v-1.07c0-0.69,0.06-0.84,0.36-1.22l9.9-12.29c0.48-0.57,0.75-0.72,1.43-0.72h1.64
		c0.78,0,1.01,0.24,1.01,1.01v11.99h2.06C121.15,160.63,121.39,160.9,121.39,161.65z M108.36,160.63h6.47v-7.99L108.36,160.63z"/>
</g>
<g>
	<path d="M63.81,175.07v11.7c0,3.67-2.12,5.95-6.05,5.95c-3.4,0-5.2-1.75-5.9-4.67c-0.12-0.35-0.05-0.52,0.3-0.65l0.8-0.27
		c0.33-0.12,0.5-0.05,0.62,0.32c0.5,2.27,1.67,3.57,4.17,3.57c2.77,0,4.22-1.57,4.22-4.22v-11.72c0-0.35,0.1-0.47,0.48-0.47h0.85
		C63.68,174.6,63.81,174.73,63.81,175.07z"/>
	<path d="M71.83,179.12c3.97,0,5,2.25,5,4.95v6.55c0,0.88-0.2,1.12-0.9,1.42c-0.92,0.4-2.25,0.65-4.15,0.65
		c-4.35,0-5.4-1.38-5.4-3.87c0-2.87,1.57-3.87,5.5-3.87c1.47,0,2.82,0.2,3.27,0.25v-1.15c0-1.95-0.65-3.42-3.37-3.42
		c-1.75,0-2.85,0.67-3.5,1.82c-0.2,0.27-0.3,0.35-0.62,0.2l-0.6-0.25c-0.33-0.12-0.42-0.3-0.25-0.65
		C67.68,180.1,69.3,179.12,71.83,179.12z M71.7,186.35c-2.7,0-3.6,0.75-3.6,2.45c0,1.57,0.62,2.5,3.55,2.5c1.4,0,2.32-0.15,3.02-0.4
		c0.38-0.15,0.47-0.25,0.47-0.72v-3.6C74.65,186.52,73.15,186.35,71.7,186.35z"/>
	<path d="M81.6,174.3v5.52c0.77-0.35,2.17-0.7,3.92-0.7c3.42,0,4.97,1.8,4.97,4.9v7.87c0,0.35-0.12,0.45-0.45,0.45h-0.8
		c-0.32,0-0.45-0.1-0.45-0.45v-7.82c0-2.2-1.1-3.4-3.5-3.4c-1.55,0-2.9,0.33-3.7,0.73v10.5c0,0.35-0.1,0.45-0.45,0.45h-0.78
		c-0.35,0-0.45-0.1-0.45-0.45v-17.6c0-0.35,0.1-0.45,0.45-0.45h0.78C81.5,173.85,81.6,173.95,81.6,174.3z"/>
	<path d="M99.86,179.12c0.35,0,0.45,0.12,0.45,0.45v0.65c0,0.33-0.1,0.45-0.45,0.45h-0.82c-1.42,0-2.55,0.25-3.3,0.52
		c-0.4,0.18-0.42,0.38-0.42,0.65v10.05c0,0.35-0.12,0.45-0.45,0.45h-0.8c-0.33,0-0.45-0.1-0.45-0.45v-10.6c0-0.77,0.2-1.07,0.95-1.4
		c0.92-0.35,2.35-0.73,4.52-0.77L99.86,179.12L99.86,179.12z"/>
	<path d="M106.66,179.12c3.75,0,5.55,2.17,5.55,5.17v1.37c0,0.42-0.2,0.7-0.75,0.7h-8.65v1.45c0,2.12,1.27,3.42,3.75,3.42
		c2.05,0,3.22-0.82,3.92-2.07c0.22-0.3,0.4-0.35,0.72-0.17l0.53,0.27c0.32,0.17,0.38,0.4,0.17,0.72c-0.88,1.57-2.47,2.7-5.35,2.7
		c-3.75,0-5.42-2.05-5.42-5.05v-3.25C101.14,181.1,103.04,179.12,106.66,179.12z M106.66,180.57c-2.55,0-3.85,1.4-3.85,3.62v0.87
		h7.72v-0.87C110.54,181.97,109.24,180.57,106.66,180.57z"/>
</g>
<g>
	<path class="st0" d="M130.13,65.54c-0.36,0.46-2.35-0.33-1.91-0.89c0.97-1.25,1.94-2.5,2.91-3.76l-0.08-0.11
		c-1.29-1.86-1.53-2.2-4.53-1.21c-5.37,1.76-8.41-1.69-11.11-4.73l-0.32-0.36c-1.08-1.22-1.26-1.11-2.44-0.41
		c-0.6,0.36-1.29,0.77-2.14,0.93c-0.66,0.13-1.21,0.01-1.67-0.24c-3.55,2.07-6.57,5.2-8.76,8.81c0.18,0.15,0.27,0.31,0.13,0.44
		c-0.26,0.25-0.53,0.48-0.8,0.7c-1.17,2.15-2.05,4.43-2.57,6.73c-0.16,0.69-2.28,0.6-2.17,0.13c0.37-1.61,0.9-3.2,1.57-4.74
		c-4.47,2.28-9.29,2.23-14.78,4.09c-4.88,1.66-9.94,2.52-15.05,3.2c-0.55,0.07-2.43-0.88-1.3-1.03c4.95-0.66,9.95-1.43,14.67-3.13
		c6.28-2.26,13.23-2,18.23-6.55c2.41-3.97,5.81-7.36,9.84-9.51c-0.45-0.56-0.79-1.23-1.04-1.75c-0.19-0.38-0.47-0.96-0.7-1.25
		c-3.71,2.13-5.82,0.77-7.58-1.01c-1.17-1.19-2.87-3.35-4.23-5.09l-1.06-1.34c-0.59-0.73-1.85-1.72-2.83-2.45l-2.22,2.12l-6.37-1.68
		l-0.99-1.38c-0.85,1.43-2.07,3.38-3.48,5.33c-3.03,4.21-5.75,2.96-8.15,1.86c-0.42-0.19-0.87-0.4-1.36-0.6
		c-2.46-1.01-3.56-0.57-5.55,0.22l-0.55,0.21c-1.36,0.53-2.53,0.16-3.38-0.11c-1.04-0.33-1.35-0.42-2.39,1.71
		c-2.45,5.04-12.33,16.36-15.83,17.52c-2.13,0.71-3.96,0.2-5.13-0.38l-4.46,4.95l-1.45-1.31c-0.44,2.78-0.67,5.62-0.67,8.52
		c0,11.12,3.35,21.46,9.1,30.06l-2.2-12.43c-0.23-1.31,0.16-1.82,1.43-2.05L40.2,93c1.27-0.22,1.81,0.12,2.04,1.43l1.77,10.01
		l0.68-0.12l0.38-0.07l5.69-11.63c0.68-1.38,1.1-1.68,3.14-2.04l3.69-0.65c1.19-0.21,1.67,0.54,1.15,1.54l-6.7,13.34
		c1.78,0.65,3.18,1.89,4.65,3.78l7.25,9.39c0.73,0.92,0.7,1.76-0.61,1.99l-3.39,0.6c-2.16,0.38-2.88,0.25-3.75-0.96l-5.41-7.35
		c-1.28-1.79-2.14-2.24-4.56-1.82l-1.1,0.2l1.37,7.78c9.6,8.61,22.28,13.85,36.19,13.85c18.58,0,34.98-9.35,44.76-23.6L114.21,111
		c-1.27,0.22-1.82-0.12-2.05-1.43l-4.7-26.63c-0.23-1.31,0.16-1.82,1.43-2.04l17.05-3.01c1.31-0.23,1.81,0.12,2.04,1.43l0.5,2.84
		c0.22,1.28-0.12,1.77-1.44,2.01l-11.87,2.09l0.96,5.47l9.75-1.72c1.31-0.23,1.81,0.11,2.04,1.39l0.5,2.84
		c0.23,1.31-0.12,1.81-1.43,2.05l-9.75,1.72l1.02,5.76l12.3-2.17c0.4-0.07,0.72-0.07,0.99-0.01c3.44-7.12,5.37-15.11,5.37-23.54
		c0-4.71-0.6-9.27-1.73-13.62c-0.84-0.45-1.81-0.99-2.73-1.87C131.68,63.53,130.9,64.54,130.13,65.54z M41.53,69.89
		c-0.26,1.79,0.54,3.61,0.1,5.36c-0.53,2.1-1.72,3.92-3.39,5.31c-0.44,0.37-2.51,0.01-1.85-0.54c2.03-1.69,3.51-4.36,3.08-7.04
		c-0.33-2.07,0.6-4.16,0.1-6.11c-0.12-0.46,1.99-0.58,2.17,0.12C42.04,68.08,41.69,68.81,41.53,69.89z M82.97,58.06
		c5.5-1.71,10.54-8.25,6.07-13.73c-0.32-0.39,1.69-0.59,2.11-0.07c2.05,2.52,2.18,7.34,0.23,9.91c-1.69,2.24-4.26,3.79-6.93,4.62
		C83.94,58.96,81.89,58.4,82.97,58.06z M79.67,42.72c-0.03-0.62,2.13-0.74,2.17-0.12c0.01,0.11,0.01,0.21,0.02,0.32
		c0,0.01-0.01,0.02-0.01,0.02c0.22,4.34-1.18,8.64-2.42,12.76c-0.17,0.56-2.31,0.56-2.11-0.12C78.57,51.44,79.97,47.1,79.67,42.72z
		 M50.05,67.3c-0.52,0.26-2.5-0.39-1.78-0.75c2.78-1.38,6.05-3.93,6.95-7.03c0.43-1.46,0.28-4,1.53-5.11
		c0.68-0.6,1.57-0.74,2.28-1.31c0.51-0.42,2.44,0.25,2.03,0.58c-0.93,0.76-2.35,0.88-2.76,2.14c-0.65,1.99-0.63,4.11-1.82,5.91
		C54.91,64.11,52.6,66.03,50.05,67.3z M63.79,58.58c-0.64,5.64-7.05,8.76-5.94,14.48c0.14,0.7-2,0.5-2.11-0.07
		c-0.95-4.89,2.05-5.89,4.13-9.67c2.03-3.69,1.18-8.21,5.97-9.38c3.6-0.88,7.38,2.89,9.87,4.66c3.29,2.34,5.64,4.45,8.1,7.59
		c0.29,0.37-1.7,0.45-2.11-0.07C79.44,63.23,64.8,49.64,63.79,58.58z M74.43,118.01l-3.52,0.62c-1.27,0.22-1.77-0.12-1.99-1.4
		L64.2,90.51c-0.23-1.27,0.12-1.77,1.4-1.99l3.52-0.62c1.27-0.23,1.77,0.12,2,1.39l4.71,26.72
		C76.05,117.28,75.7,117.78,74.43,118.01z M96.82,114.06l-12.08,2.13c-1.27,0.22-1.81-0.12-2.05-1.43l-4.7-26.63
		c-0.23-1.31,0.16-1.82,1.43-2.04l11.92-2.11c5.64-0.99,9.54,1.29,10.45,6.42c0.51,2.88,0,4.99-1.82,6.79l0.03,0.17
		c2.78,0.64,4.7,2.84,5.36,6.57C106.3,109.32,102.59,113.04,96.82,114.06z M121.91,75.03c-1.68-2.01-4.33-5.33-6.7-6.1
		c-0.25-0.08-0.74-0.43-0.31-0.64c0.45-0.23,1.04-0.1,1.5,0.05c0.75,0.24,1.46,0.75,2.09,1.21c2.02,1.5,3.73,3.37,5.34,5.29
		C124.37,75.5,122.28,75.47,121.91,75.03z"/>
	<path class="st0" d="M35.78,62.54c0.05,0.04,1.5,1.22,3.33,0.61c2.1-0.7,11.41-10.67,13.93-15.85c2.09-4.3,4.34-4.01,6.29-3.4
		c0.65,0.21,0.96,0.29,1.23,0.18l0.53-0.21c2.21-0.88,4.31-1.7,7.98-0.21c0.53,0.22,1.02,0.44,1.48,0.65
		c2.33,1.07,2.69,1.23,4.15-0.81c2.57-3.55,4.52-7.18,4.54-7.21l1.24-2.3l3.3,4.62l3.47,0.92l2.81-2.68l1.09,0.73
		c0.33,0.22,3.3,2.23,4.62,3.86l1.09,1.37c1.24,1.58,2.95,3.75,3.99,4.81c1.21,1.23,1.72,1.6,3.58,0.49
		c1.07-0.64,1.98-0.58,2.55-0.41c1.46,0.43,2.17,1.87,2.74,3.03c0.15,0.3,0.35,0.7,0.51,0.96c0.23-0.1,0.48-0.25,0.74-0.41
		c1.28-0.76,3.67-2.19,6.54,1.05l0.32,0.36c2.85,3.21,4.47,4.84,7.65,3.8c4.35-1.43,6.05-0.4,7.61,1.6
		c-7.94-20.09-27.52-34.3-50.42-34.3c-26.2,0-48.06,18.58-53.13,43.28l5.03-5.59L35.78,62.54z"/>
	<path class="st0" d="M94.23,101.88l-6.49,1.14l1.08,6.15l6.49-1.14c2.12-0.38,3.01-1.54,2.64-3.62
		C97.6,102.37,96.35,101.5,94.23,101.88z"/>
	<path class="st0" d="M94.96,92.61c-0.35-1.95-1.61-2.69-3.61-2.34l-5.68,1l1.02,5.77l5.68-1C94.36,95.69,95.31,94.6,94.96,92.61z"
		/>
	<path class="st1" d="M46.21,110.44c2.42-0.43,3.29,0.03,4.56,1.82l5.41,7.35c0.87,1.2,1.59,1.34,3.75,0.96l3.39-0.6
		c1.31-0.23,1.34-1.07,0.61-1.99l-7.25-9.39c-1.47-1.88-2.87-3.12-4.65-3.78l6.7-13.34c0.52-1.01,0.04-1.75-1.15-1.54l-3.69,0.65
		c-2.04,0.36-2.46,0.65-3.14,2.04l-5.69,11.63l-0.38,0.07L44,104.44l-1.77-10.01C42,93.12,41.46,92.77,40.19,93l-3.43,0.61
		c-1.28,0.22-1.66,0.73-1.43,2.05l2.2,12.43c2.54,3.81,5.55,7.27,8.95,10.32l-1.37-7.78L46.21,110.44z"/>
	<path class="st1" d="M71.11,89.3c-0.23-1.27-0.72-1.62-2-1.39l-3.52,0.62c-1.27,0.22-1.62,0.72-1.4,1.99l4.71,26.72
		c0.22,1.27,0.72,1.62,1.99,1.4l3.52-0.62c1.27-0.22,1.62-0.72,1.4-1.99L71.11,89.3z"/>
	<path class="st1" d="M99.99,97.36l-0.03-0.17c1.82-1.81,2.33-3.91,1.82-6.79c-0.91-5.13-4.81-7.41-10.45-6.42l-11.92,2.11
		c-1.27,0.22-1.66,0.73-1.43,2.04l4.7,26.63c0.23,1.31,0.77,1.66,2.05,1.43l12.08-2.13c5.77-1.02,9.49-4.73,8.54-10.12
		C104.69,100.2,102.77,98,99.99,97.36z M85.67,91.27l5.68-1c1.99-0.35,3.26,0.39,3.61,2.34c0.35,1.99-0.59,3.08-2.59,3.43l-5.68,1
		L85.67,91.27z M95.32,108.03l-6.49,1.14l-1.08-6.15l6.49-1.14c2.12-0.38,3.37,0.5,3.73,2.53
		C98.32,106.48,97.44,107.65,95.32,108.03z"/>
	<path class="st1" d="M130.55,101.58l-12.3,2.17l-1.02-5.76l9.75-1.72c1.31-0.23,1.66-0.73,1.43-2.05l-0.5-2.84
		c-0.23-1.27-0.72-1.62-2.04-1.39l-9.75,1.72l-0.96-5.47l11.87-2.09c1.31-0.23,1.66-0.73,1.44-2.01l-0.5-2.84
		c-0.23-1.31-0.73-1.66-2.04-1.43l-17.05,3.01c-1.27,0.22-1.66,0.73-1.43,2.04l4.7,26.63c0.23,1.31,0.78,1.66,2.05,1.43l13.23-2.33
		c1.54-2.25,2.92-4.61,4.12-7.08C131.28,101.51,130.95,101.51,130.55,101.58z"/>
	<path class="st1" d="M29.11,69.51l1.45,1.31l4.46-4.95c1.17,0.57,3,1.09,5.13,0.38c3.5-1.16,13.38-12.48,15.83-17.52
		c1.04-2.13,1.35-2.04,2.39-1.71c0.85,0.27,2.02,0.63,3.38,0.11l0.55-0.21c1.99-0.79,3.09-1.23,5.55-0.22
		c0.49,0.2,0.94,0.41,1.36,0.6c2.4,1.1,5.12,2.34,8.15-1.86c1.41-1.96,2.63-3.9,3.48-5.33l0.99,1.38l6.37,1.68l2.22-2.12
		c0.98,0.72,2.24,1.72,2.83,2.45l1.06,1.34c1.36,1.74,3.06,3.89,4.23,5.09c1.76,1.78,3.87,3.14,7.58,1.01
		c0.22,0.29,0.51,0.87,0.7,1.25c0.26,0.52,0.59,1.18,1.04,1.75c0.51-0.27,1.03-0.53,1.56-0.76c0.5-0.22,2.6,0.07,1.57,0.52
		c-0.74,0.32-1.45,0.7-2.14,1.1c0.46,0.25,1.01,0.36,1.67,0.24c0.86-0.16,1.54-0.57,2.14-0.93c1.17-0.7,1.35-0.81,2.44,0.41
		l0.32,0.36c2.7,3.05,5.74,6.5,11.11,4.73c3-0.98,3.23-0.65,4.53,1.21l0.08,0.11c0.24-0.3,0.47-0.61,0.71-0.92
		c0.36-0.46,2.35,0.33,1.91,0.89c-0.43,0.55-0.86,1.11-1.29,1.66c0.92,0.89,1.88,1.43,2.73,1.87c-0.56-2.17-1.27-4.28-2.08-6.33
		c-1.55-2-3.26-3.04-7.61-1.6c-3.17,1.04-4.8-0.59-7.65-3.8l-0.32-0.36c-2.87-3.24-5.26-1.81-6.54-1.05
		c-0.26,0.15-0.51,0.3-0.74,0.41c-0.16-0.27-0.36-0.67-0.51-0.96c-0.57-1.16-1.29-2.6-2.74-3.03c-0.57-0.17-1.48-0.23-2.55,0.41
		c-1.86,1.11-2.37,0.74-3.58-0.49c-1.04-1.06-2.75-3.23-3.99-4.81l-1.09-1.37c-1.31-1.63-4.28-3.63-4.62-3.86l-1.09-0.73l-2.81,2.68
		L83.8,38.6l-3.3-4.62l-1.24,2.3c-0.02,0.04-1.98,3.66-4.54,7.21c-1.46,2.04-1.82,1.88-4.15,0.81c-0.46-0.21-0.95-0.43-1.48-0.65
		c-3.67-1.5-5.77-0.67-7.98,0.21l-0.53,0.21c-0.27,0.11-0.58,0.03-1.23-0.18c-1.95-0.61-4.21-0.9-6.29,3.4
		c-2.52,5.18-11.84,15.16-13.93,15.85c-1.83,0.61-3.29-0.57-3.33-0.61l-1.21-1.05l-5.03,5.59"/>
	<path class="st1" d="M94.67,71.57c-0.11,0.47,2.01,0.56,2.17-0.13c0.52-2.3,1.4-4.58,2.57-6.73c-1.04,0.88-2.09,1.57-3.17,2.12
		C95.57,68.37,95.04,69.96,94.67,71.57z"/>
	<path class="st1" d="M98.01,63.4c0.08-0.08,0.17-0.14,0.25-0.22c0.32-0.31,1.37,0.01,1.81,0.38c2.19-3.6,5.21-6.73,8.76-8.81
		c-0.39-0.21-0.71-0.52-0.99-0.86C103.82,56.05,100.43,59.44,98.01,63.4z"/>
	<path class="st1" d="M108.84,54.76c0.7-0.41,1.41-0.78,2.14-1.1c1.03-0.45-1.07-0.74-1.57-0.52c-0.53,0.23-1.05,0.49-1.56,0.76
		C108.13,54.24,108.45,54.55,108.84,54.76z"/>
	<path class="st1" d="M118.49,69.56c-0.62-0.46-1.33-0.97-2.09-1.21c-0.45-0.15-1.05-0.27-1.5-0.05c-0.43,0.21,0.05,0.56,0.31,0.64
		c2.37,0.77,5.02,4.09,6.7,6.1c0.37,0.44,2.47,0.47,1.92-0.18C122.22,72.92,120.51,71.05,118.49,69.56z"/>
	<path class="st1" d="M130.13,65.54c0.78-1,1.55-2.01,2.33-3.01c-0.34-0.33-0.68-0.71-1-1.15l-0.34-0.48
		c-0.97,1.25-1.94,2.5-2.91,3.76C127.78,65.21,129.77,66,130.13,65.54z"/>
	<path class="st1" d="M132.46,62.53c0.43-0.55,0.86-1.11,1.29-1.66c0.44-0.56-1.55-1.35-1.91-0.89c-0.24,0.31-0.47,0.61-0.71,0.92
		l0.34,0.48C131.78,61.82,132.12,62.2,132.46,62.53z"/>
	<path class="st1" d="M81.71,66.12c0.41,0.52,2.4,0.44,2.11,0.07c-2.46-3.14-4.81-5.25-8.1-7.59c-2.49-1.77-6.27-5.54-9.87-4.66
		c-4.79,1.18-3.94,5.7-5.97,9.38c-2.08,3.78-5.08,4.77-4.13,9.67c0.11,0.57,2.24,0.77,2.11,0.07c-1.11-5.73,5.31-8.84,5.94-14.48
		C64.8,49.64,79.44,63.23,81.71,66.12z"/>
	<path class="st1" d="M84.46,58.79c2.67-0.83,5.23-2.38,6.93-4.62c1.95-2.57,1.82-7.39-0.23-9.91c-0.42-0.51-2.42-0.31-2.11,0.07
		c4.47,5.49-0.57,12.02-6.07,13.73C81.89,58.4,83.94,58.96,84.46,58.79z"/>
	<path class="st1" d="M39.58,66.86c0.5,1.94-0.43,4.04-0.1,6.11c0.43,2.68-1.05,5.36-3.08,7.04c-0.65,0.55,1.41,0.91,1.85,0.54
		c1.66-1.39,2.85-3.21,3.39-5.31c0.44-1.74-0.36-3.57-0.1-5.36c0.15-1.08,0.5-1.81,0.22-2.91C41.57,66.29,39.46,66.41,39.58,66.86z"
		/>
	<path class="st1" d="M58.29,55.83c0.41-1.26,1.83-1.38,2.76-2.14c0.41-0.33-1.51-1-2.03-0.58c-0.7,0.57-1.6,0.71-2.28,1.31
		c-1.26,1.11-1.11,3.64-1.53,5.11c-0.9,3.1-4.16,5.65-6.95,7.03c-0.72,0.36,1.26,1.01,1.78,0.75c2.55-1.26,4.87-3.19,6.43-5.56
		C57.66,59.93,57.64,57.81,58.29,55.83z"/>
	<path class="st1" d="M79.67,42.72c0.72-0.04,1.45-0.08,2.17-0.12C81.79,41.98,79.63,42.1,79.67,42.72z"/>
	<path class="st1" d="M81.85,42.95c-0.01-0.12,0-0.23-0.01-0.35c-0.72,0.04-1.45,0.08-2.17,0.12c0.01,0.11,0.01,0.22,0.02,0.32
		C79.72,43.66,81.82,43.54,81.85,42.95z"/>
	<path class="st1" d="M79.43,55.71c1.24-4.12,2.63-8.43,2.42-12.76c-0.03,0.59-2.12,0.71-2.16,0.09c-0.01-0.11-0.01-0.21-0.02-0.32
		c0.31,4.38-1.09,8.72-2.34,12.88C77.12,56.27,79.26,56.27,79.43,55.71z"/>
	<path class="st1" d="M81.86,42.93c-0.01-0.11-0.01-0.22-0.02-0.32c0.01,0.12,0,0.23,0.01,0.35C81.85,42.94,81.86,42.94,81.86,42.93
		z"/>
	<path class="st1" d="M100.21,64c0.13-0.13,0.05-0.29-0.13-0.44c-0.23,0.38-0.45,0.76-0.66,1.14C99.68,64.48,99.95,64.25,100.21,64z
		"/>
	<path class="st1" d="M79.79,69.96c-4.72,1.7-9.71,2.46-14.67,3.13c-1.13,0.15,0.75,1.1,1.3,1.03c5.1-0.69,10.16-1.55,15.05-3.2
		c5.49-1.86,10.31-1.81,14.78-4.09c0.51-1.17,1.1-2.32,1.77-3.42C93.02,67.95,86.07,67.7,79.79,69.96z"/>
	<path class="st1" d="M98.27,63.18c-0.08,0.08-0.17,0.14-0.25,0.22c-0.67,1.1-1.26,2.25-1.77,3.42c1.08-0.55,2.13-1.24,3.17-2.12
		c0.21-0.39,0.43-0.77,0.66-1.14C99.64,63.19,98.59,62.88,98.27,63.18z"/>
</g>
</svg>
