<?xml version="1.0" encoding="UTF-8" standalone="no"?>
<!-- Created with Inkscape (http://www.inkscape.org/) -->

<svg
        xmlns:dc="http://purl.org/dc/elements/1.1/"
        xmlns:cc="http://creativecommons.org/ns#"
        xmlns:rdf="http://www.w3.org/1999/02/22-rdf-syntax-ns#"
        xmlns:svg="http://www.w3.org/2000/svg"
        xmlns="http://www.w3.org/2000/svg"
        xmlns:sodipodi="http://sodipodi.sourceforge.net/DTD/sodipodi-0.dtd"
        xmlns:inkscape="http://www.inkscape.org/namespaces/inkscape"
        width="49.602322mm"
        height="49.602669mm"
        viewBox="0 0 49.602322 49.602669"
        version="1.1"
        id="svg4105"
        inkscape:version="0.92.1 r15371"
        sodipodi:docname="Stamm-Senioren-Tourengruppe.svg">
    <defs
            id="defs4099"/>
    <sodipodi:namedview
            id="base"
            pagecolor="#ffffff"
            bordercolor="#666666"
            borderopacity="1.0"
            inkscape:pageopacity="0.0"
            inkscape:pageshadow="2"
            inkscape:zoom="0.35"
            inkscape:cx="1822.3081"
            inkscape:cy="-986.26266"
            inkscape:document-units="mm"
            inkscape:current-layer="layer1"
            showgrid="false"
            fit-margin-top="0"
            fit-margin-left="0"
            fit-margin-right="0"
            fit-margin-bottom="0"
            inkscape:window-width="1920"
            inkscape:window-height="1137"
            inkscape:window-x="-8"
            inkscape:window-y="-8"
            inkscape:window-maximized="1"/>
    <metadata
            id="metadata4102">
        <rdf:RDF>
            <cc:Work
                    rdf:about="">
                <dc:format>image/svg+xml</dc:format>
                <dc:type
                        rdf:resource="http://purl.org/dc/dcmitype/StillImage"/>
                <dc:title></dc:title>
            </cc:Work>
        </rdf:RDF>
    </metadata>
    <g
            inkscape:label="Ebene 1"
            inkscape:groupmode="layer"
            id="layer1"
            transform="translate(376.31902,161.718)">
        <path
                d="m -326.7167,-136.91667 c 0,13.69731 -11.10403,24.80134 -24.80133,24.80134 -13.69731,0 -24.80099,-11.10403 -24.80099,-24.80134 0,-13.6973 11.10368,-24.80133 24.80099,-24.80133 13.6973,0 24.80133,11.10403 24.80133,24.80133"
                style="fill:#283e64;fill-opacity:1;fill-rule:nonzero;stroke:none;stroke-width:0.35277775"
                id="path266"
                inkscape:connector-curvature="0"/>
        <path
                d="m -361.82705,-152.98576 v 0.33513 c 0,0.17145 -0.0614,0.23248 -0.23248,0.23248 h -1.17686 v 3.82482 c 0,0.1711 -0.0614,0.23248 -0.23248,0.23248 h -0.39688 c -0.1711,0 -0.23248,-0.0614 -0.23248,-0.23248 v -3.82482 h -1.17687 c -0.1778,0 -0.23283,-0.061 -0.23283,-0.23248 v -0.33513 c 0,-0.17075 0.055,-0.23249 0.23283,-0.23249 h 3.21557 c 0.1711,0 0.23248,0.0617 0.23248,0.23249"
                style="fill:#ffffff;fill-opacity:1;fill-rule:nonzero;stroke:none;stroke-width:0.35277775"
                id="path270"
                inkscape:connector-curvature="0"/>
        <path
                d="m -359.34314,-152.52034 c -0.70485,0 -1.09502,0.34184 -1.09502,0.9779 v 1.5053 c 0,0.63641 0.39017,0.9786 1.09502,0.9786 0.69815,0 1.09467,-0.34219 1.09467,-0.9786 v -1.5053 c 0,-0.63606 -0.39652,-0.9779 -1.09467,-0.9779 m 0,-0.80081 c 1.25201,0 1.9498,0.68439 1.9498,1.78576 v 1.4919 c 0,1.10137 -0.69779,1.78541 -1.9498,1.78541 -1.25871,0 -1.95686,-0.68404 -1.95686,-1.78541 v -1.4919 c 0,-1.10137 0.69815,-1.78576 1.95686,-1.78576"
                style="fill:#ffffff;fill-opacity:1;fill-rule:nonzero;stroke:none;stroke-width:0.35277775"
                id="path274"
                inkscape:connector-curvature="0"/>
        <path
                d="m -354.54032,-149.05871 c 0.7045,0 1.0534,-0.3556 1.0534,-0.9645 v -2.96262 c 0,-0.17075 0.0617,-0.23249 0.23283,-0.23249 h 0.38982 c 0.17815,0 0.23248,0.0617 0.23248,0.23249 v 2.95557 c 0,1.07421 -0.64981,1.77235 -1.90853,1.77235 -1.25871,0 -1.91593,-0.69814 -1.91593,-1.77235 v -2.95557 c 0,-0.17075 0.0617,-0.23249 0.23283,-0.23249 h 0.39688 c 0.17109,0 0.23248,0.0617 0.23248,0.23249 v 2.96262 c 0,0.6089 0.34889,0.9645 1.05374,0.9645"
                style="fill:#ffffff;fill-opacity:1;fill-rule:nonzero;stroke:none;stroke-width:0.35277775"
                id="path278"
                inkscape:connector-curvature="0"/>
        <path
                d="m -349.50498,-152.41804 h -1.18321 v 1.40935 h 1.18321 c 0.45861,0 0.71826,-0.24624 0.71826,-0.7045 0,-0.45156 -0.25294,-0.70485 -0.71826,-0.70485 m 1.62172,0.70485 c 0,0.71155 -0.33549,1.19027 -0.90346,1.38183 0.0892,0.0755 0.15734,0.1711 0.21907,0.29422 l 0.75283,1.44392 c 0.0681,0.12982 0.0543,0.23248 -0.11642,0.23248 h -0.39687 c -0.29422,0 -0.38312,-0.0342 -0.46496,-0.20532 l -0.57503,-1.16311 c -0.1778,-0.37606 -0.34219,-0.47872 -0.81421,-0.47872 h -0.50588 v 1.61467 c 0,0.17074 -0.0617,0.23248 -0.23319,0.23248 h -0.38982 c -0.1778,0 -0.23954,-0.0617 -0.23954,-0.23248 v -4.39244 c 0,-0.1711 0.0617,-0.23283 0.23954,-0.23283 h 1.88842 c 0.95109,0 1.53952,0.56091 1.53952,1.5053"
                style="fill:#ffffff;fill-opacity:1;fill-rule:nonzero;stroke:none;stroke-width:0.35277775"
                id="path282"
                inkscape:connector-curvature="0"/>
        <path
                d="m -343.73755,-152.98576 v 0.33513 c 0,0.17145 -0.0617,0.23248 -0.23954,0.23248 h -2.09338 v 1.19769 h 1.77165 c 0.17145,0 0.23248,0.0617 0.23248,0.23248 v 0.33514 c 0,0.17145 -0.061,0.23248 -0.23248,0.23248 h -1.77165 v 1.25906 h 2.16852 c 0.1778,0 0.23248,0.0617 0.23248,0.23283 v 0.33514 c 0,0.1711 -0.0547,0.23248 -0.23248,0.23248 h -2.79153 c -0.1778,0 -0.23953,-0.0614 -0.23953,-0.23248 v -4.39243 c 0,-0.17075 0.0617,-0.23249 0.23953,-0.23249 h 2.71639 c 0.1778,0 0.23954,0.0617 0.23954,0.23249"
                style="fill:#ffffff;fill-opacity:1;fill-rule:nonzero;stroke:none;stroke-width:0.35277775"
                id="path286"
                inkscape:connector-curvature="0"/>
        <path
                d="m -338.9964,-152.98576 v 4.39243 c 0,0.1711 -0.0547,0.23248 -0.23248,0.23248 h -0.39017 c -0.11642,0 -0.1711,-0.0272 -0.22578,-0.11641 l -1.67604,-2.4765 c -0.32174,-0.47908 -0.53376,-1.10843 -0.56127,-1.14935 h -0.0409 c 0,0.0547 0.15028,0.71155 0.15028,1.36137 v 2.14841 c 0,0.1711 -0.0614,0.23248 -0.23248,0.23248 h -0.36266 c -0.1778,0 -0.23953,-0.0614 -0.23953,-0.23248 v -4.39243 c 0,-0.17075 0.0617,-0.23249 0.23953,-0.23249 h 0.38982 c 0.12347,0 0.17815,0.0409 0.22613,0.10937 l 1.66264,2.46309 c 0.34855,0.51964 0.54011,1.10808 0.57468,1.16311 h 0.0409 c 0,-0.0688 -0.15064,-0.69109 -0.15064,-1.38218 v -2.1209 c 0,-0.17075 0.0617,-0.23249 0.23284,-0.23249 h 0.36265 c 0.1778,0 0.23248,0.0617 0.23248,0.23249"
                style="fill:#ffffff;fill-opacity:1;fill-rule:nonzero;stroke:none;stroke-width:0.35277775"
                id="path290"
                inkscape:connector-curvature="0"/>
        <path
                d="m -335.92441,-150.32444 v 0.30127 c 0,0.1778 -0.0617,0.23248 -0.23248,0.23248 h -1.57374 c -0.1778,0 -0.23248,-0.0547 -0.23248,-0.23248 v -0.30127 c 0,-0.17075 0.0547,-0.23249 0.23248,-0.23249 h 1.57374 c 0.17075,0 0.23248,0.0617 0.23248,0.23249"
                style="fill:#ffffff;fill-opacity:1;fill-rule:nonzero;stroke:none;stroke-width:0.35277775"
                id="path294"
                inkscape:connector-curvature="0"/>
        <path
                d="m -359.88712,-142.57952 v 0.91686 c 0,0.93028 -0.69815,1.61467 -1.9498,1.61467 -1.25907,0 -1.95686,-0.68439 -1.95686,-1.78576 v -1.4986 c 0,-1.09432 0.69779,-1.77871 1.95686,-1.77871 1.00541,0 1.6009,0.40393 1.8609,1.1423 0.0614,0.16439 0.0205,0.23989 -0.14358,0.30127 l -0.37677,0.13017 c -0.16369,0.0614 -0.23248,0.0272 -0.29422,-0.14358 -0.15028,-0.41769 -0.47872,-0.62971 -1.04633,-0.62971 -0.71156,0 -1.09503,0.34185 -1.09503,0.97191 v 1.51165 c 0,0.63641 0.39018,0.97825 1.09503,0.97825 0.69779,0 1.10807,-0.34184 1.10807,-0.80715 v -0.35596 h -1.03293 c -0.1711,0 -0.23284,-0.061 -0.23284,-0.23918 v -0.32843 c 0,-0.1778 0.0617,-0.23249 0.23284,-0.23249 h 1.64218 c 0.1778,0 0.23248,0.0547 0.23248,0.23249"
                style="fill:#ffffff;fill-opacity:1;fill-rule:nonzero;stroke:none;stroke-width:0.35277775"
                id="path298"
                inkscape:connector-curvature="0"/>
        <path
                d="m -356.91779,-144.20802 h -1.18322 v 1.40935 h 1.18322 c 0.45861,0 0.71826,-0.24624 0.71826,-0.7045 0,-0.45155 -0.25295,-0.70485 -0.71826,-0.70485 m 1.62172,0.70485 c 0,0.71155 -0.33549,1.19027 -0.90346,1.38218 0.0892,0.0751 0.15733,0.17075 0.21907,0.29387 l 0.75283,1.44392 c 0.0681,0.12982 0.0543,0.23248 -0.11642,0.23248 h -0.39687 c -0.29422,0 -0.38312,-0.0342 -0.46496,-0.20532 l -0.57503,-1.16311 c -0.1778,-0.37606 -0.3422,-0.47872 -0.81421,-0.47872 h -0.50589 v 1.61467 c 0,0.17074 -0.0617,0.23248 -0.23318,0.23248 h -0.38982 c -0.1778,0 -0.23954,-0.0617 -0.23954,-0.23248 v -4.39244 c 0,-0.1711 0.0617,-0.23283 0.23954,-0.23283 h 1.88842 c 0.95109,0 1.53952,0.56091 1.53952,1.5053"
                style="fill:#ffffff;fill-opacity:1;fill-rule:nonzero;stroke:none;stroke-width:0.35277775"
                id="path302"
                inkscape:connector-curvature="0"/>
        <path
                d="m -352.46397,-140.84873 c 0.7045,0 1.05339,-0.3556 1.05339,-0.96449 v -2.96263 c 0,-0.17074 0.0617,-0.23248 0.23284,-0.23248 h 0.38982 c 0.17815,0 0.23248,0.0617 0.23248,0.23248 v 2.95557 c 0,1.07421 -0.64982,1.77236 -1.90853,1.77236 -1.25907,0 -1.91594,-0.69815 -1.91594,-1.77236 v -2.95557 c 0,-0.17074 0.0617,-0.23248 0.23284,-0.23248 h 0.39687 c 0.1711,0 0.23248,0.0617 0.23248,0.23248 v 2.96263 c 0,0.60889 0.3489,0.96449 1.05375,0.96449"
                style="fill:#ffffff;fill-opacity:1;fill-rule:nonzero;stroke:none;stroke-width:0.35277775"
                id="path306"
                inkscape:connector-curvature="0"/>
        <path
                d="m -346.71031,-143.42115 c 0,-0.49248 -0.29386,-0.78669 -0.79339,-0.78669 h -1.10843 v 1.56668 h 1.10843 c 0.49953,0 0.79339,-0.28751 0.79339,-0.77999 m 0.90347,0 c 0,0.99237 -0.62266,1.58045 -1.61502,1.58045 h -1.19027 v 1.45732 c 0,0.1711 -0.0614,0.23283 -0.23283,0.23283 h -0.38982 c -0.1778,0 -0.23954,-0.0617 -0.23954,-0.23283 v -4.39243 c 0,-0.17075 0.0617,-0.23249 0.23954,-0.23249 h 1.81292 c 0.98531,0 1.61502,0.59514 1.61502,1.58715"
                style="fill:#ffffff;fill-opacity:1;fill-rule:nonzero;stroke:none;stroke-width:0.35277775"
                id="path310"
                inkscape:connector-curvature="0"/>
        <path
                d="m -342.22237,-143.42115 c 0,-0.49248 -0.29387,-0.78669 -0.7934,-0.78669 h -1.10843 v 1.56668 h 1.10843 c 0.49953,0 0.7934,-0.28751 0.7934,-0.77999 m 0.90346,0 c 0,0.99237 -0.62265,1.58045 -1.61502,1.58045 h -1.19027 v 1.45732 c 0,0.1711 -0.0614,0.23283 -0.23283,0.23283 h -0.38982 c -0.1778,0 -0.23954,-0.0617 -0.23954,-0.23283 v -4.39243 c 0,-0.17075 0.0617,-0.23249 0.23954,-0.23249 h 1.81292 c 0.98531,0 1.61502,0.59514 1.61502,1.58715"
                style="fill:#ffffff;fill-opacity:1;fill-rule:nonzero;stroke:none;stroke-width:0.35277775"
                id="path314"
                inkscape:connector-curvature="0"/>
        <path
                d="m -337.30278,-144.77578 v 0.33514 c 0,0.17145 -0.0617,0.23248 -0.23954,0.23248 h -2.09338 v 1.19768 h 1.77165 c 0.17145,0 0.23248,0.0617 0.23248,0.23248 v 0.33514 c 0,0.17145 -0.061,0.23248 -0.23248,0.23248 h -1.77165 v 1.25907 h 2.16853 c 0.1778,0 0.23247,0.0617 0.23247,0.23283 v 0.33514 c 0,0.1711 -0.0547,0.23248 -0.23247,0.23248 h -2.79154 c -0.1778,0 -0.23953,-0.0614 -0.23953,-0.23248 v -4.39244 c 0,-0.17074 0.0617,-0.23248 0.23953,-0.23248 h 2.71639 c 0.1778,0 0.23954,0.0617 0.23954,0.23248"
                style="fill:#ffffff;fill-opacity:1;fill-rule:nonzero;stroke:none;stroke-width:0.35277775"
                id="path318"
                inkscape:connector-curvature="0"/>
        <path
                d="m -366.3601,-124.95598 c 0.97825,0 1.47779,0.35595 1.79952,1.03328 0.0751,0.15699 0.0342,0.23919 -0.13018,0.31433 l -0.37606,0.16439 c -0.15063,0.0681 -0.21237,0.0409 -0.29421,-0.11641 -0.18451,-0.36231 -0.45861,-0.57468 -0.99907,-0.57468 -0.66358,0 -0.99201,0.20532 -0.99201,0.62936 0,0.49283 0.56092,0.58173 1.18357,0.65017 0.80751,0.0889 1.73813,0.28751 1.73813,1.4298 0,0.91017 -0.69109,1.53282 -1.95015,1.53282 -1.0601,0 -1.60091,-0.40393 -1.88137,-1.143 -0.0614,-0.17074 -0.0205,-0.24624 0.14394,-0.30056 l 0.37606,-0.13723 c 0.15734,-0.0543 0.22578,-0.0204 0.29422,0.14358 0.17074,0.40393 0.53375,0.63641 1.06715,0.63641 0.7045,0 1.08761,-0.21872 1.08761,-0.71156 0,-0.47166 -0.50588,-0.57432 -1.08056,-0.63605 -0.83467,-0.0889 -1.8609,-0.21873 -1.8609,-1.41641 0,-0.86889 0.64312,-1.49824 1.87431,-1.49824"
                style="fill:#ffffff;fill-opacity:1;fill-rule:nonzero;stroke:none;stroke-width:0.35277775"
                id="path322"
                inkscape:connector-curvature="0"/>
        <path
                d="m -360.36634,-124.62077 v 0.33514 c 0,0.17145 -0.0617,0.23248 -0.23953,0.23248 h -2.09338 v 1.19768 h 1.77165 c 0.17145,0 0.23248,0.0617 0.23248,0.23248 v 0.33514 c 0,0.17145 -0.061,0.23248 -0.23248,0.23248 h -1.77165 v 1.25906 h 2.16852 c 0.1778,0 0.23248,0.0617 0.23248,0.23284 v 0.33513 c 0,0.1711 -0.0547,0.23248 -0.23248,0.23248 h -2.79153 c -0.1778,0 -0.23954,-0.0614 -0.23954,-0.23248 v -4.39243 c 0,-0.17075 0.0617,-0.23248 0.23954,-0.23248 h 2.71639 c 0.1778,0 0.23953,0.0617 0.23953,0.23248"
                style="fill:#ffffff;fill-opacity:1;fill-rule:nonzero;stroke:none;stroke-width:0.35277775"
                id="path326"
                inkscape:connector-curvature="0"/>
        <path
                d="m -355.62553,-124.62077 v 4.39243 c 0,0.1711 -0.0547,0.23248 -0.23248,0.23248 h -0.39017 c -0.11642,0 -0.1711,-0.0272 -0.22578,-0.11641 l -1.67605,-2.4765 c -0.32173,-0.47908 -0.53375,-1.10843 -0.56127,-1.14935 h -0.0409 c 0,0.0547 0.15029,0.71155 0.15029,1.36137 v 2.14841 c 0,0.1711 -0.0614,0.23248 -0.23249,0.23248 h -0.36265 c -0.1778,0 -0.23954,-0.0614 -0.23954,-0.23248 v -4.39243 c 0,-0.17075 0.0617,-0.23248 0.23954,-0.23248 h 0.38982 c 0.12347,0 0.17815,0.0409 0.22613,0.10936 l 1.66264,2.46309 c 0.34854,0.51964 0.5401,1.10808 0.57468,1.16311 h 0.0409 c 0,-0.0688 -0.15064,-0.69109 -0.15064,-1.38218 v -2.1209 c 0,-0.17075 0.0617,-0.23248 0.23283,-0.23248 h 0.36266 c 0.1778,0 0.23248,0.0617 0.23248,0.23248"
                style="fill:#ffffff;fill-opacity:1;fill-rule:nonzero;stroke:none;stroke-width:0.35277775"
                id="path330"
                inkscape:connector-curvature="0"/>
        <path
                d="m -354.27093,-124.85329 h 0.38982 c 0.17145,0 0.23318,0.0617 0.23318,0.23248 v 4.39244 c 0,0.1711 -0.0617,0.23283 -0.23318,0.23283 h -0.38982 c -0.1778,0 -0.23954,-0.0617 -0.23954,-0.23283 v -4.39244 c 0,-0.17074 0.0617,-0.23248 0.23954,-0.23248"
                style="fill:#ffffff;fill-opacity:1;fill-rule:nonzero;stroke:none;stroke-width:0.35277775"
                id="path334"
                inkscape:connector-curvature="0"/>
        <path
                d="m -350.72005,-124.15532 c -0.70485,0 -1.09502,0.34184 -1.09502,0.9779 v 1.5053 c 0,0.63642 0.39017,0.97861 1.09502,0.97861 0.69815,0 1.09467,-0.34219 1.09467,-0.97861 v -1.5053 c 0,-0.63606 -0.39652,-0.9779 -1.09467,-0.9779 m 0,-0.8008 c 1.25201,0 1.9498,0.68439 1.9498,1.78576 v 1.49189 c 0,1.10138 -0.69779,1.78541 -1.9498,1.78541 -1.25871,0 -1.95686,-0.68403 -1.95686,-1.78541 v -1.49189 c 0,-1.10137 0.69815,-1.78576 1.95686,-1.78576"
                style="fill:#ffffff;fill-opacity:1;fill-rule:nonzero;stroke:none;stroke-width:0.35277775"
                id="path338"
                inkscape:connector-curvature="0"/>
        <path
                d="m -345.75294,-124.05301 h -1.18321 v 1.40934 h 1.18321 c 0.45861,0 0.71826,-0.24624 0.71826,-0.70449 0,-0.45156 -0.25294,-0.70485 -0.71826,-0.70485 m 1.62172,0.70485 c 0,0.71155 -0.33549,1.19027 -0.90346,1.38183 0.0892,0.0755 0.15734,0.17109 0.21907,0.29421 l 0.75283,1.44392 c 0.0681,0.12983 0.0543,0.23248 -0.11642,0.23248 h -0.39687 c -0.29422,0 -0.38312,-0.0342 -0.46496,-0.20531 l -0.57503,-1.16311 c -0.1778,-0.37606 -0.34219,-0.47872 -0.81421,-0.47872 h -0.50588 v 1.61466 c 0,0.17075 -0.0617,0.23248 -0.23319,0.23248 h -0.38982 c -0.1778,0 -0.23954,-0.0617 -0.23954,-0.23248 v -4.39243 c 0,-0.1711 0.0617,-0.23284 0.23954,-0.23284 h 1.88842 c 0.95109,0 1.53952,0.56092 1.53952,1.50531"
                style="fill:#ffffff;fill-opacity:1;fill-rule:nonzero;stroke:none;stroke-width:0.35277775"
                id="path342"
                inkscape:connector-curvature="0"/>
        <path
                d="m -339.98513,-124.62077 v 0.33514 c 0,0.17145 -0.0617,0.23248 -0.23953,0.23248 h -2.09338 v 1.19768 h 1.77165 c 0.17145,0 0.23247,0.0617 0.23247,0.23248 v 0.33514 c 0,0.17145 -0.061,0.23248 -0.23247,0.23248 h -1.77165 v 1.25906 h 2.16852 c 0.1778,0 0.23248,0.0617 0.23248,0.23284 v 0.33513 c 0,0.1711 -0.0547,0.23248 -0.23248,0.23248 h -2.79153 c -0.1778,0 -0.23954,-0.0614 -0.23954,-0.23248 v -4.39243 c 0,-0.17075 0.0617,-0.23248 0.23954,-0.23248 h 2.71639 c 0.1778,0 0.23953,0.0617 0.23953,0.23248"
                style="fill:#ffffff;fill-opacity:1;fill-rule:nonzero;stroke:none;stroke-width:0.35277775"
                id="path346"
                inkscape:connector-curvature="0"/>
        <path
                d="m -335.24436,-124.62077 v 4.39243 c 0,0.1711 -0.0547,0.23248 -0.23248,0.23248 h -0.39017 c -0.11642,0 -0.1711,-0.0272 -0.22578,-0.11641 l -1.67605,-2.4765 c -0.32173,-0.47908 -0.53375,-1.10843 -0.56127,-1.14935 h -0.0409 c 0,0.0547 0.15029,0.71155 0.15029,1.36137 v 2.14841 c 0,0.1711 -0.0614,0.23248 -0.23249,0.23248 h -0.36265 c -0.1778,0 -0.23954,-0.0614 -0.23954,-0.23248 v -4.39243 c 0,-0.17075 0.0617,-0.23248 0.23954,-0.23248 h 0.38982 c 0.12347,0 0.17815,0.0409 0.22613,0.10936 l 1.66264,2.46309 c 0.34855,0.51964 0.5401,1.10808 0.57467,1.16311 h 0.0409 c 0,-0.0688 -0.15063,-0.69109 -0.15063,-1.38218 v -2.1209 c 0,-0.17075 0.0617,-0.23248 0.23283,-0.23248 h 0.36266 c 0.1778,0 0.23248,0.0617 0.23248,0.23248"
                style="fill:#ffffff;fill-opacity:1;fill-rule:nonzero;stroke:none;stroke-width:0.35277775"
                id="path350"
                inkscape:connector-curvature="0"/>
        <path
                d="m -372.73285,-122.96953 c 1.74166,-0.57538 6.65656,-6.21735 7.87788,-8.73089 0.55809,-1.14688 0.76447,-1.08232 1.31727,-0.91123 0.41346,0.12982 0.98037,0.30586 1.62772,0.0564 l 0.27093,-0.10724 c 1.02553,-0.40393 1.58785,-0.62759 2.85891,-0.11077 0.24765,0.10054 0.47449,0.20426 0.68686,0.30233 1.22626,0.55986 2.49343,1.14194 3.96452,-0.90276 0.74824,-1.03928 1.38994,-2.07116 1.81821,-2.79612 l 0.56198,0.78599 3.10585,0.82127 1.12995,-1.08091 c 0.50553,0.36618 1.18921,0.90276 1.50319,1.29116 l 0.53057,0.66993 c 0.68263,0.86854 1.53177,1.9491 2.11526,2.53929 0.86254,0.87948 1.90394,1.55011 3.71475,0.43004 0.12206,0.072 0.33479,0.5013 0.44909,0.73236 0.13723,0.2787 0.30727,0.62301 0.5401,0.90029 0.26282,0.40676 0.90593,0.53235 1.20333,0.47131 0.41345,-0.0801 0.74718,-0.27869 1.04351,-0.45402 0.59126,-0.35348 0.75001,-0.44626 1.34761,0.22578 l 0.15664,0.17639 c 1.33032,1.50389 2.83845,3.21169 5.46417,2.34738 1.06186,-0.34749 1.47038,-0.36795 1.82986,-0.0494 -0.0325,-0.54398 -0.0861,-1.08197 -0.15381,-1.61502 -0.52987,-0.0847 -1.20227,-0.003 -2.12443,0.2988 -1.64536,0.54258 -2.52695,-0.33443 -3.94018,-1.93357 l -0.1591,-0.17886 c -1.38677,-1.55787 -2.49378,-0.90029 -3.15489,-0.50553 -0.16333,0.097 -0.31856,0.18944 -0.45826,0.24165 -0.0956,-0.13511 -0.22436,-0.3937 -0.30762,-0.56232 -0.29245,-0.59338 -0.62512,-1.26507 -1.31304,-1.46685 -0.26494,-0.0748 -0.68862,-0.1076 -1.19768,0.19791 -1.00295,0.60007 -1.31304,0.35418 -1.91699,-0.26388 -0.52776,-0.5334 -1.3836,-1.62384 -2.00907,-2.419 l -0.54257,-0.68439 c -0.64841,-0.80327 -2.12443,-1.80164 -2.2913,-1.91417 l -0.47942,-0.31962 -1.39171,1.33103 -1.82633,-0.4833 -1.58503,-2.21298 -0.54575,1.01424 c -0.01,0.0173 -0.99272,1.83762 -2.28212,3.6262 -0.78175,1.08656 -1.02729,0.97155 -2.20204,0.43568 -0.22895,-0.10583 -0.47413,-0.21731 -0.74154,-0.32667 -1.8034,-0.73343 -2.83598,-0.32667 -3.92923,0.10548 l -0.26141,0.10266 c -0.17145,0.0646 -0.36125,0.0127 -0.68051,-0.0861 -0.98213,-0.30973 -2.02389,-0.43215 -3.03742,1.65277 -1.26894,2.61126 -5.97746,7.64575 -7.03791,7.99712 -0.97755,0.31997 -1.74343,-0.30198 -1.77024,-0.3242 l -0.36866,-0.31962 c 0,0.0148 -0.001,0.0289 -0.001,0.0437 0,0.59549 0.0293,1.18357 0.0723,1.76777 0.56868,0.28011 1.46685,0.54292 2.51919,0.19438"
                style="fill:#ffffff;fill-opacity:1;fill-rule:nonzero;stroke:none;stroke-width:0.35277775"
                id="path354"
                inkscape:connector-curvature="0"/>
    </g>
</svg>
