<?xml version="1.0" encoding="UTF-8" standalone="no"?>
<!-- Created with Inkscape (http://www.inkscape.org/) -->

<svg
        xmlns:dc="http://purl.org/dc/elements/1.1/"
        xmlns:cc="http://creativecommons.org/ns#"
        xmlns:rdf="http://www.w3.org/1999/02/22-rdf-syntax-ns#"
        xmlns:svg="http://www.w3.org/2000/svg"
        xmlns="http://www.w3.org/2000/svg"
        xmlns:sodipodi="http://sodipodi.sourceforge.net/DTD/sodipodi-0.dtd"
        xmlns:inkscape="http://www.inkscape.org/namespaces/inkscape"
        width="49.602322mm"
        height="49.602669mm"
        viewBox="0 0 49.602322 49.602669"
        version="1.1"
        id="svg3910"
        inkscape:version="0.92.1 r15371"
        sodipodi:docname="Sportklettern.svg">
    <defs
            id="defs3904"/>
    <sodipodi:namedview
            id="base"
            pagecolor="#ffffff"
            bordercolor="#666666"
            borderopacity="1.0"
            inkscape:pageopacity="0.0"
            inkscape:pageshadow="2"
            inkscape:zoom="0.35"
            inkscape:cx="2365.1652"
            inkscape:cy="-991.97697"
            inkscape:document-units="mm"
            inkscape:current-layer="layer1"
            showgrid="false"
            fit-margin-top="0"
            fit-margin-left="0"
            fit-margin-right="0"
            fit-margin-bottom="0"
            inkscape:window-width="1920"
            inkscape:window-height="1137"
            inkscape:window-x="-8"
            inkscape:window-y="-8"
            inkscape:window-maximized="1"/>
    <metadata
            id="metadata3907">
        <rdf:RDF>
            <cc:Work
                    rdf:about="">
                <dc:format>image/svg+xml</dc:format>
                <dc:type
                        rdf:resource="http://purl.org/dc/dcmitype/StillImage"/>
                <dc:title></dc:title>
            </cc:Work>
        </rdf:RDF>
    </metadata>
    <g
            inkscape:label="Ebene 1"
            inkscape:groupmode="layer"
            id="layer1"
            transform="translate(519.94997,163.22991)">
        <path
                d="m -470.34765,-138.42857 c 0,13.6973 -11.10403,24.80133 -24.80134,24.80133 -13.6973,0 -24.80098,-11.10403 -24.80098,-24.80133 0,-13.6973 11.10368,-24.80134 24.80098,-24.80134 13.69731,0 24.80134,11.10404 24.80134,24.80134"
                style="fill:#283e64;fill-opacity:1;fill-rule:nonzero;stroke:none;stroke-width:0.35277775"
                id="path106"
                inkscape:connector-curvature="0"/>
        <path
                d="m -506.15012,-151.42536 c 1.06539,0 1.60938,0.38735 1.95969,1.12465 0.0818,0.17181 0.037,0.26106 -0.14217,0.3429 l -0.40958,0.17886 c -0.16369,0.0744 -0.23072,0.0448 -0.31997,-0.12665 -0.20108,-0.39511 -0.49953,-0.62582 -1.08797,-0.62582 -0.72284,0 -1.08055,0.22366 -1.08055,0.68544 0,0.53623 0.61136,0.63324 1.2894,0.70768 0.87912,0.097 1.89195,0.31291 1.89195,1.5568 0,0.99131 -0.75248,1.669 -2.12302,1.669 -1.15464,0 -1.74343,-0.43921 -2.04893,-1.2439 -0.067,-0.18662 -0.0222,-0.26811 0.15628,-0.32808 l 0.40992,-0.14887 c 0.17145,-0.0596 0.24624,-0.0222 0.32068,0.15628 0.18591,0.43956 0.58067,0.69285 1.16205,0.69285 0.76694,0 1.18463,-0.23848 1.18463,-0.7747 0,-0.514 -0.55139,-0.62547 -1.17722,-0.69285 -0.90911,-0.0967 -2.02636,-0.23848 -2.02636,-1.54199 0,-0.94651 0.70027,-1.6316 2.04117,-1.6316"
                style="fill:#ffffff;fill-opacity:1;fill-rule:nonzero;stroke:none;stroke-width:0.35277775"
                id="path110"
                inkscape:connector-curvature="0"/>
        <path
                d="m -500.0926,-149.58531 c 0,-0.53657 -0.32032,-0.8569 -0.86431,-0.8569 h -1.2065 v 1.70639 h 1.2065 c 0.54399,0 0.86431,-0.31291 0.86431,-0.84949 m 0.98354,0 c 0,1.08056 -0.67804,1.7212 -1.75824,1.7212 h -1.29611 v 1.5868 c 0,0.18591 -0.0674,0.25329 -0.25364,0.25329 h -0.4244 c -0.19402,0 -0.26105,-0.0674 -0.26105,-0.25329 v -4.78332 c 0,-0.18591 0.067,-0.25294 0.26105,-0.25294 h 1.97415 c 1.0728,0 1.75824,0.64806 1.75824,1.72826"
                style="fill:#ffffff;fill-opacity:1;fill-rule:nonzero;stroke:none;stroke-width:0.35277775"
                id="path114"
                inkscape:connector-curvature="0"/>
        <path
                d="m -496.23272,-150.55376 c -0.76729,0 -1.19204,0.37254 -1.19204,1.06539 v 1.63901 c 0,0.69285 0.42475,1.06539 1.19204,1.06539 0.75953,0 1.19204,-0.37254 1.19204,-1.06539 v -1.63901 c 0,-0.69285 -0.43251,-1.06539 -1.19204,-1.06539 m 0,-0.87171 c 1.36313,0 2.12337,0.74507 2.12337,1.94451 v 1.62419 c 0,1.19944 -0.76024,1.94416 -2.12337,1.94416 -1.37089,0 -2.13078,-0.74472 -2.13078,-1.94416 v -1.62419 c 0,-1.19944 0.75989,-1.94451 2.13078,-1.94451"
                style="fill:#ffffff;fill-opacity:1;fill-rule:nonzero;stroke:none;stroke-width:0.35277775"
                id="path118"
                inkscape:connector-curvature="0"/>
        <path
                d="m -490.82358,-150.44214 h -1.28834 v 1.53494 h 1.28834 c 0.49954,0 0.78246,-0.26811 0.78246,-0.76729 0,-0.49177 -0.27552,-0.76765 -0.78246,-0.76765 m 1.76601,0.76765 c 0,0.7747 -0.36513,1.29646 -0.98355,1.5046 0.0967,0.0822 0.1711,0.18662 0.23848,0.32067 l 0.8195,1.57198 c 0.0744,0.14146 0.0596,0.25294 -0.127,0.25294 h -0.4318 c -0.32032,0 -0.41733,-0.037 -0.50659,-0.22331 l -0.62582,-1.26647 c -0.19368,-0.40958 -0.37254,-0.52176 -0.88653,-0.52176 h -0.55104 v 1.7586 c 0,0.18591 -0.0674,0.25294 -0.25365,0.25294 h -0.42439 c -0.19403,0 -0.26106,-0.067 -0.26106,-0.25294 v -4.78332 c 0,-0.18591 0.067,-0.25329 0.26106,-0.25329 h 2.05599 c 1.0354,0 1.6764,0.61101 1.6764,1.63936"
                style="fill:#ffffff;fill-opacity:1;fill-rule:nonzero;stroke:none;stroke-width:0.35277775"
                id="path122"
                inkscape:connector-curvature="0"/>
        <path
                d="m -484.49771,-151.06052 v 0.36512 c 0,0.18627 -0.0667,0.2533 -0.25329,0.2533 h -1.28129 v 4.16489 c 0,0.18592 -0.067,0.25295 -0.25329,0.25295 h -0.43216 c -0.18591,0 -0.25329,-0.067 -0.25329,-0.25295 v -4.16489 h -1.28129 c -0.19368,0 -0.2533,-0.067 -0.2533,-0.2533 v -0.36512 c 0,-0.18591 0.0596,-0.25329 0.2533,-0.25329 h 3.50132 c 0.18662,0 0.25329,0.0674 0.25329,0.25329"
                style="fill:#ffffff;fill-opacity:1;fill-rule:nonzero;stroke:none;stroke-width:0.35277775"
                id="path126"
                inkscape:connector-curvature="0"/>
        <path
                d="m -482.02343,-148.16217 v 0.32773 c 0,0.19368 -0.067,0.25294 -0.25365,0.25294 h -1.71309 c -0.19403,0 -0.25329,-0.0593 -0.25329,-0.25294 v -0.32773 c 0,-0.18627 0.0593,-0.25365 0.25329,-0.25365 h 1.71309 c 0.18662,0 0.25365,0.0674 0.25365,0.25365"
                style="fill:#ffffff;fill-opacity:1;fill-rule:nonzero;stroke:none;stroke-width:0.35277775"
                id="path130"
                inkscape:connector-curvature="0"/>
        <path
                d="m -509.12325,-137.08255 h -0.43251 c -0.31997,0 -0.41698,-0.037 -0.50624,-0.22366 l -0.75282,-1.51236 c -0.20073,-0.40216 -0.37218,-0.5214 -0.88653,-0.5214 h -0.37995 v 2.00413 c 0,0.18626 -0.0667,0.25329 -0.25329,0.25329 h -0.42474 c -0.19333,0 -0.26035,-0.067 -0.26035,-0.25329 v -4.78332 c 0,-0.18591 0.067,-0.25329 0.26035,-0.25329 h 0.42474 c 0.18662,0 0.25329,0.0674 0.25329,0.25329 v 1.9297 h 0.29845 0.0963 l 1.49754,-1.97415 c 0.13406,-0.17885 0.2085,-0.20884 0.50695,-0.20884 h 0.47695 c 0.1711,0 0.2159,0.11924 0.11889,0.24624 l -1.66123,2.12301 c 0.35031,0.15664 0.58843,0.43216 0.80468,0.84914 l 0.9458,1.81822 c 0.0748,0.14181 0.0596,0.25329 -0.12629,0.25329"
                style="fill:#ffffff;fill-opacity:1;fill-rule:nonzero;stroke:none;stroke-width:0.35277775"
                id="path134"
                inkscape:connector-curvature="0"/>
        <path
                d="m -507.2305,-142.11912 v 4.16489 h 2.13854 c 0.18627,0 0.25294,0.0674 0.25294,0.2533 v 0.36512 c 0,0.18592 -0.0667,0.2533 -0.25294,0.2533 h -2.81658 c -0.19367,0 -0.26035,-0.0674 -0.26035,-0.2533 v -4.78331 c 0,-0.18591 0.0667,-0.25329 0.26035,-0.25329 h 0.42475 c 0.18662,0 0.25329,0.0674 0.25329,0.25329"
                style="fill:#ffffff;fill-opacity:1;fill-rule:nonzero;stroke:none;stroke-width:0.35277775"
                id="path138"
                inkscape:connector-curvature="0"/>
        <path
                d="m -500.577,-142.11912 v 0.36513 c 0,0.18626 -0.067,0.25329 -0.2607,0.25329 h -2.27965 v 1.30387 h 1.92969 c 0.18591,0 0.25294,0.067 0.25294,0.25329 v 0.36513 c 0,0.18591 -0.067,0.25329 -0.25294,0.25329 h -1.92969 v 1.37089 h 2.36149 c 0.19368,0 0.2533,0.0674 0.2533,0.2533 v 0.36512 c 0,0.18592 -0.0596,0.2533 -0.2533,0.2533 h -3.03953 c -0.19368,0 -0.26071,-0.0674 -0.26071,-0.2533 v -4.78331 c 0,-0.18591 0.067,-0.25329 0.26071,-0.25329 h 2.95769 c 0.19367,0 0.2607,0.0674 0.2607,0.25329"
                style="fill:#ffffff;fill-opacity:1;fill-rule:nonzero;stroke:none;stroke-width:0.35277775"
                id="path142"
                inkscape:connector-curvature="0"/>
        <path
                d="m -495.96503,-142.11912 v 0.36513 c 0,0.18626 -0.0667,0.25329 -0.2533,0.25329 h -1.28129 v 4.16489 c 0,0.18592 -0.067,0.2533 -0.25329,0.2533 h -0.43215 c -0.18592,0 -0.2533,-0.0674 -0.2533,-0.2533 v -4.16489 h -1.28129 c -0.19367,0 -0.25329,-0.067 -0.25329,-0.25329 v -0.36513 c 0,-0.18591 0.0596,-0.25329 0.25329,-0.25329 h 3.50132 c 0.18662,0 0.2533,0.0674 0.2533,0.25329"
                style="fill:#ffffff;fill-opacity:1;fill-rule:nonzero;stroke:none;stroke-width:0.35277775"
                id="path146"
                inkscape:connector-curvature="0"/>
        <path
                d="m -491.56843,-142.11912 v 0.36513 c 0,0.18626 -0.067,0.25329 -0.25365,0.25329 h -1.28129 v 4.16489 c 0,0.18592 -0.067,0.2533 -0.25294,0.2533 h -0.43251 c -0.18626,0 -0.25329,-0.0674 -0.25329,-0.2533 v -4.16489 h -1.28164 c -0.19332,0 -0.25294,-0.067 -0.25294,-0.25329 v -0.36513 c 0,-0.18591 0.0596,-0.25329 0.25294,-0.25329 h 3.50167 c 0.18662,0 0.25365,0.0674 0.25365,0.25329"
                style="fill:#ffffff;fill-opacity:1;fill-rule:nonzero;stroke:none;stroke-width:0.35277775"
                id="path150"
                inkscape:connector-curvature="0"/>
        <path
                d="m -487.29167,-142.11912 v 0.36513 c 0,0.18626 -0.0667,0.25329 -0.26071,0.25329 h -2.27965 v 1.30387 h 1.9297 c 0.18626,0 0.25294,0.067 0.25294,0.25329 v 0.36513 c 0,0.18591 -0.0667,0.25329 -0.25294,0.25329 h -1.9297 v 1.37089 h 2.3615 c 0.19367,0 0.25329,0.0674 0.25329,0.2533 v 0.36512 c 0,0.18592 -0.0596,0.2533 -0.25329,0.2533 h -3.03954 c -0.19367,0 -0.2607,-0.0674 -0.2607,-0.2533 v -4.78331 c 0,-0.18591 0.067,-0.25329 0.2607,-0.25329 h 2.95769 c 0.19403,0 0.26071,0.0674 0.26071,0.25329"
                style="fill:#ffffff;fill-opacity:1;fill-rule:nonzero;stroke:none;stroke-width:0.35277775"
                id="path154"
                inkscape:connector-curvature="0"/>
        <path
                d="m -484.05053,-141.50074 h -1.28834 v 1.53494 h 1.28834 c 0.49954,0 0.78246,-0.26811 0.78246,-0.76729 0,-0.49177 -0.27552,-0.76765 -0.78246,-0.76765 m 1.76601,0.76765 c 0,0.7747 -0.36513,1.29646 -0.98355,1.5046 0.0967,0.0822 0.1711,0.18662 0.23848,0.32067 l 0.8195,1.57198 c 0.0744,0.14182 0.0596,0.25329 -0.127,0.25329 h -0.4318 c -0.32032,0 -0.41733,-0.0374 -0.50659,-0.22366 l -0.62582,-1.26647 c -0.19368,-0.40958 -0.37254,-0.52176 -0.88653,-0.52176 h -0.55104 v 1.7586 c 0,0.18591 -0.0674,0.25329 -0.25365,0.25329 h -0.42439 c -0.19403,0 -0.26106,-0.0674 -0.26106,-0.25329 v -4.78331 c 0,-0.18592 0.067,-0.2533 0.26106,-0.2533 h 2.05599 c 1.0354,0 1.6764,0.61101 1.6764,1.63936"
                style="fill:#ffffff;fill-opacity:1;fill-rule:nonzero;stroke:none;stroke-width:0.35277775"
                id="path158"
                inkscape:connector-curvature="0"/>
        <path
                d="m -477.09901,-142.11912 v 4.78331 c 0,0.18592 -0.0596,0.2533 -0.25329,0.2533 h -0.42475 c -0.12629,0 -0.18591,-0.03 -0.24553,-0.127 l -1.82562,-2.69699 c -0.34996,-0.5214 -0.58067,-1.2065 -0.61031,-1.2513 h -0.0448 c 0,0.0596 0.16369,0.7747 0.16369,1.48272 v 2.33927 c 0,0.18592 -0.067,0.2533 -0.25329,0.2533 h -0.39476 c -0.19367,0 -0.26106,-0.0674 -0.26106,-0.2533 v -4.78331 c 0,-0.18591 0.0674,-0.25329 0.26106,-0.25329 h 0.42439 c 0.13441,0 0.19368,0.0448 0.24589,0.11923 l 1.81045,2.68217 c 0.37995,0.56621 0.58879,1.20721 0.62583,1.26648 h 0.0448 c 0,-0.0744 -0.16404,-0.75248 -0.16404,-1.50495 v -2.30964 c 0,-0.18591 0.067,-0.25329 0.25329,-0.25329 h 0.39476 c 0.19368,0 0.2533,0.0674 0.2533,0.25329"
                style="fill:#ffffff;fill-opacity:1;fill-rule:nonzero;stroke:none;stroke-width:0.35277775"
                id="path162"
                inkscape:connector-curvature="0"/>
        <path
                d="m -516.39136,-118.38085 c 1.74202,-0.57538 6.65692,-6.21735 7.87823,-8.73054 0.5581,-1.14723 0.76447,-1.08267 1.31728,-0.91158 0.41345,0.12982 0.98037,0.30621 1.62771,0.0568 l 0.27058,-0.10759 c 1.02588,-0.40393 1.58821,-0.62759 2.85927,-0.11077 0.24765,0.10054 0.47413,0.20461 0.68686,0.30233 1.22625,0.55986 2.49343,1.14229 3.96451,-0.90241 0.74789,-1.03963 1.38959,-2.07151 1.81787,-2.79612 l 0.56197,0.78599 3.10586,0.82092 1.1303,-1.08091 c 0.50517,0.36618 1.18921,0.90275 1.50318,1.29151 l 0.53058,0.66993 c 0.68227,0.86854 1.53176,1.9491 2.1149,2.53894 0.8629,0.87948 1.90395,1.55046 3.71475,0.43004 0.12242,0.072 0.33479,0.50129 0.44909,0.73236 0.13758,0.2787 0.30762,0.62301 0.5401,0.90029 0.26317,0.40675 0.90629,0.53234 1.20368,0.47131 0.41346,-0.0801 0.74718,-0.27869 1.04317,-0.45402 0.59125,-0.35313 0.75035,-0.44626 1.34761,0.22613 l 0.15698,0.17603 c 1.33033,1.5039 2.8381,3.21169 5.46382,2.34739 1.06222,-0.34714 1.47038,-0.3676 1.83021,-0.0494 -0.0325,-0.54363 -0.0861,-1.08162 -0.15416,-1.61502 -0.52952,-0.0847 -1.20191,-0.003 -2.12408,0.29915 -1.6457,0.54223 -2.52694,-0.33443 -3.94017,-1.93392 l -0.15945,-0.17886 c -1.38677,-1.55787 -2.49379,-0.90029 -3.15454,-0.50553 -0.16334,0.0974 -0.31891,0.18944 -0.45826,0.24165 -0.0956,-0.13511 -0.22472,-0.3937 -0.30798,-0.56232 -0.2921,-0.59303 -0.62477,-1.26471 -1.31303,-1.46685 -0.26494,-0.0748 -0.68863,-0.1076 -1.19733,0.1979 -1.0033,0.60008 -1.3134,0.35419 -1.91735,-0.26388 -0.5274,-0.5334 -1.3836,-1.62348 -2.00872,-2.41899 l -0.54257,-0.68438 c -0.64841,-0.80328 -2.12478,-1.80129 -2.29129,-1.91382 l -0.47978,-0.31997 -1.39135,1.33103 -1.82634,-0.48331 -1.58503,-2.21297 -0.54574,1.01459 c -0.0102,0.0169 -0.99272,1.83762 -2.28212,3.62585 -0.78211,1.08691 -1.02729,0.97155 -2.20239,0.43568 -0.22896,-0.10583 -0.47378,-0.21731 -0.74119,-0.32667 -1.8034,-0.73343 -2.83633,-0.32668 -3.92924,0.10583 l -0.26176,0.10231 c -0.17145,0.0646 -0.36089,0.0127 -0.68016,-0.0861 -0.98248,-0.30939 -2.02388,-0.43216 -3.03776,1.65276 -1.26859,2.61126 -5.97747,7.64575 -7.03757,7.99747 -0.9779,0.31962 -1.74343,-0.30198 -1.77059,-0.3242 l -0.36865,-0.31962 c 0,0.0145 -10e-4,0.0286 -10e-4,0.0434 0,0.59549 0.0293,1.18357 0.072,1.76777 0.56867,0.28046 1.46685,0.54293 2.51918,0.19438"
                style="fill:#ffffff;fill-opacity:1;fill-rule:nonzero;stroke:none;stroke-width:0.35277775"
                id="path258"
                inkscape:connector-curvature="0"/>
    </g>
</svg>
