<?xml version="1.0" encoding="UTF-8" standalone="no"?>
<!-- Created with Inkscape (http://www.inkscape.org/) -->

<svg
        xmlns:dc="http://purl.org/dc/elements/1.1/"
        xmlns:cc="http://creativecommons.org/ns#"
        xmlns:rdf="http://www.w3.org/1999/02/22-rdf-syntax-ns#"
        xmlns:svg="http://www.w3.org/2000/svg"
        xmlns="http://www.w3.org/2000/svg"
        xmlns:sodipodi="http://sodipodi.sourceforge.net/DTD/sodipodi-0.dtd"
        xmlns:inkscape="http://www.inkscape.org/namespaces/inkscape"
        width="49.558556mm"
        height="49.620571mm"
        viewBox="0 0 49.558556 49.620571"
        version="1.1"
        id="svg2355"
        inkscape:version="0.92.1 r15371"
        sodipodi:docname="Default.svg">
    <defs
            id="defs2349"/>
    <sodipodi:namedview
            id="base"
            pagecolor="#ffffff"
            bordercolor="#666666"
            borderopacity="1.0"
            inkscape:pageopacity="0.0"
            inkscape:pageshadow="2"
            inkscape:zoom="0.35"
            inkscape:cx="93.653962"
            inkscape:cy="93.771052"
            inkscape:document-units="mm"
            inkscape:current-layer="layer1"
            showgrid="false"
            fit-margin-top="0"
            fit-margin-left="0"
            fit-margin-right="0"
            fit-margin-bottom="0"
            inkscape:window-width="1920"
            inkscape:window-height="1137"
            inkscape:window-x="-8"
            inkscape:window-y="-8"
            inkscape:window-maximized="1"/>
    <metadata
            id="metadata2352">
        <rdf:RDF>
            <cc:Work
                    rdf:about="">
                <dc:format>image/svg+xml</dc:format>
                <dc:type
                        rdf:resource="http://purl.org/dc/dcmitype/StillImage"/>
                <dc:title></dc:title>
            </cc:Work>
        </rdf:RDF>
    </metadata>
    <g
            inkscape:label="Ebene 1"
            inkscape:groupmode="layer"
            id="layer1"
            transform="translate(-81.054056,-124.02302)">
        <g
                id="g2040"
                transform="matrix(0.35277777,0,0,-0.35277777,126.37434,155.62088)">
            <path
                    d="m 0,0 c -2.28,2.731 -4.708,5.452 -7.576,7.585 -0.716,0.527 -1.706,1.206 -2.331,1.413 -0.325,0.1 -0.953,0.546 -0.394,0.829 0.58,0.285 1.347,0.124 1.929,-0.063 1.085,-0.35 2.102,-1.082 3.004,-1.75 C -2.396,5.817 0.116,3.059 2.481,0.234 3.184,-0.608 0.477,-0.567 0,0 m -85.785,24.191 c -0.937,-8.309 -10.365,-12.878 -8.733,-21.309 0.175,-0.898 -2.579,-0.653 -2.722,0.089 -1.39,7.171 3.022,8.624 6.075,14.172 2.963,5.378 1.726,12.044 8.718,13.766 5.159,1.266 10.712,-4.3 14.242,-6.809 4.816,-3.434 8.262,-6.518 11.853,-11.113 0.376,-0.482 -2.192,-0.59 -2.722,0.091 -3.371,4.312 -25.202,24.488 -26.711,11.113 m -20.17,-12.765 c -0.666,-0.338 -3.23,0.499 -2.292,0.966 4.102,2.027 8.914,5.792 10.243,10.364 0.625,2.146 0.404,5.863 2.244,7.485 0.991,0.88 2.314,1.084 3.347,1.928 0.663,0.535 3.144,-0.33 2.619,-0.753 -1.384,-1.127 -3.456,-1.289 -4.072,-3.167 -0.956,-2.916 -0.923,-6.027 -2.66,-8.666 -2.294,-3.484 -5.69,-6.316 -9.429,-8.157 m 43.89,36.058 c -0.045,0.805 2.75,0.961 2.802,0.151 0.01,-0.156 0.018,-0.315 0.028,-0.474 10e-4,-0.016 -0.016,-0.027 -0.017,-0.042 0.299,-6.371 -1.725,-12.672 -3.548,-18.729 -0.219,-0.724 -2.981,-0.719 -2.721,0.151 1.844,6.125 3.889,12.5 3.456,18.943 m 4.802,-22.63 c 8.107,2.522 15.583,12.163 8.977,20.26 -0.408,0.502 2.181,0.761 2.723,0.093 3.011,-3.692 3.193,-10.763 0.343,-14.533 -2.478,-3.276 -6.22,-5.548 -10.124,-6.76 -0.676,-0.212 -3.315,0.509 -1.919,0.94 M 9.271,15.166 c 0.912,1.179 1.825,2.356 2.737,3.534 0,0.079 0.006,0.159 0.006,0.238 0,1.411 -0.054,2.808 -0.136,4.198 -1.055,0.934 -2.252,0.873 -5.366,-0.145 -7.701,-2.535 -12.123,2.473 -16.027,6.884 l -0.459,0.517 c -1.752,1.972 -2.218,1.699 -3.952,0.663 -0.869,-0.514 -1.847,-1.097 -3.06,-1.331 -0.872,-0.181 -1.603,-0.043 -2.227,0.286 -5.365,-3.052 -9.934,-7.737 -13.225,-13.149 0.255,-0.202 0.381,-0.418 0.202,-0.591 -0.371,-0.354 -0.747,-0.669 -1.123,-0.988 -1.755,-3.198 -3.069,-6.604 -3.849,-10.037 -0.204,-0.89 -2.94,-0.766 -2.804,-0.164 0.568,2.498 1.414,4.962 2.479,7.345 C -44.373,8.728 -51.938,8.754 -60.19,5.974 -67.202,3.606 -74.524,2.4 -81.848,1.422 c -0.709,-0.096 -3.136,1.13 -1.675,1.329 8.111,1.084 15.955,2.64 23.68,5.354 4.437,1.563 8.441,2.557 13.122,2.879 5.319,0.368 8.002,2.581 11.517,5.91 3.577,5.945 8.647,11.035 14.688,14.211 -0.682,0.814 -1.18,1.824 -1.584,2.641 -0.335,0.678 -0.959,1.937 -1.316,2.148 -5.312,-3.286 -8.365,-1.319 -10.896,1.261 -1.71,1.73 -4.201,4.9 -6.203,7.447 l -1.556,1.964 c -0.92,1.14 -2.926,2.714 -4.408,3.788 l -3.315,-3.17 -9.108,2.408 -1.65,2.305 c -1.256,-2.125 -3.136,-5.152 -5.331,-8.201 -4.314,-5.996 -8.031,-4.289 -11.627,-2.647 -0.623,0.287 -1.289,0.592 -2.015,0.888 -3.727,1.515 -5.376,0.859 -8.385,-0.326 l -0.794,-0.315 c -1.899,-0.732 -3.561,-0.214 -4.774,0.166 -1.622,0.502 -2.226,0.691 -3.863,-2.673 -3.582,-7.371 -17.996,-23.918 -23.105,-25.605 -3.087,-1.023 -5.721,-0.252 -7.388,0.569 0.488,-6.671 1.895,-13.086 4.123,-19.108 1.895,2.36 3.056,5.349 2.575,8.353 -0.487,3.044 0.882,6.121 0.144,8.982 -0.151,0.588 2.573,0.747 2.805,-0.151 0.42,-1.626 -0.093,-2.701 -0.319,-4.287 -0.376,-2.622 0.799,-5.305 0.149,-7.87 -0.722,-2.847 -2.288,-5.343 -4.455,-7.311 10.468,-25.489 35.523,-43.449 64.791,-43.449 37.059,0 67.382,28.799 69.853,65.227 C 11.802,14.1 11.771,14.06 11.74,14.021 11.28,13.423 8.71,14.447 9.271,15.166"
                    style="fill:#7b7979;fill-opacity:1;fill-rule:nonzero;stroke:none"
                    id="path2042"
                    inkscape:connector-curvature="0"/>
        </g>
        <path
                d="m 83.266678,149.35216 c 1.096786,-0.36406 5.969,-5.57248 7.281686,-8.2744 1.048808,-2.15724 2.126544,-2.02988 3.142897,-1.70991 0.329847,0.1023 0.526345,0.15592 0.703792,0.0892 l 0.270933,-0.10619 c 1.130653,-0.44732 2.198864,-0.86819 4.065058,-0.10936 0.276578,0.11324 0.530225,0.2286 0.767292,0.33796 1.215674,0.55457 1.469314,0.67381 2.278234,-0.45085 1.33386,-1.85032 2.35092,-3.7338 2.3615,-3.75144 l 0.56444,-1.04986 1.64007,2.28988 1.88948,0.49988 1.44003,-1.37689 0.49566,0.33091 c 0.17251,0.11641 1.70003,1.14935 2.37102,1.98014 l 0.56091,0.70838 c 0.647,0.82267 1.53318,1.9505 2.07892,2.50225 0.62477,0.63958 0.9458,0.89429 1.98332,0.27305 0.5267,-0.31574 0.96449,-0.28187 1.23931,-0.20461 0.71155,0.20919 1.05586,0.90381 1.35819,1.51765 0.0864,0.17462 0.21943,0.44238 0.31891,0.58173 0.14394,-0.054 0.3048,-0.14923 0.47378,-0.24977 0.68369,-0.40816 1.82916,-1.08902 3.2639,0.52317 l 0.16475,0.18486 c 1.46262,1.65488 2.37455,2.56222 4.0767,2.00095 0.95426,-0.31291 1.64994,-0.39687 2.19781,-0.30974 -1.54905,-12.15566 -11.9246,-21.55613 -24.49936,-21.55613 -13.630982,0 -24.677865,11.03912 -24.701854,24.66305 l 0.381353,0.33055 c 0.02787,0.0233 0.819855,0.6664 1.831269,0.33549"
                style="fill:#7b7979;fill-opacity:1;fill-rule:nonzero;stroke:none;stroke-width:0.35277775"
                id="path2046"
                inkscape:connector-curvature="0"/>
    </g>
</svg>
