<?xml version="1.0" encoding="utf-8"?>
<!-- Generator: Adobe Illustrator 25.2.1, SVG Export Plug-In . SVG Version: 6.00 Build 0)  -->
<svg version="1.1" id="Ebene_1" xmlns="http://www.w3.org/2000/svg" xmlns:xlink="http://www.w3.org/1999/xlink" x="0px" y="0px"
     viewBox="0 0 163.89 229.22" style="enable-background:new 0 0 163.89 229.22;" xml:space="preserve">
<style type="text/css">
	.st0{fill:#646363;}
	.st1{fill:#FFFFFF;}
	.st2{fill:#404040;}
</style>
    <g>
	<path class="st0" d="M134.92,69.92c-2.1-1.35-2.44-3.09-2.67-4.24c-0.12-0.63-0.21-1-0.44-1.26c-0.36-0.41-0.96-0.73-1.66-1.09
		c-0.88-0.47-1.92-1.02-2.91-1.97c-0.78,1-1.55,2.01-2.33,3.01c-0.36,0.46-2.35-0.33-1.91-0.89c0.97-1.25,1.94-2.5,2.91-3.75
		l-0.08-0.11c-1.29-1.86-1.53-2.2-4.53-1.21c-5.37,1.77-8.41-1.69-11.11-4.73l-0.32-0.36c-1.08-1.22-1.26-1.11-2.44-0.41
		c-0.6,0.36-1.28,0.77-2.14,0.93c-0.66,0.13-1.2,0.01-1.67-0.24c-3.55,2.07-6.58,5.2-8.76,8.81c0.18,0.15,0.27,0.31,0.13,0.44
		c-0.26,0.25-0.53,0.48-0.8,0.7c-1.17,2.15-2.05,4.43-2.57,6.73c-0.16,0.69-2.28,0.6-2.17,0.13c0.37-1.61,0.9-3.2,1.57-4.74
		c-4.47,2.28-9.29,2.23-14.78,4.09c-4.88,1.66-9.94,2.52-15.05,3.2c-0.55,0.07-2.43-0.88-1.3-1.03c4.95-0.67,9.95-1.43,14.67-3.13
		c6.28-2.26,13.23-2.01,18.22-6.55c2.41-3.97,5.8-7.36,9.84-9.51c-0.46-0.56-0.79-1.23-1.04-1.75c-0.19-0.38-0.48-0.96-0.7-1.25
		c-3.71,2.13-5.82,0.77-7.58-1.01c-1.17-1.19-2.87-3.35-4.23-5.09l-1.06-1.34c-0.59-0.73-1.84-1.72-2.83-2.44L83,41.96l-6.37-1.68
		l-0.99-1.38c-0.85,1.43-2.07,3.38-3.48,5.33c-3.03,4.21-5.75,2.96-8.15,1.86c-0.42-0.19-0.87-0.4-1.36-0.6
		c-2.46-1.01-3.56-0.57-5.55,0.22l-0.55,0.21c-1.36,0.52-2.53,0.16-3.38-0.11c-1.04-0.33-1.35-0.42-2.39,1.71
		c-2.45,5.04-12.33,16.36-15.83,17.52c-2.13,0.71-3.95,0.19-5.13-0.37l-0.11,0.12c-1.11,4.32-1.69,8.84-1.69,13.5
		c0,15.37,6.4,29.24,16.68,39.11c-0.49-1.25-0.11-2.01,1.32-2.7l4.15-2.06c1.59-0.76,2.25-0.56,3.19,1.07
		c1.39,2.44,3.03,3.57,5.94,3.22c3.88-0.46,5.52-2.68,5.03-6.79l-2.93-24.52c-0.2-1.71,0.3-2.35,2.01-2.55l4.73-0.56
		c1.65-0.2,2.35,0.3,2.55,2.01L73.6,109c1.08,9.07-3.45,15.21-13.37,16.4c-1.76,0.21-3.37,0.21-4.86,0.02
		c7.92,4.53,17.09,7.13,26.88,7.13c29.95,0,54.24-24.28,54.24-54.24c0-3.25-0.3-6.42-0.85-9.51L134.92,69.92z M36.43,74.08
		c-0.53,2.1-1.72,3.92-3.39,5.31c-0.44,0.37-2.51,0.01-1.85-0.54c2.03-1.69,3.51-4.36,3.08-7.04c-0.33-2.07,0.6-4.17,0.1-6.11
		c-0.12-0.45,1.99-0.58,2.17,0.12c0.29,1.11-0.06,1.84-0.22,2.92C36.07,70.51,36.87,72.33,36.43,74.08z M77.77,56.89
		c5.5-1.71,10.54-8.25,6.07-13.73c-0.32-0.39,1.69-0.59,2.11-0.07c2.05,2.52,2.18,7.34,0.23,9.91c-1.69,2.24-4.26,3.79-6.92,4.62
		C78.73,57.79,76.69,57.23,77.77,56.89z M74.46,41.55c-0.03-0.62,2.13-0.74,2.17-0.12c0,0.11,0.01,0.21,0.02,0.32
		c0,0.01-0.01,0.02-0.01,0.02c0.22,4.34-1.18,8.64-2.42,12.76c-0.17,0.56-2.31,0.56-2.11-0.12C73.37,50.27,74.77,45.93,74.46,41.55z
		 M44.84,66.12c-0.52,0.26-2.5-0.39-1.78-0.75c2.78-1.38,6.05-3.93,6.95-7.03c0.43-1.46,0.28-4,1.53-5.11
		c0.67-0.6,1.57-0.74,2.28-1.31c0.51-0.42,2.44,0.25,2.03,0.58c-0.93,0.76-2.35,0.88-2.76,2.14c-0.65,1.99-0.63,4.11-1.82,5.91
		C49.71,62.93,47.39,64.86,44.84,66.12z M58.59,57.41c-0.64,5.64-7.05,8.76-5.94,14.48c0.14,0.7-2,0.5-2.11-0.07
		c-0.95-4.89,2.05-5.88,4.13-9.67c2.03-3.69,1.18-8.21,5.97-9.38c3.6-0.88,7.38,2.89,9.87,4.66c3.29,2.34,5.64,4.45,8.09,7.59
		c0.29,0.37-1.7,0.46-2.11-0.07C74.24,62.06,59.6,48.47,58.59,57.41z M100.01,120.65c-10.78,1.29-17.52-3.87-18.65-13.33L79.99,95.8
		c-1.13-9.46,4.21-16.06,14.98-17.34c10.83-1.29,17.58,3.86,18.71,13.32l1.37,11.51C116.19,112.76,110.85,119.35,100.01,120.65z
		 M116.7,73.86c-1.68-2-4.33-5.33-6.7-6.09c-0.25-0.08-0.74-0.43-0.31-0.64c0.45-0.22,1.04-0.1,1.5,0.05
		c0.75,0.24,1.46,0.75,2.09,1.22c2.02,1.5,3.73,3.37,5.34,5.29C119.17,74.33,117.07,74.3,116.7,73.86z"/>
        <path class="st0" d="M104.37,92.72c-0.53-4.45-3.53-6.34-8.38-5.76c-4.79,0.57-7.26,3.12-6.73,7.57l1.42,11.86
		c0.53,4.45,3.53,6.34,8.32,5.77c4.84-0.58,7.32-3.13,6.79-7.57L104.37,92.72z"/>
        <path class="st0" d="M33.91,61.97c2.09-0.69,11.41-10.68,13.93-15.85c2.09-4.3,4.34-4.01,6.3-3.4c0.65,0.2,0.96,0.28,1.23,0.18
		l0.53-0.21c2.22-0.88,4.31-1.7,7.99-0.21c0.53,0.22,1.02,0.44,1.48,0.65c2.33,1.07,2.69,1.23,4.15-0.8
		c2.57-3.56,4.52-7.18,4.54-7.21l1.24-2.3l3.3,4.61l3.47,0.91l2.81-2.68l1.09,0.73c0.33,0.22,3.3,2.23,4.62,3.86l1.09,1.37
		c1.24,1.58,2.95,3.75,3.99,4.81c1.21,1.23,1.72,1.6,3.58,0.49c1.07-0.65,1.98-0.58,2.55-0.41c1.46,0.43,2.17,1.87,2.74,3.03
		c0.15,0.3,0.35,0.7,0.51,0.96c0.23-0.1,0.48-0.25,0.74-0.41c1.28-0.76,3.67-2.19,6.54,1.05l0.32,0.36c2.85,3.21,4.47,4.84,7.65,3.8
		c4.93-1.62,6.46-0.09,8.22,2.45l0.39,0.56c0.78,1.08,1.75,1.6,2.78,2.14c0.79,0.42,1.6,0.87,2.3,1.55
		c-6.93-21.98-27.47-37.92-51.74-37.92c-24.07,0-44.46,15.68-51.55,37.38C31.07,61.72,32.35,62.49,33.91,61.97z"/>
        <path class="st1" d="M60.23,125.4c9.92-1.18,14.45-7.33,13.37-16.4l-2.92-24.46c-0.2-1.71-0.9-2.2-2.55-2.01l-4.73,0.56
		c-1.71,0.2-2.21,0.85-2.01,2.55l2.93,24.52c0.49,4.1-1.15,6.32-5.03,6.79c-2.91,0.35-4.55-0.78-5.94-3.22
		c-0.95-1.62-1.61-1.83-3.19-1.07L46,114.72c-1.43,0.69-1.81,1.45-1.32,2.7c3.21,3.08,6.79,5.77,10.68,8
		C56.86,125.61,58.47,125.61,60.23,125.4z"/>
        <path class="st1" d="M113.68,91.78c-1.13-9.46-7.88-14.61-18.71-13.32C84.2,79.75,78.86,86.34,79.99,95.8l1.37,11.51
		c1.13,9.46,7.87,14.61,18.65,13.33c10.83-1.29,16.17-7.89,15.04-17.35L113.68,91.78z M99,112.15c-4.79,0.57-7.79-1.32-8.32-5.77
		l-1.42-11.86c-0.53-4.45,1.94-7,6.73-7.57c4.85-0.58,7.85,1.32,8.38,5.76l1.42,11.86C106.32,109.02,103.85,111.57,99,112.15z"/>
        <path class="st1" d="M34.94,65.07c3.5-1.16,13.38-12.48,15.83-17.52c1.04-2.13,1.35-2.04,2.39-1.71c0.85,0.27,2.02,0.63,3.38,0.11
		l0.55-0.21c1.99-0.79,3.09-1.23,5.55-0.22c0.49,0.2,0.94,0.41,1.36,0.6c2.4,1.1,5.12,2.35,8.15-1.86c1.41-1.96,2.63-3.9,3.48-5.33
		l0.99,1.38L83,41.96l2.22-2.11c0.98,0.72,2.24,1.72,2.83,2.44l1.06,1.34c1.36,1.74,3.06,3.89,4.23,5.09
		c1.76,1.78,3.87,3.14,7.58,1.01c0.22,0.28,0.51,0.87,0.7,1.25c0.25,0.52,0.58,1.18,1.04,1.75c0.51-0.27,1.03-0.53,1.56-0.76
		c0.5-0.22,2.6,0.07,1.57,0.52c-0.73,0.32-1.45,0.7-2.14,1.1c0.46,0.25,1.01,0.36,1.67,0.24c0.86-0.16,1.54-0.57,2.14-0.93
		c1.17-0.7,1.35-0.81,2.44,0.41l0.32,0.36c2.7,3.04,5.75,6.5,11.11,4.73c3-0.98,3.23-0.65,4.53,1.21l0.08,0.11
		c0.24-0.3,0.47-0.61,0.71-0.91c0.36-0.46,2.35,0.33,1.91,0.89c-0.43,0.55-0.86,1.11-1.29,1.66c0.98,0.95,2.02,1.5,2.91,1.97
		c0.69,0.37,1.29,0.69,1.66,1.09c0.23,0.26,0.31,0.63,0.44,1.26c0.23,1.15,0.57,2.88,2.67,4.24l0.72-1.12
		c-0.41-2.32-0.96-4.59-1.65-6.8c-0.7-0.69-1.51-1.13-2.3-1.55c-1.03-0.54-2-1.06-2.78-2.14l-0.39-0.56
		c-1.77-2.53-3.3-4.07-8.22-2.45c-3.17,1.04-4.8-0.58-7.65-3.8l-0.32-0.36c-2.87-3.24-5.26-1.81-6.54-1.05
		c-0.26,0.15-0.51,0.3-0.74,0.41c-0.16-0.26-0.36-0.67-0.51-0.96c-0.57-1.16-1.29-2.6-2.74-3.03c-0.57-0.17-1.48-0.23-2.55,0.41
		c-1.86,1.11-2.37,0.74-3.58-0.49c-1.04-1.06-2.75-3.23-3.99-4.81l-1.09-1.37c-1.31-1.63-4.28-3.63-4.62-3.86l-1.09-0.73l-2.81,2.68
		l-3.47-0.91l-3.3-4.61l-1.24,2.3c-0.02,0.04-1.98,3.66-4.54,7.21c-1.46,2.03-1.82,1.87-4.15,0.8c-0.46-0.21-0.95-0.43-1.48-0.65
		c-3.67-1.5-5.77-0.67-7.99,0.21l-0.53,0.21c-0.27,0.11-0.58,0.02-1.23-0.18c-1.95-0.61-4.21-0.9-6.3,3.4
		c-2.52,5.18-11.83,15.16-13.93,15.85c-1.56,0.52-2.84-0.25-3.22-0.52c-0.36,1.11-0.7,2.23-0.99,3.36l0.11-0.12
		C30.99,65.26,32.81,65.78,34.94,65.07z"/>
        <path class="st1" d="M102.65,52.72c-4.03,2.15-7.42,5.54-9.84,9.51c0.08-0.08,0.17-0.14,0.25-0.22c0.32-0.31,1.37,0.01,1.81,0.38
		c2.19-3.6,5.21-6.73,8.76-8.81C103.25,53.38,102.92,53.07,102.65,52.72z"/>
        <path class="st1" d="M89.46,70.4c-0.11,0.47,2.01,0.56,2.17-0.13c0.52-2.3,1.4-4.58,2.57-6.73c-1.04,0.88-2.09,1.57-3.17,2.12
		C90.37,67.2,89.83,68.79,89.46,70.4z"/>
        <path class="st1" d="M104.21,51.96c-0.53,0.23-1.05,0.49-1.56,0.76c0.28,0.35,0.6,0.65,0.99,0.86c0.7-0.41,1.41-0.78,2.14-1.1
		C106.81,52.03,104.71,51.74,104.21,51.96z"/>
        <path class="st1" d="M113.28,68.39c-0.63-0.46-1.33-0.97-2.09-1.22c-0.45-0.15-1.05-0.27-1.5-0.05c-0.43,0.22,0.05,0.56,0.31,0.64
		c2.37,0.77,5.02,4.09,6.7,6.09c0.37,0.44,2.47,0.47,1.92-0.18C117.01,71.76,115.31,69.88,113.28,68.39z"/>
        <path class="st1" d="M126.26,60.21l-0.34-0.48c-0.97,1.25-1.94,2.5-2.91,3.75c-0.44,0.56,1.55,1.35,1.91,0.89
		c0.78-1,1.55-2.01,2.33-3.01C126.91,61.03,126.57,60.65,126.26,60.21z"/>
        <path class="st1" d="M126.63,58.81c-0.24,0.3-0.47,0.61-0.71,0.91l0.34,0.48c0.32,0.44,0.65,0.82,1,1.15
		c0.43-0.55,0.86-1.11,1.29-1.66C128.97,59.14,126.98,58.35,126.63,58.81z"/>
        <path class="st1" d="M76.5,64.95c0.41,0.52,2.4,0.44,2.11,0.07c-2.45-3.14-4.8-5.25-8.09-7.59c-2.49-1.77-6.27-5.54-9.87-4.66
		c-4.79,1.18-3.94,5.69-5.97,9.38c-2.08,3.78-5.08,4.78-4.13,9.67c0.11,0.57,2.24,0.77,2.11,0.07c-1.11-5.72,5.31-8.84,5.94-14.48
		C59.6,48.47,74.24,62.06,76.5,64.95z"/>
        <path class="st1" d="M79.26,57.62c2.67-0.83,5.23-2.38,6.92-4.62c1.95-2.57,1.82-7.39-0.23-9.91c-0.42-0.52-2.42-0.31-2.11,0.07
		c4.47,5.49-0.57,12.02-6.07,13.73C76.69,57.23,78.73,57.79,79.26,57.62z"/>
        <path class="st1" d="M36.55,65.81c-0.18-0.69-2.29-0.57-2.17-0.12c0.5,1.95-0.43,4.04-0.1,6.11c0.43,2.68-1.06,5.35-3.08,7.04
		c-0.65,0.55,1.41,0.91,1.85,0.54c1.66-1.39,2.85-3.21,3.39-5.31c0.44-1.74-0.36-3.57-0.1-5.36C36.48,67.64,36.83,66.92,36.55,65.81
		z"/>
        <path class="st1" d="M53.09,54.66c0.41-1.26,1.83-1.39,2.76-2.14c0.41-0.33-1.51-1-2.03-0.58c-0.7,0.57-1.6,0.71-2.28,1.31
		c-1.26,1.11-1.11,3.64-1.53,5.11c-0.9,3.1-4.16,5.65-6.95,7.03c-0.72,0.36,1.26,1,1.78,0.75c2.55-1.26,4.87-3.19,6.43-5.56
		C52.46,58.76,52.44,56.64,53.09,54.66z"/>
        <path class="st1" d="M76.65,41.75c-0.01-0.11-0.01-0.21-0.02-0.32c0.01,0.12,0,0.23,0.01,0.35C76.64,41.77,76.65,41.76,76.65,41.75
		z"/>
        <path class="st1" d="M76.64,41.78c0-0.12,0-0.23-0.01-0.35c-0.72,0.04-1.45,0.08-2.17,0.12c0.01,0.11,0.01,0.21,0.02,0.32
		C74.52,42.48,76.62,42.37,76.64,41.78z"/>
        <path class="st1" d="M74.46,41.55c0.72-0.04,1.45-0.08,2.17-0.12C76.59,40.81,74.43,40.93,74.46,41.55z"/>
        <path class="st1" d="M74.23,54.54c1.24-4.12,2.63-8.43,2.42-12.76c-0.03,0.6-2.12,0.71-2.16,0.09c-0.01-0.11-0.01-0.21-0.02-0.32
		c0.31,4.38-1.09,8.72-2.34,12.88C71.92,55.1,74.06,55.1,74.23,54.54z"/>
        <path class="st1" d="M95.01,62.83c0.13-0.13,0.05-0.29-0.13-0.44c-0.23,0.38-0.45,0.76-0.66,1.15
		C94.48,63.31,94.74,63.09,95.01,62.83z"/>
        <path class="st1" d="M74.58,68.79c-4.72,1.7-9.71,2.47-14.67,3.13c-1.13,0.15,0.75,1.1,1.3,1.03c5.1-0.68,10.17-1.55,15.05-3.2
		c5.49-1.86,10.31-1.81,14.78-4.09c0.51-1.17,1.1-2.32,1.77-3.42C87.81,66.78,80.87,66.53,74.58,68.79z"/>
        <path class="st1" d="M93.06,62.01c-0.08,0.08-0.17,0.14-0.25,0.22c-0.67,1.1-1.26,2.25-1.77,3.42c1.08-0.55,2.13-1.24,3.17-2.12
		c0.21-0.39,0.43-0.77,0.66-1.15C94.44,62.03,93.38,61.71,93.06,62.01z"/>
</g>
    <g>
	<path d="M45.49,148.7v19.15c0,0.75-0.24,1.01-1.01,1.01h-1.7c-0.78,0-1.01-0.27-1.01-1.01v-15.63l-4.18,2.33
		c-0.78,0.45-1.16,0.27-1.52-0.39l-0.75-1.34c-0.36-0.66-0.18-0.98,0.48-1.37l5.82-3.34c0.54-0.33,0.81-0.42,1.43-0.42h1.43
		C45.25,147.69,45.49,147.95,45.49,148.7z"/>
        <path d="M65.86,161.65v1.28c0,0.78-0.24,1.01-1.01,1.01h-2.06v3.91c0,0.75-0.24,1.01-1.01,1.01h-1.46c-0.75,0-1.01-0.27-1.01-1.01
		v-3.91h-9.84c-0.75,0-1.01-0.24-1.01-1.01v-1.07c0-0.69,0.06-0.84,0.36-1.22l9.9-12.29c0.48-0.57,0.75-0.72,1.43-0.72h1.64
		c0.78,0,1.01,0.24,1.01,1.01v11.99h2.06C65.62,160.63,65.86,160.9,65.86,161.65z M52.82,160.63h6.47v-7.99L52.82,160.63z"/>
        <path d="M84.79,160.25v1.31c0,0.78-0.27,1.01-1.01,1.01H72.33c-0.78,0-1.01-0.24-1.01-1.01v-1.31c0-0.75,0.24-1.01,1.01-1.01h11.46
		C84.53,159.23,84.79,159.5,84.79,160.25z"/>
        <path d="M97.83,147.24c4.53,0,7.25,3.13,7.25,6.65c0,4.47-2.33,6.17-8.32,8.56c-1.25,0.48-3.01,1.01-3.01,2.39v0.54h9.96
		c0.75,0,1.01,0.27,1.01,1.01v1.46c0,0.75-0.27,1.01-1.01,1.01H90.85c-0.75,0-1.01-0.27-1.01-1.01v-2.24c0-4.06,2.95-5.43,5.88-6.59
		c2.75-1.07,5.43-2,5.43-4.95c0-1.82-1.37-3.34-3.46-3.34c-2.12,0-3.34,0.9-4.12,2.65c-0.33,0.75-0.6,0.9-1.31,0.66l-1.61-0.6
		c-0.72-0.27-0.92-0.6-0.66-1.28C91.2,149.18,93.53,147.24,97.83,147.24z"/>
        <path d="M115.66,147.24c4.53,0,7.25,3.13,7.25,6.65c0,4.47-2.33,6.17-8.32,8.56c-1.25,0.48-3.01,1.01-3.01,2.39v0.54h9.96
		c0.75,0,1.01,0.27,1.01,1.01v1.46c0,0.75-0.27,1.01-1.01,1.01h-12.86c-0.75,0-1.01-0.27-1.01-1.01v-2.24
		c0-4.06,2.95-5.43,5.88-6.59c2.75-1.07,5.43-2,5.43-4.95c0-1.82-1.37-3.34-3.46-3.34c-2.12,0-3.34,0.9-4.12,2.65
		c-0.33,0.75-0.6,0.9-1.31,0.66l-1.61-0.6c-0.72-0.27-0.92-0.6-0.66-1.28C109.04,149.18,111.37,147.24,115.66,147.24z"/>
</g>
    <g>
	<path d="M61.81,175.07v11.7c0,3.67-2.12,5.95-6.05,5.95c-3.4,0-5.2-1.75-5.9-4.67c-0.12-0.35-0.05-0.52,0.3-0.65l0.8-0.27
		c0.33-0.12,0.5-0.05,0.62,0.32c0.5,2.27,1.67,3.57,4.17,3.57c2.77,0,4.22-1.57,4.22-4.22v-11.72c0-0.35,0.1-0.47,0.48-0.47h0.85
		C61.68,174.6,61.81,174.73,61.81,175.07z"/>
        <path d="M69.83,179.12c3.97,0,5,2.25,5,4.95v6.55c0,0.88-0.2,1.12-0.9,1.42c-0.92,0.4-2.25,0.65-4.15,0.65
		c-4.35,0-5.4-1.38-5.4-3.87c0-2.87,1.57-3.87,5.5-3.87c1.47,0,2.82,0.2,3.27,0.25v-1.15c0-1.95-0.65-3.42-3.37-3.42
		c-1.75,0-2.85,0.67-3.5,1.82c-0.2,0.27-0.3,0.35-0.62,0.2l-0.6-0.25c-0.33-0.12-0.42-0.3-0.25-0.65
		C65.68,180.1,67.3,179.12,69.83,179.12z M69.7,186.35c-2.7,0-3.6,0.75-3.6,2.45c0,1.57,0.62,2.5,3.55,2.5c1.4,0,2.32-0.15,3.02-0.4
		c0.38-0.15,0.47-0.25,0.47-0.72v-3.6C72.65,186.52,71.15,186.35,69.7,186.35z"/>
        <path d="M79.6,174.3v5.52c0.77-0.35,2.17-0.7,3.92-0.7c3.42,0,4.97,1.8,4.97,4.9v7.87c0,0.35-0.12,0.45-0.45,0.45h-0.8
		c-0.32,0-0.45-0.1-0.45-0.45v-7.82c0-2.2-1.1-3.4-3.5-3.4c-1.55,0-2.9,0.33-3.7,0.73v10.5c0,0.35-0.1,0.45-0.45,0.45h-0.78
		c-0.35,0-0.45-0.1-0.45-0.45v-17.6c0-0.35,0.1-0.45,0.45-0.45h0.78C79.5,173.85,79.6,173.95,79.6,174.3z"/>
        <path d="M97.87,179.12c0.35,0,0.45,0.12,0.45,0.45v0.65c0,0.33-0.1,0.45-0.45,0.45h-0.82c-1.42,0-2.55,0.25-3.3,0.52
		c-0.4,0.18-0.42,0.38-0.42,0.65v10.05c0,0.35-0.12,0.45-0.45,0.45h-0.8c-0.33,0-0.45-0.1-0.45-0.45v-10.6c0-0.77,0.2-1.07,0.95-1.4
		c0.92-0.35,2.35-0.73,4.52-0.77H97.87z"/>
        <path d="M104.66,179.12c3.75,0,5.55,2.17,5.55,5.17v1.37c0,0.42-0.2,0.7-0.75,0.7h-8.65v1.45c0,2.12,1.27,3.42,3.75,3.42
		c2.05,0,3.22-0.82,3.92-2.07c0.22-0.3,0.4-0.35,0.72-0.17l0.53,0.27c0.32,0.17,0.38,0.4,0.17,0.72c-0.88,1.57-2.47,2.7-5.35,2.7
		c-3.75,0-5.42-2.05-5.42-5.05v-3.25C99.14,181.1,101.04,179.12,104.66,179.12z M104.66,180.57c-2.55,0-3.85,1.4-3.85,3.62v0.87
		h7.72v-0.87C108.54,181.97,107.24,180.57,104.66,180.57z"/>
</g>
</svg>
