<?xml version="1.0" encoding="UTF-8" standalone="no"?>
<!-- Created with Inkscape (http://www.inkscape.org/) -->

<svg
        xmlns:dc="http://purl.org/dc/elements/1.1/"
        xmlns:cc="http://creativecommons.org/ns#"
        xmlns:rdf="http://www.w3.org/1999/02/22-rdf-syntax-ns#"
        xmlns:svg="http://www.w3.org/2000/svg"
        xmlns="http://www.w3.org/2000/svg"
        xmlns:sodipodi="http://sodipodi.sourceforge.net/DTD/sodipodi-0.dtd"
        xmlns:inkscape="http://www.inkscape.org/namespaces/inkscape"
        width="49.602318mm"
        height="49.602669mm"
        viewBox="0 0 49.602318 49.602669"
        version="1.1"
        id="svg4235"
        inkscape:version="0.92.1 r15371"
        sodipodi:docname="OG-Napf.svg">
    <defs
            id="defs4229"/>
    <sodipodi:namedview
            id="base"
            pagecolor="#ffffff"
            bordercolor="#666666"
            borderopacity="1.0"
            inkscape:pageopacity="0.0"
            inkscape:pageshadow="2"
            inkscape:zoom="0.35"
            inkscape:cx="93.736665"
            inkscape:cy="93.737335"
            inkscape:document-units="mm"
            inkscape:current-layer="layer1"
            showgrid="false"
            fit-margin-top="0"
            fit-margin-left="0"
            fit-margin-right="0"
            fit-margin-bottom="0"
            inkscape:window-width="1920"
            inkscape:window-height="1137"
            inkscape:window-x="-8"
            inkscape:window-y="-8"
            inkscape:window-maximized="1"/>
    <metadata
            id="metadata4232">
        <rdf:RDF>
            <cc:Work
                    rdf:about="">
                <dc:format>image/svg+xml</dc:format>
                <dc:type
                        rdf:resource="http://purl.org/dc/dcmitype/StillImage"/>
                <dc:title></dc:title>
            </cc:Work>
        </rdf:RDF>
    </metadata>
    <g
            inkscape:label="Ebene 1"
            inkscape:groupmode="layer"
            id="layer1"
            transform="translate(-81.032174,-124.032)">
        <path
                d="m 130.63449,148.83333 c 0,13.69731 -11.10403,24.80134 -24.80133,24.80134 -13.697306,0 -24.800986,-11.10403 -24.800986,-24.80134 0,-13.6973 11.10368,-24.80133 24.800986,-24.80133 13.6973,0 24.80133,11.10403 24.80133,24.80133"
                style="fill:#801e31;fill-opacity:1;fill-rule:nonzero;stroke:none;stroke-width:0.35277775"
                id="path358"
                inkscape:connector-curvature="0"/>
        <path
                d="m 101.01319,157.77646 c -1.567392,0 -2.434873,0.76059 -2.434873,2.17594 v 3.34786 c 0,1.41534 0.867481,2.17593 2.434873,2.17593 1.55222,0 2.43487,-0.76059 2.43487,-2.17593 v -3.34786 c 0,-1.41535 -0.88265,-2.17594 -2.43487,-2.17594 m 0,-1.78047 c 2.78518,0 4.33705,1.52153 4.33705,3.97157 v 3.31753 c 0,2.45039 -1.55187,3.97157 -4.33705,3.97157 -2.799998,0 -4.35222,-1.52118 -4.35222,-3.97157 v -3.31753 c 0,-2.45004 1.552222,-3.97157 4.35222,-3.97157"
                style="fill:#ffffff;fill-opacity:1;fill-rule:nonzero;stroke:none;stroke-width:0.35277775"
                id="path362"
                inkscape:connector-curvature="0"/>
        <path
                d="m 115.89671,161.62633 v 2.03905 c 0,2.06975 -1.55222,3.59128 -4.3374,3.59128 -2.79965,0 -4.35187,-1.52153 -4.35187,-3.97157 v -3.33269 c 0,-2.43488 1.55222,-3.95641 4.35187,-3.95641 2.23731,0 3.56129,0.89782 4.13949,2.54106 0.13688,0.36513 0.0455,0.5327 -0.31962,0.66993 l -0.83714,0.28892 c -0.36512,0.13688 -0.51752,0.061 -0.65405,-0.31926 -0.33514,-0.92851 -1.06539,-1.40018 -2.32868,-1.40018 -1.58257,0 -2.43452,0.76059 -2.43452,2.16077 v 3.36303 c 0,1.41534 0.86748,2.17593 2.43452,2.17593 1.55222,0 2.46521,-0.76059 2.46521,-1.79564 v -0.79093 h -2.29765 c -0.38029,0 -0.51752,-0.13723 -0.51752,-0.53304 v -0.73025 c 0,-0.39582 0.13723,-0.51753 0.51752,-0.51753 h 3.65231 c 0.39547,0 0.51753,0.12171 0.51753,0.51753"
                style="fill:#ffffff;fill-opacity:1;fill-rule:nonzero;stroke:none;stroke-width:0.35277775"
                id="path366"
                inkscape:connector-curvature="0"/>
        <path
                d="m 84.618336,160.78506 c 1.741664,-0.57538 6.656564,-6.21736 7.877881,-8.7309 0.558094,-1.14688 0.764469,-1.08232 1.317272,-0.91122 0.413455,0.12982 0.980369,0.30586 1.627716,0.0568 l 0.270934,-0.1076 c 1.025525,-0.40393 1.587852,-0.62759 2.858911,-0.11077 0.24765,0.10054 0.474486,0.20461 0.686858,0.30233 1.226252,0.55986 2.493432,1.14229 3.964512,-0.90241 0.74825,-1.03963 1.38995,-2.07151 1.81822,-2.79647 l 0.56198,0.78599 3.10585,0.82127 1.12995,-1.08091 c 0.50553,0.36618 1.18921,0.90276 1.50318,1.29117 l 0.53058,0.67027 c 0.68263,0.86819 1.53176,1.9491 2.11491,2.53894 0.86289,0.87948 1.90394,1.55046 3.7151,0.43004 0.12206,0.072 0.33478,0.5013 0.44908,0.73237 0.13723,0.27869 0.30727,0.623 0.53975,0.90029 0.26318,0.40675 0.90629,0.53234 1.20368,0.47131 0.41346,-0.0801 0.74719,-0.2787 1.04352,-0.45403 0.5909,-0.35348 0.75,-0.44626 1.34761,0.22578 l 0.15663,0.17639 c 1.33033,1.50389 2.83845,3.21169 5.46418,2.34738 1.06186,-0.34748 1.47037,-0.36794 1.82986,-0.0494 -0.0325,-0.54363 -0.0861,-1.08197 -0.15382,-1.61502 -0.52987,-0.0847 -1.20226,-0.003 -2.12442,0.29881 -1.64536,0.54257 -2.52695,-0.33444 -3.94018,-1.93358 l -0.15945,-0.17886 c -1.38642,-1.55786 -2.49379,-0.90028 -3.15454,-0.50553 -0.16334,0.0974 -0.31891,0.18944 -0.45826,0.24166 -0.0956,-0.13512 -0.22437,-0.3937 -0.30762,-0.56233 -0.29246,-0.59302 -0.62512,-1.26506 -1.31304,-1.46685 -0.26494,-0.0748 -0.68898,-0.1076 -1.19768,0.19791 -1.00295,0.60007 -1.31304,0.35418 -1.917,-0.26388 -0.52775,-0.5334 -1.38359,-1.62348 -2.00907,-2.419 l -0.54257,-0.68439 c -0.6484,-0.80327 -2.12443,-1.80128 -2.29129,-1.91382 l -0.47942,-0.31997 -1.39171,1.33103 -1.82633,-0.4833 -1.58503,-2.21298 -0.54575,1.01459 c -0.01,0.0169 -0.99272,1.83762 -2.28212,3.62585 -0.78211,1.08656 -1.02729,0.97155 -2.202039,0.43568 -0.229306,-0.10583 -0.474134,-0.21731 -0.741539,-0.32667 -1.8034,-0.73343 -2.835981,-0.32667 -3.929239,0.10583 l -0.261761,0.10231 c -0.17145,0.0646 -0.360892,0.0127 -0.680156,-0.0861 -0.982133,-0.30939 -2.023886,-0.43215 -3.037416,1.65276 -1.268942,2.61126 -5.977467,7.64575 -7.037917,7.99747 -0.977547,0.31962 -1.743428,-0.30232 -1.770239,-0.3242 l -0.368652,-0.31997 c 0,0.0148 -0.0014,0.0289 -0.0014,0.0437 0,0.59549 0.02928,1.18357 0.07197,1.76777 0.569031,0.28011 1.467203,0.54293 2.519539,0.19438"
                style="fill:#ffffff;fill-opacity:1;fill-rule:nonzero;stroke:none;stroke-width:0.35277775"
                id="path370"
                inkscape:connector-curvature="0"/>
        <path
                d="m 101.07694,136.77204 v 4.78296 c 0,0.18627 -0.0596,0.25329 -0.2533,0.25329 h -0.42474 c -0.12665,0 -0.18627,-0.03 -0.24589,-0.12664 l -1.825272,-2.69699 c -0.349955,-0.52141 -0.581025,-1.20685 -0.610658,-1.25166 h -0.0448 c 0,0.06 0.163689,0.77506 0.163689,1.48273 v 2.33927 c 0,0.18627 -0.06703,0.25329 -0.253294,0.25329 h -0.394759 c -0.193675,0 -0.260702,-0.067 -0.260702,-0.25329 v -4.78296 c 0,-0.18627 0.06703,-0.2533 0.260702,-0.2533 h 0.424745 c 0.134055,0 0.193675,0.0448 0.245886,0.11924 l 1.810455,2.68182 c 0.379588,0.56621 0.588438,1.2072 0.625478,1.26682 h 0.0448 c 0,-0.0748 -0.16404,-0.75247 -0.16404,-1.5053 v -2.30928 c 0,-0.18627 0.0674,-0.2533 0.25364,-0.2533 h 0.39476 c 0.19368,0 0.2533,0.067 0.2533,0.2533"
                style="fill:#ffffff;fill-opacity:1;fill-rule:nonzero;stroke:none;stroke-width:0.35277775"
                id="path374"
                inkscape:connector-curvature="0"/>
        <path
                d="m 104.22886,137.37529 h -0.0519 c 0,0.007 -0.008,0.44732 -0.16404,0.90205 l -0.57362,1.57903 h 1.53424 l -0.56586,-1.57197 c -0.15663,-0.46179 -0.17145,-0.9017 -0.17886,-0.90911 m 2.19781,4.433 h -0.38735 c -0.31292,0 -0.40252,-0.0448 -0.46214,-0.22366 l -0.3422,-0.96096 h -2.05669 l -0.35031,0.96096 c -0.0593,0.17886 -0.14887,0.22366 -0.46143,0.22366 h -0.3429 c -0.18627,0 -0.23072,-0.0818 -0.1711,-0.24588 l 1.86231,-4.84223 c 0.0667,-0.1718 0.14147,-0.20884 0.31292,-0.20884 h 0.39476 c 0.17145,0 0.25364,0.037 0.31291,0.20108 l 1.86267,4.84999 c 0.0596,0.16404 0.0148,0.24588 -0.17145,0.24588"
                style="fill:#ffffff;fill-opacity:1;fill-rule:nonzero;stroke:none;stroke-width:0.35277775"
                id="path378"
                inkscape:connector-curvature="0"/>
        <path
                d="m 110.38318,138.2469 c 0,-0.53623 -0.32033,-0.85655 -0.86395,-0.85655 h -1.20721 v 1.70604 h 1.20721 c 0.54362,0 0.86395,-0.31292 0.86395,-0.84949 m 0.98319,0 c 0,1.08056 -0.67769,1.7212 -1.75789,1.7212 h -1.29646 v 1.58679 c 0,0.18627 -0.067,0.25365 -0.25329,0.25365 h -0.42475 c -0.19367,0 -0.26035,-0.0674 -0.26035,-0.25365 v -4.78296 c 0,-0.18626 0.0667,-0.25294 0.26035,-0.25294 h 1.9745 c 1.0728,0 1.75789,0.6477 1.75789,1.72791"
                style="fill:#ffffff;fill-opacity:1;fill-rule:nonzero;stroke:none;stroke-width:0.35277775"
                id="path382"
                inkscape:connector-curvature="0"/>
        <path
                d="m 115.74029,136.77204 v 0.36477 c 0,0.18662 -0.0667,0.25365 -0.26035,0.25365 h -2.28001 v 1.37089 h 1.91488 c 0.19332,0 0.2607,0.067 0.2607,0.25294 v 0.36548 c 0,0.19332 -0.0674,0.25294 -0.2607,0.25294 h -1.91488 v 1.92229 c 0,0.18627 -0.067,0.25329 -0.25329,0.25329 h -0.42475 c -0.19367,0 -0.26035,-0.067 -0.26035,-0.25329 v -4.78296 c 0,-0.18627 0.0667,-0.2533 0.26035,-0.2533 h 2.95805 c 0.19367,0 0.26035,0.067 0.26035,0.2533"
                style="fill:#ffffff;fill-opacity:1;fill-rule:nonzero;stroke:none;stroke-width:0.35277775"
                id="path386"
                inkscape:connector-curvature="0"/>
    </g>
</svg>
