<?xml version="1.0" encoding="UTF-8" standalone="no"?>
<!-- Created with Inkscape (http://www.inkscape.org/) -->

<svg
   xmlns:dc="http://purl.org/dc/elements/1.1/"
   xmlns:cc="http://creativecommons.org/ns#"
   xmlns:rdf="http://www.w3.org/1999/02/22-rdf-syntax-ns#"
   xmlns:svg="http://www.w3.org/2000/svg"
   xmlns="http://www.w3.org/2000/svg"
   xmlns:sodipodi="http://sodipodi.sourceforge.net/DTD/sodipodi-0.dtd"
   xmlns:inkscape="http://www.inkscape.org/namespaces/inkscape"
   width="49.410259mm"
   height="49.330669mm"
   viewBox="0 0 49.410259 49.330669"
   version="1.1"
   id="svg2320"
   inkscape:version="0.92.1 r15371"
   sodipodi:docname="Jugend.svg">
  <defs
     id="defs2314" />
  <sodipodi:namedview
     id="base"
     pagecolor="#ffffff"
     bordercolor="#666666"
     borderopacity="1.0"
     inkscape:pageopacity="0.0"
     inkscape:pageshadow="2"
     inkscape:zoom="0.35"
     inkscape:cx="93.37411"
     inkscape:cy="93.223395"
     inkscape:document-units="mm"
     inkscape:current-layer="layer1"
     showgrid="false"
     inkscape:window-width="1920"
     inkscape:window-height="1137"
     inkscape:window-x="-8"
     inkscape:window-y="-8"
     inkscape:window-maximized="1"
     fit-margin-top="0"
     fit-margin-left="0"
     fit-margin-right="0"
     fit-margin-bottom="0" />
  <metadata
     id="metadata2317">
    <rdf:RDF>
      <cc:Work
         rdf:about="">
        <dc:format>image/svg+xml</dc:format>
        <dc:type
           rdf:resource="http://purl.org/dc/dcmitype/StillImage" />
        <dc:title></dc:title>
      </cc:Work>
    </rdf:RDF>
  </metadata>
  <g
     inkscape:label="Ebene 1"
     inkscape:groupmode="layer"
     id="layer1"
     transform="translate(-81.1281,-124.16802)">
    <path
       d="m 121.52559,146.76482 c -0.76341,-0.91228 -1.97132,-2.42711 -3.05082,-2.77565 -0.11536,-0.037 -0.33655,-0.19438 -0.13934,-0.29281 0.20461,-0.10195 0.47519,-0.0448 0.68121,0.0219 0.34325,0.11042 0.66604,0.3422 0.95144,0.55386 0.92146,0.68192 1.69968,1.53529 2.43276,2.41089 0.24835,0.29668 -0.70697,0.28257 -0.87525,0.0818 m -7.60095,21.3106 c -4.90819,0.58596 -7.97877,-1.76072 -8.49383,-6.07025 l -0.62547,-5.2451 c -0.51506,-4.31094 1.91805,-7.31273 6.82519,-7.89905 4.93395,-0.58843 8.00559,1.75684 8.52064,6.06778 l 0.62548,5.24475 c 0.51505,4.30988 -1.91841,7.31308 -6.85201,7.90187 M 95.056325,139.27394 c -0.290336,2.56858 -3.211689,3.98815 -2.707217,6.59553 0.06174,0.3168 -0.910166,0.2286 -0.959908,-0.0314 -0.431447,-2.22779 0.935214,-2.6804 1.883128,-4.40337 0.925336,-1.68063 0.535869,-3.73768 2.719211,-4.27425 1.640769,-0.40323 3.363383,1.31621 4.497211,2.12266 1.49931,1.06645 2.56928,2.02741 3.68723,3.45616 0.13194,0.16863 -0.77364,0.20744 -0.96026,-0.0314 -1.03117,-1.31762 -7.699726,-7.50675 -8.159395,-3.43393 m -6.260747,3.96698 c -0.235302,0.11677 -1.139472,-0.17745 -0.809272,-0.34078 1.267531,-0.62689 2.753783,-1.7907 3.164416,-3.20111 0.194734,-0.66675 0.126295,-1.82104 0.6985,-2.32657 0.30727,-0.27234 0.716845,-0.33549 1.036814,-0.59549 0.234245,-0.19014 1.109839,0.1143 0.923925,0.26459 -0.42545,0.34537 -1.069622,0.40181 -1.258005,0.97684 -0.297392,0.90452 -0.287161,1.87007 -0.82797,2.68993 -0.711905,1.08056 -1.767416,1.95897 -2.928408,2.53259 M 102.28615,132.0487 c -0.0145,-0.28187 0.96908,-0.33761 0.98919,-0.0533 0.002,0.0483 0.005,0.0974 0.008,0.14605 3.5e-4,0.005 -0.004,0.007 -0.005,0.0113 0.10019,1.97556 -0.53622,3.93665 -1.10031,5.81413 -0.0769,0.25506 -1.05234,0.2533 -0.95991,-0.0536 0.56974,-1.89371 1.20826,-3.87103 1.06786,-5.86458 m 1.50636,6.98888 c 2.50578,-0.77928 4.80095,-3.75532 2.76578,-6.2544 -0.14394,-0.17709 0.76905,-0.26881 0.96026,-0.0339 0.93486,1.14899 0.9913,3.34398 0.10548,4.5152 -0.77117,1.02059 -1.93887,1.7272 -3.15419,2.10467 -0.23812,0.0741 -1.16981,-0.1785 -0.67733,-0.33161 m -18.828481,7.82673 c -0.242358,0.95638 -0.784578,1.7847 -1.542344,2.41688 -0.200025,0.16792 -1.141236,0.004 -0.843139,-0.24518 0.922866,-0.77153 1.598436,-1.9879 1.403702,-3.20887 -0.150636,-0.94333 0.273756,-1.89724 0.04445,-2.78342 -0.05327,-0.20566 0.907698,-0.26281 0.989189,0.0533 0.130881,0.50518 -0.02822,0.83715 -0.09843,1.32786 -0.117122,0.81421 0.247298,1.64465 0.04657,2.43946 m 44.858163,-1.89265 c -0.95497,-0.61631 -1.11125,-1.40653 -1.21461,-1.93005 -0.0568,-0.28822 -0.0938,-0.45791 -0.19897,-0.57468 -0.16616,-0.18591 -0.4385,-0.33055 -0.75459,-0.49812 -0.40217,-0.21272 -0.87665,-0.46531 -1.32292,-0.89782 -0.35383,0.45685 -0.70767,0.9137 -1.06186,1.37019 -0.16228,0.2092 -1.06856,-0.14993 -0.86995,-0.40499 0.44097,-0.57009 0.8823,-1.13982 1.32362,-1.70956 l -0.0356,-0.0515 c -0.58984,-0.84807 -0.69779,-1.00118 -2.06233,-0.55315 -2.4437,0.8061 -3.83223,-0.76906 -5.0606,-2.15547 l -0.14464,-0.16369 c -0.49354,-0.55527 -0.57538,-0.50624 -1.11055,-0.18803 -0.2741,0.16333 -0.58455,0.34889 -0.97543,0.42368 -0.29845,0.0579 -0.54857,0.006 -0.75953,-0.10795 -1.61748,0.94404 -2.99437,2.37032 -3.99203,4.01144 0.0829,0.0695 0.12206,0.14217 0.061,0.20073 -0.1203,0.11501 -0.2413,0.21802 -0.36301,0.32068 -0.53269,0.9786 -0.9331,2.01824 -1.17122,3.06599 -0.0716,0.31679 -1.03823,0.27269 -0.98954,0.0593 0.16757,-0.73413 0.41134,-1.45839 0.71649,-2.16112 -2.03377,1.03752 -4.23157,1.01388 -6.73065,1.86231 -2.2232,0.7546 -4.529667,1.14724 -6.853767,1.45839 -0.249767,0.0339 -1.106311,-0.39935 -0.590197,-0.46779 2.255661,-0.30303 4.532134,-0.65299 6.680554,-1.42592 2.86138,-1.0287 6.02544,-0.9137 8.30086,-2.98486 1.09891,-1.80657 2.64372,-3.35209 4.48063,-4.33211 -0.20708,-0.25647 -0.35736,-0.55915 -0.47342,-0.79481 -0.085,-0.17145 -0.21661,-0.4385 -0.3168,-0.56762 -1.68875,0.9705 -2.65113,0.35102 -3.45087,-0.46143 -0.53305,-0.54257 -1.30634,-1.52612 -1.92687,-2.31634 l -0.48366,-0.61031 c -0.26741,-0.33196 -0.84032,-0.78493 -1.28729,-1.11336 l -1.01,0.96308 -2.90089,-0.76517 -0.4505,-0.62724 c -0.3877,0.65158 -0.94333,1.53775 -1.58609,2.42922 -1.38042,1.91806 -2.620081,1.35008 -3.714045,0.84914 -0.191205,-0.0875 -0.397228,-0.18168 -0.619478,-0.27234 -1.12148,-0.45897 -1.621366,-0.26071 -2.529769,0.0998 l -0.249061,0.0981 c -0.61842,0.23848 -1.151114,0.073 -1.539875,-0.0483 -0.473428,-0.14957 -0.615597,-0.19297 -1.087614,0.77929 -1.115836,2.29552 -5.615516,7.45243 -7.211835,7.9816 -0.971903,0.32314 -1.801284,0.0871 -2.336095,-0.16969 l -0.04904,0.055 c -0.503767,1.96568 -0.771878,4.02555 -0.771878,6.14857 0,7.00193 2.916767,13.31771 7.595658,17.81316 -0.22225,-0.5708 -0.04939,-0.91687 0.600428,-1.23155 l 1.889478,-0.93698 c 0.722488,-0.34819 1.023761,-0.25364 1.45415,0.48578 0.631825,1.10984 1.379008,1.6256 2.703688,1.4672 1.765653,-0.21061 2.512836,-1.22096 2.290234,-3.09068 L 96.3295,152.13551 c -0.09313,-0.77787 0.135819,-1.06997 0.914047,-1.16311 l 2.156531,-0.25717 c 0.751772,-0.0896 1.068912,0.13723 1.161702,0.91475 l 1.33067,11.14002 c 0.49178,4.12962 -1.56986,6.92961 -6.088942,7.46901 -0.801511,0.0956 -1.5367,0.0952 -2.212975,0.0113 3.60927,2.06304 7.785097,3.24838 12.241037,3.24838 13.64368,0 24.70679,-11.05959 24.70679,-24.70397 0,-1.4792 -0.13758,-2.92559 -0.387,-4.33317 z"
       style="fill:#7b7979;fill-opacity:1;fill-rule:nonzero;stroke:none;stroke-width:0.35277775"
       id="path1846"
       inkscape:connector-curvature="0" />
    <path
       d="m 116.37976,155.35503 c -0.24201,-2.02565 -1.60867,-2.88854 -3.81529,-2.62537 -2.18158,0.26035 -3.3073,1.42134 -3.06529,3.44699 l 0.64523,5.40068 c 0.24201,2.0253 1.60902,2.88925 3.7906,2.62855 2.20662,-0.26318 3.33269,-1.42452 3.09069,-3.45017 z"
       style="fill:#7b7979;fill-opacity:1;fill-rule:nonzero;stroke:none;stroke-width:0.35277775"
       id="path1850"
       inkscape:connector-curvature="0" />
    <path
       d="m 84.288694,141.4294 c 0.953911,-0.31609 5.197122,-4.86269 6.344356,-7.22101 0.951794,-1.95933 1.978024,-1.82492 2.86773,-1.5487 0.295275,0.0924 0.437091,0.12947 0.558447,0.0811 l 0.240947,-0.0945 c 1.008945,-0.39935 1.96462,-0.7747 3.636786,-0.0938 0.242711,0.0998 0.466372,0.20179 0.67557,0.29704 1.061155,0.48577 1.223433,0.55986 1.89054,-0.36654 1.16875,-1.62031 2.05951,-3.26884 2.06868,-3.28542 l 0.5648,-1.04881 1.5046,2.1015 1.58115,0.41663 1.28164,-1.22096 0.49424,0.3302 c 0.15205,0.1016 1.50495,1.01529 2.10256,1.75718 l 0.49459,0.62477 c 0.56692,0.72073 1.34338,1.70851 1.81857,2.19181 0.55069,0.55986 0.78352,0.72778 1.63089,0.22119 0.4879,-0.29386 0.90029,-0.26388 1.161,-0.18803 0.66251,0.19544 0.98707,0.85196 1.24777,1.37972 0.0667,0.13476 0.15734,0.31855 0.23213,0.4392 0.10301,-0.0469 0.21696,-0.115 0.33549,-0.1852 0.5842,-0.3482 1.67252,-0.99695 2.98097,0.47766 l 0.14676,0.1658 c 1.29681,1.46332 2.03835,2.20345 3.48368,1.72932 2.24472,-0.73837 2.94146,-0.0395 3.74615,1.11478 l 0.1785,0.25435 c 0.3549,0.49354 0.79693,0.72813 1.26506,0.97614 0.36089,0.1912 0.72955,0.3944 1.0481,0.70661 -3.15489,-10.01219 -12.51338,-17.27341 -23.56696,-17.27341 -10.962924,0 -20.249799,7.14234 -23.479832,17.02505 0.172156,0.12171 0.752828,0.47379 1.465086,0.23637"
       style="fill:#7b7979;fill-opacity:1;fill-rule:nonzero;stroke:none;stroke-width:0.35277775"
       id="path1854"
       inkscape:connector-curvature="0" />
    <path
       d="m 96.275552,170.2389 c 4.519438,-0.53939 6.580718,-3.33939 6.088948,-7.46901 l -1.33068,-11.14001 c -0.0928,-0.77753 -0.40993,-1.00436 -1.161699,-0.91476 l -2.15653,0.25718 c -0.778228,0.0931 -1.006828,0.38523 -0.914048,1.16311 l 1.332795,11.16612 c 0.22225,1.86972 -0.524933,2.88008 -2.290586,3.09068 -1.324681,0.1584 -2.071864,-0.35736 -2.703689,-1.4672 -0.430389,-0.73942 -0.731661,-0.83396 -1.45415,-0.48577 l -1.889478,0.93697 c -0.649816,0.31468 -0.822677,0.66076 -0.600427,1.23155 1.461558,1.40441 3.094919,2.62925 4.866922,3.64243 0.676275,0.084 1.411463,0.0843 2.212622,-0.0113"
       style="fill:#ffffff;fill-opacity:1;fill-rule:nonzero;stroke:none;stroke-width:0.35277775"
       id="path1858"
       inkscape:connector-curvature="0" />
    <g
       id="g1860"
       transform="matrix(0.35277777,0,0,-0.35277777,113.93511,164.20584)">
      <path
         d="m 0,0 c -6.185,-0.739 -10.06,1.709 -10.745,7.451 l -1.829,15.309 c -0.687,5.741 2.505,9.032 8.688,9.771 6.256,0.745 10.13,-1.7 10.816,-7.442 L 8.761,9.78 C 9.446,4.038 6.255,0.746 0,0 M 18.958,26.297 C 17.498,38.518 8.791,45.166 -5.194,43.497 -19.104,41.836 -26.002,33.326 -24.541,21.106 l 1.772,-14.867 c 1.46,-12.217 10.165,-18.869 24.078,-17.208 13.985,1.669 20.882,10.182 19.422,22.4 z"
         style="fill:#ffffff;fill-opacity:1;fill-rule:nonzero;stroke:none"
         id="path1862"
         inkscape:connector-curvature="0" />
    </g>
  </g>
</svg>
