<?xml version="1.0" encoding="UTF-8" standalone="no"?>
<!-- Created with Inkscape (http://www.inkscape.org/) -->

<svg
   xmlns:dc="http://purl.org/dc/elements/1.1/"
   xmlns:cc="http://creativecommons.org/ns#"
   xmlns:rdf="http://www.w3.org/1999/02/22-rdf-syntax-ns#"
   xmlns:svg="http://www.w3.org/2000/svg"
   xmlns="http://www.w3.org/2000/svg"
   xmlns:sodipodi="http://sodipodi.sourceforge.net/DTD/sodipodi-0.dtd"
   xmlns:inkscape="http://www.inkscape.org/namespaces/inkscape"
   width="49.602322mm"
   height="49.602669mm"
   viewBox="0 0 49.602322 49.602669"
   version="1.1"
   id="svg4183"
   inkscape:version="0.92.1 r15371"
   sodipodi:docname="OG-Hochdorf.svg">
  <defs
     id="defs4177" />
  <sodipodi:namedview
     id="base"
     pagecolor="#ffffff"
     bordercolor="#666666"
     borderopacity="1.0"
     inkscape:pageopacity="0.0"
     inkscape:pageshadow="2"
     inkscape:zoom="0.35"
     inkscape:cx="2625.1653"
     inkscape:cy="-1083.4055"
     inkscape:document-units="mm"
     inkscape:current-layer="layer1"
     showgrid="false"
     fit-margin-top="0"
     fit-margin-left="0"
     fit-margin-right="0"
     fit-margin-bottom="0"
     inkscape:window-width="1920"
     inkscape:window-height="1137"
     inkscape:window-x="-8"
     inkscape:window-y="-8"
     inkscape:window-maximized="1" />
  <metadata
     id="metadata4180">
    <rdf:RDF>
      <cc:Work
         rdf:about="">
        <dc:format>image/svg+xml</dc:format>
        <dc:type
           rdf:resource="http://purl.org/dc/dcmitype/StillImage" />
        <dc:title></dc:title>
      </cc:Work>
    </rdf:RDF>
  </metadata>
  <g
     inkscape:label="Ebene 1"
     inkscape:groupmode="layer"
     id="layer1"
     transform="translate(588.74164,187.42038)">
    <path
       d="m -539.13932,-162.61905 c 0,13.6973 -11.10403,24.80134 -24.80133,24.80134 -13.69695,0 -24.80099,-11.10404 -24.80099,-24.80134 0,-13.6973 11.10404,-24.80133 24.80099,-24.80133 13.6973,0 24.80133,11.10403 24.80133,24.80133"
       style="fill:#801e31;fill-opacity:1;fill-rule:nonzero;stroke:none;stroke-width:0.35277775"
       id="path30"
       inkscape:connector-curvature="0" />
    <path
       d="m -568.76023,-153.67592 c -1.56739,0 -2.43487,0.76059 -2.43487,2.17593 v 3.34786 c 0,1.41535 0.86748,2.17594 2.43487,2.17594 1.55187,0 2.43452,-0.76059 2.43452,-2.17594 v -3.34786 c 0,-1.41534 -0.88265,-2.17593 -2.43452,-2.17593 m 0,-1.78047 c 2.78483,0 4.3367,1.52153 4.3367,3.97157 v 3.31753 c 0,2.45039 -1.55187,3.97157 -4.3367,3.97157 -2.8,0 -4.35257,-1.52118 -4.35257,-3.97157 v -3.31753 c 0,-2.45004 1.55257,-3.97157 4.35257,-3.97157"
       style="fill:#ffffff;fill-opacity:1;fill-rule:nonzero;stroke:none;stroke-width:0.35277775"
       id="path34"
       inkscape:connector-curvature="0" />
    <path
       d="m -553.8771,-149.82605 v 2.03905 c 0,2.06975 -1.55187,3.59128 -4.33705,3.59128 -2.8,0 -4.35222,-1.52153 -4.35222,-3.97157 v -3.3327 c 0,-2.43487 1.55222,-3.9564 4.35222,-3.9564 2.23732,0 3.56094,0.89782 4.13914,2.54106 0.13688,0.36513 0.0459,0.53269 -0.31962,0.66993 l -0.83679,0.28892 c -0.36512,0.13688 -0.51752,0.061 -0.6544,-0.31926 -0.33514,-0.92851 -1.06539,-1.40018 -2.32833,-1.40018 -1.58256,0 -2.43487,0.76059 -2.43487,2.16077 v 3.36303 c 0,1.41534 0.86748,2.17593 2.43487,2.17593 1.55222,0 2.46521,-0.76059 2.46521,-1.79564 v -0.79093 h -2.29764 c -0.3803,0 -0.51753,-0.13723 -0.51753,-0.53304 v -0.73025 c 0,-0.39582 0.13723,-0.51753 0.51753,-0.51753 h 3.65195 c 0.39582,0 0.51753,0.12171 0.51753,0.51753"
       style="fill:#ffffff;fill-opacity:1;fill-rule:nonzero;stroke:none;stroke-width:0.35277775"
       id="path38"
       inkscape:connector-curvature="0" />
    <path
       d="m -579.49032,-174.68034 v 4.78296 c 0,0.18626 -0.0667,0.25329 -0.26035,0.25329 h -0.42474 c -0.18662,0 -0.2533,-0.067 -0.2533,-0.25329 v -1.98932 h -2.20521 v 1.98932 c 0,0.18626 -0.0674,0.25329 -0.2533,0.25329 h -0.42474 c -0.19368,0 -0.2607,-0.067 -0.2607,-0.25329 v -4.78296 c 0,-0.18627 0.067,-0.2533 0.2607,-0.2533 h 0.42474 c 0.18592,0 0.2533,0.067 0.2533,0.2533 v 1.92193 h 2.20521 v -1.92193 c 0,-0.18627 0.0667,-0.2533 0.2533,-0.2533 h 0.42474 c 0.19368,0 0.26035,0.067 0.26035,0.2533"
       style="fill:#ffffff;fill-opacity:1;fill-rule:nonzero;stroke:none;stroke-width:0.35277775"
       id="path42"
       inkscape:connector-curvature="0" />
    <path
       d="m -576.30086,-174.17354 c -0.76764,0 -1.19203,0.37218 -1.19203,1.06539 v 1.639 c 0,0.69251 0.42439,1.06539 1.19203,1.06539 0.75989,0 1.19204,-0.37288 1.19204,-1.06539 v -1.639 c 0,-0.69321 -0.43215,-1.06539 -1.19204,-1.06539 m 0,-0.87172 c 1.36314,0 2.12337,0.74507 2.12337,1.94452 v 1.62418 c 0,1.19945 -0.76023,1.94416 -2.12337,1.94416 -1.37089,0 -2.13077,-0.74471 -2.13077,-1.94416 v -1.62418 c 0,-1.19945 0.75988,-1.94452 2.13077,-1.94452"
       style="fill:#ffffff;fill-opacity:1;fill-rule:nonzero;stroke:none;stroke-width:0.35277775"
       id="path46"
       inkscape:connector-curvature="0" />
    <path
       d="m -571.13735,-175.04515 c 1.09502,0 1.74307,0.43956 2.02635,1.24354 0.067,0.17921 0.0226,0.26141 -0.15628,0.32808 l -0.40993,0.14147 c -0.1785,0.0522 -0.25329,0.03 -0.32067,-0.15628 -0.16334,-0.45438 -0.52105,-0.6851 -1.13947,-0.6851 -0.76765,0 -1.19204,0.37183 -1.19204,1.05763 v 1.64677 c 0,0.68509 0.42439,1.06503 1.19204,1.06503 0.62547,0 0.97613,-0.23847 1.13947,-0.6932 0.0748,-0.18592 0.14922,-0.22296 0.32808,-0.15628 l 0.40252,0.14181 c 0.17886,0.067 0.22331,0.14887 0.16404,0.32773 -0.28328,0.80434 -0.93168,1.25166 -2.03411,1.25166 -1.3709,0 -2.13078,-0.74472 -2.13078,-1.94451 v -1.6316 c 0,-1.19204 0.75988,-1.93675 2.13078,-1.93675"
       style="fill:#ffffff;fill-opacity:1;fill-rule:nonzero;stroke:none;stroke-width:0.35277775"
       id="path50"
       inkscape:connector-curvature="0" />
    <path
       d="m -564.08903,-174.68034 v 4.78296 c 0,0.18626 -0.067,0.25329 -0.2607,0.25329 h -0.42439 c -0.18662,0 -0.25365,-0.067 -0.25365,-0.25329 v -1.98932 h -2.20486 v 1.98932 c 0,0.18626 -0.0674,0.25329 -0.25365,0.25329 h -0.42439 c -0.19403,0 -0.26106,-0.067 -0.26106,-0.25329 v -4.78296 c 0,-0.18627 0.067,-0.2533 0.26106,-0.2533 h 0.42439 c 0.18627,0 0.25365,0.067 0.25365,0.2533 v 1.92193 h 2.20486 v -1.92193 c 0,-0.18627 0.067,-0.2533 0.25365,-0.2533 h 0.42439 c 0.19367,0 0.2607,0.067 0.2607,0.2533"
       style="fill:#ffffff;fill-opacity:1;fill-rule:nonzero;stroke:none;stroke-width:0.35277775"
       id="path54"
       inkscape:connector-curvature="0" />
    <path
       d="m -560.94437,-174.06192 h -0.99801 v 3.54647 h 0.99801 c 0.78246,0 1.22203,-0.38029 1.22203,-1.08797 v -1.37089 c 0,-0.70803 -0.43957,-1.08761 -1.22203,-1.08761 m 2.15336,1.09502 v 1.35572 c 0,1.21497 -0.77506,1.96709 -2.16077,1.96709 h -1.66864 c -0.19402,0 -0.26105,-0.067 -0.26105,-0.25329 v -4.78296 c 0,-0.18627 0.067,-0.2533 0.26105,-0.2533 h 1.66864 c 1.38571,0 2.16077,0.75248 2.16077,1.96674"
       style="fill:#ffffff;fill-opacity:1;fill-rule:nonzero;stroke:none;stroke-width:0.35277775"
       id="path58"
       inkscape:connector-curvature="0" />
    <path
       d="m -555.75847,-174.17354 c -0.76764,0 -1.19203,0.37218 -1.19203,1.06539 v 1.639 c 0,0.69251 0.42439,1.06539 1.19203,1.06539 0.75989,0 1.19204,-0.37288 1.19204,-1.06539 v -1.639 c 0,-0.69321 -0.43215,-1.06539 -1.19204,-1.06539 m 0,-0.87172 c 1.36314,0 2.12337,0.74507 2.12337,1.94452 v 1.62418 c 0,1.19945 -0.76023,1.94416 -2.12337,1.94416 -1.37089,0 -2.13077,-0.74471 -2.13077,-1.94416 v -1.62418 c 0,-1.19945 0.75988,-1.94452 2.13077,-1.94452"
       style="fill:#ffffff;fill-opacity:1;fill-rule:nonzero;stroke:none;stroke-width:0.35277775"
       id="path62"
       inkscape:connector-curvature="0" />
    <path
       d="m -550.34897,-174.06192 h -1.28905 v 1.53458 h 1.28905 c 0.49882,0 0.78211,-0.26811 0.78211,-0.76694 0,-0.49212 -0.27552,-0.76764 -0.78211,-0.76764 m 1.7653,0.76764 c 0,0.77435 -0.36478,1.29611 -0.98319,1.5046 0.0967,0.0822 0.17145,0.18626 0.23847,0.32067 l 0.81951,1.57163 c 0.0744,0.14146 0.0596,0.25329 -0.127,0.25329 h -0.4318 c -0.32033,0 -0.41734,-0.037 -0.50694,-0.22366 l -0.62548,-1.26647 c -0.19367,-0.40958 -0.37253,-0.52176 -0.88688,-0.52176 h -0.55104 v 1.7586 c 0,0.18626 -0.067,0.25329 -0.2533,0.25329 h -0.42474 c -0.19368,0 -0.26035,-0.067 -0.26035,-0.25329 v -4.78296 c 0,-0.18627 0.0667,-0.2533 0.26035,-0.2533 h 2.05634 c 1.0354,0 1.67605,0.61101 1.67605,1.63936"
       style="fill:#ffffff;fill-opacity:1;fill-rule:nonzero;stroke:none;stroke-width:0.35277775"
       id="path66"
       inkscape:connector-curvature="0" />
    <path
       d="m -544.06822,-174.68034 v 0.36477 c 0,0.18662 -0.067,0.25365 -0.2607,0.25365 h -2.27965 v 1.37089 h 1.91452 c 0.19368,0 0.26106,0.067 0.26106,0.25294 v 0.36548 c 0,0.19332 -0.0674,0.25294 -0.26106,0.25294 h -1.91452 v 1.92229 c 0,0.18626 -0.0674,0.25329 -0.2533,0.25329 h -0.42474 c -0.19368,0 -0.2607,-0.067 -0.2607,-0.25329 v -4.78296 c 0,-0.18627 0.067,-0.2533 0.2607,-0.2533 h 2.95769 c 0.19367,0 0.2607,0.067 0.2607,0.2533"
       style="fill:#ffffff;fill-opacity:1;fill-rule:nonzero;stroke:none;stroke-width:0.35277775"
       id="path70"
       inkscape:connector-curvature="0" />
    <path
       d="m -585.15544,-150.66732 c 1.74202,-0.57538 6.65692,-6.21736 7.87824,-8.7309 0.55809,-1.14688 0.76447,-1.08232 1.31727,-0.91122 0.41345,0.12982 0.98037,0.30585 1.62772,0.0568 l 0.27093,-0.1076 c 1.02552,-0.40393 1.58785,-0.62759 2.85891,-0.11077 0.24765,0.10054 0.47449,0.20461 0.68686,0.30233 1.22625,0.55986 2.49343,1.14229 3.96451,-0.90241 0.74825,-1.03963 1.38995,-2.07151 1.81787,-2.79647 l 0.56233,0.78599 3.1055,0.82127 1.1303,-1.08091 c 0.50553,0.36618 1.18921,0.90276 1.50318,1.29116 l 0.53058,0.67028 c 0.68227,0.86819 1.53176,1.9491 2.11491,2.53894 0.86289,0.87948 1.90394,1.55046 3.7151,0.43004 0.12206,0.072 0.33478,0.5013 0.44873,0.73237 0.13758,0.27869 0.30762,0.623 0.5401,0.90028 0.26318,0.40676 0.90629,0.53235 1.20368,0.47132 0.41346,-0.0801 0.74719,-0.2787 1.04316,-0.45403 0.59126,-0.35348 0.75036,-0.44626 1.34797,0.22578 l 0.15663,0.17639 c 1.33033,1.50389 2.83845,3.21169 5.46418,2.34738 1.06186,-0.34749 1.47037,-0.36795 1.82986,-0.0494 -0.0325,-0.54363 -0.0861,-1.08197 -0.15381,-1.61502 -0.52988,-0.0847 -1.20227,-0.003 -2.12443,0.29881 -1.64571,0.54257 -2.52695,-0.33444 -3.94018,-1.93358 l -0.15945,-0.17886 c -1.38642,-1.55786 -2.49379,-0.90029 -3.15454,-0.50553 -0.16334,0.0974 -0.31891,0.18944 -0.45826,0.24166 -0.0956,-0.13512 -0.22437,-0.3937 -0.30762,-0.56233 -0.29246,-0.59302 -0.62512,-1.26506 -1.31304,-1.46685 -0.26529,-0.0748 -0.68898,-0.1076 -1.19768,0.19791 -1.0033,0.60007 -1.31304,0.35418 -1.91735,-0.26388 -0.5274,-0.5334 -1.38359,-1.62349 -2.00872,-2.419 l -0.54257,-0.68439 c -0.6484,-0.80327 -2.12478,-1.80128 -2.29129,-1.91382 l -0.47978,-0.31997 -1.39135,1.33103 -1.82633,-0.4833 -1.58503,-2.21298 -0.54575,1.01459 c -0.0102,0.0169 -0.99272,1.83762 -2.28212,3.62585 -0.78211,1.08656 -1.02729,0.97155 -2.20204,0.43568 -0.2293,-0.10583 -0.47413,-0.21731 -0.74154,-0.32667 -1.8034,-0.73343 -2.83633,-0.32667 -3.92924,0.10583 l -0.26176,0.10231 c -0.17145,0.0646 -0.36089,0.0127 -0.68015,-0.0861 -0.98214,-0.30939 -2.02389,-0.43215 -3.03742,1.65276 -1.26894,2.61126 -5.97747,7.64575 -7.03792,7.99747 -0.97754,0.31962 -1.74342,-0.30233 -1.77024,-0.3242 l -0.36865,-0.31997 c 0,0.0148 -10e-4,0.0289 -10e-4,0.0437 0,0.59549 0.0293,1.18357 0.072,1.76777 0.56903,0.28011 1.4672,0.54293 2.51918,0.19438"
       style="fill:#ffffff;fill-opacity:1;fill-rule:nonzero;stroke:none;stroke-width:0.35277775"
       id="path74"
       inkscape:connector-curvature="0" />
  </g>
</svg>
