<?xml version="1.0" encoding="UTF-8" standalone="no"?>
<!-- Created with Inkscape (http://www.inkscape.org/) -->

<svg
   xmlns:dc="http://purl.org/dc/elements/1.1/"
   xmlns:cc="http://creativecommons.org/ns#"
   xmlns:rdf="http://www.w3.org/1999/02/22-rdf-syntax-ns#"
   xmlns:svg="http://www.w3.org/2000/svg"
   xmlns="http://www.w3.org/2000/svg"
   xmlns:sodipodi="http://sodipodi.sourceforge.net/DTD/sodipodi-0.dtd"
   xmlns:inkscape="http://www.inkscape.org/namespaces/inkscape"
   width="49.602322mm"
   height="49.602669mm"
   viewBox="0 0 49.602322 49.602669"
   version="1.1"
   id="svg4295"
   inkscape:version="0.92.1 r15371"
   sodipodi:docname="OG-Rigi.svg">
  <defs
     id="defs4289" />
  <sodipodi:namedview
     id="base"
     pagecolor="#ffffff"
     bordercolor="#666666"
     borderopacity="1.0"
     inkscape:pageopacity="0.0"
     inkscape:pageshadow="2"
     inkscape:zoom="0.35"
     inkscape:cx="136.59381"
     inkscape:cy="253.73732"
     inkscape:document-units="mm"
     inkscape:current-layer="layer1"
     showgrid="false"
     inkscape:window-width="1920"
     inkscape:window-height="1137"
     inkscape:window-x="-8"
     inkscape:window-y="-8"
     inkscape:window-maximized="1"
     fit-margin-top="0"
     fit-margin-left="0"
     fit-margin-right="0"
     fit-margin-bottom="0" />
  <metadata
     id="metadata4292">
    <rdf:RDF>
      <cc:Work
         rdf:about="">
        <dc:format>image/svg+xml</dc:format>
        <dc:type
           rdf:resource="http://purl.org/dc/dcmitype/StillImage" />
        <dc:title></dc:title>
      </cc:Work>
    </rdf:RDF>
  </metadata>
  <g
     inkscape:label="Ebene 1"
     inkscape:groupmode="layer"
     id="layer1"
     transform="translate(-69.692888,-166.36533)">
    <path
       d="m 119.29521,191.16667 c 0,13.6973 -11.10404,24.80133 -24.801339,24.80133 -13.697303,0 -24.800983,-11.10403 -24.800983,-24.80133 0,-13.69731 11.10368,-24.80134 24.800983,-24.80134 13.697299,0 24.801339,11.10403 24.801339,24.80134"
       style="fill:#801e31;fill-opacity:1;fill-rule:nonzero;stroke:none;stroke-width:0.35277775"
       id="path390"
       inkscape:connector-curvature="0" />
    <path
       d="m 89.673904,200.1098 c -1.567392,0 -2.43452,0.76058 -2.43452,2.17593 v 3.34786 c 0,1.41534 0.867128,2.17593 2.43452,2.17593 1.552222,0 2.434872,-0.76059 2.434872,-2.17593 v -3.34786 c 0,-1.41535 -0.88265,-2.17593 -2.434872,-2.17593 m 0,-1.78047 c 2.78518,0 4.337049,1.52153 4.337049,3.97157 v 3.31752 c 0,2.45039 -1.551869,3.97157 -4.337049,3.97157 -2.799998,0 -4.35222,-1.52118 -4.35222,-3.97157 v -3.31752 c 0,-2.45004 1.552222,-3.97157 4.35222,-3.97157"
       style="fill:#ffffff;fill-opacity:1;fill-rule:nonzero;stroke:none;stroke-width:0.35277775"
       id="path394"
       inkscape:connector-curvature="0" />
    <path
       d="m 104.55742,203.95966 v 2.03906 c 0,2.06974 -1.55222,3.59127 -4.33705,3.59127 -2.799995,0 -4.35257,-1.52153 -4.35257,-3.97157 v -3.33269 c 0,-2.43487 1.552575,-3.9564 4.35257,-3.9564 2.23697,0 3.56094,0.89782 4.13879,2.54105 0.13723,0.36513 0.0459,0.5327 -0.31926,0.66993 l -0.83714,0.28892 c -0.36513,0.13688 -0.51753,0.061 -0.65405,-0.31926 -0.33514,-0.92851 -1.06539,-1.40017 -2.32834,-1.40017 -1.582557,0 -2.43487,0.76058 -2.43487,2.16076 v 3.36303 c 0,1.41534 0.867481,2.17593 2.43487,2.17593 1.55187,0 2.46486,-0.76059 2.46486,-1.79564 v -0.79092 h -2.29764 c -0.38029,0 -0.517174,-0.13723 -0.517174,-0.53305 v -0.73025 c 0,-0.39582 0.136884,-0.51753 0.517174,-0.51753 h 3.65231 c 0.39546,0 0.51752,0.12171 0.51752,0.51753"
       style="fill:#ffffff;fill-opacity:1;fill-rule:nonzero;stroke:none;stroke-width:0.35277775"
       id="path398"
       inkscape:connector-curvature="0" />
    <path
       d="m 73.279053,203.11839 c 1.741664,-0.57538 6.656916,-6.21736 7.878233,-8.73089 0.557742,-1.14689 0.764469,-1.08233 1.316919,-0.91123 0.413809,0.12982 0.98037,0.30586 1.62807,0.0568 l 0.27058,-0.10759 c 1.025525,-0.40394 1.588206,-0.6276 2.859264,-0.11078 0.247297,0.10054 0.474133,0.20461 0.686858,0.30233 1.226256,0.55986 2.493434,1.1423 3.964517,-0.9024 0.747889,-1.03964 1.389592,-2.07151 1.817864,-2.79647 l 0.561975,0.78599 3.105855,0.82126 1.1303,-1.08091 c 0.505177,0.36619 1.188861,0.90276 1.502832,1.29117 l 0.53058,0.67028 c 0.68262,0.86818 1.53211,1.94909 2.11526,2.53894 0.86289,0.87947 1.90394,1.55046 3.71475,0.43004 0.12241,0.072 0.33478,0.50129 0.44908,0.73236 0.13758,0.2787 0.30762,0.62301 0.54011,0.90029 0.26317,0.40675 0.90593,0.53234 1.20332,0.47131 0.41381,-0.0801 0.74718,-0.27869 1.04352,-0.45403 0.59125,-0.35348 0.75036,-0.44626 1.34761,0.22578 l 0.15663,0.17639 c 1.33068,1.50389 2.83845,3.21169 5.46418,2.34738 1.06221,-0.34748 1.47037,-0.36794 1.82985,-0.0494 -0.0321,-0.54363 -0.0861,-1.08197 -0.15381,-1.61501 -0.52952,-0.0847 -1.20227,-0.003 -2.12407,0.2988 -1.64571,0.54257 -2.52695,-0.33443 -3.94018,-1.93358 l -0.15945,-0.17885 c -1.38677,-1.55787 -2.49379,-0.90029 -3.15454,-0.50553 -0.16334,0.0974 -0.31891,0.18944 -0.45826,0.24165 -0.0959,-0.13512 -0.22437,-0.3937 -0.30798,-0.56233 -0.2921,-0.59302 -0.62476,-1.26506 -1.31303,-1.46685 -0.26494,-0.0748 -0.68863,-0.1076 -1.19768,0.19791 -1.00295,0.60008 -1.31304,0.35419 -1.917,-0.26388 -0.5274,-0.5334 -1.38359,-1.62348 -2.00871,-2.419 l -0.54258,-0.68439 c -0.6484,-0.80327 -2.124425,-1.80128 -2.291642,-1.91382 l -0.479425,-0.31997 -1.391356,1.33104 -1.826331,-0.48331 -1.58503,-2.21298 -0.545748,1.01459 c -0.01023,0.0169 -0.993069,1.83762 -2.282119,3.62585 -0.782108,1.08656 -1.027289,0.97155 -2.202392,0.43568 -0.228952,-0.10583 -0.47378,-0.21731 -0.741538,-0.32667 -1.8034,-0.73342 -2.835981,-0.32667 -3.928886,0.10584 l -0.261762,0.1023 c -0.17145,0.0646 -0.360891,0.0127 -0.680155,-0.0861 -0.982486,-0.30939 -2.023886,-0.43215 -3.037769,1.65277 -1.268942,2.61126 -5.977467,7.64575 -7.037564,7.99747 -0.9779,0.31961 -1.743428,-0.30233 -1.770592,-0.3242 l -0.368652,-0.31997 c 0,0.0148 -0.0011,0.0289 -0.0011,0.0437 0,0.59549 0.02928,1.18357 0.07197,1.76777 0.568678,0.2801 1.46685,0.54292 2.519186,0.19438"
       style="fill:#ffffff;fill-opacity:1;fill-rule:nonzero;stroke:none;stroke-width:0.35277775"
       id="path402"
       inkscape:connector-curvature="0" />
    <path
       d="m 90.378791,179.72379 h -1.288698 v 1.53458 h 1.288698 c 0.49918,0 0.782461,-0.26811 0.782461,-0.76694 0,-0.49212 -0.27552,-0.76764 -0.782461,-0.76764 m 1.765652,0.76764 c 0,0.77435 -0.365125,1.29611 -0.983191,1.5046 0.09666,0.0822 0.171097,0.18627 0.238477,0.32068 l 0.81915,1.57162 c 0.07479,0.14147 0.05962,0.2533 -0.126647,0.2533 h -0.432153 c -0.319969,0 -0.416983,-0.037 -0.506588,-0.22367 l -0.625475,-1.26647 c -0.194028,-0.40957 -0.372887,-0.52176 -0.886884,-0.52176 h -0.551039 v 1.7586 c 0,0.18627 -0.06738,0.2533 -0.253294,0.2533 h -0.424745 c -0.193674,0 -0.260702,-0.067 -0.260702,-0.2533 v -4.78296 c 0,-0.18627 0.06703,-0.25329 0.260702,-0.25329 h 2.055989 c 1.035403,0 1.6764,0.61101 1.6764,1.63935"
       style="fill:#ffffff;fill-opacity:1;fill-rule:nonzero;stroke:none;stroke-width:0.35277775"
       id="path406"
       inkscape:connector-curvature="0" />
    <path
       d="m 93.441464,178.85218 h 0.424745 c 0.185914,0 0.253294,0.0667 0.253294,0.2533 v 4.78261 c 0,0.18662 -0.06738,0.25364 -0.253294,0.25364 h -0.424745 c -0.193675,0 -0.260703,-0.067 -0.260703,-0.25364 v -4.78261 c 0,-0.18662 0.06703,-0.2533 0.260703,-0.2533"
       style="fill:#ffffff;fill-opacity:1;fill-rule:nonzero;stroke:none;stroke-width:0.35277775"
       id="path410"
       inkscape:connector-curvature="0" />
    <path
       d="m 99.431457,181.49664 v 0.99836 c 0,1.01353 -0.759532,1.75825 -2.123369,1.75825 -1.370543,0 -2.130426,-0.74472 -2.130426,-1.94416 v -1.6316 c 0,-1.19204 0.759883,-1.93675 2.130426,-1.93675 1.095375,0 1.743779,0.43956 2.026708,1.24354 0.06703,0.17921 0.02222,0.26106 -0.156633,0.32809 l -0.409575,0.14146 c -0.178858,0.067 -0.253296,0.03 -0.320323,-0.15628 -0.164042,-0.45438 -0.521758,-0.68545 -1.140177,-0.68545 -0.7747,0 -1.191684,0.37218 -1.191684,1.05763 v 1.64677 c 0,0.6925 0.424744,1.06539 1.191684,1.06539 0.760235,0 1.207204,-0.37289 1.207204,-0.87913 v -0.38735 h -1.125008 c -0.185913,0 -0.253294,-0.0674 -0.253294,-0.26105 v -0.35772 c 0,-0.19367 0.06738,-0.25294 0.253294,-0.25294 h 1.787879 c 0.194027,0 0.253294,0.0593 0.253294,0.25294"
       style="fill:#ffffff;fill-opacity:1;fill-rule:nonzero;stroke:none;stroke-width:0.35277775"
       id="path414"
       inkscape:connector-curvature="0" />
    <path
       d="m 100.69892,178.85218 h 0.42474 c 0.18592,0 0.2533,0.0667 0.2533,0.2533 v 4.78261 c 0,0.18662 -0.0674,0.25364 -0.2533,0.25364 h -0.42474 c -0.19368,0 -0.2607,-0.067 -0.2607,-0.25364 v -4.78261 c 0,-0.18662 0.067,-0.2533 0.2607,-0.2533"
       style="fill:#ffffff;fill-opacity:1;fill-rule:nonzero;stroke:none;stroke-width:0.35277775"
       id="path418"
       inkscape:connector-curvature="0" />
  </g>
</svg>
