<?xml version="1.0" encoding="UTF-8" standalone="no"?>
<!-- Created with Inkscape (http://www.inkscape.org/) -->

<svg
   xmlns:dc="http://purl.org/dc/elements/1.1/"
   xmlns:cc="http://creativecommons.org/ns#"
   xmlns:rdf="http://www.w3.org/1999/02/22-rdf-syntax-ns#"
   xmlns:svg="http://www.w3.org/2000/svg"
   xmlns="http://www.w3.org/2000/svg"
   xmlns:sodipodi="http://sodipodi.sourceforge.net/DTD/sodipodi-0.dtd"
   xmlns:inkscape="http://www.inkscape.org/namespaces/inkscape"
   version="1.1"
   id="svg4511"
   width="478"
   height="455"
   viewBox="0 0 478 455"
   sodipodi:docname="Logo Aktive.svg"
   inkscape:version="0.92.1 r15371">
  <metadata
     id="metadata4517">
    <rdf:RDF>
      <cc:Work
         rdf:about="">
        <dc:format>image/svg+xml</dc:format>
        <dc:type
           rdf:resource="http://purl.org/dc/dcmitype/StillImage" />
        <dc:title></dc:title>
      </cc:Work>
    </rdf:RDF>
  </metadata>
  <defs
     id="defs4515" />
  <sodipodi:namedview
     pagecolor="#ffffff"
     bordercolor="#666666"
     borderopacity="1"
     objecttolerance="10"
     gridtolerance="10"
     guidetolerance="10"
     inkscape:pageopacity="0"
     inkscape:pageshadow="2"
     inkscape:window-width="1920"
     inkscape:window-height="1137"
     id="namedview4513"
     showgrid="false"
     inkscape:zoom="1.4670523"
     inkscape:cx="335.94338"
     inkscape:cy="300.45628"
     inkscape:window-x="-8"
     inkscape:window-y="-8"
     inkscape:window-maximized="1"
     inkscape:current-layer="svg4511" />
  <path
     style="fill:#800000"
     d="M 213.42796,443.78014 C 170.97156,438.10606 132.18352,421.0829 99.618081,393.83166 l -9.80988,-8.20905 7.3596,-7.63334 c 15.269059,-15.83699 29.362089,-34.19049 37.563739,-48.91965 2.57287,-4.62057 5.36168,-8.76695 6.19735,-9.21419 0.85867,-0.45954 4.43265,-0.15964 8.21864,0.68966 6.69438,1.50173 6.70625,1.50048 16.35353,-1.71351 11.74878,-3.91411 14.4893,-3.70433 28.18581,2.15758 20.52706,8.78528 26.6223,6.19966 42.65237,-18.09328 4.15915,-6.30302 7.74214,-11.92802 7.96221,-12.5 0.22006,-0.57197 1.68855,0.43701 3.26331,2.24218 2.51496,2.88294 4.492,3.71275 16.25507,6.82267 l 13.39187,3.54054 4.79813,-4.72598 4.79814,-4.72599 5.16214,3.90331 c 2.83917,2.14683 10.24808,10.23128 16.46423,17.96546 20.91725,26.02537 27.60014,29.84078 41.9415,23.94533 3.27133,-1.34477 6.01658,-2.34659 6.10055,-2.22626 0.084,0.12033 1.64495,3.05441 3.46884,6.52018 6.21624,11.81214 11.84597,13.82043 22.98273,8.19861 3.26863,-1.65 6.52823,-3 7.24356,-3 0.71533,0 5.00238,3.72111 9.52678,8.26914 l 8.22618,8.26913 -7.33908,8.34941 c -25.60862,29.13406 -64.75479,53.35648 -102.82159,63.6228 -20.31054,5.47759 -29.87429,6.71724 -54.33585,7.04297 -12.65,0.16845 -26.15,-0.11471 -30,-0.62924 z M 73.017701,367.10593 C 28.962481,314.06744 12.601891,242.2344 29.444251,175.79168 39.141211,137.53742 58.640041,103.19353 86.452801,75.380768 163.43561,-1.6020512 285.86618,-9.4516822 372.07858,57.067883 c 64.37035,49.666717 95.29095,130.343647 80.79989,210.820187 -4.87312,27.06298 -16.11005,55.35388 -30.93383,77.88117 l -6.19431,9.41331 -7.02787,-7.70252 c -11.06061,-12.12236 -18.31268,-14.43564 -28.72087,-9.16141 -2.75393,1.39552 -5.39518,2.53731 -5.86945,2.53731 -0.47427,0 -1.93006,-2.2797 -3.23509,-5.06599 -1.30503,-2.7863 -4.08325,-6.6113 -6.17382,-8.5 -4.72357,-4.26747 -9.26321,-4.5203 -16.94597,-0.94378 -2.94212,1.36963 -6.15608,2.49463 -7.14214,2.5 -2.78189,0.0152 -10.91012,-8.19873 -22.47736,-22.71426 -9.9175,-12.44529 -17.91396,-20.03742 -28.52257,-27.08037 l -3.79276,-2.51798 -3.70724,3.43262 c -2.03897,1.88793 -4.9226,4.49312 -6.40806,5.7893 l -2.70082,2.35669 -7.72225,-2.09913 c -4.24724,-1.15453 -7.98186,-2.47956 -8.29917,-2.94451 -4.42282,-6.4807 -12.36259,-17.2711 -12.99681,-17.66307 -0.45275,-0.27982 -2.30622,2.29457 -4.11881,5.72086 -8.72512,16.49289 -22.23724,36.40661 -27.18757,40.06817 l -2.72626,2.0165 -6.77374,-2.81393 c -20.67969,-8.59072 -27.12147,-9.37672 -40.10577,-4.89355 -7.02292,2.42484 -8.13571,2.55103 -13.22817,1.5 -7.84925,-1.62001 -10.95891,-1.43328 -14.76387,0.88651 -4.47613,2.729 -7.47278,6.30009 -11.29978,13.46592 -4.1044,7.68523 -9.73243,16.05315 -17.15057,25.5 -6.921939,8.81494 -24.839879,29 -25.742819,29 -0.34376,0 -3.89563,-3.9375 -7.89302,-8.75 z M 125.867,166.91477 c 0.79147,-0.5008 2.19985,-2.85641 3.12971,-5.23469 l 1.69068,-4.32415 h 8.76965 8.76966 l 1.37008,4 c 0.75355,2.2 2.12234,4.5625 3.04177,5.25 2.18941,1.63715 7.21548,1.60623 7.85038,-0.0483 0.27401,-0.71406 -3.30061,-11.16361 -7.9436,-23.22122 -8.8074,-22.87237 -9.79155,-24.40654 -14.84315,-23.13867 -2.02075,0.50718 -3.58571,3.79945 -11.07844,23.30626 -6.59096,17.15908 -8.41591,22.91203 -7.46053,23.51847 1.68541,1.06985 4.92501,1.01779 6.70379,-0.10771 z m 9.22822,-22.25691 c 1.08631,-2.85894 2.58846,-7.47144 3.33811,-10.25 0.74966,-2.77856 1.39262,-4.05239 1.42882,-2.83072 0.0362,1.22166 1.38438,5.83416 2.99596,10.25 l 2.93014,8.02879 h -6.33407 -6.33407 z m 39.25095,22.59108 c 1.28704,-0.49388 1.58179,-2.35729 1.58179,-10 v -9.39301 h 3.34501 c 4.07969,0 5.37392,1.38116 10.0369,10.71105 1.9822,3.96607 4.47759,7.67857 5.5453,8.25 2.81193,1.5049 7.04524,1.27431 7.69508,-0.41914 0.68297,-1.77979 -9.09655,-20.15017 -12.31474,-23.13269 l -2.31536,-2.1458 7.09639,-9.1695 c 7.05463,-9.11555 8.04166,-12.09392 4.0079,-12.09392 -4.38631,0 -7.32693,2.33792 -13.78468,10.95937 -3.72444,4.97235 -7.34323,9.04063 -8.04176,9.04063 -0.93227,0 -1.27004,-2.38417 -1.27004,-8.96482 0,-7.91038 -0.23282,-9.08942 -1.97948,-10.0242 -1.08871,-0.58266 -3.11371,-0.77471 -4.5,-0.42677 l -2.52052,0.63261 V 143.881 c 0,17.31094 0.30128,22.92983 1.25,23.31265 1.80931,0.73007 4.3504,0.75285 6.16821,0.0553 z m 53.35338,-19.14301 0.2716,-19.25 h 6.37141 c 6.62707,0 7.5854,-0.63758 7.5854,-5.0466 0,-3.20583 -3.35787,-3.9539 -17.68426,-3.93975 -17.79419,0.0176 -18.50769,0.20924 -18.11833,4.86673 l 0.30259,3.61962 6.25,0.29772 6.25,0.29771 v 18.25229 c 0,19.92563 0.27789,20.95968 5.49508,20.44736 l 3.00492,-0.29508 z m 27.64662,19.14301 c 1.37712,-0.52845 1.58179,-3.49989 1.58179,-22.96482 0,-21.25711 -0.0975,-22.40998 -1.97948,-23.41721 -1.08871,-0.58266 -3.11371,-0.77471 -4.5,-0.42677 l -2.52052,0.63261 V 143.881 c 0,17.31094 0.30128,22.92983 1.25,23.31265 1.80931,0.73007 4.3504,0.75285 6.16821,0.0553 z m 30.87798,0.0468 c 0.81428,-0.31247 5.12842,-10.51929 9.75654,-23.08298 8.92753,-24.23508 9.01513,-25.08477 2.44727,-23.73827 -1.65,0.33827 -3.11917,0.71915 -3.26483,0.84638 -0.14565,0.12724 -2.8974,7.97217 -6.115,17.43319 -4.69212,13.79669 -5.96229,16.64757 -6.41655,14.40184 -0.31152,-1.54 -2.87887,-9.38757 -5.70525,-17.43905 -4.84428,-13.7999 -5.30617,-14.67251 -8.05767,-15.22281 -3.37325,-0.67465 -5.94863,0.0728 -5.92269,1.71885 0.0394,2.49611 15.97021,44.01907 17.18392,44.78897 1.51909,0.96362 4.03303,1.08484 6.09426,0.29388 z m 54.52799,-0.31002 c 0.79637,-0.50491 1.19497,-2.19283 1,-4.23468 l -0.32418,-3.39511 -11.25,-0.28275 -11.25,-0.28275 v -5.42973 -5.42972 l 9.25,-0.28752 9.25,-0.28753 0.31037,-3.75 0.31036,-3.75 h -9.56036 -9.56037 v -5.46617 -5.46617 l 10.75,-0.28383 10.75,-0.28383 0.30259,-3.61962 c 0.38151,-4.56357 -0.53132,-4.85307 -15.30259,-4.85307 -17.25085,0 -15.5,-2.71167 -15.5,24.00599 0,17.30435 0.3013,22.92161 1.25,23.30442 2.13637,0.86204 28.17533,0.679 29.57418,-0.2079 z"
     id="path4521"
     inkscape:connector-curvature="0" />
</svg>
