<?xml version="1.0" encoding="utf-8"?>
<!-- Generator: Adobe Illustrator 16.0.4, SVG Export Plug-In . SVG Version: 6.00 Build 0)  -->
<!DOCTYPE svg PUBLIC "-//W3C//DTD SVG 1.1//EN" "http://www.w3.org/Graphics/SVG/1.1/DTD/svg11.dtd">
<svg version="1.1" id="Ebene_1" xmlns="http://www.w3.org/2000/svg" xmlns:xlink="http://www.w3.org/1999/xlink" x="0px" y="0px"
	 width="595.275px" height="841.89px" viewBox="0 0 595.275 841.89" enable-background="new 0 0 595.275 841.89"
	 xml:space="preserve">
<g>
	<g>
		<path fill="#FFFFFF" d="M204.85,136.313c0.384,0.208,0.919,0.368,1.535,0.368c0.472,0,0.919-0.096,0.919-0.544
			c0-1.039-2.638-0.384-2.638-2.415c0-1.343,1.311-1.711,2.431-1.711c0.536,0,1.063,0.08,1.439,0.208l-0.096,1.151
			c-0.384-0.176-0.815-0.256-1.239-0.256c-0.375,0-0.999,0.032-0.999,0.52c0,0.903,2.638,0.296,2.638,2.311
			c0,1.447-1.215,1.839-2.455,1.839c-0.52,0-1.167-0.08-1.663-0.24L204.85,136.313z"/>
		<path fill="#FFFFFF" d="M213.114,134.715c-0.264-0.16-0.528-0.232-0.872-0.232c-0.624,0-1.104,0.432-1.104,1.151
			c0,0.664,0.56,1.095,1.184,1.095c0.328,0,0.656-0.072,0.896-0.2l0.032,1.071c-0.36,0.12-0.792,0.184-1.175,0.184
			c-1.375,0-2.422-0.8-2.422-2.175c0-1.383,1.047-2.183,2.422-2.183c0.432,0,0.815,0.072,1.144,0.232L213.114,134.715z"/>
		<path fill="#FFFFFF" d="M214.053,131.692h1.439v2.446h0.016c0.312-0.432,0.768-0.711,1.391-0.711c1.136,0,1.591,0.8,1.591,1.663
			v2.599h-1.439v-2.015c0-0.783-0.272-1.047-0.664-1.047c-0.591,0-0.896,0.408-0.896,1.303v1.759h-1.439V131.692z"/>
		<path fill="#FFFFFF" d="M219.217,133.523h1.503l0.671,2.998h0.016l0.72-2.998h1.727l0.704,2.998h0.016l0.655-2.998h1.392
			l-1.271,4.166h-1.671l-0.704-3.014h-0.016l-0.792,3.014h-1.671L219.217,133.523z"/>
		<path fill="#FFFFFF" d="M228.603,136.026c0.08,0.576,0.52,0.799,1.223,0.799c0.392,0,0.84-0.088,1.271-0.319v1.015
			c-0.464,0.184-0.992,0.264-1.527,0.264c-1.375,0-2.422-0.808-2.422-2.183c0-1.375,0.935-2.175,2.23-2.175
			c1.543,0,2.103,1.095,2.103,2.335v0.264H228.603z M230.186,135.21c0-0.48-0.224-0.872-0.799-0.872c-0.52,0-0.768,0.392-0.8,0.872
			H230.186z"/>
		<path fill="#FFFFFF" d="M234.044,132.844h-1.439v-1.056h1.439V132.844z M232.605,133.523h1.439v4.166h-1.439V133.523z"/>
		<path fill="#FFFFFF" d="M235.07,136.538l1.903-1.959h-1.863v-1.055h3.51v1.151l-1.903,1.959h1.935v1.055h-3.582V136.538z"/>
		<path fill="#FFFFFF" d="M240.767,136.026c0.08,0.576,0.52,0.799,1.223,0.799c0.392,0,0.84-0.088,1.271-0.319v1.015
			c-0.464,0.184-0.992,0.264-1.527,0.264c-1.375,0-2.422-0.808-2.422-2.183c0-1.375,0.936-2.175,2.23-2.175
			c1.543,0,2.103,1.095,2.103,2.335v0.264H240.767z M242.35,135.21c0-0.48-0.224-0.872-0.799-0.872c-0.52,0-0.768,0.392-0.8,0.872
			H242.35z"/>
		<path fill="#FFFFFF" d="M247.576,134.675c-0.16-0.048-0.319-0.048-0.487-0.048c-0.672,0-1.048,0.488-1.048,1.303v1.759h-1.439
			v-4.166h1.311v0.768h0.016c0.248-0.528,0.608-0.864,1.231-0.864c0.168,0,0.344,0.024,0.488,0.048L247.576,134.675z"/>
		<path fill="#FFFFFF" d="M252.739,132.108h1.823l2.151,5.581h-1.631l-0.416-1.191h-2.095l-0.439,1.191h-1.511L252.739,132.108z
			 M253.65,133.259h-0.016l-0.719,2.183h1.399L253.65,133.259z"/>
		<path fill="#FFFFFF" d="M257.598,131.692h1.439v5.997h-1.439V131.692z"/>
		<path fill="#FFFFFF" d="M260.271,133.523h1.328v0.751h0.016c0.288-0.583,0.896-0.848,1.551-0.848c1.151,0,1.783,1.095,1.783,2.103
			c0,1.231-0.664,2.255-1.903,2.255c-0.504,0-1.047-0.184-1.319-0.68h-0.016v2.263h-1.439V133.523z M262.59,134.531
			c-0.528,0-0.879,0.464-0.879,1.087c0,0.607,0.4,1.063,0.879,1.063c0.544,0,0.872-0.456,0.872-1.12
			C263.461,135.01,263.15,134.531,262.59,134.531z"/>
		<path fill="#FFFFFF" d="M267.104,136.026c0.08,0.576,0.52,0.799,1.223,0.799c0.392,0,0.84-0.088,1.271-0.319v1.015
			c-0.464,0.184-0.992,0.264-1.527,0.264c-1.375,0-2.422-0.808-2.422-2.183c0-1.375,0.935-2.175,2.23-2.175
			c1.543,0,2.103,1.095,2.103,2.335v0.264H267.104z M268.688,135.21c0-0.48-0.224-0.872-0.799-0.872c-0.52,0-0.768,0.392-0.8,0.872
			H268.688z"/>
		<path fill="#FFFFFF" d="M270.939,133.523h1.312v0.768h0.016c0.288-0.6,0.864-0.864,1.52-0.864c1.135,0,1.591,0.8,1.591,1.663
			v2.599h-1.439v-2.015c0-0.783-0.272-1.047-0.664-1.047c-0.592,0-0.896,0.408-0.896,1.303v1.759h-1.439V133.523z"/>
		<path fill="#FFFFFF" d="M276.277,135.01h2.167v1.056h-2.167V135.01z"/>
		<path fill="#FFFFFF" d="M284.068,137.561c-0.424,0.104-0.896,0.224-1.655,0.224c-1.487,0-3.206-0.752-3.206-2.863
			c0-1.943,1.359-2.91,3.198-2.91c0.567,0,1.119,0.128,1.655,0.288l-0.12,1.208c-0.48-0.264-0.944-0.392-1.456-0.392
			c-1.055,0-1.743,0.768-1.743,1.807c0,1.096,0.775,1.759,1.863,1.759c0.488,0,0.983-0.128,1.391-0.288L284.068,137.561z"/>
		<path fill="#FFFFFF" d="M285.048,131.692h1.439v5.997h-1.439V131.692z"/>
		<path fill="#FFFFFF" d="M292.191,137.689h-1.311v-0.768h-0.016c-0.288,0.6-0.864,0.864-1.519,0.864
			c-1.136,0-1.591-0.8-1.591-1.663v-2.599h1.439v2.015c0,0.784,0.271,1.047,0.664,1.047c0.591,0,0.896-0.408,0.896-1.303v-1.759
			h1.439V137.689z"/>
		<path fill="#FFFFFF" d="M293.259,131.692h1.447v2.367h0.016c0.368-0.464,0.855-0.632,1.431-0.632c1.151,0,1.783,1.095,1.783,2.103
			c0,1.231-0.664,2.255-1.903,2.255c-0.664,0-1.248-0.376-1.432-0.84h-0.016v0.744h-1.327V131.692z M295.578,134.531
			c-0.527,0-0.879,0.464-0.879,1.087c0,0.607,0.4,1.063,0.879,1.063c0.544,0,0.872-0.456,0.872-1.12
			C296.449,135.01,296.137,134.531,295.578,134.531z"/>
		<path fill="#FFFFFF" d="M301.574,136.313c0.384,0.208,0.92,0.368,1.535,0.368c0.472,0,0.92-0.096,0.92-0.544
			c0-1.039-2.639-0.384-2.639-2.415c0-1.343,1.311-1.711,2.43-1.711c0.537,0,1.064,0.08,1.439,0.208l-0.096,1.151
			c-0.383-0.176-0.815-0.256-1.239-0.256c-0.376,0-0.999,0.032-0.999,0.52c0,0.903,2.639,0.296,2.639,2.311
			c0,1.447-1.216,1.839-2.455,1.839c-0.52,0-1.168-0.08-1.663-0.24L301.574,136.313z"/>
		<path fill="#FFFFFF" d="M308.311,132.108h1.824l2.15,5.581h-1.631l-0.416-1.191h-2.096l-0.439,1.191h-1.511L308.311,132.108z
			 M309.223,133.259h-0.016l-0.72,2.183h1.399L309.223,133.259z"/>
		<path fill="#FFFFFF" d="M317.729,137.561c-0.424,0.104-0.896,0.224-1.656,0.224c-1.486,0-3.205-0.752-3.205-2.863
			c0-1.943,1.358-2.91,3.197-2.91c0.568,0,1.119,0.128,1.655,0.288l-0.12,1.208c-0.479-0.264-0.943-0.392-1.455-0.392
			c-1.055,0-1.742,0.768-1.742,1.807c0,1.096,0.775,1.759,1.862,1.759c0.487,0,0.983-0.128,1.392-0.288L317.729,137.561z"/>
		<path fill="#FFFFFF" d="M256.114,143.027c-0.352-0.208-0.744-0.312-1.151-0.312c-1.287,0-2.143,0.927-2.143,2.183
			c0,1.312,0.943,2.183,2.103,2.183c0.4,0,0.936-0.104,1.215-0.271l0.048,0.775c-0.423,0.176-0.943,0.2-1.271,0.2
			c-1.767,0-2.942-1.136-2.942-2.911c0-1.719,1.247-2.862,2.95-2.862c0.432,0,0.855,0.064,1.255,0.24L256.114,143.027z"/>
		<path fill="#FFFFFF" d="M257.375,141.692h0.751v5.997h-0.751V141.692z"/>
		<path fill="#FFFFFF" d="M263.309,147.689h-0.728v-0.647h-0.016c-0.224,0.463-0.768,0.744-1.335,0.744
			c-1.056,0-1.527-0.656-1.527-1.751v-2.422h0.751v2.111c0,0.951,0.208,1.415,0.864,1.455c0.855,0,1.239-0.688,1.239-1.679v-1.887
			h0.751V147.689z"/>
		<path fill="#FFFFFF" d="M264.793,141.692h0.751v2.479h0.016c0.232-0.376,0.64-0.656,1.351-0.656c1.184,0,1.759,0.968,1.759,2.063
			c0,1.119-0.52,2.207-1.751,2.207c-0.728,0-1.191-0.368-1.391-0.672h-0.016v0.576h-0.72V141.692z M266.752,144.123
			c-0.815,0-1.208,0.775-1.208,1.535c0,0.68,0.352,1.519,1.199,1.519c0.808,0,1.144-0.903,1.127-1.543
			C267.887,144.898,267.567,144.123,266.752,144.123z"/>
		<path fill="#FFFFFF" d="M274.146,142.108h0.84l2.358,5.581h-0.872l-0.567-1.407h-2.734l-0.568,1.407h-0.839L274.146,142.108z
			 M274.539,142.859l-1.111,2.767h2.223L274.539,142.859z"/>
		<path fill="#FFFFFF" d="M278.381,141.692h0.752v5.997h-0.752V141.692z"/>
		<path fill="#FFFFFF" d="M280.711,143.611h0.72v0.576h0.016c0.2-0.304,0.664-0.672,1.383-0.672c1.184,0,1.759,0.968,1.759,2.063
			c0,1.119-0.52,2.207-1.751,2.207c-0.72,0-1.127-0.28-1.359-0.656h-0.016v2.239h-0.751V143.611z M282.67,144.123
			c-0.815,0-1.208,0.775-1.208,1.535c0,0.68,0.352,1.519,1.199,1.519c0.808,0,1.144-0.903,1.127-1.543
			C283.805,144.898,283.485,144.123,282.67,144.123z"/>
		<path fill="#FFFFFF" d="M286.696,142.7h-0.848v-0.848h0.848V142.7z M285.897,143.611h0.751v4.078h-0.751V143.611z"/>
		<path fill="#FFFFFF" d="M288.226,143.611h0.728v0.647h0.016c0.224-0.464,0.768-0.744,1.335-0.744c1.056,0,1.527,0.656,1.527,1.751
			v2.423h-0.751v-2.111c0-0.952-0.208-1.415-0.864-1.455c-0.855,0-1.239,0.688-1.239,1.679v1.887h-0.751V143.611z"/>
		<path fill="#FFFFFF" d="M298.347,142.948c-0.408-0.16-0.631-0.232-1.047-0.232c-0.448,0-0.976,0.16-0.976,0.744
			c0,1.071,2.399,0.823,2.399,2.663c0,1.191-0.919,1.663-2.039,1.663c-0.392,0-0.775-0.112-1.143-0.232l0.08-0.744
			c0.272,0.112,0.752,0.271,1.16,0.271c0.456,0,1.095-0.256,1.095-0.911c0-1.248-2.398-0.904-2.398-2.639
			c0-0.991,0.783-1.519,1.791-1.519c0.368,0,0.807,0.064,1.191,0.2L298.347,142.948z"/>
		<path fill="#FFFFFF" d="M303.548,147.689h-0.728v-0.647h-0.016c-0.225,0.463-0.768,0.744-1.336,0.744
			c-1.055,0-1.527-0.656-1.527-1.751v-2.422h0.752v2.111c0,0.951,0.208,1.415,0.863,1.455c0.855,0,1.24-0.688,1.24-1.679v-1.887
			h0.751V147.689z"/>
		<path fill="#FFFFFF" d="M305.928,142.7h-0.848v-0.848h0.848V142.7z M305.127,143.611h0.752v4.078h-0.752V143.611z"/>
		<path fill="#FFFFFF" d="M307.152,146.89c0.297,0.191,0.721,0.288,0.936,0.288c0.344,0,0.768-0.144,0.768-0.583
			c0-0.744-1.767-0.68-1.767-1.823c0-0.848,0.632-1.255,1.438-1.255c0.353,0,0.641,0.072,0.936,0.16l-0.063,0.656
			c-0.168-0.104-0.616-0.208-0.792-0.208c-0.383,0-0.719,0.16-0.719,0.496c0,0.832,1.767,0.592,1.767,1.895
			c0,0.872-0.696,1.271-1.423,1.271c-0.385,0-0.775-0.04-1.119-0.224L307.152,146.89z"/>
		<path fill="#FFFFFF" d="M310.466,146.89c0.296,0.191,0.72,0.288,0.936,0.288c0.344,0,0.768-0.144,0.768-0.583
			c0-0.744-1.767-0.68-1.767-1.823c0-0.848,0.631-1.255,1.438-1.255c0.353,0,0.64,0.072,0.936,0.16l-0.063,0.656
			c-0.168-0.104-0.616-0.208-0.792-0.208c-0.384,0-0.72,0.16-0.72,0.496c0,0.832,1.768,0.592,1.768,1.895
			c0,0.872-0.695,1.271-1.424,1.271c-0.384,0-0.775-0.04-1.119-0.224L310.466,146.89z"/>
		<path fill="#FFFFFF" d="M317.209,147.521c-0.287,0.104-0.615,0.264-1.287,0.264c-1.447,0-2.111-0.88-2.111-2.207
			c0-1.208,0.76-2.063,1.912-2.063c1.359,0,1.799,0.992,1.799,2.303h-2.91c0,0.808,0.631,1.359,1.343,1.359
			c0.495,0,1.071-0.256,1.255-0.408V147.521z M316.722,145.258c0-0.624-0.368-1.135-1.016-1.135c-0.735,0-1.04,0.607-1.095,1.135
			H316.722z"/>
		<path fill="#FFFFFF" d="M241.733,153.027c-0.352-0.208-0.744-0.312-1.151-0.312c-1.287,0-2.143,0.927-2.143,2.183
			c0,1.312,0.943,2.183,2.103,2.183c0.4,0,0.936-0.104,1.215-0.271l0.048,0.775c-0.424,0.176-0.944,0.2-1.271,0.2
			c-1.767,0-2.942-1.136-2.942-2.911c0-1.719,1.247-2.862,2.95-2.862c0.432,0,0.855,0.064,1.255,0.24L241.733,153.027z"/>
		<path fill="#FFFFFF" d="M242.993,151.692h0.752v5.997h-0.752V151.692z"/>
		<path fill="#FFFFFF" d="M248.928,157.689H248.2v-0.647h-0.016c-0.224,0.463-0.768,0.744-1.335,0.744
			c-1.056,0-1.527-0.656-1.527-1.751v-2.422h0.751v2.111c0,0.951,0.208,1.415,0.864,1.455c0.855,0,1.239-0.688,1.239-1.679v-1.887
			h0.751V157.689z"/>
		<path fill="#FFFFFF" d="M250.412,151.692h0.751v2.479h0.016c0.232-0.376,0.64-0.656,1.351-0.656c1.184,0,1.759,0.968,1.759,2.063
			c0,1.119-0.52,2.207-1.751,2.207c-0.728,0-1.191-0.368-1.392-0.672h-0.016v0.576h-0.72V151.692z M252.371,154.123
			c-0.815,0-1.208,0.775-1.208,1.535c0,0.68,0.352,1.519,1.2,1.519c0.807,0,1.143-0.903,1.127-1.543
			C253.506,154.898,253.186,154.123,252.371,154.123z"/>
		<path fill="#FFFFFF" d="M259.765,152.108h0.84l2.358,5.581h-0.872l-0.567-1.407h-2.735l-0.567,1.407h-0.84L259.765,152.108z
			 M260.157,152.859l-1.112,2.767h2.223L260.157,152.859z"/>
		<path fill="#FFFFFF" d="M264,151.692h0.751v5.997H264V151.692z"/>
		<path fill="#FFFFFF" d="M266.33,153.611h0.72v0.576h0.016c0.2-0.304,0.664-0.672,1.383-0.672c1.184,0,1.759,0.968,1.759,2.063
			c0,1.119-0.52,2.207-1.751,2.207c-0.72,0-1.127-0.28-1.359-0.656h-0.016v2.239h-0.751V153.611z M268.289,154.123
			c-0.815,0-1.208,0.775-1.208,1.535c0,0.68,0.352,1.519,1.2,1.519c0.807,0,1.143-0.903,1.127-1.543
			C269.424,154.898,269.104,154.123,268.289,154.123z"/>
		<path fill="#FFFFFF" d="M272.315,152.7h-0.848v-0.848h0.848V152.7z M271.515,153.611h0.752v4.078h-0.752V153.611z"/>
		<path fill="#FFFFFF" d="M273.844,153.611h0.728v0.647h0.016c0.224-0.464,0.768-0.744,1.335-0.744c1.055,0,1.527,0.656,1.527,1.751
			v2.423h-0.751v-2.111c0-0.952-0.208-1.415-0.864-1.455c-0.855,0-1.239,0.688-1.239,1.679v1.887h-0.751V153.611z"/>
		<path fill="#FFFFFF" d="M280.741,153.515c1.239,0,2.071,0.896,2.071,2.135c0,1.167-0.848,2.135-2.071,2.135
			c-1.231,0-2.079-0.968-2.079-2.135C278.662,154.411,279.494,153.515,280.741,153.515z M280.741,157.177
			c0.879,0,1.271-0.799,1.271-1.527c0-0.775-0.472-1.527-1.271-1.527c-0.808,0-1.279,0.751-1.279,1.527
			C279.462,156.378,279.854,157.177,280.741,157.177z"/>
		<path fill="#FFFFFF" d="M289.055,152.948c-0.408-0.16-0.631-0.232-1.047-0.232c-0.448,0-0.976,0.16-0.976,0.744
			c0,1.071,2.399,0.823,2.399,2.663c0,1.191-0.919,1.663-2.039,1.663c-0.392,0-0.775-0.112-1.143-0.232l0.08-0.744
			c0.272,0.112,0.752,0.271,1.16,0.271c0.456,0,1.095-0.256,1.095-0.911c0-1.248-2.398-0.904-2.398-2.639
			c0-0.991,0.783-1.519,1.791-1.519c0.368,0,0.808,0.064,1.191,0.2L289.055,152.948z"/>
		<path fill="#FFFFFF" d="M292.458,157.689h-0.896l-1.463-4.078h0.824l1.104,3.326h0.016l1.127-3.326h0.751L292.458,157.689z"/>
		<path fill="#FFFFFF" d="M295.747,152.7h-0.848v-0.848h0.848V152.7z M294.948,153.611h0.751v4.078h-0.751V153.611z"/>
		<path fill="#FFFFFF" d="M296.981,157.033l2.351-2.814h-2.239v-0.607h3.11v0.655l-2.351,2.814h2.438v0.608h-3.31V157.033z"/>
		<path fill="#FFFFFF" d="M301.182,157.033l2.352-2.814h-2.239v-0.607h3.11v0.655l-2.351,2.814h2.438v0.608h-3.311V157.033z"/>
		<path fill="#FFFFFF" d="M308.807,157.521c-0.289,0.104-0.616,0.264-1.288,0.264c-1.447,0-2.11-0.88-2.11-2.207
			c0-1.208,0.76-2.063,1.91-2.063c1.359,0,1.799,0.992,1.799,2.303h-2.91c0,0.808,0.632,1.359,1.344,1.359
			c0.496,0,1.071-0.256,1.256-0.408V157.521z M308.318,155.258c0-0.624-0.367-1.135-1.016-1.135c-0.735,0-1.039,0.607-1.096,1.135
			H308.318z"/>
		<path fill="#FFFFFF" d="M310.33,153.611h0.703v0.631h0.016c0.2-0.423,0.632-0.728,1.064-0.728c0.223,0,0.335,0.024,0.495,0.056
			v0.671c-0.136-0.056-0.288-0.072-0.416-0.072c-0.671,0-1.111,0.64-1.111,1.663v1.855h-0.751V153.611z"/>
		<path fill="#FFFFFF" d="M315.449,153.515c1.24,0,2.071,0.896,2.071,2.135c0,1.167-0.848,2.135-2.071,2.135
			c-1.23,0-2.078-0.968-2.078-2.135C313.371,154.411,314.202,153.515,315.449,153.515z M315.449,157.177
			c0.88,0,1.271-0.799,1.271-1.527c0-0.775-0.472-1.527-1.271-1.527c-0.807,0-1.279,0.751-1.279,1.527
			C314.17,156.378,314.562,157.177,315.449,157.177z"/>
		<path fill="#FFFFFF" d="M251.913,163.027c-0.352-0.208-0.744-0.312-1.151-0.312c-1.287,0-2.143,0.927-2.143,2.183
			c0,1.312,0.943,2.183,2.103,2.183c0.4,0,0.936-0.104,1.215-0.271l0.048,0.775c-0.424,0.176-0.944,0.2-1.271,0.2
			c-1.767,0-2.942-1.136-2.942-2.911c0-1.719,1.247-2.862,2.95-2.862c0.432,0,0.855,0.064,1.255,0.24L251.913,163.027z"/>
		<path fill="#FFFFFF" d="M253.172,161.692h0.752v5.997h-0.752V161.692z"/>
		<path fill="#FFFFFF" d="M259.107,167.689h-0.728v-0.647h-0.016c-0.224,0.463-0.768,0.744-1.335,0.744
			c-1.056,0-1.527-0.656-1.527-1.751v-2.422h0.751v2.111c0,0.951,0.208,1.415,0.864,1.455c0.855,0,1.239-0.688,1.239-1.679v-1.887
			h0.751V167.689z"/>
		<path fill="#FFFFFF" d="M260.591,161.692h0.751v2.479h0.016c0.232-0.376,0.64-0.656,1.351-0.656c1.184,0,1.759,0.968,1.759,2.063
			c0,1.119-0.52,2.207-1.751,2.207c-0.728,0-1.191-0.368-1.392-0.672h-0.016v0.576h-0.72V161.692z M262.55,164.123
			c-0.815,0-1.208,0.775-1.208,1.535c0,0.68,0.352,1.519,1.2,1.519c0.807,0,1.143-0.903,1.127-1.543
			C263.686,164.898,263.366,164.123,262.55,164.123z"/>
		<path fill="#FFFFFF" d="M269.945,162.108h0.84l2.358,5.581h-0.872l-0.567-1.407h-2.735l-0.567,1.407h-0.84L269.945,162.108z
			 M270.337,162.859l-1.112,2.767h2.223L270.337,162.859z"/>
		<path fill="#FFFFFF" d="M274.18,161.692h0.751v5.997h-0.751V161.692z"/>
		<path fill="#FFFFFF" d="M276.509,163.611h0.72v0.576h0.016c0.2-0.304,0.664-0.672,1.383-0.672c1.184,0,1.759,0.968,1.759,2.063
			c0,1.119-0.52,2.207-1.751,2.207c-0.72,0-1.127-0.28-1.359-0.656h-0.016v2.239h-0.751V163.611z M278.468,164.123
			c-0.815,0-1.208,0.775-1.208,1.535c0,0.68,0.352,1.519,1.2,1.519c0.807,0,1.143-0.903,1.127-1.543
			C279.604,164.898,279.284,164.123,278.468,164.123z"/>
		<path fill="#FFFFFF" d="M282.495,162.7h-0.848v-0.848h0.848V162.7z M281.695,163.611h0.752v4.078h-0.752V163.611z"/>
		<path fill="#FFFFFF" d="M284.024,163.611h0.728v0.647h0.016c0.224-0.464,0.768-0.744,1.335-0.744c1.055,0,1.527,0.656,1.527,1.751
			v2.423h-0.751v-2.111c0-0.952-0.208-1.415-0.864-1.455c-0.855,0-1.239,0.688-1.239,1.679v1.887h-0.751V163.611z"/>
		<path fill="#FFFFFF" d="M294.145,162.948c-0.408-0.16-0.631-0.232-1.047-0.232c-0.448,0-0.976,0.16-0.976,0.744
			c0,1.071,2.399,0.823,2.399,2.663c0,1.191-0.919,1.663-2.039,1.663c-0.392,0-0.775-0.112-1.143-0.232l0.08-0.744
			c0.272,0.112,0.752,0.271,1.16,0.271c0.456,0,1.095-0.256,1.095-0.911c0-1.248-2.398-0.904-2.398-2.639
			c0-0.991,0.783-1.519,1.791-1.519c0.368,0,0.808,0.064,1.191,0.2L294.145,162.948z"/>
		<path fill="#FFFFFF" d="M297.547,167.689h-0.896l-1.463-4.078h0.824l1.104,3.326h0.016l1.127-3.326h0.751L297.547,167.689z"/>
		<path fill="#FFFFFF" d="M300.837,162.7h-0.848v-0.848h0.848V162.7z M300.037,163.611h0.752v4.078h-0.752V163.611z"/>
		<path fill="#FFFFFF" d="M302.07,167.033l2.352-2.814h-2.239v-0.607h3.11v0.655l-2.351,2.814h2.438v0.608h-3.311V167.033z"/>
		<path fill="#FFFFFF" d="M306.271,167.033l2.352-2.814h-2.239v-0.607h3.11v0.655l-2.351,2.814h2.438v0.608h-3.311V167.033z"/>
		<path fill="#FFFFFF" d="M313.896,167.521c-0.289,0.104-0.616,0.264-1.288,0.264c-1.447,0-2.11-0.88-2.11-2.207
			c0-1.208,0.76-2.063,1.91-2.063c1.359,0,1.799,0.992,1.799,2.303h-2.91c0,0.808,0.632,1.359,1.344,1.359
			c0.496,0,1.071-0.256,1.256-0.408V167.521z M313.408,165.258c0-0.624-0.367-1.135-1.016-1.135c-0.735,0-1.039,0.607-1.096,1.135
			H313.408z"/>
		<path fill="#FFFFFF" d="M315.42,163.611h0.703v0.631h0.016c0.2-0.423,0.632-0.728,1.064-0.728c0.223,0,0.335,0.024,0.495,0.056
			v0.671c-0.136-0.056-0.288-0.072-0.416-0.072c-0.671,0-1.111,0.64-1.111,1.663v1.855h-0.751V163.611z"/>
	</g>
</g>
<g>
	<g>
		<g>
			<path fill="#D0D0D0" d="M394.781,150.836c0-1.058-0.524-2.244-1.527-3.248c-1.388-1.403-3.049-2.705-4.929-3.896
				c0.024-0.025,0.128-0.128,0.128-0.128c0.491-0.491,0.733-1.154,0.733-1.882c0-0.827-0.312-1.738-0.93-2.576
				c-1.468-1.976-3.181-3.782-5.079-5.407c0.729-1.081,2.205-3.269,2.205-3.269c0.133-0.196,0.199-0.424,0.199-0.653
				c0-0.162-0.037-0.324-0.105-0.476c0.408-0.779,1.873-3.57,1.873-3.57c0.091-0.173,0.134-0.359,0.134-0.542
				c0-0.377-0.183-0.745-0.514-0.969c-0.492-0.334-1.156-0.244-1.544,0.208c0,0-2.056,2.403-2.629,3.074
				c-0.396-0.008-0.771,0.184-0.994,0.515c0,0-1.342,1.99-2.09,3.099c-3.217-2.108-6.732-3.66-10.494-4.574
				c-0.938-0.714-1.957-1.275-3.03-1.706c-0.118-0.393-0.244-0.773-0.377-1.142c0.145-0.219,0.313-0.421,0.556-0.666
				c0.479-0.481,1.133-1.138,1.586-2.314c0.276-0.72,0.424-1.486,0.424-2.214c0-1.355-0.502-2.512-1.375-3.173l-0.225-0.17
				c-0.271-0.205-0.619-0.282-0.953-0.21c-0.333,0.073-0.619,0.288-0.779,0.587l-0.134,0.248c-0.806,1.493-1.692,2.55-2.701,3.247
				c-0.13-0.056-0.296-0.138-0.401-0.191c0,0-0.16-0.074-0.354-0.164c-0.058-0.638-0.096-1.272-0.096-1.875
				c0-1.686,0.217-3.146,0.615-3.866c0.229-0.415,0.434-0.52,0.473-0.524c0.033,0.006,0.221,0.112,0.414,0.504
				c0.013,0.026,0.03,0.05,0.045,0.075c0.252,0.427,0.714,0.691,1.205,0.691c0.773,0,1.403-0.629,1.403-1.402
				c0-0.126-0.018-0.272-0.058-0.393l-0.025-0.074c-0.141-0.4-0.676-1.689-1.926-2.237c-0.551-0.241-1.45-0.424-2.611,0.075
				c-0.377,0.162-0.726,0.405-1.049,0.717c-0.613-0.542-1.246-0.844-1.898-0.838c-0.75,0.006-1.418,0.392-1.875,1.085
				c-0.283,0.427-0.572,1.126-0.572,2.587c0,0.555,0.052,1.242,0.151,2.044c-0.335-0.018-0.664,0.108-0.899,0.352
				c-0.586,0.606-0.904,1.465-0.904,2.405c0,0.153,0.008,0.307,0.025,0.463c0.088,0.818,0.42,1.57,0.905,2.215
				c-0.411,0.362-0.759,0.87-0.972,1.588c-0.658,0.391-3.985,2.365-3.985,2.365c-0.757,0.441-1.239,1.267-1.351,2.317l-0.021,0.441
				c0,0.202,0.021,0.486,0.082,0.79c-1.912,0.798-3.748,1.771-5.486,2.909c-0.938-1.453-1.701-3.012-2.229-4.666
				c-0.134-0.419-0.491-0.728-0.926-0.798c-0.971-0.157-1.949,0.058-2.762,0.605c-0.811,0.546-1.376,1.375-1.594,2.332
				c-0.02,0.086-0.029,0.174-0.029,0.26c0,0.343,0.15,0.674,0.422,0.899c1.392,1.156,2.604,2.501,3.626,3.987
				c-1.88,1.613-3.585,3.417-5.056,5.396c-0.62,0.841-0.934,1.754-0.934,2.581c0,0.729,0.242,1.393,0.732,1.882
				c0,0,0.055,0.055,0.129,0.128c-1.881,1.192-3.544,2.497-4.934,3.901c-0.999,1-1.523,2.183-1.523,3.241
				c0,0.721,0.244,1.381,0.745,1.885c0,0,3.43,3.433,4.368,4.373c-0.977,1.848-1.513,3.637-1.537,5.323l0,0
				c0,0.812,0.645,1.458,1.437,1.458c0.585,0,1.106-0.355,1.328-0.904c-0.009,0.021-0.018,0.041-0.027,0.061
				c0.235-0.498,0.432-0.898,1.103-1.455c-0.051,0.562-0.08,1.08-0.08,1.543c0,1.912,0.408,3.405,1.344,4.966
				c0.233,0.501,0.729,0.813,1.291,0.813c0.795,0,1.441-0.643,1.441-1.432c0.033-2.669,1.797-5.375,3.447-7.329
				c0.91,4.929,2.295,9.212,4.136,12.755c0.661,1.271,1.403,2.44,2.187,3.535c-0.32,0.475-0.666,0.986-0.666,0.986
				c-0.094,0.141-0.145,0.299-0.171,0.461c-0.122,0.081-0.216,0.093-0.264,0.093c-0.579,0.003-1.769-0.765-3.365-2.935
				c-1.744-2.366-2.011-6.006-2.014-6.042c-0.041-0.593-0.519-1.061-1.11-1.089c-0.594-0.026-1.113,0.392-1.209,0.979
				c-0.633,3.85,1.155,10.01,5.242,13.654c3.812,3.4,7.6,4.428,10.104,4.691c0.351,0.037,0.698-0.086,0.948-0.336
				c0.221-0.219,0.344-0.518,0.344-0.826c0-0.04-0.003-0.08-0.008-0.119l-0.092-0.903c-0.051-0.498-0.416-0.908-0.904-1.021
				c-0.024-0.006-2.486-0.578-3.955-1.789c-0.557-0.458-0.851-0.701-0.851-1.057c0-0.236,0.132-0.525,0.397-0.953
				c0.191-0.088,0.363-0.213,0.484-0.394c2.572,2.448,5.584,4.115,8.973,4.957c-0.002,0,0.057,0.015,0.057,0.015
				c0.186,0.047,0.381,0.047,0.566,0l0.059-0.015c3.174-0.788,6.012-2.327,8.471-4.527c0.09,0.007,0.186,0.042,0.274,0.042
				c0,0,0.259-0.035,0.493-0.064c0.486,0.719,2.391,3.527,2.391,3.527c0.225,0.328,0.598,0.52,0.992,0.512
				c0.574,0.67,2.63,3.072,2.63,3.072c0.388,0.453,1.052,0.541,1.544,0.207c0.33-0.224,0.514-0.59,0.514-0.967
				c0-0.184-0.043-0.369-0.135-0.541c0,0-1.464-2.791-1.873-3.572c0.068-0.152,0.106-0.312,0.106-0.475
				c0-0.23-0.067-0.459-0.202-0.657c0,0-0.967-1.425-1.597-2.354c1.145-1.262,2.761-4.434,3.292-13.299
				c0.508-1.734,0.942-3.594,1.305-5.552c1.656,1.962,3.428,4.682,3.449,7.373c0,0.062,0.005,0.122,0.016,0.185
				c0.117,0.698,0.715,1.207,1.419,1.207c0.513,0,0.991-0.276,1.247-0.721c0.973-1.578,1.395-3.1,1.395-5.062
				c0-0.463-0.03-0.98-0.082-1.543c0.671,0.556,0.867,0.954,1.102,1.452c0.225,0.496,0.74,0.828,1.305,0.828
				c0.794,0,1.44-0.646,1.44-1.44c-0.036-1.705-0.573-3.488-1.544-5.322c0.939-0.94,4.369-4.373,4.369-4.373
				C394.539,152.217,394.781,151.557,394.781,150.836z"/>
		</g>
		<g>
			<path fill="#FFFFFF" d="M393.816,149.873c0-1.058-0.523-2.245-1.527-3.248c-1.387-1.403-3.049-2.705-4.929-3.896
				c0.024-0.025,0.128-0.128,0.128-0.128c0.492-0.491,0.734-1.154,0.734-1.883c0-0.827-0.312-1.737-0.93-2.576
				c-1.469-1.976-3.182-3.782-5.08-5.407c0.729-1.081,2.205-3.269,2.205-3.269c0.133-0.196,0.2-0.424,0.2-0.653
				c0-0.162-0.038-0.324-0.106-0.476c0.409-0.78,1.873-3.57,1.873-3.57c0.091-0.173,0.135-0.359,0.135-0.542
				c0-0.377-0.184-0.745-0.515-0.969c-0.492-0.334-1.156-0.244-1.543,0.208c0,0-2.056,2.403-2.63,3.074
				c-0.396-0.008-0.77,0.184-0.994,0.515c0,0-1.342,1.99-2.09,3.099c-3.217-2.108-6.731-3.66-10.494-4.574
				c-0.938-0.714-1.957-1.275-3.029-1.706c-0.119-0.394-0.244-0.774-0.377-1.143c0.145-0.219,0.313-0.421,0.556-0.666
				c0.479-0.481,1.132-1.138,1.585-2.314c0.277-0.72,0.424-1.486,0.424-2.214c0-1.355-0.502-2.512-1.375-3.173l-0.224-0.17
				c-0.272-0.205-0.62-0.282-0.954-0.21c-0.332,0.073-0.618,0.288-0.779,0.587l-0.134,0.248c-0.806,1.493-1.692,2.55-2.7,3.247
				c-0.131-0.056-0.297-0.138-0.401-0.191c0,0-0.161-0.074-0.354-0.164c-0.058-0.638-0.096-1.272-0.096-1.875
				c0-1.686,0.218-3.146,0.615-3.865c0.229-0.415,0.434-0.521,0.473-0.525c0.033,0.006,0.221,0.112,0.414,0.504
				c0.014,0.026,0.03,0.05,0.045,0.075c0.253,0.427,0.715,0.691,1.205,0.691c0.774,0,1.403-0.629,1.403-1.402
				c0-0.126-0.017-0.272-0.058-0.393l-0.025-0.074c-0.141-0.4-0.676-1.689-1.926-2.237c-0.551-0.241-1.45-0.424-2.61,0.075
				c-0.377,0.162-0.727,0.405-1.05,0.717c-0.613-0.542-1.246-0.843-1.898-0.838c-0.75,0.006-1.417,0.392-1.875,1.085
				c-0.283,0.427-0.571,1.126-0.571,2.587c0,0.554,0.052,1.242,0.151,2.043c-0.336-0.018-0.664,0.108-0.9,0.352
				c-0.586,0.606-0.904,1.465-0.904,2.405c0,0.153,0.009,0.307,0.025,0.463c0.089,0.818,0.42,1.57,0.906,2.215
				c-0.412,0.362-0.76,0.87-0.972,1.588c-0.659,0.391-3.986,2.365-3.986,2.365c-0.757,0.441-1.238,1.267-1.35,2.317
				c0,0.001-0.022,0.441-0.022,0.441c0,0.202,0.022,0.486,0.082,0.79c-1.912,0.799-3.748,1.771-5.486,2.909
				c-0.937-1.453-1.7-3.012-2.229-4.666c-0.133-0.419-0.491-0.728-0.926-0.798c-0.97-0.157-1.949,0.058-2.762,0.605
				c-0.81,0.546-1.375,1.375-1.594,2.332c-0.02,0.086-0.029,0.174-0.029,0.26c0,0.343,0.15,0.674,0.422,0.899
				c1.392,1.156,2.604,2.501,3.627,3.987c-1.881,1.614-3.586,3.417-5.057,5.396c-0.62,0.842-0.934,1.755-0.934,2.582
				c0,0.729,0.243,1.392,0.732,1.882c0,0,0.055,0.054,0.129,0.128c-1.88,1.192-3.543,2.496-4.934,3.9
				c-0.999,1-1.523,2.184-1.523,3.242c0,0.721,0.244,1.381,0.746,1.885c0,0,3.43,3.433,4.368,4.373
				c-0.978,1.848-1.513,3.637-1.538,5.323l0,0c0,0.812,0.645,1.458,1.437,1.458c0.585,0,1.106-0.355,1.328-0.904
				c-0.009,0.021-0.017,0.041-0.027,0.061c0.235-0.498,0.432-0.898,1.103-1.455c-0.05,0.562-0.08,1.08-0.08,1.543
				c0,1.912,0.408,3.405,1.344,4.966c0.234,0.501,0.729,0.813,1.292,0.813c0.794,0,1.44-0.643,1.44-1.432
				c0.033-2.669,1.798-5.375,3.447-7.329c0.91,4.929,2.296,9.212,4.137,12.755c0.66,1.271,1.402,2.44,2.186,3.535
				c-0.32,0.474-0.666,0.986-0.666,0.986c-0.094,0.141-0.145,0.299-0.17,0.461c-0.123,0.081-0.217,0.093-0.265,0.093
				c-0.579,0.003-1.769-0.765-3.364-2.935c-1.744-2.366-2.012-6.006-2.015-6.042c-0.04-0.593-0.518-1.061-1.11-1.089
				c-0.593-0.027-1.112,0.392-1.209,0.979c-0.633,3.85,1.156,10.01,5.243,13.654c3.812,3.398,7.599,4.428,10.104,4.691
				c0.351,0.037,0.699-0.086,0.948-0.336c0.221-0.219,0.344-0.518,0.344-0.826c0-0.04-0.003-0.08-0.007-0.119l-0.093-0.903
				c-0.051-0.498-0.416-0.909-0.903-1.021c-0.024-0.006-2.487-0.578-3.956-1.789c-0.557-0.458-0.85-0.701-0.85-1.057
				c0-0.236,0.131-0.525,0.396-0.953c0.191-0.088,0.363-0.214,0.484-0.394c2.572,2.448,5.585,4.115,8.973,4.957
				c-0.001,0,0.057,0.015,0.057,0.015c0.187,0.046,0.381,0.046,0.567,0l0.058-0.015c3.174-0.788,6.012-2.327,8.471-4.528
				c0.09,0.008,0.186,0.041,0.274,0.041c0,0,0.259-0.033,0.493-0.062c0.487,0.717,2.392,3.526,2.392,3.526
				c0.224,0.329,0.597,0.521,0.991,0.513c0.574,0.67,2.631,3.072,2.631,3.072c0.387,0.453,1.051,0.541,1.543,0.207
				c0.331-0.224,0.514-0.59,0.514-0.967c0-0.184-0.043-0.37-0.135-0.543c0,0-1.463-2.791-1.873-3.57
				c0.068-0.152,0.107-0.312,0.107-0.475c0-0.23-0.068-0.459-0.203-0.657c0,0-0.967-1.425-1.596-2.354
				c1.145-1.262,2.76-4.434,3.291-13.299c0.508-1.734,0.942-3.596,1.305-5.552c1.656,1.962,3.428,4.682,3.449,7.373
				c0,0.062,0.006,0.122,0.016,0.185c0.117,0.698,0.715,1.207,1.419,1.207c0.513,0,0.991-0.276,1.247-0.721
				c0.973-1.578,1.395-3.1,1.395-5.062c0-0.463-0.029-0.98-0.082-1.543c0.672,0.556,0.867,0.954,1.102,1.451
				c0.226,0.497,0.74,0.829,1.305,0.829c0.795,0,1.441-0.646,1.441-1.44c-0.037-1.705-0.574-3.488-1.545-5.322
				c0.939-0.94,4.369-4.373,4.369-4.373C393.574,151.253,393.816,150.594,393.816,149.873z"/>
		</g>
		<path fill="#E30613" d="M377.267,146.415c-0.662-0.3-1.329-0.581-2.002-0.845c0.417,2.99,1.036,6.808,1.285,9.86
			C376.932,152.626,377.174,149.621,377.267,146.415z"/>
		<path fill="#E30613" d="M370.839,144.125c-0.612-0.161-1.23-0.304-1.85-0.437c-2.12,2.333-5.179,3.797-8.578,3.797
			c-3.401,0-6.462-1.466-8.581-3.8c-2.315,0.498-4.577,1.205-6.785,2.104c0.017,0.038,0.037,0.074,0.05,0.114l6.19-0.013
			l-6.131,0.785c-0.014,0.084-0.035,0.165-0.06,0.243l10.341,7.241l-10.76-6.563c-0.061,0.058-0.125,0.112-0.193,0.16l2.256,7.449
			l-2.99-7.176c-0.043,0.006-0.088,0.009-0.131,0.014c0.84,18.479,6.751,30.068,16.794,32.811c4.78-1.306,8.621-4.619,11.429-9.721
			c0.836-3.301,1.084-7.26,1.084-11.682C372.924,152.324,372.128,146.614,370.839,144.125z M370.99,164.543
			c-2.125,0.305-4.512,0.516-7.057,0.619v7.059c-1.145,0.046-2.32,0.072-3.522,0.072c-1.207,0-2.386-0.026-3.535-0.072v-7.06
			c-2.546-0.104-4.933-0.315-7.058-0.619v-7.058c2.125,0.305,4.512,0.515,7.058,0.619v-7.055c1.149,0.046,2.328,0.071,3.535,0.071
			c1.202,0,2.378-0.025,3.522-0.071v7.055c2.545-0.103,4.932-0.314,7.057-0.617V164.543z"/>
		<g>
			<path d="M381.074,137.208c-1.206,1.081,0.587,2.299-0.031,2.852c-0.266,0.237-0.561,0.023-0.811-0.257
				c-0.328-0.365-0.519-0.769-0.598-1.107l-0.801,0.579c0.17,0.379,0.467,0.807,0.742,1.115c0.659,0.737,1.539,1.25,2.398,0.48
				c1.196-1.071-0.567-2.315-0.031-2.796c0.289-0.259,0.641,0.095,0.84,0.317c0.227,0.252,0.408,0.551,0.508,0.872l0.734-0.555
				c-0.124-0.292-0.357-0.647-0.642-0.966C382.789,137.076,381.872,136.494,381.074,137.208z"/>
			<path d="M391.463,147.451c-1.635-1.652-3.646-3.165-5.977-4.501l1.176-1.175c0.629-0.629,0.501-1.838-0.311-2.94
				c-1.648-2.219-3.57-4.188-5.689-5.89l2.787-4.131l-0.239-0.51l2.14-4.079l-3.004,3.51l-0.539-0.029l-2.725,4.042
				c-3.404-2.405-7.252-4.136-11.316-5.095c-1.037-0.826-2.211-1.486-3.49-1.929c-0.195-0.714-0.426-1.427-0.699-2.124
				c0.257-0.605,0.616-0.976,0.998-1.36c0.449-0.451,0.959-0.962,1.322-1.909c0.234-0.606,0.347-1.223,0.347-1.795
				c0-0.957-0.315-1.791-0.911-2.241l-0.224-0.169l-0.134,0.248c-0.938,1.74-1.995,2.977-3.232,3.78
				c-0.408,0.266-0.754,0.11-1.432-0.241c-0.276-0.141-0.578-0.295-0.924-0.426c-0.299-2.472-0.227-5.586,0.6-7.082
				c0.856-1.548,2.221-1.467,2.959,0.026l0.002-0.001c0.042,0.069,0.113,0.117,0.199,0.117c0.131,0,0.234-0.105,0.234-0.233
				c0-0.014-0.006-0.026-0.008-0.039l0.005-0.001c0,0-0.005-0.015-0.013-0.039c-0.002-0.006-0.004-0.012-0.006-0.018
				c-0.123-0.349-0.923-2.337-2.967-1.458c-0.559,0.241-1.044,0.764-1.439,1.479c-1.16-1.695-2.252-1.879-2.871-0.943
				c-0.621,0.94-0.468,3.559,0.426,7.478c-1.055-0.759-1.603-1.774-1.881-2.329c-0.982,1.02-0.732,3.268,0.949,4.385
				c-0.252,0.218-0.42,0.347-0.424,0.35c-0.716,0.413-1.17,0.883-1.316,1.895c-0.17,0.101-4.383,2.601-4.383,2.601
				c-0.435,0.253-0.713,0.763-0.784,1.435c-0.01,0.102-0.016,0.209-0.016,0.319c0,0.471,0.108,0.964,0.335,1.24
				c0.007,0.042,0.03,0.173,0.03,0.173c0.001,0.012,0.004,0.024,0.006,0.036c-2.581,0.977-5.032,2.282-7.289,3.878l-0.428-0.634
				c-1.133-1.68-1.981-3.467-2.569-5.305c-0.646-0.104-1.334,0.025-1.92,0.421c-0.586,0.395-0.963,0.983-1.108,1.622
				c1.483,1.232,2.823,2.689,3.956,4.369l0.484,0.717c-2.118,1.7-4.032,3.674-5.68,5.891c-0.811,1.103-0.939,2.312-0.312,2.941
				l1.175,1.175c-2.328,1.336-4.341,2.849-5.977,4.502c-1.193,1.194-1.537,2.722-0.781,3.477l4.979,4.983
				c-1.17,1.956-1.781,3.824-1.805,5.557c0,0.15,0.117,0.272,0.267,0.272c0.114,0,0.204-0.073,0.244-0.173
				c0.536-1.135,1.028-1.831,3.651-3.338c-0.26,1.574-0.403,2.852-0.403,3.924c0,1.821,0.392,3.104,1.231,4.471
				c0.043,0.094,0.126,0.14,0.235,0.14c0.15,0,0.271-0.112,0.271-0.263c0.05-3.959,3.332-7.828,5.295-9.791
				c0,0,0.033-0.038,0.079-0.093c0.859,5.82,2.335,10.767,4.415,14.771c0.776,1.494,1.633,2.848,2.565,4.064l-1.111,1.649
				l0.092,0.199c-1.447,2.014-3.734,0.268-5.803-2.54c-1.979-2.683-2.239-6.657-2.239-6.657c-0.55,3.353,1.05,9.188,4.868,12.593
				c3.107,2.771,6.47,4.088,9.448,4.402l-0.093-0.903c0,0-2.73-0.617-4.439-2.026c-1.556-1.282-1.689-2.066-0.417-3.973l0.224,0.012
				l0.797-1.182c2.627,2.854,5.777,4.754,9.426,5.66l0.058,0.014l0.058-0.014c3.185-0.792,5.992-2.34,8.402-4.619
				c0.203,0.059,0.412,0.097,0.626,0.097c0.181,0,0.354-0.028,0.522-0.069c0.172,0.041,0.348,0.069,0.525,0.069
				c0.035,0,0.068-0.009,0.104-0.009l2.7,3.986l0.54-0.029l3.003,3.51l-2.14-4.078l0.238-0.51l-2.188-3.227
				c2.517-1.592,3.396-8.177,3.692-13.281c0.717-2.422,1.285-5.062,1.705-7.911l0.08,0.095c1.969,1.969,5.265,5.854,5.296,9.824
				c0.022,0.129,0.132,0.232,0.266,0.232c0.102,0,0.189-0.055,0.235-0.136c0.844-1.37,1.237-2.653,1.237-4.478
				c0-1.072-0.143-2.35-0.403-3.924c2.619,1.506,3.113,2.201,3.648,3.333c0.043,0.093,0.138,0.159,0.248,0.159
				c0.15,0,0.271-0.121,0.271-0.271c-0.035-1.719-0.652-3.604-1.811-5.539l4.979-4.983
				C393.001,150.174,392.656,148.646,391.463,147.451z M368.803,127.406c6.787,1.87,12.886,5.962,17.16,11.716
				c0.656,0.89,0.808,1.863,0.358,2.312l-0.054,0.053c0.012-0.083,0.023-0.166,0.023-0.249c0-0.576-0.292-1.144-0.579-1.567
				c-0.001-0.001-0.001-0.001-0.003-0.003c-0.016-0.025-0.051-0.032-0.075-0.017c-0.025,0.017-0.034,0.05-0.019,0.076
				c0.351,0.602,0.648,1.692,0.223,2.19l-0.126,0.126c0.013-0.083,0.024-0.167,0.024-0.25c0-0.576-0.291-1.143-0.58-1.567
				c0,0-0.002-0.001-0.002-0.003c-0.017-0.025-0.05-0.031-0.076-0.015c-0.025,0.016-0.033,0.049-0.019,0.075
				c0.353,0.603,0.649,1.693,0.223,2.191l-0.126,0.125c0.013-0.083,0.024-0.166,0.024-0.249c0-0.576-0.292-1.144-0.579-1.567
				c-0.001-0.001-0.002-0.003-0.003-0.003c-0.017-0.025-0.05-0.032-0.075-0.017c-0.025,0.017-0.034,0.05-0.019,0.077
				c0.351,0.602,0.649,1.693,0.222,2.191l-0.125,0.125c0.014-0.084,0.023-0.168,0.023-0.251c0-0.576-0.291-1.143-0.58-1.567
				c0,0,0-0.002-0.002-0.003c-0.016-0.025-0.049-0.032-0.076-0.016c-0.024,0.016-0.033,0.049-0.018,0.076
				c0.352,0.603,0.649,1.695,0.221,2.192l-0.124,0.124c0.013-0.083,0.024-0.166,0.024-0.25c0-0.576-0.293-1.143-0.58-1.567
				c0-0.001-0.001-0.002-0.002-0.003c-0.017-0.025-0.051-0.032-0.076-0.016s-0.033,0.05-0.018,0.075
				c0.352,0.604,0.648,1.697,0.219,2.193l-0.123,0.125c0.014-0.084,0.024-0.167,0.024-0.25c0-0.576-0.291-1.144-0.58-1.567
				c0-0.001-0.001-0.002-0.001-0.003c-0.018-0.025-0.051-0.031-0.077-0.017c-0.024,0.017-0.033,0.05-0.019,0.077
				c0.353,0.603,0.651,1.697,0.221,2.193l-0.123,0.123c0.012-0.083,0.023-0.167,0.023-0.251c0-0.576-0.291-1.142-0.579-1.567
				c-0.001,0-0.001-0.002-0.003-0.003c-0.016-0.025-0.05-0.032-0.074-0.015c-0.026,0.015-0.035,0.048-0.02,0.075
				c0.353,0.604,0.65,1.699,0.22,2.195l-0.123,0.123c0.014-0.085,0.024-0.168,0.024-0.251c0-0.576-0.291-1.144-0.58-1.567
				c0-0.002-0.001-0.003-0.001-0.003c-0.018-0.025-0.051-0.033-0.077-0.017c-0.025,0.017-0.033,0.05-0.019,0.076
				c0.353,0.604,0.651,1.699,0.22,2.195l-0.012,0.01c0-0.506-0.182-1.086-0.55-1.655c-2.349-3.529-5.491-6.336-9.098-8.27
				l-0.057-0.033c-0.001-0.491-0.04-0.974-0.1-1.449c0.276,0.372,0.655,0.672,1.054,0.883c0.535,0.284,0.912,0.377,1.249,0.461
				l0.386-0.848c-0.347-0.04-0.744-0.136-1.088-0.318c-0.766-0.407-1.062-1.165-0.653-1.935c0.39-0.732,1.159-1.016,1.903-0.621
				c0.36,0.191,0.639,0.455,0.879,0.82l0.535-0.805c-0.317-0.314-0.658-0.609-1.059-0.822c-1.295-0.688-2.613-0.515-3.34,0.854
				c-0.104,0.196-0.177,0.387-0.225,0.571c-0.586-2.057-1.713-3.881-3.221-5.316L368.803,127.406z M377.979,144.348l1.204,0.689
				c0.82,0.501,1.54,0.938,2.268,0.926c-0.006,0.063-0.013,0.125-0.028,0.183c-0.763,0.279-1.514-0.078-2.352-0.54
				c0.001-0.053,0.004-0.106,0.004-0.159l0.004-0.154l-0.14-0.068c-1.302-0.627-2.626-1.182-3.97-1.67l2.914-2.914
				c0.982,0.986,1.891,2.06,2.709,3.221l-0.06-0.033c-0.44-0.244-0.896-0.498-1.392-0.69l0,0c-0.002-0.002-0.004-0.002-0.006-0.003
				c-0.027-0.01-0.057,0.003-0.068,0.03c-0.014,0.026-0.002,0.058,0.023,0.073l1.203,0.689l0.573,0.333
				c0.038,0.058,0.079,0.112,0.116,0.17c0.127,0.194,0.227,0.392,0.304,0.583c-0.422-0.14-0.854-0.376-1.308-0.628
				c-0.442-0.246-0.898-0.498-1.394-0.692l0,0c-0.001,0-0.003-0.001-0.005-0.001c-0.027-0.012-0.057,0.001-0.07,0.028
				c-0.012,0.026,0,0.059,0.025,0.073l1.203,0.691c0.573,0.35,1.119,0.683,1.65,0.838c0.033,0.129,0.055,0.254,0.063,0.374
				c-0.646,0.011-1.294-0.346-2.03-0.755c-0.439-0.244-0.896-0.498-1.393-0.691v-0.001c-0.002,0-0.003-0.001-0.005-0.002
				c-0.027-0.01-0.058,0.002-0.069,0.028C377.942,144.3,377.954,144.333,377.979,144.348z M381.264,146.466
				c-0.02,0.025-0.035,0.055-0.057,0.078c-0.389,0.387-1.161,0.334-1.968-0.138c0,0-0.1-0.058-0.187-0.109
				c0.004-0.147,0.009-0.294,0.012-0.442C379.837,146.31,380.543,146.64,381.264,146.466z M385.129,152.388
				c0.507,0.465,1.072,0.981,1.663,1.321c0.116,0.211,0.21,0.42,0.27,0.623c-0.726-0.158-1.501-0.74-2.415-1.475
				c-0.023-0.02-0.059-0.016-0.078,0.007c-0.02,0.023-0.018,0.058,0.005,0.078c0.769,0.706,1.632,1.489,2.546,1.661
				c0.018,0.105,0.023,0.203,0.022,0.299c-0.908,0.147-1.816-0.5-3.052-1.49c-0.023-0.018-0.057-0.015-0.076,0.008
				c-0.02,0.023-0.017,0.059,0.006,0.078c0.932,0.855,1.979,1.813,3.088,1.69c-0.01,0.04-0.02,0.081-0.032,0.12
				c-1.077,0.523-2.079-0.171-3.54-1.342c-0.023-0.019-0.057-0.016-0.076,0.008s-0.018,0.059,0.006,0.078
				c0.955,0.879,2.114,1.941,3.312,1.652c-1.077,0.896-2.513-0.197-3.095-0.729c-0.863-0.745-1.83-1.449-2.877-2.101
				c-0.631-0.407-1.323-0.599-1.936-0.556l2.812-2.814c1.769,1.004,3.273,2.118,4.428,3.295c0.148,0.148,0.278,0.307,0.398,0.467
				c-0.383-0.246-0.803-0.561-1.307-0.966c-0.023-0.019-0.057-0.015-0.076,0.009C385.104,152.333,385.107,152.367,385.129,152.388z
				 M378.756,151.75c0.099-1.168,0.177-2.363,0.232-3.592c0.787,0.35,1.543,0.718,2.254,1.105L378.756,151.75z M375.817,157.117
				c-0.089-0.033-0.178-0.067-0.259-0.104c-0.007-0.243-0.016-0.495-0.024-0.752c0.024,0.008,0.051,0.02,0.075,0.028
				c0.219,0.075,0.488,0.171,0.492,0.283h0.011c0.007,0.226,0.015,0.45,0.02,0.674C376.027,157.199,375.92,157.156,375.817,157.117z
				 M376.14,157.866h0.007c0.003,0.228,0.006,0.452,0.008,0.678c-0.1-0.05-0.204-0.095-0.304-0.133
				c-0.087-0.033-0.182-0.071-0.266-0.111c-0.003-0.241-0.007-0.495-0.013-0.763c0.025,0.011,0.053,0.023,0.078,0.032
				C375.879,157.654,376.138,157.748,376.14,157.866z M375.768,155.834c-0.083-0.027-0.172-0.06-0.254-0.094
				c-0.01-0.246-0.021-0.498-0.035-0.754c0.025,0.008,0.052,0.02,0.076,0.027c0.217,0.074,0.486,0.163,0.492,0.27h0.014
				c0.011,0.226,0.021,0.451,0.029,0.678C375.983,155.913,375.872,155.871,375.768,155.834z M375.706,154.557
				c-0.083-0.027-0.175-0.059-0.255-0.092c-0.016-0.25-0.031-0.505-0.049-0.762c0.025,0.008,0.051,0.02,0.074,0.026
				c0.22,0.067,0.492,0.152,0.498,0.259h0.012c0.016,0.23,0.03,0.46,0.043,0.69C375.922,154.633,375.812,154.592,375.706,154.557z
				 M375.62,153.27c-0.083-0.025-0.173-0.053-0.255-0.084c-0.018-0.252-0.039-0.506-0.061-0.762
				c0.023,0.008,0.048,0.018,0.069,0.023c0.21,0.059,0.495,0.14,0.503,0.242l0.014,0.002c0.018,0.229,0.037,0.46,0.054,0.692
				C375.836,153.34,375.725,153.302,375.62,153.27z M375.506,151.983c-0.082-0.022-0.166-0.049-0.246-0.077
				c-0.023-0.25-0.049-0.502-0.076-0.754c0.021,0.006,0.045,0.014,0.064,0.019c0.213,0.055,0.503,0.132,0.514,0.234h0.008
				c0.023,0.228,0.047,0.456,0.068,0.687C375.727,152.051,375.613,152.014,375.506,151.983z M375.369,150.705
				c-0.08-0.021-0.164-0.045-0.243-0.07c-0.03-0.256-0.061-0.514-0.095-0.769c0.019,0.005,0.037,0.011,0.056,0.015
				c0.227,0.051,0.509,0.115,0.521,0.225h0.01c0.03,0.23,0.06,0.465,0.087,0.7C375.594,150.766,375.479,150.732,375.369,150.705z
				 M372.214,173.771c-0.187-0.14-0.419-0.313-0.388-0.424l0,0c0.057-0.208,0.113-0.421,0.168-0.646
				c0.092,0.073,0.186,0.143,0.277,0.205c0.176,0.117,0.414,0.278,0.4,0.38c-0.064,0.239-0.131,0.47-0.201,0.692
				C372.386,173.903,372.297,173.832,372.214,173.771z M372.291,174.513c-0.086,0.245-0.176,0.479-0.27,0.699
				c-0.082-0.083-0.17-0.161-0.252-0.228c-0.173-0.143-0.367-0.304-0.336-0.408c0.074-0.203,0.146-0.416,0.219-0.643
				c0.088,0.08,0.183,0.154,0.273,0.223C372.077,174.271,372.277,174.422,372.291,174.513z M372.542,172.506
				c-0.189-0.127-0.42-0.284-0.41-0.396c0.048-0.216,0.095-0.438,0.14-0.665c0.096,0.07,0.197,0.137,0.293,0.196
				c0.182,0.11,0.427,0.261,0.418,0.363c-0.052,0.241-0.105,0.476-0.162,0.706C372.729,172.637,372.633,172.568,372.542,172.506z
				 M359.576,146.969h-1.1l2.967-5.188h1.1L359.576,146.969z M362.344,146.969h-1.101l-0.554-0.968l0.551-0.961L362.344,146.969z
				 M337.363,153.975c-0.02-0.021-0.053-0.026-0.076-0.008c-1.461,1.172-2.463,1.865-3.539,1.342
				c-0.016-0.039-0.023-0.08-0.033-0.12c1.109,0.123,2.156-0.835,3.088-1.69c0.021-0.02,0.024-0.055,0.004-0.078
				c-0.019-0.022-0.053-0.025-0.076-0.008c-1.234,0.99-2.143,1.638-3.051,1.49c0-0.096,0.006-0.193,0.023-0.299
				c0.914-0.172,1.777-0.955,2.545-1.661c0.023-0.021,0.024-0.055,0.004-0.078c-0.019-0.022-0.053-0.026-0.076-0.007
				c-0.916,0.734-1.69,1.316-2.416,1.475c0.059-0.203,0.154-0.412,0.27-0.623c0.592-0.34,1.156-0.856,1.663-1.321
				c0.022-0.021,0.024-0.055,0.005-0.077c-0.02-0.023-0.053-0.027-0.077-0.009c-0.504,0.405-0.923,0.722-1.306,0.966
				c0.119-0.159,0.248-0.316,0.396-0.465c1.154-1.179,2.66-2.293,4.429-3.297l2.813,2.814c-0.613-0.043-1.307,0.15-1.939,0.557
				c-1.043,0.65-2.01,1.354-2.869,2.094c-0.586,0.537-2.022,1.631-3.098,0.734c1.195,0.287,2.355-0.773,3.312-1.652
				C337.38,154.033,337.383,153.998,337.363,153.975z M339.578,149.264c0.714-0.389,1.471-0.758,2.26-1.107
				c0.055,1.228,0.131,2.428,0.229,3.595L339.578,149.264z M341.883,145.232l-0.139,0.066l0.003,0.155
				c0.001,0.051,0.003,0.101,0.004,0.152c-0.839,0.462-1.589,0.819-2.353,0.54c-0.014-0.058-0.021-0.119-0.027-0.183
				c0.729,0.012,1.449-0.425,2.268-0.926l1.203-0.689c0.026-0.015,0.037-0.048,0.025-0.075c-0.014-0.026-0.043-0.038-0.07-0.028
				c-0.002,0.001-0.004,0.002-0.005,0.002v0.001c-0.497,0.193-0.951,0.447-1.394,0.691c-0.734,0.41-1.383,0.767-2.029,0.755
				c0.01-0.12,0.03-0.244,0.064-0.374c0.53-0.155,1.076-0.488,1.65-0.838l1.203-0.691c0.025-0.014,0.037-0.046,0.023-0.073
				c-0.012-0.027-0.041-0.04-0.068-0.028c-0.002,0-0.003,0.001-0.005,0.001h-0.001c-0.495,0.194-0.951,0.447-1.392,0.692
				c-0.454,0.252-0.888,0.488-1.308,0.628c0.076-0.193,0.176-0.391,0.303-0.586c0.039-0.058,0.078-0.112,0.115-0.168l0.572-0.332
				l1.203-0.689c0.027-0.015,0.038-0.047,0.025-0.073c-0.014-0.026-0.042-0.04-0.069-0.03c-0.002,0.001-0.003,0.001-0.005,0.003l0,0
				c-0.496,0.192-0.951,0.446-1.393,0.69l-0.06,0.033c0.818-1.161,1.726-2.234,2.71-3.222l2.917,2.918
				C344.512,144.047,343.186,144.604,341.883,145.232z M341.771,146.296l-0.189,0.11c-0.806,0.472-1.578,0.525-1.968,0.137
				c-0.021-0.022-0.037-0.052-0.056-0.077c0.722,0.174,1.426-0.156,2.199-0.613C341.762,146.003,341.767,146.148,341.771,146.296z
				 M343.281,140.3c0.369-0.357,0.75-0.697,1.139-1.028l2.613,3.876c-0.225,0.074-0.449,0.152-0.674,0.231L343.281,140.3z
				 M345.98,138.046c0.83-0.6,1.695-1.147,2.592-1.639l0.027-0.015c0.09,2.125,0.738,4.104,1.805,5.796
				c-0.465,0.111-0.927,0.232-1.388,0.358L345.98,138.046z M355.77,130.836c-0.023,0.322-0.053,0.769-0.082,1.323
				c-0.122,0.205-0.26,0.398-0.428,0.575c-0.047,0.048-0.102,0.086-0.148,0.131c-0.043-0.095-0.088-0.191-0.139-0.284l-0.127-0.231
				l-0.225,0.135c-0.19,0.114-0.367,0.245-0.531,0.387c-0.099,0.063-0.188,0.135-0.279,0.207c0.02-0.267,0.012-0.534-0.024-0.796
				c0.029-0.047,0.054-0.097,0.086-0.142c0.58-0.259,1.079-0.656,1.462-1.162C355.476,130.922,355.621,130.875,355.77,130.836z
				 M355.744,130.31c0.01-0.021,0.016-0.044,0.025-0.065c0.015,0.002,0.031,0.005,0.047,0.007c0,0-0.002,0.018-0.004,0.044
				C355.79,130.301,355.768,130.305,355.744,130.31z M353.782,140.108c0.339,0.35,0.574,0.77,0.724,1.223
				c-0.398,0.024-0.795,0.11-1.176,0.263c-0.213-0.136-0.418-0.287-0.598-0.473c-0.52-0.539-0.82-1.232-0.888-1.973
				C352.582,139.243,353.264,139.57,353.782,140.108z M351.586,138.067c-0.137-0.212-0.258-0.435-0.343-0.681
				c-0.157-0.456-0.211-0.933-0.161-1.403c0.026-0.255,0.119-0.5,0.207-0.746c0.619,0.396,1.093,0.974,1.334,1.674
				c0.157,0.457,0.209,0.935,0.16,1.404c0,0.006-0.002,0.012-0.003,0.018C352.403,138.183,352.002,138.091,351.586,138.067z
				 M356.185,142.513c0.695,0.268,1.259,0.766,1.634,1.403c-0.707,0.224-1.459,0.228-2.158-0.04
				c-0.694-0.267-1.257-0.766-1.633-1.403C354.735,142.25,355.487,142.246,356.185,142.513z M356.086,141.571
				c-0.19-0.073-0.384-0.124-0.578-0.164c-0.332-0.495-0.523-1.067-0.554-1.67c0.735,0.122,1.401,0.485,1.901,1.043
				c0.482,0.542,0.75,1.221,0.803,1.939C357.246,142.209,356.71,141.811,356.086,141.571z M354.67,138.65l-0.264-0.021l-0.009,0.265
				c-0.008,0.222,0.007,0.441,0.037,0.658c-0.001,0.028,0.005,0.056,0.005,0.084c-0.105-0.148-0.22-0.291-0.349-0.424
				c-0.175-0.181-0.37-0.334-0.573-0.475c-0.059-0.283-0.082-0.569-0.064-0.853c0.002-0.028,0.002-0.055,0.006-0.083
				c0.008-0.097,0.019-0.193,0.035-0.288c0.05-0.285,0.177-0.55,0.303-0.815c0.574,0.456,0.988,1.077,1.157,1.795
				c0.017,0.066,0.024,0.132,0.036,0.198C354.885,138.672,354.777,138.658,354.67,138.65z M354.625,130.583
				c-0.251,0.417-0.596,0.753-0.994,1.014c-0.129-0.383-0.316-0.747-0.567-1.079c0.076-0.237,0.179-0.468,0.311-0.687
				c0.017-0.027,0.038-0.049,0.055-0.075c0.526,0.131,1.005,0.237,1.438,0.324C354.799,130.253,354.722,130.422,354.625,130.583z
				 M353.629,133.967c0.166-0.195,0.348-0.378,0.559-0.535c0.253,0.588,0.365,1.22,0.254,1.85c-0.019,0.099-0.04,0.196-0.066,0.293
				c-0.017,0.064-0.047,0.124-0.068,0.186c-0.082-0.064-0.166-0.127-0.256-0.185l-0.223-0.144l-0.133,0.229
				c-0.113,0.19-0.203,0.389-0.281,0.592c-0.03,0.057-0.054,0.117-0.082,0.175c-0.02-0.065-0.027-0.133-0.051-0.198
				c-0.094-0.272-0.225-0.526-0.375-0.765c0.016-0.091,0.037-0.183,0.061-0.272c0.006-0.017,0.013-0.03,0.018-0.046
				C353.27,134.792,353.487,134.396,353.629,133.967z M352.922,133.523v0.002c-0.051,0.486-0.214,0.941-0.467,1.347
				c-0.277-0.295-0.604-0.547-0.97-0.743c-0.034-0.248-0.04-0.501-0.015-0.757v-0.002c0.08-0.742,0.416-1.417,0.938-1.943
				C352.811,132.051,353,132.781,352.922,133.523z M351.237,132.269c-0.144-0.216-0.307-0.418-0.493-0.601
				c-0.038-0.236-0.053-0.475-0.038-0.718l0.001-0.013c0.044-0.612,0.265-1.185,0.621-1.672c0.136,0.025,0.291,0.052,0.463,0.081
				c0.258,0.493,0.395,1.038,0.376,1.601C351.76,131.32,351.445,131.771,351.237,132.269z M350.953,133.774
				c0.004,0.214,0.02,0.426,0.059,0.636c-0.055,0.14-0.105,0.282-0.143,0.427c-0.097,0.224-0.169,0.454-0.221,0.688
				c-0.229-0.186-0.476-0.347-0.742-0.477c-0.115-0.212-0.215-0.434-0.28-0.671c-0.099-0.358-0.134-0.726-0.108-1.087
				c0.026-0.367,0.132-0.723,0.281-1.066C350.334,132.617,350.732,133.152,350.953,133.774z M350.586,136.734
				c0.029,0.275,0.087,0.55,0.179,0.818c0.12,0.349,0.29,0.674,0.501,0.969c0.006,0.101,0.021,0.202,0.033,0.301
				c-0.348-0.157-0.716-0.262-1.096-0.307c-0.178-0.164-0.346-0.34-0.483-0.544c-0.417-0.61-0.61-1.334-0.56-2.065
				c0.001-0.011,0.004-0.021,0.004-0.031C349.708,136.039,350.196,136.332,350.586,136.734z M349.785,139.537
				c0.594-0.02,1.174,0.118,1.688,0.4c0.171,0.571,0.473,1.098,0.896,1.536c0.051,0.052,0.105,0.093,0.158,0.142
				c-0.307-0.009-0.613,0.016-0.915,0.082c-0.221-0.097-0.436-0.208-0.634-0.356C350.379,140.892,349.971,140.255,349.785,139.537z
				 M353.555,142.68c0.281,0.496,0.662,0.917,1.121,1.238c-0.244,0.086-0.479,0.194-0.703,0.33c-0.236-0.018-0.475-0.06-0.709-0.134
				c-0.707-0.227-1.298-0.692-1.707-1.308C352.198,142.562,352.891,142.507,353.555,142.68z M356.188,144.543
				c0.255,0.045,0.513,0.06,0.771,0.052c0.496,0.102,0.961,0.324,1.372,0.637c-0.567,0.469-1.262,0.745-2.001,0.759
				c-0.744,0.017-1.443-0.25-2.034-0.699C354.835,144.848,355.49,144.583,356.188,144.543z M358.277,141.781h1.1l0.753,1.316
				l-0.55,0.961L358.277,141.781z M363.852,144.595c0.256,0.009,0.514-0.007,0.768-0.052c0.699,0.041,1.355,0.304,1.893,0.749
				c-0.589,0.448-1.287,0.715-2.032,0.699c-0.739-0.015-1.434-0.291-2.001-0.759C362.889,144.919,363.354,144.698,363.852,144.595z
				 M374.768,157.117c-0.088-0.033-0.177-0.067-0.258-0.104c-0.006-0.243-0.015-0.495-0.023-0.752
				c0.024,0.008,0.049,0.02,0.074,0.028c0.218,0.075,0.489,0.171,0.492,0.283h0.012c0.006,0.226,0.013,0.45,0.02,0.674
				C374.979,157.199,374.871,157.156,374.768,157.117z M375.09,157.866h0.008c0.004,0.228,0.006,0.452,0.008,0.678
				c-0.1-0.05-0.205-0.095-0.305-0.133c-0.086-0.033-0.18-0.071-0.264-0.111c-0.004-0.241-0.008-0.495-0.015-0.763
				c0.026,0.011,0.054,0.023,0.079,0.032C374.83,157.654,375.089,157.748,375.09,157.866z M374.719,155.834
				c-0.082-0.027-0.173-0.06-0.254-0.094c-0.01-0.246-0.021-0.498-0.035-0.754c0.025,0.008,0.051,0.02,0.076,0.027
				c0.218,0.074,0.487,0.163,0.492,0.27h0.014c0.011,0.226,0.021,0.451,0.029,0.678
				C374.934,155.913,374.823,155.871,374.719,155.834z M374.658,154.557c-0.084-0.027-0.176-0.059-0.257-0.092
				c-0.015-0.25-0.03-0.505-0.048-0.762c0.024,0.008,0.051,0.02,0.074,0.026c0.219,0.067,0.492,0.152,0.499,0.259h0.011
				c0.016,0.23,0.029,0.46,0.043,0.69C374.873,154.633,374.764,154.592,374.658,154.557z M374.57,153.27
				c-0.082-0.025-0.172-0.053-0.253-0.084c-0.019-0.252-0.039-0.506-0.061-0.762c0.022,0.008,0.046,0.018,0.069,0.023
				c0.208,0.059,0.494,0.14,0.502,0.242l0.014,0.002c0.019,0.229,0.037,0.46,0.055,0.692
				C374.788,153.34,374.676,153.302,374.57,153.27z M374.457,151.983c-0.082-0.022-0.167-0.049-0.246-0.077
				c-0.023-0.25-0.049-0.502-0.075-0.754c0.021,0.006,0.043,0.014,0.063,0.019c0.213,0.055,0.504,0.132,0.513,0.234h0.009
				c0.024,0.228,0.046,0.456,0.067,0.687C374.679,152.051,374.564,152.014,374.457,151.983z M374.32,150.705
				c-0.08-0.021-0.164-0.045-0.242-0.07c-0.03-0.256-0.062-0.514-0.096-0.769c0.02,0.005,0.038,0.011,0.055,0.015
				c0.229,0.051,0.509,0.115,0.523,0.225h0.01c0.029,0.23,0.059,0.465,0.085,0.7C374.544,150.766,374.43,150.732,374.32,150.705z
				 M373.719,157.117c-0.227-0.084-0.486-0.179-0.49-0.297h-0.002c-0.008-0.217-0.014-0.435-0.023-0.65
				c0.103,0.045,0.208,0.086,0.309,0.12c0.217,0.075,0.49,0.171,0.492,0.283h0.011c0.007,0.226,0.015,0.45,0.021,0.674
				C373.93,157.199,373.822,157.156,373.719,157.117z M374.041,157.866h0.008c0.004,0.228,0.006,0.452,0.009,0.678
				c-0.101-0.05-0.206-0.095-0.305-0.133c-0.218-0.085-0.489-0.19-0.495-0.31c-0.004-0.221-0.009-0.439-0.014-0.66
				c0.104,0.049,0.209,0.092,0.309,0.128C373.781,157.654,374.039,157.748,374.041,157.866z M373.67,155.834
				c-0.219-0.074-0.488-0.169-0.492-0.283h-0.002c-0.01-0.219-0.021-0.438-0.035-0.655c0.105,0.045,0.213,0.084,0.316,0.118
				c0.217,0.074,0.488,0.163,0.492,0.27h0.014c0.01,0.226,0.02,0.451,0.029,0.678C373.885,155.913,373.774,155.871,373.67,155.834z
				 M373.609,154.557c-0.223-0.074-0.498-0.166-0.503-0.281h-0.003c-0.014-0.221-0.029-0.439-0.045-0.659
				c0.107,0.044,0.217,0.081,0.32,0.113c0.22,0.067,0.492,0.152,0.5,0.259h0.01c0.016,0.23,0.029,0.46,0.043,0.69
				C373.824,154.633,373.714,154.592,373.609,154.557z M373.521,153.27c-0.223-0.07-0.502-0.154-0.508-0.27l-0.003-0.001
				c-0.019-0.22-0.037-0.439-0.058-0.655c0.108,0.039,0.219,0.074,0.324,0.104c0.209,0.059,0.494,0.14,0.502,0.242l0.013,0.002
				c0.021,0.229,0.038,0.46,0.055,0.692C373.738,153.34,373.628,153.302,373.521,153.27z M372.973,166.38
				c0.098,0.058,0.199,0.112,0.297,0.16c0.205,0.103,0.463,0.228,0.453,0.338h0.012c-0.021,0.23-0.045,0.458-0.068,0.686
				c-0.1-0.063-0.204-0.121-0.304-0.173c-0.2-0.104-0.443-0.23-0.455-0.344C372.931,166.828,372.951,166.604,372.973,166.38z
				 M373.481,166.107c-0.203-0.1-0.451-0.223-0.458-0.336c0.018-0.224,0.035-0.449,0.051-0.677c0.094,0.054,0.191,0.101,0.283,0.143
				c0.289,0.134,0.479,0.231,0.467,0.358h0.018c-0.017,0.229-0.035,0.453-0.054,0.679
				C373.688,166.212,373.581,166.157,373.481,166.107z M373.559,164.8c-0.21-0.097-0.449-0.206-0.442-0.315l0,0
				c0.015-0.223,0.026-0.447,0.04-0.673c0.089,0.045,0.182,0.085,0.27,0.122c0.351,0.146,0.496,0.231,0.486,0.376h0.016
				c-0.013,0.221-0.027,0.441-0.041,0.661C373.777,164.905,373.662,164.848,373.559,164.8z M373.611,163.489
				c-0.244-0.103-0.43-0.188-0.426-0.282l0,0c0.01-0.216,0.02-0.434,0.027-0.652c0.1,0.057,0.204,0.106,0.304,0.149
				c0.208,0.093,0.468,0.208,0.46,0.312l0.014,0.002c-0.009,0.213-0.02,0.426-0.029,0.64
				C373.846,163.591,373.723,163.535,373.611,163.489z M373.713,162.264c-0.215-0.094-0.479-0.212-0.48-0.33
				c0.007-0.219,0.013-0.439,0.017-0.66c0.097,0.049,0.196,0.096,0.292,0.136c0.281,0.118,0.48,0.211,0.48,0.332h0.012
				c-0.006,0.224-0.014,0.446-0.021,0.671C373.913,162.357,373.811,162.307,373.713,162.264z M373.728,160.965
				c-0.22-0.092-0.467-0.196-0.467-0.314l0,0c0.003-0.217,0.005-0.436,0.007-0.652c0.1,0.049,0.201,0.093,0.299,0.133
				c0.227,0.09,0.482,0.192,0.482,0.315h0.008c-0.002,0.223-0.006,0.444-0.01,0.669
				C373.941,161.059,373.832,161.008,373.728,160.965z M373.746,159.683c-0.223-0.088-0.475-0.189-0.477-0.308l0,0
				c0-0.215-0.002-0.433-0.004-0.65c0.105,0.052,0.211,0.096,0.312,0.137c0.215,0.082,0.482,0.188,0.482,0.296v0.001
				c0.002,0.102,0.002,0.202,0.002,0.304c0,0.121-0.002,0.242-0.002,0.363C373.957,159.772,373.849,159.725,373.746,159.683z
				 M374.145,149.411c-0.076-0.019-0.156-0.037-0.232-0.058c-0.033-0.23-0.066-0.461-0.104-0.689
				c0.019,0.004,0.038,0.01,0.057,0.014c0.229,0.041,0.512,0.094,0.529,0.205h0.001c0.032,0.203,0.062,0.41,0.093,0.618
				C374.373,149.465,374.256,149.436,374.145,149.411z M373.954,148.203c-0.075-0.014-0.153-0.03-0.229-0.049
				c-0.039-0.23-0.081-0.458-0.125-0.685c0.02,0.002,0.041,0.008,0.06,0.011c0.212,0.033,0.5,0.078,0.526,0.178
				c0.038,0.204,0.076,0.412,0.111,0.623C374.184,148.249,374.064,148.225,373.954,148.203z M373.732,147.004
				c-0.076-0.012-0.156-0.025-0.232-0.042c-0.053-0.25-0.109-0.496-0.167-0.739c0.009,0.002,0.019,0.005,0.027,0.006
				c0.223,0.038,0.522,0.089,0.564,0.19c0.049,0.213,0.097,0.428,0.144,0.647C373.957,147.041,373.84,147.021,373.732,147.004z
				 M372.158,142.106c-0.104,0.03-0.208,0.066-0.302,0.102c-0.021,0.008-0.044,0.016-0.065,0.023
				c-0.111-0.167-0.227-0.326-0.346-0.468c0.047-0.081,0.102-0.163,0.143-0.196C371.787,141.708,371.978,141.887,372.158,142.106z
				 M371.972,141.26c0.079,0.019,0.159,0.038,0.235,0.068c-0.02,0.025-0.035,0.055-0.053,0.08v0
				C372.096,141.354,372.033,141.308,371.972,141.26z M372.491,142.566c0.136,0.211,0.265,0.443,0.388,0.697
				c-0.107-0.012-0.219-0.019-0.325-0.025c-0.069-0.003-0.142-0.008-0.212-0.013c-0.095-0.203-0.192-0.394-0.295-0.575
				C372.268,142.57,372.438,142.516,372.491,142.566z M372.493,141.763c0.049-0.081,0.104-0.163,0.143-0.196
				c0.2,0.141,0.392,0.32,0.571,0.54c-0.105,0.03-0.209,0.066-0.301,0.102c-0.022,0.008-0.044,0.016-0.065,0.023
				C372.729,142.063,372.613,141.905,372.493,141.763z M373.139,143.853c0.094,0.232,0.185,0.479,0.271,0.737
				c-0.105-0.025-0.216-0.045-0.322-0.063c-0.078-0.013-0.164-0.029-0.248-0.046c-0.089-0.264-0.186-0.515-0.283-0.759
				C372.795,143.734,373.072,143.752,373.139,143.853z M373.008,145.002c0.23,0.038,0.533,0.09,0.596,0.196
				c0.059,0.203,0.117,0.41,0.174,0.624c-0.113-0.028-0.229-0.05-0.338-0.068c-0.07-0.012-0.154-0.026-0.234-0.045
				c-0.064-0.242-0.131-0.477-0.199-0.707C373.007,145.002,373.008,145.002,373.008,145.002z M373.889,144.48
				c-0.09-0.264-0.185-0.515-0.283-0.759c0.237,0.013,0.515,0.03,0.582,0.131c0.094,0.232,0.184,0.479,0.271,0.737
				c-0.106-0.025-0.215-0.045-0.322-0.063C374.06,144.514,373.973,144.498,373.889,144.48z M373.604,143.239
				c-0.07-0.003-0.143-0.008-0.214-0.013c-0.094-0.203-0.19-0.394-0.293-0.575c0.22-0.081,0.39-0.135,0.442-0.084
				c0.136,0.211,0.266,0.443,0.389,0.697C373.819,143.252,373.709,143.245,373.604,143.239z M372.779,141.089
				c-0.361-0.226-0.753-0.358-1.186-0.358c-0.044,0-0.086,0.008-0.13,0.011c-0.108,0-0.208,0.023-0.296,0.055
				c0.617-1.352,0.988-2.839,1.053-4.406l0.028,0.018c0.894,0.489,1.757,1.035,2.587,1.634L372.779,141.089z M371.09,137.971
				c-0.139,0.205-0.307,0.382-0.483,0.544c-0.382,0.045-0.749,0.15-1.097,0.307c0.014-0.1,0.028-0.199,0.034-0.3
				c0.21-0.296,0.38-0.621,0.499-0.97c0.094-0.267,0.15-0.543,0.181-0.818c0.39-0.402,0.878-0.696,1.421-0.86
				c0.001,0.011,0.002,0.021,0.004,0.031C371.699,136.638,371.506,137.362,371.09,137.971z M371.157,141.328
				c-0.019,0.025-0.034,0.055-0.052,0.08v0c-0.016-0.014-0.031-0.024-0.047-0.038c0.014-0.019,0.031-0.038,0.045-0.058
				C371.121,141.318,371.141,141.321,371.157,141.328z M371.184,134.378c-0.065,0.237-0.166,0.46-0.281,0.671
				c-0.266,0.129-0.514,0.291-0.741,0.477c-0.052-0.234-0.124-0.463-0.221-0.688c-0.038-0.146-0.088-0.287-0.143-0.428
				c0.039-0.209,0.055-0.422,0.058-0.636c0.221-0.623,0.619-1.157,1.156-1.549c0.148,0.344,0.254,0.7,0.28,1.066
				C371.316,133.653,371.281,134.02,371.184,134.378z M370.064,131.667c-0.186,0.183-0.35,0.385-0.492,0.601
				c-0.208-0.498-0.523-0.948-0.93-1.323c-0.023-0.71,0.192-1.396,0.598-1.979c0.5,0.546,0.811,1.229,0.862,1.97l0.001,0.014
				C370.118,131.193,370.104,131.432,370.064,131.667z M369.729,135.984c0.049,0.47-0.006,0.948-0.163,1.403
				c-0.084,0.246-0.206,0.468-0.343,0.681c-0.416,0.024-0.818,0.116-1.195,0.267c0-0.006-0.002-0.011-0.002-0.018
				c-0.049-0.47,0.004-0.948,0.16-1.404c0.24-0.701,0.716-1.277,1.335-1.674C369.608,135.484,369.699,135.73,369.729,135.984z
				 M368.965,139.148c-0.068,0.742-0.368,1.436-0.889,1.974c-0.18,0.186-0.383,0.336-0.598,0.472
				c-0.381-0.153-0.777-0.238-1.175-0.263c0.149-0.453,0.385-0.873,0.722-1.223C367.546,139.57,368.227,139.244,368.965,139.148z
				 M367.527,136.229c-0.022,0.065-0.032,0.133-0.051,0.199c-0.027-0.058-0.051-0.118-0.082-0.175
				c-0.077-0.203-0.168-0.402-0.281-0.592l-0.133-0.229l-0.222,0.145c-0.089,0.057-0.173,0.12-0.257,0.184
				c-0.021-0.063-0.051-0.122-0.068-0.186c-0.025-0.098-0.047-0.194-0.066-0.294c-0.11-0.629,0-1.262,0.256-1.85
				c0.209,0.156,0.391,0.34,0.559,0.535c0.141,0.43,0.358,0.826,0.645,1.179c0.004,0.017,0.011,0.03,0.016,0.046
				c0.024,0.09,0.045,0.181,0.061,0.272C367.752,135.703,367.621,135.958,367.527,136.229z M367.013,136.698
				c0.126,0.264,0.251,0.53,0.302,0.815c0.018,0.095,0.027,0.191,0.036,0.288c0.003,0.027,0.003,0.055,0.006,0.083
				c0.018,0.284-0.006,0.571-0.065,0.854c-0.203,0.14-0.398,0.293-0.572,0.474c-0.129,0.133-0.243,0.276-0.35,0.425
				c0.001-0.03,0.006-0.057,0.006-0.085c0.031-0.216,0.045-0.436,0.036-0.658l-0.009-0.264l-0.264,0.021
				c-0.107,0.008-0.214,0.022-0.319,0.04c0.011-0.065,0.021-0.131,0.036-0.198C366.025,137.773,366.439,137.153,367.013,136.698z
				 M365.855,139.737c-0.03,0.603-0.221,1.176-0.553,1.67c-0.197,0.04-0.389,0.091-0.578,0.164
				c-0.625,0.239-1.162,0.638-1.574,1.149c0.053-0.719,0.32-1.398,0.804-1.939C364.453,140.222,365.119,139.859,365.855,139.737z
				 M364.625,142.513c0.697-0.267,1.449-0.264,2.156-0.04c-0.376,0.638-0.938,1.137-1.634,1.403
				c-0.697,0.267-1.449,0.265-2.156,0.04C363.366,143.279,363.93,142.781,364.625,142.513z M366.134,143.918
				c0.458-0.321,0.84-0.742,1.122-1.237c0.664-0.174,1.355-0.119,1.998,0.125c-0.41,0.615-1.001,1.082-1.709,1.308
				c-0.233,0.075-0.471,0.116-0.71,0.134C366.613,144.113,366.377,144.004,366.134,143.918z M369.197,141.696
				c-0.303-0.066-0.609-0.091-0.915-0.081c0.052-0.049,0.108-0.091,0.157-0.143c0.424-0.438,0.726-0.964,0.896-1.536
				c0.516-0.282,1.094-0.42,1.688-0.4c-0.187,0.72-0.595,1.355-1.193,1.803C369.633,141.487,369.418,141.6,369.197,141.696z
				 M370.754,141.743c0.121,0.108,0.242,0.226,0.355,0.363c-0.104,0.03-0.207,0.066-0.301,0.102
				c-0.069,0.025-0.139,0.05-0.207,0.073c-0.139-0.055-0.263-0.103-0.27-0.106C370.482,142.039,370.619,141.894,370.754,141.743z
				 M370.809,142.716c0.057-0.018,0.115-0.037,0.168-0.057c0.231-0.086,0.41-0.146,0.467-0.093c0.135,0.211,0.264,0.443,0.387,0.697
				c-0.108-0.012-0.218-0.019-0.326-0.025c-0.24-0.012-0.531-0.028-0.617-0.131c-0.055-0.093-0.111-0.174-0.167-0.255
				L370.809,142.716z M371.48,143.72c0.243,0.012,0.539,0.028,0.609,0.133c0.094,0.232,0.186,0.479,0.271,0.737
				c-0.106-0.025-0.217-0.045-0.322-0.063c-0.211-0.035-0.492-0.083-0.58-0.173c-0.086-0.235-0.176-0.451-0.269-0.653
				C371.287,143.71,371.385,143.715,371.48,143.72z M371.96,145.002c0.229,0.038,0.533,0.09,0.594,0.196
				c0.06,0.203,0.118,0.41,0.175,0.624c-0.113-0.028-0.229-0.05-0.337-0.068c-0.193-0.032-0.472-0.08-0.544-0.165
				c-0.061-0.222-0.124-0.438-0.189-0.644C371.758,144.967,371.861,144.985,371.96,145.002z M372.312,146.229
				c0.223,0.038,0.521,0.089,0.562,0.19c0.051,0.213,0.098,0.428,0.144,0.647c-0.111-0.026-0.227-0.046-0.335-0.063
				c-0.211-0.031-0.468-0.073-0.53-0.164c-0.05-0.231-0.101-0.454-0.154-0.671C372.102,146.192,372.209,146.212,372.312,146.229z
				 M372.609,147.48c0.213,0.033,0.501,0.078,0.527,0.178c0.037,0.204,0.076,0.412,0.111,0.623
				c-0.113-0.032-0.232-0.057-0.342-0.078c-0.215-0.041-0.474-0.09-0.521-0.185c-0.036-0.205-0.073-0.405-0.112-0.601
				C372.386,147.444,372.502,147.464,372.609,147.48z M372.816,148.678c0.229,0.041,0.512,0.094,0.529,0.205h0.002
				c0.031,0.203,0.062,0.41,0.091,0.618c-0.114-0.036-0.232-0.065-0.344-0.09c-0.218-0.05-0.485-0.111-0.516-0.212
				c-0.03-0.203-0.061-0.4-0.093-0.597C372.597,148.633,372.709,148.658,372.816,148.678z M372.989,149.881
				c0.227,0.051,0.509,0.115,0.522,0.225h0.01c0.029,0.23,0.059,0.465,0.084,0.7c-0.11-0.04-0.225-0.073-0.333-0.101
				c-0.214-0.055-0.474-0.125-0.519-0.225c-0.028-0.23-0.059-0.46-0.089-0.686C372.773,149.83,372.884,149.857,372.989,149.881z
				 M373.151,151.171c0.212,0.055,0.503,0.132,0.513,0.234h0.008c0.023,0.228,0.047,0.456,0.068,0.687
				c-0.111-0.041-0.224-0.078-0.332-0.108c-0.218-0.062-0.484-0.137-0.513-0.245c-0.022-0.224-0.046-0.444-0.071-0.664
				C372.934,151.111,373.045,151.144,373.151,151.171z M372.844,167.65c0.098,0.061,0.199,0.118,0.297,0.168
				c0.207,0.107,0.463,0.24,0.449,0.352l0.01,0.001c-0.027,0.229-0.055,0.456-0.085,0.683c-0.098-0.064-0.199-0.125-0.297-0.178
				c-0.202-0.109-0.449-0.246-0.452-0.359C372.793,168.098,372.819,167.875,372.844,167.65z M372.986,169.1
				c0.192,0.104,0.455,0.246,0.439,0.348h0.008c-0.033,0.234-0.068,0.467-0.104,0.694c-0.097-0.067-0.198-0.13-0.295-0.187
				c-0.204-0.117-0.458-0.264-0.438-0.377l0,0c0.031-0.215,0.062-0.433,0.092-0.655C372.785,168.988,372.889,169.046,372.986,169.1z
				 M372.793,170.373c0.188,0.109,0.446,0.258,0.428,0.359l0.009,0.002c-0.04,0.232-0.083,0.461-0.126,0.688
				c-0.094-0.07-0.193-0.133-0.287-0.191c-0.195-0.119-0.434-0.268-0.432-0.38c0.039-0.216,0.078-0.435,0.114-0.66
				C372.596,170.258,372.697,170.317,372.793,170.373z M372.939,174.127c0.011,0.009,0.022,0.021,0.034,0.029
				c0.153,0.114,0.354,0.266,0.366,0.356c-0.086,0.245-0.176,0.479-0.27,0.699c-0.082-0.083-0.17-0.161-0.253-0.228
				c-0.044-0.038-0.091-0.076-0.136-0.115C372.771,174.631,372.857,174.385,372.939,174.127z M373.263,173.771
				c-0.058-0.043-0.12-0.089-0.177-0.138c0.07-0.244,0.137-0.496,0.201-0.752c0.012,0.007,0.022,0.017,0.033,0.025
				c0.176,0.117,0.414,0.278,0.4,0.38c-0.064,0.239-0.131,0.47-0.201,0.692C373.434,173.903,373.346,173.832,373.263,173.771z
				 M373.59,172.506c-0.061-0.041-0.124-0.086-0.185-0.131c0.057-0.251,0.111-0.506,0.163-0.764c0.015,0.01,0.029,0.021,0.045,0.03
				c0.182,0.11,0.426,0.261,0.418,0.363c-0.052,0.241-0.105,0.476-0.162,0.706C373.779,172.637,373.683,172.568,373.59,172.506z
				 M373.865,171.23c-0.066-0.041-0.135-0.084-0.199-0.129c0.045-0.25,0.088-0.502,0.129-0.758l0,0
				c0.016,0.009,0.032,0.021,0.047,0.029c0.188,0.109,0.447,0.258,0.428,0.359l0.009,0.002c-0.04,0.232-0.083,0.461-0.127,0.688
				C374.058,171.352,373.959,171.289,373.865,171.23z M374.082,169.955c-0.067-0.039-0.141-0.082-0.208-0.125
				c0.038-0.253,0.073-0.508,0.107-0.763c0.019,0.011,0.036,0.021,0.055,0.032c0.19,0.104,0.453,0.246,0.438,0.348h0.009
				c-0.033,0.234-0.068,0.467-0.104,0.694C374.281,170.074,374.18,170.012,374.082,169.955z M374.266,168.676
				c-0.072-0.04-0.148-0.083-0.22-0.128c0.03-0.254,0.06-0.508,0.087-0.763c0.019,0.011,0.037,0.023,0.057,0.033
				c0.206,0.107,0.463,0.24,0.449,0.352l0.01,0.001c-0.026,0.229-0.055,0.456-0.084,0.683
				C374.467,168.789,374.363,168.729,374.266,168.676z M374.41,167.391c-0.074-0.038-0.151-0.081-0.224-0.123
				c0.024-0.256,0.049-0.509,0.07-0.761v0.001c0.021,0.01,0.04,0.023,0.061,0.032c0.207,0.103,0.464,0.228,0.453,0.338h0.013
				c-0.021,0.23-0.045,0.458-0.068,0.686C374.615,167.5,374.51,167.442,374.41,167.391z M374.529,166.107
				c-0.076-0.038-0.156-0.08-0.23-0.123c0.02-0.259,0.039-0.518,0.057-0.772c0.016,0.007,0.033,0.019,0.05,0.025
				c0.29,0.134,0.479,0.231,0.468,0.358h0.018c-0.016,0.229-0.034,0.453-0.055,0.679
				C374.736,166.212,374.631,166.157,374.529,166.107z M374.607,164.8c-0.074-0.034-0.149-0.07-0.219-0.108
				c0.016-0.264,0.029-0.523,0.043-0.777l0,0c0.014,0.006,0.029,0.014,0.043,0.02c0.35,0.146,0.495,0.231,0.486,0.376h0.015
				c-0.011,0.221-0.026,0.441-0.04,0.661C374.826,164.905,374.712,164.848,374.607,164.8z M374.66,163.489
				c-0.076-0.032-0.143-0.063-0.204-0.093c0.012-0.249,0.021-0.492,0.03-0.73c0.026,0.012,0.053,0.027,0.08,0.038
				c0.207,0.093,0.467,0.208,0.459,0.312l0.014,0.002c-0.008,0.213-0.019,0.426-0.028,0.64
				C374.895,163.591,374.771,163.535,374.66,163.489z M374.761,162.264c-0.085-0.037-0.177-0.078-0.257-0.121
				c0.008-0.266,0.014-0.52,0.02-0.766l0,0c0.021,0.011,0.044,0.022,0.065,0.032c0.282,0.118,0.481,0.211,0.481,0.332h0.012
				c-0.007,0.224-0.014,0.446-0.021,0.671C374.963,162.357,374.859,162.307,374.761,162.264z M374.776,160.965
				c-0.083-0.035-0.167-0.072-0.243-0.111c0.004-0.27,0.008-0.52,0.01-0.756c0.023,0.01,0.049,0.023,0.072,0.033
				c0.227,0.09,0.483,0.192,0.483,0.315h0.007c-0.003,0.223-0.006,0.444-0.01,0.669C374.99,161.059,374.881,161.008,374.776,160.965
				z M374.795,159.683c-0.086-0.033-0.172-0.069-0.251-0.108c0-0.036,0.001-0.078,0.001-0.112c0-0.192-0.001-0.41-0.002-0.639
				c0.027,0.012,0.057,0.026,0.084,0.038c0.215,0.082,0.481,0.188,0.482,0.296l0.001,0.001c0,0.102,0.001,0.202,0.001,0.304
				c0,0.121-0.001,0.242-0.001,0.363C375.006,159.772,374.898,159.725,374.795,159.683z M375.193,149.411
				c-0.076-0.019-0.156-0.037-0.232-0.058c-0.033-0.23-0.067-0.461-0.104-0.689c0.019,0.004,0.039,0.01,0.057,0.014
				c0.228,0.041,0.512,0.094,0.529,0.205l0,0c0.033,0.203,0.063,0.41,0.094,0.618C375.422,149.465,375.305,149.436,375.193,149.411z
				 M375.002,148.203c-0.074-0.014-0.153-0.03-0.229-0.049c-0.04-0.23-0.082-0.458-0.125-0.685c0.02,0.002,0.04,0.008,0.061,0.011
				c0.211,0.033,0.499,0.078,0.525,0.178c0.039,0.204,0.075,0.412,0.111,0.623C375.231,148.249,375.113,148.225,375.002,148.203z
				 M374.781,147.004c-0.076-0.012-0.156-0.025-0.232-0.042c-0.053-0.25-0.109-0.496-0.168-0.739
				c0.011,0.002,0.02,0.005,0.029,0.006c0.223,0.038,0.521,0.089,0.562,0.19c0.05,0.213,0.098,0.428,0.145,0.647
				C375.005,147.041,374.89,147.021,374.781,147.004z M374.489,145.754c-0.071-0.012-0.154-0.026-0.235-0.045
				c-0.063-0.242-0.13-0.477-0.199-0.707c0,0,0.002,0,0.003,0c0.229,0.038,0.533,0.09,0.595,0.196
				c0.06,0.203,0.117,0.41,0.174,0.624C374.713,145.794,374.598,145.772,374.489,145.754z M374.496,143.345
				c-0.115-0.256-0.237-0.495-0.365-0.719l2.266-3.358c0.391,0.332,0.773,0.674,1.145,1.033L374.496,143.345z M369.338,133.371
				v0.002c0.026,0.255,0.02,0.509-0.014,0.756c-0.367,0.196-0.693,0.448-0.971,0.744c-0.252-0.407-0.416-0.861-0.467-1.348v-0.002
				c-0.078-0.742,0.111-1.473,0.514-2.097C368.923,131.953,369.26,132.629,369.338,133.371z M366.508,126.468
				c0.65,0.355,1.168,0.904,1.457,1.591c0.095,0.226,0.151,0.461,0.194,0.697c-0.13,0.261-0.224,0.536-0.289,0.818
				c-0.001-0.002-0.001-0.002-0.001-0.002c-0.34-0.565-0.815-1.019-1.379-1.336c-0.059-0.212-0.104-0.428-0.119-0.647
				C366.345,127.213,366.4,126.836,366.508,126.468z M365.781,128.472c0.688,0.259,1.273,0.726,1.654,1.361
				c0.131,0.217,0.234,0.448,0.311,0.686c-0.251,0.332-0.438,0.697-0.567,1.079c-0.399-0.261-0.743-0.596-0.994-1.014
				c-0.249-0.414-0.4-0.87-0.449-1.338C365.709,128.989,365.747,128.73,365.781,128.472z M366.938,132.141
				c0.031,0.045,0.057,0.095,0.086,0.142c-0.036,0.263-0.045,0.529-0.025,0.796c-0.091-0.071-0.18-0.143-0.279-0.206
				c-0.165-0.143-0.341-0.274-0.529-0.387l-0.227-0.136l-0.127,0.231c-0.049,0.093-0.095,0.189-0.137,0.284
				c-0.049-0.044-0.104-0.082-0.15-0.131c-0.121-0.126-0.228-0.262-0.326-0.403c-0.008-0.478-0.021-0.961-0.046-1.453
				c0.101,0.031,0.2,0.063,0.298,0.101C365.858,131.485,366.357,131.882,366.938,132.141z M365.002,126.023
				c0.162,0.183,0.295,0.385,0.41,0.595c-0.051,0.394-0.035,0.791,0.037,1.18c-0.049-0.018-0.096-0.041-0.146-0.057
				c-0.147-0.179-0.317-0.339-0.495-0.49c-0.09-0.549-0.195-1.109-0.325-1.682C364.67,125.703,364.846,125.849,365.002,126.023z
				 M365.228,135.894c0-0.755,0.007-1.523,0.007-2.306c0.335,0.699,0.527,1.479,0.527,2.306c0,2.955-2.394,5.353-5.352,5.353
				c-2.955,0-5.349-2.397-5.349-5.353c0-0.863,0.209-1.677,0.573-2.399c-0.023,0.712-0.039,1.518-0.039,2.399
				c0,2.656,2.16,4.818,4.814,4.818C363.066,140.712,365.228,138.55,365.228,135.894z M356.762,110.925
				c0.283-1.006,0.962-0.496,1.793,0.555c0.003,0.004,0.008,0.004,0.01,0.007c0.044,0.052,0.105,0.088,0.18,0.088
				c0.012,0,0.023-0.005,0.036-0.008c-0.771,1.618-1.128,4.054-0.89,6.609c-0.006-0.001-0.01-0.001-0.015-0.001
				C357.407,116.412,356.384,112.264,356.762,110.925z M356.091,122.336c0-0.033,0.011-0.062,0.019-0.093
				c-0.002-0.004-0.004-0.006-0.006-0.012c0.066-0.365,0.471-1.104,0.797-1.384c0.434-0.375,0.896-0.335,1.076-0.045
				c0.191,0.308,0.102,0.694-0.461,0.92c-0.459,0.185-0.541,0.602-0.729,0.83c-0.069,0.1-0.179,0.169-0.311,0.169
				c-0.042,0-0.079-0.011-0.116-0.023c-0.002,0-0.002,0-0.002,0l0,0C356.203,122.647,356.091,122.507,356.091,122.336z
				 M349.695,125.088l4.579-2.717l0.003-0.032c0.38-0.869,1.078-1.639,1.525-2.074c0.349-0.293,0.881-0.771,1.395-1.344
				c-0.775,2.089-1.607,4.125-2.67,4.64c-0.973,0.471-3.227,1.387-3.742,1.595c-0.001,0-0.003,0-0.003,0
				c-0.38,0.147-1.018,0.349-1.374,0.211C349.482,125.258,349.574,125.158,349.695,125.088z M349.517,126.309
				c0.435,0.038,0.958-0.061,1.592-0.307c0.233-0.09,0.35-0.353,0.259-0.586c-0.063-0.164-0.213-0.264-0.375-0.282
				c0.729-0.047,1.181,0.693,0.822,1.287c0,0,0.749,0.865,2.746-0.421c2.295-1.479,6.744,0.486,8.184-3.97
				c-0.396-0.073-1.216-1.179,0.223-2.526c1.416-1.326,2.017-2.927,2.201-3.514c0.021-0.038,0.043-0.072,0.064-0.11
				c0.313,0.362,0.529,0.945,0.529,1.672c0,0.487-0.094,1.034-0.314,1.606c-0.328,0.852-0.777,1.305-1.213,1.742
				c-0.418,0.419-0.85,0.853-1.145,1.6l-0.035,0.089l0.016,0.039c1.165,5.5,0.023,9.265-5.018,13.547
				c-1.636-1.619-1.844-4.311-1.779-5.647l0.021-0.208c0.48,0.062,0.965,0.103,1.427,0.11l0.009-0.481
				c-2.399-0.039-5.51-1.041-5.542-1.05c-2.279-0.268-2.589-0.626-2.669-0.984c0.83,0.205,1.723,0.194,3.106-0.023l-0.075-0.477
				c-1.479,0.232-2.354,0.219-3.199-0.049c-0.003-0.003-0.006-0.006-0.008-0.009C349.123,127.014,349.278,126.527,349.517,126.309z
				 M335.762,140.282c0.016-0.026,0.007-0.06-0.019-0.075c-0.024-0.017-0.058-0.01-0.075,0.015
				c-0.002,0.002-0.002,0.003-0.003,0.003c-0.292,0.431-0.588,1.008-0.588,1.582c0,0.075,0.011,0.149,0.021,0.224l-0.113-0.114
				c-0.427-0.498-0.129-1.588,0.223-2.19c0.015-0.026,0.006-0.06-0.019-0.076c-0.026-0.015-0.06-0.008-0.076,0.017
				c-0.001,0.001-0.002,0.001-0.002,0.003c-0.292,0.43-0.589,1.008-0.589,1.583c0,0.075,0.01,0.148,0.021,0.222l-0.043-0.042
				c-0.449-0.45-0.298-1.423,0.359-2.314c3.666-4.933,8.673-8.646,14.307-10.784c0.179,0.325,0.582,0.597,1.547,0.809
				c-0.879,1.26-1.516,2.698-1.852,4.25c-0.213,0.243-0.479,0.485-0.781,0.654c-0.758,0.422-1.557,0.261-1.98-0.503
				c-0.403-0.724-0.221-1.525,0.514-1.934c0.355-0.199,0.729-0.289,1.166-0.292l-0.385-0.886c-0.436,0.096-0.869,0.221-1.266,0.441
				c-1.281,0.712-1.853,1.914-1.1,3.267c0.818,1.471,2.309,1.328,3.344,0.75c0.105-0.058,0.191-0.113,0.278-0.169
				c-0.037,0.375-0.062,0.755-0.062,1.139l-0.057,0.031c-3.604,1.934-6.747,4.74-9.096,8.268c-0.369,0.57-0.551,1.151-0.552,1.657
				l-0.011-0.01c-0.433-0.496-0.134-1.592,0.219-2.195c0.016-0.026,0.007-0.059-0.02-0.076c-0.024-0.017-0.058-0.009-0.074,0.017
				c-0.002,0-0.002,0.001-0.003,0.003c-0.292,0.43-0.588,1.007-0.588,1.581c0,0.076,0.01,0.15,0.021,0.225l-0.11-0.111
				c-0.432-0.496-0.133-1.59,0.22-2.195c0.015-0.026,0.006-0.06-0.019-0.075c-0.026-0.017-0.06-0.01-0.077,0.015
				c0,0.001-0.001,0.003-0.001,0.003c-0.292,0.43-0.589,1.008-0.589,1.582c0,0.075,0.01,0.149,0.021,0.224l-0.111-0.111
				c-0.43-0.496-0.133-1.59,0.219-2.193c0.016-0.027,0.008-0.06-0.018-0.077c-0.025-0.015-0.059-0.008-0.076,0.017
				c-0.001,0.001-0.002,0.002-0.002,0.003c-0.293,0.43-0.588,1.008-0.588,1.582c0,0.075,0.01,0.149,0.021,0.224l-0.112-0.113
				c-0.43-0.496-0.131-1.589,0.221-2.193c0.016-0.025,0.007-0.059-0.018-0.075c-0.027-0.017-0.061-0.01-0.076,0.016
				c-0.002,0.001-0.002,0.002-0.002,0.003c-0.293,0.431-0.589,1.007-0.589,1.581c0,0.076,0.01,0.149,0.021,0.224l-0.111-0.112
				c-0.43-0.497-0.132-1.59,0.22-2.192c0.016-0.026,0.007-0.06-0.019-0.076c-0.025-0.016-0.059-0.009-0.076,0.016
				c0,0.001-0.001,0.002-0.002,0.003c-0.292,0.43-0.588,1.007-0.588,1.582c0,0.075,0.01,0.149,0.021,0.224l-0.113-0.113
				c-0.428-0.498-0.131-1.59,0.222-2.191c0.015-0.027,0.007-0.06-0.019-0.077c-0.026-0.016-0.06-0.008-0.076,0.017
				c-0.001,0-0.002,0.002-0.002,0.003c-0.292,0.43-0.588,1.008-0.588,1.582c0,0.075,0.01,0.148,0.021,0.223l-0.112-0.113
				C335.113,141.976,335.411,140.885,335.762,140.282z M333.186,154.826c-0.34-0.525-0.057-1.539,0.276-2.111
				c0.015-0.025,0.007-0.06-0.019-0.074c-0.025-0.018-0.059-0.01-0.076,0.015l-0.002,0.003c-0.292,0.432-0.588,1.008-0.588,1.582
				c0,0.078,0.011,0.156,0.021,0.234l-0.094-0.095c-0.462-0.484-0.156-1.606,0.201-2.22c0.016-0.026,0.008-0.06-0.018-0.076
				c-0.025-0.015-0.059-0.008-0.076,0.017c-0.002,0.002-0.002,0.002-0.002,0.003c-0.293,0.431-0.589,1.008-0.589,1.582
				c0,0.078,0.011,0.154,0.021,0.232l-0.095-0.096c-0.459-0.486-0.154-1.605,0.203-2.217c0.015-0.025,0.006-0.059-0.019-0.076
				c-0.026-0.016-0.06-0.009-0.076,0.018c0,0-0.002,0.001-0.002,0.002c-0.292,0.431-0.587,1.008-0.587,1.582
				c0,0.077,0.01,0.155,0.021,0.231l-0.099-0.098c-0.454-0.487-0.151-1.604,0.205-2.215c0.016-0.026,0.007-0.06-0.019-0.075
				s-0.059-0.01-0.075,0.016c-0.001,0.002-0.001,0.003-0.003,0.003c-0.292,0.431-0.588,1.008-0.588,1.583
				c0,0.077,0.01,0.154,0.021,0.23l-0.1-0.1c-0.451-0.488-0.148-1.603,0.207-2.212c0.016-0.026,0.007-0.06-0.018-0.076
				c-0.025-0.015-0.059-0.009-0.076,0.017c0,0.001-0.002,0.002-0.002,0.004c-0.293,0.43-0.588,1.008-0.588,1.582
				c0,0.076,0.01,0.152,0.021,0.229l-0.102-0.102c-0.449-0.489-0.146-1.6,0.209-2.209c0.016-0.025,0.008-0.059-0.019-0.075
				s-0.06-0.01-0.075,0.017c-0.002,0-0.002,0.002-0.003,0.002c-0.292,0.432-0.589,1.008-0.589,1.582c0,0.077,0.01,0.152,0.021,0.229
				l-0.103-0.103c-0.446-0.49-0.144-1.599,0.211-2.206c0.015-0.027,0.007-0.061-0.019-0.076s-0.059-0.009-0.076,0.016
				c0,0.002-0.002,0.003-0.002,0.004c-0.291,0.43-0.588,1.008-0.588,1.582c0,0.076,0.011,0.152,0.021,0.228l-0.104-0.104
				c-0.442-0.491-0.142-1.598,0.212-2.203c0.016-0.026,0.008-0.06-0.018-0.076c-0.025-0.016-0.059-0.008-0.076,0.017
				c-0.002,0-0.002,0.001-0.002,0.003c-0.293,0.43-0.589,1.008-0.589,1.582c0,0.075,0.011,0.15,0.022,0.224
				c-0.535-0.55-0.178-1.821,0.788-2.788c1.632-1.648,3.646-3.158,5.986-4.489l0.397,0.397c-0.872,0.476-1.637,0.946-2.266,1.402
				l0,0c-0.001,0-0.003,0.001-0.004,0.001c-0.015,0.012-0.023,0.028-0.023,0.046c0,0.011,0.004,0.021,0.01,0.031
				c0.017,0.025,0.05,0.033,0.076,0.017c0.011-0.007,1.119-0.674,2.377-1.328l0.396,0.396c-0.878,0.473-1.647,0.941-2.279,1.394
				c-0.024,0.018-0.03,0.051-0.015,0.076c0.018,0.025,0.051,0.033,0.076,0.019c0.012-0.007,1.125-0.671,2.387-1.318l0.396,0.396
				c-0.881,0.469-1.652,0.932-2.285,1.38c-0.001,0.001-0.003,0.001-0.004,0.003c-0.016,0.01-0.023,0.028-0.023,0.045
				c0,0.011,0.002,0.021,0.009,0.03c0.017,0.026,0.05,0.033,0.075,0.018c0.012-0.006,1.131-0.666,2.398-1.307l0.395,0.396
				c-0.885,0.465-1.66,0.926-2.298,1.373c-0.024,0.017-0.03,0.052-0.015,0.077s0.049,0.033,0.075,0.018
				c0.012-0.006,1.136-0.662,2.409-1.296l0.395,0.395c-0.887,0.46-1.664,0.917-2.305,1.36c0,0-0.002,0.001-0.004,0.001
				c-0.016,0.012-0.024,0.028-0.024,0.046c0,0.01,0.003,0.02,0.009,0.03c0.016,0.025,0.049,0.033,0.075,0.019
				c0.012-0.007,1.142-0.656,2.421-1.285l0.395,0.395c-0.893,0.456-1.674,0.909-2.316,1.349l0,0c0,0.002-0.002,0.002-0.003,0.003
				c-0.017,0.01-0.024,0.028-0.024,0.045c0,0.011,0.003,0.021,0.008,0.03c0.017,0.026,0.05,0.034,0.076,0.02
				c0.012-0.008,1.147-0.652,2.431-1.275l0.188,0.188l0.002-0.002c0.074,0.073,0.156,0.135,0.246,0.188
				c-0.912,0.458-1.711,0.915-2.367,1.357c-0.002,0.002-0.004,0.002-0.005,0.004c-0.015,0.01-0.024,0.027-0.024,0.047
				c0,0.01,0.003,0.02,0.01,0.028c0.015,0.026,0.048,0.034,0.074,0.019c0.014-0.006,1.239-0.695,2.585-1.333
				c0.395,0.129,0.879,0.102,1.392-0.078c-0.871,0.392-2.294,1.077-3.48,1.872c-0.024,0.016-0.031,0.049-0.016,0.076
				c0.016,0.025,0.048,0.033,0.074,0.02c0.023-0.014,2.263-1.253,4.033-1.942c0.006,0.166,0.011,0.331,0.018,0.495
				c-3.092,1.348-5.666,3.014-7.444,4.826C333.621,153.211,333.206,154.09,333.186,154.826z M342.201,156.371
				c-1.899,1.898-4.969,5.551-5.359,9.424c-0.564-1.086-0.85-2.186-0.85-3.66c0-1.154,0.164-2.539,0.477-4.326l0.088-0.499
				l-0.443,0.247c-2.283,1.274-3.194,2.021-3.785,2.901c0.195-1.34,0.727-2.757,1.602-4.234c0.947,0.625,2.21,0.316,3.535-0.892
				c0.541-0.467,1.134-0.919,1.76-1.354c-0.148,0.168-0.305,0.33-0.469,0.479c-0.023,0.021-0.024,0.055-0.006,0.078
				c0.019,0.021,0.053,0.026,0.076,0.009c0.002,0,0.003-0.002,0.005-0.004l0,0l0.001-0.002c0.398-0.292,0.749-0.631,1.037-0.993
				c0.134-0.087,0.266-0.175,0.402-0.26c0.156-0.102,0.316-0.185,0.477-0.256c-0.273,0.673-0.79,1.392-1.438,1.983
				c-0.021,0.021-0.023,0.054-0.005,0.077c0.019,0.022,0.052,0.027,0.076,0.01c0.002-0.001,0.003-0.003,0.005-0.005v0.002
				c0-0.002,0-0.002,0-0.002c0.83-0.609,1.438-1.398,1.703-2.193c0.141-0.043,0.277-0.07,0.411-0.088
				c-0.112,1.021-0.922,2.104-1.636,2.754c-0.021,0.021-0.023,0.055-0.005,0.078c0.019,0.021,0.053,0.027,0.076,0.009
				c0.001,0,0.003-0.002,0.005-0.003l0,0l0.002-0.002c1.079-0.794,1.76-1.865,1.838-2.855c0.091,0,0.182,0.005,0.269,0.018
				c0.19,1.081-0.651,2.418-1.628,3.312c-0.021,0.02-0.025,0.053-0.006,0.076c0.019,0.023,0.052,0.027,0.076,0.01
				c0.002-0.002,0.003-0.003,0.004-0.005v0.002c0.002-0.002,0.002-0.002,0.002-0.002c0.933-0.686,1.553-1.563,1.766-2.413
				c0.037,0.332,0.072,0.665,0.111,0.992c-0.281,0.646-0.781,1.33-1.398,1.895c-0.022,0.021-0.023,0.055-0.006,0.078
				c0.02,0.021,0.053,0.026,0.076,0.008c0.002-0.001,0.004-0.004,0.006-0.004l0,0c0.001-0.001,0.003-0.002,0.006-0.006
				c0.578-0.426,1.053-0.943,1.378-1.492c0.03,0.242,0.065,0.479,0.099,0.718L342.201,156.371z M360.411,181.653
				c-5.15-1.34-9.263-4.871-12.22-10.356c1.631,3.948,4.772,7.426,8.684,9.611c-3.861-1.881-7.021-5.139-9.411-9.742
				c-3.253-6.262-5.011-14.863-5.229-25.563c2.528-1.209,5.14-2.15,7.816-2.828c0.193-0.053,0.424-0.109,0.637-0.158
				c2.133,3.08,5.691,5.101,9.723,5.101c3.97,0,7.48-1.959,9.623-4.96c0.133,0.129,0.271,0.298,0.399,0.533
				c1.243,2.099,2.354,8.161,2.354,16.172c0,5.723-0.6,10.995-1.525,14.106C368.449,177.763,364.811,180.51,360.411,181.653z
				 M369.861,177.641c-0.119,0.026-0.24,0.043-0.364,0.043c-0.071,0-0.142-0.01-0.21-0.018c0.188-0.188,0.371-0.381,0.554-0.578
				c0.003,0.029,0.007,0.06,0.011,0.088C369.868,177.326,369.896,177.57,369.861,177.641z M363.921,180.926
				c2.874-1.6,5.331-3.899,7.084-6.572c-0.266,0.734-0.555,1.3-0.858,1.658l0.002,0.004
				C368.34,178.152,366.26,179.792,363.921,180.926z M370.357,177.449c-0.004-0.112-0.016-0.226-0.027-0.328
				c-0.024-0.205-0.051-0.436-0.004-0.571c0.082-0.095,0.164-0.192,0.245-0.29c0.075,0.103,0.163,0.197,0.241,0.28
				c0.082,0.088,0.229,0.245,0.242,0.313C370.836,177.107,370.604,177.311,370.357,177.449z M371.164,176.211
				c-0.178-0.189-0.32-0.354-0.272-0.439h-0.001c0.109-0.191,0.217-0.404,0.32-0.64c0.081,0.083,0.17,0.157,0.252,0.224
				c0.193,0.16,0.336,0.289,0.318,0.373c-0.131,0.263-0.269,0.502-0.413,0.717C371.303,176.359,371.229,176.281,371.164,176.211z
				 M371.406,177.449c-0.003-0.08-0.012-0.157-0.02-0.234l0,0c0.171-0.193,0.332-0.42,0.484-0.664
				c0.084,0.09,0.219,0.237,0.232,0.303C371.885,177.107,371.652,177.311,371.406,177.449z M372.213,176.211
				c-0.031-0.033-0.06-0.064-0.088-0.096c0.13-0.242,0.255-0.498,0.371-0.772c0.006,0.003,0.01,0.009,0.016,0.013
				c0.193,0.16,0.336,0.289,0.319,0.373c-0.132,0.263-0.269,0.502-0.413,0.717C372.352,176.359,372.277,176.281,372.213,176.211z
				 M372.454,177.449c-0.002-0.08-0.011-0.157-0.019-0.234c0.172-0.193,0.332-0.42,0.484-0.664c0.084,0.09,0.219,0.237,0.232,0.303
				C372.934,177.107,372.701,177.311,372.454,177.449z M373.466,176.445c-0.065-0.086-0.14-0.164-0.204-0.234
				c-0.031-0.033-0.059-0.064-0.088-0.096c0.131-0.242,0.255-0.498,0.371-0.772l0,0c0.005,0.003,0.01,0.009,0.015,0.013
				c0.194,0.16,0.337,0.289,0.319,0.373C373.748,175.991,373.61,176.23,373.466,176.445z M374.119,175.212
				c-0.082-0.083-0.171-0.161-0.252-0.228c-0.046-0.038-0.092-0.076-0.137-0.115c0.09-0.238,0.176-0.484,0.258-0.742
				c0.012,0.009,0.023,0.021,0.035,0.029c0.151,0.114,0.352,0.266,0.366,0.356C374.303,174.758,374.214,174.992,374.119,175.212z
				 M374.567,173.979c-0.085-0.075-0.173-0.146-0.256-0.208c-0.058-0.043-0.119-0.089-0.177-0.138c0.07-0.244,0.137-0.496,0.2-0.752
				c0.012,0.007,0.023,0.017,0.034,0.025c0.177,0.117,0.414,0.278,0.4,0.38C374.705,173.525,374.638,173.756,374.567,173.979z
				 M374.918,172.711c-0.091-0.074-0.186-0.143-0.279-0.205c-0.061-0.041-0.125-0.086-0.184-0.131
				c0.056-0.251,0.109-0.506,0.161-0.764c0.017,0.01,0.03,0.021,0.046,0.03c0.182,0.11,0.427,0.261,0.418,0.363
				C375.029,172.246,374.975,172.48,374.918,172.711z M375.199,171.422c-0.092-0.07-0.191-0.133-0.285-0.191
				c-0.066-0.041-0.135-0.084-0.199-0.129c0.045-0.25,0.088-0.504,0.13-0.758l0,0c0.015,0.009,0.03,0.021,0.046,0.029
				c0.188,0.109,0.446,0.258,0.428,0.359l0.01,0.002C375.286,170.967,375.244,171.195,375.199,171.422z M375.426,170.142
				c-0.096-0.067-0.197-0.13-0.294-0.187c-0.067-0.039-0.142-0.082-0.209-0.125c0.038-0.253,0.073-0.508,0.106-0.764v0.001
				c0.019,0.011,0.037,0.021,0.055,0.032c0.192,0.104,0.455,0.246,0.438,0.348h0.01
				C375.498,169.682,375.463,169.914,375.426,170.142z M375.613,168.854c-0.098-0.064-0.201-0.125-0.299-0.178
				c-0.073-0.04-0.148-0.083-0.221-0.128c0.031-0.254,0.061-0.508,0.088-0.763c0.018,0.011,0.038,0.023,0.057,0.033
				c0.205,0.107,0.463,0.24,0.449,0.352l0.01,0.001C375.67,168.4,375.642,168.627,375.613,168.854z M375.764,167.563
				c-0.1-0.063-0.205-0.121-0.305-0.173c-0.074-0.038-0.151-0.081-0.224-0.123c0.024-0.256,0.048-0.509,0.069-0.76
				c0.021,0.01,0.041,0.023,0.061,0.032c0.208,0.103,0.465,0.228,0.454,0.338h0.013
				C375.811,167.108,375.787,167.336,375.764,167.563z M375.886,166.274c-0.102-0.062-0.206-0.117-0.308-0.167
				c-0.076-0.038-0.156-0.08-0.23-0.123c0.02-0.259,0.038-0.518,0.056-0.772c0.018,0.007,0.034,0.019,0.051,0.025
				c0.29,0.134,0.478,0.231,0.468,0.358h0.018C375.923,165.824,375.904,166.049,375.886,166.274z M375.984,164.971
				c-0.109-0.065-0.223-0.123-0.328-0.171c-0.074-0.034-0.15-0.07-0.22-0.108c0.016-0.264,0.03-0.523,0.044-0.777
				c0.014,0.006,0.028,0.014,0.043,0.02c0.351,0.146,0.495,0.231,0.486,0.376h0.016C376.013,164.53,375.998,164.751,375.984,164.971
				z M376.059,163.657c-0.115-0.066-0.238-0.122-0.35-0.168c-0.076-0.032-0.143-0.063-0.203-0.093c0.01-0.249,0.02-0.492,0.028-0.73
				c0.026,0.012,0.054,0.027,0.08,0.038c0.208,0.093,0.468,0.208,0.46,0.312l0.014,0.002
				C376.079,163.23,376.07,163.443,376.059,163.657z M376.109,162.412c-0.099-0.055-0.201-0.105-0.301-0.148
				c-0.084-0.037-0.176-0.078-0.257-0.121c0.009-0.266,0.015-0.52,0.021-0.766c0.021,0.011,0.045,0.022,0.066,0.032
				c0.281,0.118,0.48,0.211,0.48,0.332h0.012C376.125,161.965,376.118,162.188,376.109,162.412z M376.145,161.115
				c-0.105-0.057-0.216-0.107-0.32-0.15c-0.082-0.035-0.166-0.072-0.242-0.111c0.005-0.27,0.008-0.52,0.009-0.756
				c0.024,0.01,0.049,0.023,0.073,0.033c0.227,0.09,0.482,0.192,0.482,0.315h0.008C376.151,160.669,376.148,160.891,376.145,161.115
				z M376.158,159.825c-0.104-0.053-0.211-0.101-0.314-0.143c-0.086-0.033-0.172-0.069-0.25-0.108c0-0.036,0-0.078,0-0.112
				c0-0.192,0-0.41-0.003-0.639c0.028,0.012,0.058,0.026,0.085,0.038c0.215,0.082,0.482,0.188,0.482,0.296l0.002,0.001
				c0,0.102,0,0.202,0,0.304C376.16,159.583,376.16,159.704,376.158,159.825z M376.596,162.281c0.037-1.131,0.047-2.107,0.047-2.819
				c0-3.066-0.18-10.97-1.879-15.468c1.293,0.47,2.568,1.001,3.822,1.601C378.458,151.906,377.787,157.479,376.596,162.281z
				 M388.492,160.458c-0.59-0.88-1.502-1.627-3.785-2.901l-0.441-0.247l0.087,0.499c0.312,1.787,0.476,3.172,0.476,4.326
				c0,1.475-0.283,2.574-0.849,3.66c-0.391-3.873-3.459-7.525-5.358-9.424l-0.33-0.386c0.033-0.239,0.062-0.479,0.095-0.72
				c0.325,0.547,0.8,1.064,1.378,1.49c0.002,0.004,0.004,0.005,0.006,0.006c-0.001,0,0,0-0.001,0c0.003,0,0.003,0.003,0.005,0.004
				c0.025,0.019,0.059,0.014,0.076-0.008c0.02-0.023,0.018-0.058-0.004-0.078c-0.617-0.562-1.116-1.247-1.398-1.891
				c0.039-0.326,0.076-0.656,0.113-0.986c0.215,0.846,0.834,1.721,1.763,2.402c0,0,0.001,0.001,0.001,0.003v-0.002
				c0.002,0.002,0.004,0.003,0.006,0.005c0.023,0.018,0.057,0.014,0.076-0.01c0.018-0.023,0.017-0.057-0.006-0.076
				c-0.979-0.895-1.82-2.231-1.629-3.312c0.088-0.013,0.178-0.018,0.27-0.018c0.078,0.99,0.758,2.062,1.838,2.855
				c0,0,0,0.002,0.001,0.002l0,0c0.002,0.001,0.003,0.003,0.005,0.003c0.024,0.019,0.058,0.014,0.076-0.009
				c0.019-0.023,0.016-0.057-0.006-0.078c-0.711-0.65-1.521-1.732-1.635-2.754c0.135,0.017,0.271,0.045,0.41,0.086
				c0.267,0.797,0.873,1.586,1.704,2.195c0.001,0,0.001,0,0.001,0l0,0c0.002,0.002,0.004,0.004,0.005,0.005
				c0.023,0.018,0.058,0.013,0.076-0.01c0.019-0.023,0.017-0.057-0.006-0.077c-0.647-0.592-1.165-1.311-1.438-1.983
				c0.159,0.069,0.317,0.153,0.474,0.253c0.139,0.086,0.271,0.176,0.407,0.264c0.287,0.361,0.638,0.7,1.035,0.992l0.001,0.002l0,0
				c0.002,0.002,0.003,0.004,0.005,0.004c0.024,0.018,0.058,0.014,0.076-0.009c0.019-0.023,0.017-0.058-0.005-0.078
				c-0.164-0.149-0.32-0.312-0.469-0.479c0.627,0.437,1.221,0.89,1.766,1.357c1.319,1.205,2.581,1.513,3.529,0.888
				C387.768,157.701,388.298,159.118,388.492,160.458z M391.904,150.588l-0.006,0.006c0.014-0.084,0.024-0.168,0.024-0.253
				c0-0.576-0.292-1.144-0.579-1.567c0-0.002-0.002-0.003-0.002-0.003c-0.017-0.024-0.051-0.032-0.076-0.017
				c-0.025,0.017-0.033,0.05-0.019,0.076c0.354,0.605,0.655,1.712,0.212,2.203l-0.115,0.116c0.013-0.085,0.024-0.169,0.024-0.254
				c0-0.576-0.292-1.144-0.58-1.567c-0.001-0.001-0.001-0.002-0.003-0.004c-0.016-0.024-0.049-0.031-0.075-0.016
				s-0.034,0.049-0.019,0.076c0.354,0.607,0.656,1.716,0.211,2.206l-0.114,0.114c0.013-0.084,0.024-0.169,0.024-0.254
				c0-0.576-0.292-1.144-0.58-1.568l-0.002-0.002c-0.016-0.025-0.051-0.033-0.076-0.017c-0.024,0.017-0.033,0.05-0.018,0.075
				c0.355,0.609,0.657,1.72,0.209,2.209l-0.113,0.113c0.014-0.084,0.025-0.171,0.025-0.256c0-0.576-0.293-1.144-0.58-1.566
				c-0.002-0.002-0.002-0.003-0.003-0.004c-0.017-0.025-0.05-0.031-0.075-0.017c-0.025,0.017-0.034,0.05-0.019,0.076
				c0.356,0.609,0.659,1.724,0.206,2.212l-0.111,0.111c0.015-0.086,0.025-0.172,0.025-0.258c0-0.576-0.291-1.143-0.579-1.567
				c0,0-0.002-0.001-0.002-0.003c-0.017-0.025-0.05-0.031-0.076-0.016c-0.024,0.016-0.033,0.049-0.019,0.075
				c0.356,0.61,0.661,1.728,0.205,2.215l-0.108,0.109c0.013-0.087,0.024-0.173,0.024-0.257c0-0.576-0.292-1.145-0.58-1.568
				c0-0.001,0-0.002-0.002-0.002c-0.018-0.025-0.051-0.033-0.076-0.018c-0.025,0.018-0.033,0.051-0.018,0.076
				c0.356,0.611,0.661,1.73,0.203,2.217l-0.107,0.107c0.014-0.086,0.024-0.172,0.024-0.258c0-0.576-0.292-1.145-0.579-1.568
				c0-0.001-0.002-0.001-0.002-0.003c-0.017-0.024-0.051-0.031-0.076-0.017c-0.025,0.017-0.033,0.05-0.019,0.076
				c0.356,0.613,0.663,1.735,0.2,2.22l-0.105,0.106c0.015-0.086,0.026-0.174,0.026-0.261c0-0.575-0.292-1.142-0.58-1.567
				c-0.001,0-0.001-0.002-0.003-0.003c-0.016-0.024-0.049-0.032-0.075-0.015c-0.026,0.016-0.034,0.049-0.019,0.074
				c0.335,0.572,0.617,1.586,0.277,2.111c-0.021-0.736-0.438-1.617-1.186-2.365c-1.777-1.811-4.352-3.479-7.443-4.824
				c0.008-0.165,0.014-0.329,0.021-0.495c1.77,0.691,4.009,1.929,4.032,1.942c0.025,0.014,0.059,0.006,0.074-0.02
				c0.016-0.027,0.008-0.061-0.017-0.076c-1.187-0.795-2.61-1.481-3.481-1.872c0.513,0.18,0.998,0.208,1.393,0.078
				c1.346,0.638,2.572,1.327,2.586,1.333c0.025,0.016,0.059,0.008,0.074-0.019c0.006-0.009,0.009-0.019,0.009-0.028
				c0-0.02-0.009-0.037-0.024-0.047c-0.002-0.002-0.003-0.002-0.004-0.004c-0.656-0.443-1.456-0.899-2.367-1.357
				c0.088-0.053,0.171-0.115,0.244-0.188l0,0l0.003,0.002l0.189-0.188c1.282,0.623,2.419,1.267,2.431,1.275
				c0.026,0.014,0.059,0.006,0.074-0.02c0.007-0.008,0.01-0.019,0.01-0.03c0-0.017-0.01-0.035-0.024-0.045
				c-0.001-0.001-0.003-0.001-0.005-0.003l0,0c-0.641-0.44-1.423-0.893-2.314-1.349l0.395-0.395c1.278,0.629,2.408,1.278,2.42,1.285
				c0.026,0.015,0.06,0.006,0.076-0.019c0.005-0.01,0.008-0.02,0.008-0.03c0-0.018-0.008-0.035-0.023-0.046
				c-0.001,0-0.004-0.001-0.004-0.001c-0.641-0.443-1.418-0.9-2.306-1.36l0.396-0.395c1.271,0.635,2.397,1.29,2.409,1.296
				c0.026,0.015,0.058,0.007,0.075-0.018c0.016-0.025,0.01-0.059-0.016-0.077c-0.637-0.446-1.414-0.908-2.299-1.373l0.396-0.396
				c1.268,0.641,2.387,1.3,2.398,1.307c0.026,0.015,0.06,0.008,0.075-0.018c0.006-0.009,0.01-0.02,0.01-0.03
				c0-0.017-0.009-0.035-0.023-0.045c-0.002-0.002-0.004-0.002-0.006-0.003c-0.632-0.448-1.402-0.912-2.283-1.38l0.395-0.396
				c1.264,0.647,2.377,1.312,2.389,1.318c0.025,0.015,0.059,0.006,0.075-0.019s0.01-0.058-0.015-0.076
				c-0.631-0.452-1.401-0.92-2.279-1.394l0.396-0.396c1.258,0.653,2.365,1.321,2.377,1.328c0.025,0.017,0.059,0.008,0.074-0.017
				c0.008-0.01,0.011-0.02,0.011-0.031c0-0.018-0.009-0.034-0.023-0.046c-0.001,0-0.003-0.001-0.003-0.001l0,0
				c-0.629-0.457-1.395-0.926-2.267-1.402l0.397-0.397c2.34,1.332,4.355,2.841,5.986,4.489
				C392.092,148.762,392.451,150.042,391.904,150.588z M362.943,121.429c0,0,0.002,0.001,0.003,0.001
				c0.267-0.395,0.562-0.705,0.837-0.982c0.406-0.409,0.79-0.794,1.068-1.52c0.156-0.406,0.232-0.804,0.254-1.193
				c-0.379,0.701-0.922,1.501-1.704,2.232c-0.397,0.374-0.614,0.75-0.614,1.067c0,0.018,0.002,0.036,0.002,0.054
				C362.807,121.296,362.913,121.409,362.943,121.429z"/>
			<path d="M340.843,138.614c-1.208-1.06-2.229,0.843-2.772,0.368c-0.292-0.255,0.017-0.646,0.213-0.872
				c0.223-0.254,0.498-0.471,0.805-0.609l-0.641-0.663c-0.273,0.158-0.6,0.433-0.88,0.754c-0.587,0.672-1.056,1.652-0.25,2.357
				c1.219,1.065,2.211-0.862,2.835-0.315c0.268,0.235,0.09,0.554-0.156,0.836c-0.324,0.37-0.701,0.608-1.027,0.729l0.672,0.724
				c0.355-0.214,0.744-0.561,1.017-0.873C341.308,140.308,341.711,139.372,340.843,138.614z"/>
			<path d="M342.684,137.536l1.295-1.054l0.857,0.526l1.008-0.82l-4.139-2.367l-1.128,0.918l1.501,4.517l0.934-0.762
				L342.684,137.536z M341.711,135l0.01-0.008l1.51,1.016l-0.865,0.704L341.711,135z"/>
			<path d="M378.766,133.552l-4.088,2.439l0.945,0.749l0.863-0.526l1.311,1.036l-0.331,0.951l1.02,0.807l1.419-4.552
				L378.766,133.552z M378.099,136.416l-0.874-0.692l1.529-1.008l0.01,0.008L378.099,136.416z"/>
		</g>
	</g>
</g>
<g>
	<path fill="#E30613" d="M204.873,122.81c0.432,0.234,1.036,0.414,1.729,0.414c0.531,0,1.036-0.108,1.036-0.612
		c0-1.17-2.971-0.432-2.971-2.719c0-1.513,1.477-1.927,2.737-1.927c0.604,0,1.197,0.09,1.621,0.234l-0.108,1.296
		c-0.432-0.198-0.918-0.288-1.396-0.288c-0.423,0-1.125,0.036-1.125,0.585c0,1.018,2.971,0.333,2.971,2.602
		c0,1.629-1.369,2.07-2.764,2.07c-0.585,0-1.314-0.09-1.873-0.27L204.873,122.81z"/>
	<path fill="#E30613" d="M212.361,122.485c0.09,0.648,0.585,0.9,1.377,0.9c0.441,0,0.945-0.099,1.432-0.36v1.144
		c-0.522,0.207-1.117,0.297-1.72,0.297c-1.548,0-2.728-0.909-2.728-2.458s1.053-2.449,2.512-2.449c1.737,0,2.368,1.233,2.368,2.629
		v0.297H212.361z M214.144,121.567c0-0.54-0.252-0.981-0.9-0.981c-0.585,0-0.864,0.441-0.9,0.981H214.144z"/>
	<path fill="#E30613" d="M217.122,117.606h1.62v4.033h0.018l1.351-1.972h1.773l-1.629,2.152l1.765,2.539h-1.963l-1.296-2.323h-0.018
		v2.323h-1.62V117.606z"/>
	<path fill="#E30613" d="M222.882,119.667h0.955v-1.053l1.593-0.495v1.548h1.134v1.134h-1.134v1.729
		c0,0.567,0.135,0.855,0.648,0.855c0.162,0,0.333-0.036,0.495-0.063l0.054,1.053c-0.306,0.036-0.612,0.09-1.017,0.09
		c-1.45,0-1.801-0.639-1.801-1.755v-1.909h-0.927V119.667z"/>
	<path fill="#E30613" d="M229.776,118.902h-1.62v-1.188h1.62V118.902z M228.156,119.667h1.62v4.69h-1.62V119.667z"/>
	<path fill="#E30613" d="M231.423,122.017c0-1.557,1.179-2.458,2.728-2.458s2.728,0.9,2.728,2.458c0,1.548-1.18,2.449-2.728,2.449
		S231.423,123.565,231.423,122.017z M235.204,122.017c0-0.702-0.306-1.323-1.053-1.323s-1.053,0.621-1.053,1.323
		c0,0.693,0.306,1.314,1.053,1.314S235.204,122.71,235.204,122.017z"/>
	<path fill="#E30613" d="M238.335,119.667h1.476v0.864h0.018c0.324-0.675,0.972-0.972,1.71-0.972c1.278,0,1.792,0.9,1.792,1.873
		v2.926h-1.62v-2.269c0-0.882-0.306-1.18-0.748-1.18c-0.666,0-1.008,0.459-1.008,1.468v1.98h-1.62V119.667z"/>
	<path fill="#E30613" d="M248.433,118.074h1.999c1.917,0,2.817,0.648,2.817,2.062c0,1.27-0.927,2.025-2.494,2.025h-0.647v2.197
		h-1.675V118.074z M250.107,120.973h0.432c0.576,0,1.035-0.207,1.035-0.864c0-0.639-0.459-0.846-1.035-0.846h-0.432V120.973z"/>
	<path fill="#E30613" d="M256.425,118.902h-1.62v-1.188h1.62V118.902z M254.805,119.667h1.62v4.69h-1.62V119.667z"/>
	<path fill="#E30613" d="M258.486,117.606h1.62v6.752h-1.62V117.606z"/>
	<path fill="#E30613" d="M265.048,124.358c-0.009-0.252-0.036-0.495-0.036-0.738h-0.018c-0.369,0.585-0.819,0.846-1.486,0.846
		c-0.927,0-1.755-0.459-1.755-1.477c0-1.431,1.558-1.602,2.422-1.602c0.261,0,0.549,0.027,0.756,0.063
		c-0.009-0.639-0.486-0.811-1.071-0.811c-0.522,0-1.044,0.099-1.494,0.351l-0.027-1.098c0.576-0.234,1.18-0.333,1.873-0.333
		c1.197,0,2.232,0.513,2.232,1.944v1.747c0,0.369,0.018,0.738,0.09,1.107H265.048z M263.932,123.386
		c0.612,0,0.999-0.558,0.999-1.107c-0.207-0.009-0.441-0.027-0.685-0.027c-0.549,0-0.98,0.171-0.98,0.621
		C263.266,123.197,263.554,123.386,263.932,123.386z"/>
	<path fill="#E30613" d="M267.737,119.667h0.954v-1.053l1.594-0.495v1.548h1.135v1.134h-1.135v1.729
		c0,0.567,0.135,0.855,0.648,0.855c0.162,0,0.333-0.036,0.495-0.063l0.054,1.053c-0.306,0.036-0.612,0.09-1.018,0.09
		c-1.449,0-1.8-0.639-1.8-1.755v-1.909h-0.928V119.667z"/>
	<path fill="#E30613" d="M277.819,124.358h-1.477v-0.864h-0.019c-0.324,0.675-0.972,0.972-1.71,0.972
		c-1.278,0-1.792-0.9-1.792-1.873v-2.926h1.621v2.269c0,0.882,0.306,1.18,0.747,1.18c0.666,0,1.008-0.459,1.008-1.468v-1.98h1.621
		V124.358z"/>
	<path fill="#E30613" d="M279.41,123.062c0.378,0.162,0.937,0.324,1.521,0.324c0.333,0,0.657-0.054,0.657-0.378
		c0-0.792-2.305-0.234-2.305-1.926c0-1.081,1.062-1.521,1.999-1.521c0.558,0,1.125,0.063,1.647,0.27l-0.126,1.125
		c-0.343-0.207-0.855-0.315-1.261-0.315c-0.352,0-0.747,0.063-0.747,0.324c0,0.729,2.412,0.153,2.412,1.936
		c0,1.251-1.125,1.566-2.188,1.566c-0.729,0-1.225-0.072-1.701-0.225L279.41,123.062z"/>
</g>
</svg>
